<?xml version="1.0" encoding="utf-8"?>
<!-- Generator: Adobe Illustrator 16.0.0, SVG Export Plug-In . SVG Version: 6.00 Build 0)  -->
<!DOCTYPE svg PUBLIC "-//W3C//DTD SVG 1.1//EN" "http://www.w3.org/Graphics/SVG/1.1/DTD/svg11.dtd">
<svg version="1.1" id="Layer_1" xmlns="http://www.w3.org/2000/svg" xmlns:xlink="http://www.w3.org/1999/xlink" x="0px" y="0px"
	 width="188.66px" height="37.114px" viewBox="0 0 188.66 37.114" enable-background="new 0 0 188.66 37.114" xml:space="preserve">
<g>
	<g>
		<g>
			<path fill="#FFFFFF" d="M4.314,18.917c0-3.322,1.201-6.366,3.193-8.719L6.441,9.135c-2.259,2.628-3.627,6.044-3.627,9.782
				c0,3.735,1.368,7.154,3.627,9.779l1.066-1.062C5.515,25.281,4.314,22.24,4.314,18.917z"/>
			<path fill="#FFFFFF" d="M17.814,5.417c3.322,0,6.363,1.201,8.716,3.194l1.066-1.063c-2.628-2.265-6.047-3.63-9.782-3.63
				c-3.738,0-7.154,1.365-9.782,3.63l1.066,1.063C11.448,6.619,14.492,5.417,17.814,5.417z"/>
			<path fill="#FFFFFF" d="M31.314,18.917c0,3.322-1.201,6.363-3.193,8.717l1.063,1.062c2.262-2.625,3.63-6.044,3.63-9.779
				c0-3.738-1.368-7.154-3.63-9.782l-1.063,1.063C30.113,12.551,31.314,15.595,31.314,18.917z"/>
			<path fill="#FFFFFF" d="M17.814,32.417c-3.322,0-6.366-1.201-8.716-3.19l-1.066,1.063c2.628,2.262,6.044,3.627,9.782,3.627
				c3.735,0,7.154-1.365,9.782-3.627l-1.066-1.063C24.177,31.216,21.136,32.417,17.814,32.417z"/>
		</g>
		<g>
			<path fill="#FFFFFF" d="M24.382,9.789l-0.753,1.304c2.388,1.776,3.935,4.62,3.935,7.825s-1.547,6.047-3.935,7.825l0.753,1.308
				c2.836-2.046,4.682-5.374,4.682-9.133C29.064,15.156,27.218,11.831,24.382,9.789z"/>
			<path fill="#FFFFFF" d="M17.814,28.667c-5.004,0-9.126-3.771-9.683-8.625H6.62c0.565,5.687,5.361,10.125,11.194,10.125
				c1.646,0,3.211-0.356,4.623-0.993l-0.756-1.306C20.495,28.38,19.188,28.667,17.814,28.667z"/>
			<path fill="#FFFFFF" d="M17.814,9.167c1.374,0,2.681,0.285,3.867,0.8l0.756-1.304c-1.412-0.639-2.977-0.996-4.623-0.996
				c-5.833,0-10.629,4.438-11.194,10.125h1.512C8.688,12.938,12.81,9.167,17.814,9.167z"/>
		</g>
		<g>
			<path fill="#FFFFFF" d="M11.852,19.597c-0.331-2.912,1.477-5.569,4.175-6.407l-0.17-1.515c-3.524,0.949-5.921,4.357-5.496,8.092
				c0.428,3.735,3.527,6.516,7.175,6.648L17.363,24.9C14.547,24.692,12.183,22.506,11.852,19.597z"/>
			<path fill="#FFFFFF" d="M18.262,12.935c2.818,0.208,5.18,2.391,5.514,5.303c0.331,2.909-1.479,5.569-4.178,6.407l0.173,1.512
				c3.524-0.949,5.921-4.354,5.493-8.089c-0.425-3.736-3.527-6.516-7.172-6.644L18.262,12.935z"/>
		</g>
	</g>
	<g>
		<path fill="#FFFFFF" d="M39.611,7.667h7.286c5.417,0,10.635,4.635,10.635,10.986c0,6.325-5.039,11.166-11.335,11.166h-6.586V7.667
			z M46.167,27.194c4.951,0,8.388-3.79,8.388-8.687c0-4.72-3.785-8.215-8.622-8.215h-3.527v16.902H46.167z"/>
		<path fill="#FFFFFF" d="M125.902,14.632h2.797l-5.598,15.188h-2.154l-4.08-11.866h-0.059L112.73,29.82h-2.156l-5.596-15.188h2.797
			l3.818,10.989h0.059l3.787-10.989h2.799l3.787,10.989h0.059L125.902,14.632z"/>
		<path fill="#FFFFFF" d="M141.344,20.989c0-2.276-0.932-4.257-3.529-4.257c-2.443,0-3.932,1.661-3.932,4.544v8.544h-2.619V7.667
			h2.619v8.742h0.059c0.787-1.369,2.475-2.127,4.168-2.127c2.945,0,5.857,1.604,5.857,5.713v9.824h-2.623V20.989z"/>
		<path fill="#FFFFFF" d="M161.746,26.872c-2.039,2.276-4.195,3.296-6.846,3.296c-5.391,0-8.279-3.908-8.279-7.96
			c0-4.31,3.09-7.925,7.842-7.925c4.693,0,7.957,3.583,7.957,8.947h-12.998c0.406,2.593,2.504,4.488,5.451,4.488
			c1.861,0,3.525-0.873,4.867-2.446L161.746,26.872z M159.449,21.074c-0.266-2.505-2.305-4.342-5.016-4.342
			c-3.207,0-4.752,2.271-5.012,4.342H159.449z"/>
		<path fill="#FFFFFF" d="M180.107,26.872c-2.039,2.276-4.195,3.296-6.85,3.296c-5.389,0-8.277-3.908-8.277-7.96
			c0-4.31,3.092-7.925,7.84-7.925c4.691,0,7.955,3.583,7.955,8.947h-12.994c0.404,2.593,2.506,4.488,5.447,4.488
			c1.865,0,3.527-0.873,4.869-2.446L180.107,26.872z M177.801,21.074c-0.26-2.505-2.299-4.342-5.01-4.342
			c-3.205,0-4.752,2.271-5.01,4.342H177.801z"/>
		<path fill="#FFFFFF" d="M74.287,29.82h-2.558v-2.175h-0.062c-1.312,1.664-3.07,2.493-5.183,2.493
			c-4.415,0-7.192-3.738-7.192-7.896c0-4.286,2.716-7.963,7.225-7.963c2.048,0,3.899,0.958,5.15,2.558h0.062v-2.206h2.558V29.82z
			 M61.912,22.052c0,2.938,1.729,5.719,4.925,5.719c3.296,0,5.019-2.654,5.019-5.689c0-3.003-1.887-5.435-5.048-5.435
			C63.831,16.647,61.912,19.237,61.912,22.052z"/>
		<path fill="#FFFFFF" d="M102.184,29.82h-2.555v-2.175h-0.068c-1.309,1.664-3.066,2.493-5.179,2.493
			c-4.412,0-7.195-3.738-7.195-7.896c0-4.286,2.719-7.963,7.228-7.963c2.047,0,3.899,0.958,5.147,2.558h0.068v-2.206h2.555V29.82z
			 M89.811,22.052c0,2.938,1.726,5.719,4.922,5.719c3.292,0,5.021-2.654,5.021-5.689c0-3.003-1.887-5.435-5.053-5.435
			C91.73,16.647,89.811,19.237,89.811,22.052z"/>
		<path fill="#FFFFFF" d="M82.387,29.82h-2.543V16.984h-2.669v-2.352h2.669V7.667h2.543v6.964h2.672v2.352h-2.672V29.82z"/>
		<path fill="#FFFFFF" d="M185.814,29.82h-2.543V7.667h2.543V29.82z"/>
	</g>
</g>
</svg>
