<?xml version="1.0" encoding="utf-8"?>
<!-- Generator: Adobe Illustrator 16.0.0, SVG Export Plug-In . SVG Version: 6.00 Build 0)  -->
<!DOCTYPE svg PUBLIC "-//W3C//DTD SVG 1.1//EN" "http://www.w3.org/Graphics/SVG/1.1/DTD/svg11.dtd">
<svg version="1.1" id="svg2" xmlns:svg="http://www.w3.org/2000/svg"
	 xmlns="http://www.w3.org/2000/svg" xmlns:xlink="http://www.w3.org/1999/xlink" x="0px" y="0px" width="921.26px"
	 height="200.551px" viewBox="0 0 921.26 200.551" enable-background="new 0 0 921.26 200.551" xml:space="preserve">
<g id="layer1" transform="translate(-400.50845,101.60621)">
	<g id="g3557" transform="translate(17.716538,17.750166)">
		<path id="path3435" fill="#FFFFFF" d="M683.289,60.915h39.438V-98.964h-39.438V60.915z"/>
		<path id="path3439" fill="#FFFFFF" d="M610.657-32.135c14.366,0,18.708,13.127,18.708,20.347c-0.026,0-38.718,0-38.739,0
			C590.627-22.004,597.727-32.135,610.657-32.135z M651.925,28.608c-6.312,2.141-15.874,5.084-28.037,5.084
			c-16.998,0-30.312-5.664-32.479-19.139h72.508c0.539-2.58,1.493-6.752,1.493-15.433c0-30.618-15.231-58.718-54.1-58.718
			c-37.754,0-57.852,29.607-57.852,62.771c0,38.246,26.736,60.121,64.06,60.121c23.472,0,33.836-5.504,40.257-7.675L651.925,28.608"
			/>
		<path id="path3443" fill="#FFFFFF" d="M1175.182-32.135c14.402,0,18.714,13.127,18.714,20.352c-0.025-0.011-38.729-0.011-38.738,0
			C1155.157-22.004,1162.246-32.135,1175.182-32.135z M1216.46,28.603c-6.312,2.146-15.873,5.095-28.026,5.095
			c-17.02,0-30.322-5.67-32.505-19.134h72.519c0.539-2.586,1.487-6.769,1.487-15.438c0-30.628-15.231-58.723-54.089-58.723
			c-37.749,0-57.862,29.597-57.862,62.765c0,38.241,26.777,60.117,64.081,60.117c23.445,0,33.82-5.494,40.252-7.671L1216.46,28.603"
			/>
		<path id="path3447" fill="#FFFFFF" d="M801.849,34.091c-12.765,0-21.155-12.624-21.155-32.151c0-15.563,5.623-32.173,21.3-32.173
			c15.128,0,20.491,17.216,20.491,32.001C822.484,21.389,814.322,34.091,801.849,34.091z M801.33,63.263
			c30.686,0,61.744-19.32,61.744-62.479c0-25.705-15.222-60.215-59.821-60.215c-45.912,0-62.656,33.447-62.656,62.174
			C740.597,38.786,765.628,63.263,801.33,63.263"/>
		<path id="path3449" fill="#FFFFFF" d="M880.477,60.864h39.438v-117.9h-39.438V60.864z"/>
		<path id="path3453" fill="#FFFFFF" d="M1042.33-89.117l0.057,32.054l-15.169,0.036v29.214l15.112,0.016v48.705
			c0,25.917,12.251,42.454,39.91,42.454c12.344,0,25.689-3.208,27.907-3.923c0.031-0.026-0.229-30.54-0.229-30.649
			c-1.265,0.425-8.711,1.965-13.604,1.965c-5.551,0-15.324-1.561-15.324-16.424v-42.144h25.414v-29.271c0,0-22.062,0-25.414,0
			c0-3.446,0-36.407,0-36.407L1042.33-89.117"/>
		<path id="path3457" fill="#FFFFFF" d="M951.057-89.117l0.057,32.054l-15.169,0.036v29.214l15.112,0.016v48.705
			c0,25.917,12.251,42.454,39.915,42.454c12.34,0,25.685-3.208,27.902-3.923c0.031-0.026-0.229-30.54-0.229-30.649
			c-1.264,0.425-8.711,1.965-13.599,1.965c-5.556,0-15.329-1.561-15.329-16.424v-42.144h25.42v-29.271c0,0-22.067,0-25.42,0
			c0-3.446,0-36.407,0-36.407L951.057-89.117"/>
		<path id="path3459" fill="#FFFFFF" d="M880.477-68.283h39.438v-30.628h-39.438V-68.283z"/>
		<path id="path3463" fill="#FFFFFF" d="M400.555,61.05l46.523-0.021c68.206,0,94.202-40.708,94.202-79.39
			c0-53.007-33.8-83.246-95.15-83.246c-16.864,0-35.443,0.746-45.621,1.86L400.555,61.05z M453.022,29.365
			c-5.26-0.113-10.728,0.296-13.495,0.058c0.016-0.011-0.233-98.249-0.073-98.271c2.902-0.306,8.038-0.575,14.014-0.575
			c23.166,0,46.829,15.164,46.829,49.892C500.297,20.264,470.057,29.738,453.022,29.365"/>
		<path id="path3467" fill="#96CB3C" d="M1242.694,41.621c0-12.049,9.769-21.813,21.817-21.813c12.044,0,21.823,9.765,21.823,21.813
			c0,12.055-9.779,21.823-21.823,21.823C1252.463,63.445,1242.694,53.676,1242.694,41.621"/>
	</g>
</g>
</svg>
