<?xml version="1.0" encoding="utf-8"?>
<!-- Generator: Adobe Illustrator 16.0.0, SVG Export Plug-In . SVG Version: 6.00 Build 0)  -->
<!DOCTYPE svg PUBLIC "-//W3C//DTD SVG 1.1//EN" "http://www.w3.org/Graphics/SVG/1.1/DTD/svg11.dtd">
<svg version="1.1" id="Layer_1" xmlns="http://www.w3.org/2000/svg" xmlns:xlink="http://www.w3.org/1999/xlink" x="0px" y="0px"
	 width="163.712px" height="33.814px" viewBox="0 0 163.712 33.814" enable-background="new 0 0 163.712 33.814"
	 xml:space="preserve">
<g id="layer1_4_" transform="translate(-400.50845,101.60621)">
	<g id="g3557_4_" transform="translate(17.716538,17.750166)">
		<path id="path3435_4_" fill="#FFFFFF" d="M435.429-87.961h7.167v-29.062h-7.167V-87.961z"/>
		<path id="path3439_4_" fill="#FFFFFF" d="M422.227-104.874c2.611,0,3.402,2.388,3.402,3.698c-0.006,0-7.04,0-7.043,0
			C418.585-103.031,419.875-104.874,422.227-104.874z M429.727-93.835c-1.149,0.39-2.886,0.927-5.095,0.927
			c-3.091,0-5.512-1.032-5.905-3.478h13.18c0.097-0.473,0.27-1.23,0.27-2.808c0-5.566-2.766-10.673-9.833-10.673
			c-6.861,0-10.515,5.383-10.515,11.408c0,6.952,4.86,10.931,11.644,10.931c4.269,0,6.149-1.002,7.318-1.397L429.727-93.835"/>
		<path id="path3443_4_" fill="#FFFFFF" d="M524.836-104.874c2.616,0,3.401,2.388,3.401,3.7c-0.007-0.002-7.04-0.002-7.044,0
			C521.193-103.031,522.482-104.874,524.836-104.874z M532.339-93.835c-1.148,0.39-2.886,0.927-5.095,0.927
			c-3.094,0-5.511-1.032-5.909-3.478h13.181c0.1-0.469,0.272-1.23,0.272-2.808c0-5.566-2.769-10.673-9.832-10.673
			c-6.862,0-10.519,5.383-10.519,11.408c0,6.952,4.867,10.928,11.648,10.928c4.261,0,6.147-0.999,7.316-1.395L532.339-93.835"/>
		<path id="path3447_4_" fill="#FFFFFF" d="M456.976-92.839c-2.32,0-3.844-2.294-3.844-5.842c0-2.83,1.023-5.847,3.871-5.847
			c2.75,0,3.725,3.128,3.725,5.816C460.727-95.144,459.242-92.839,456.976-92.839z M456.881-87.532
			c5.578,0,11.224-3.514,11.224-11.358c0-4.674-2.766-10.944-10.875-10.944c-8.344,0-11.389,6.077-11.389,11.302
			C445.842-91.983,450.393-87.532,456.881-87.532"/>
		<path id="path3449_4_" fill="#FFFFFF" d="M471.269-87.97h7.168v-21.432h-7.168V-87.97z"/>
		<path id="path3453_4_" fill="#FFFFFF" d="M500.685-115.233l0.013,5.827l-2.757,0.009v5.311h2.744v8.855
			c0,4.71,2.227,7.717,7.255,7.717c2.244,0,4.669-0.587,5.074-0.716c0.005-0.005-0.041-5.549-0.041-5.569
			c-0.231,0.075-1.585,0.354-2.476,0.354c-1.008,0-2.783-0.281-2.783-2.982v-7.659h4.619v-5.322c0,0-4.01,0-4.619,0
			c0-0.628,0-6.619,0-6.619L500.685-115.233"/>
		<path id="path3457_4_" fill="#FFFFFF" d="M484.099-115.233l0.009,5.827l-2.758,0.009v5.311h2.749v8.855
			c0,4.71,2.226,7.717,7.253,7.717c2.242,0,4.668-0.587,5.072-0.716c0.006-0.005-0.041-5.549-0.041-5.569
			c-0.232,0.075-1.586,0.354-2.473,0.354c-1.012,0-2.787-0.281-2.787-2.982v-7.659h4.621v-5.322c0,0-4.011,0-4.621,0
			c0-0.628,0-6.619,0-6.619L484.099-115.233"/>
		<path id="path3459_4_" fill="#FFFFFF" d="M471.269-111.445h7.168v-5.566h-7.168V-111.445z"/>
		<path id="path3463_4_" fill="#FFFFFF" d="M384.036-87.936l8.457-0.004c12.397,0,17.123-7.4,17.123-14.428
			c0-9.637-6.143-15.133-17.295-15.133c-3.064,0-6.442,0.135-8.291,0.337L384.036-87.936z M393.574-93.697
			c-0.957-0.021-1.951,0.057-2.452,0.012c0.001,0-0.044-17.859-0.015-17.862c0.527-0.055,1.462-0.103,2.547-0.103
			c4.21,0,8.513,2.754,8.513,9.067C402.167-95.35,396.669-93.628,393.574-93.697"/>
		<path id="path3467_4_" fill="#FFFFFF" d="M537.105-91.468c0-2.192,1.775-3.966,3.967-3.966c2.188,0,3.967,1.773,3.967,3.966
			c0,2.191-1.778,3.967-3.967,3.967C538.881-87.501,537.105-89.276,537.105-91.468"/>
	</g>
</g>
</svg>
