<?xml version="1.0" encoding="utf-8"?>
<!-- Generator: Adobe Illustrator 16.0.0, SVG Export Plug-In . SVG Version: 6.00 Build 0)  -->
<!DOCTYPE svg PUBLIC "-//W3C//DTD SVG 1.1//EN" "http://www.w3.org/Graphics/SVG/1.1/DTD/svg11.dtd">
<svg version="1.1" id="Layer_1" xmlns="http://www.w3.org/2000/svg" xmlns:xlink="http://www.w3.org/1999/xlink" x="0px" y="0px"
	 width="256px" height="35.464px" viewBox="0 0 256 35.464" enable-background="new 0 0 256 35.464" xml:space="preserve">
<g>
	<polygon fill="#FFFFFF" points="28.637,2.761 28.637,2.761 24.378,2.761 20.121,2.761 20.12,2.761 15.863,2.761 15.862,2.761 
		11.604,2.761 11.604,7.02 11.604,11.276 7.346,11.276 7.346,11.276 3.087,11.276 3.087,15.535 3.087,15.535 3.087,18.359 
		3.087,19.792 3.087,23.098 3.087,27.832 3.087,27.833 3.087,32.568 7.346,32.568 7.346,27.833 7.346,27.832 7.346,23.098 
		7.346,19.792 7.346,18.359 7.346,15.535 11.604,15.535 15.863,15.535 15.863,11.276 15.863,7.02 20.12,7.02 20.121,7.02 
		24.378,7.02 28.637,7.02 28.637,7.02 32.895,7.02 32.895,2.761 	"/>
	<polygon fill="#FFFFFF" points="20.121,19.792 24.378,19.792 28.637,19.792 28.637,19.792 32.895,19.792 32.895,15.535 
		28.637,15.535 28.637,15.535 24.378,15.535 20.121,15.535 20.12,15.535 15.862,15.535 15.862,18.327 15.862,19.792 15.862,24.052 
		15.862,28.309 15.862,28.312 15.862,32.568 20.12,32.568 20.121,32.568 24.378,32.568 28.637,32.568 28.637,32.568 32.895,32.568 
		32.895,28.309 28.637,28.309 28.637,28.309 24.378,28.309 20.121,28.309 20.121,24.052 	"/>
	<polygon fill="#FFFFFF" points="50.34,28.309 46.083,28.309 46.082,28.309 41.824,28.309 41.824,24.052 41.824,20.893 
		41.824,19.794 41.824,15.535 37.565,15.535 37.565,19.794 37.565,20.893 37.565,24.052 37.565,28.309 37.565,28.312 37.565,32.568 
		41.824,32.568 46.082,32.568 46.083,32.568 50.34,32.568 54.599,32.568 54.599,28.309 	"/>
	<polygon fill="#FFFFFF" points="63.116,11.276 58.856,11.276 58.856,7.02 58.856,2.761 54.599,2.761 54.598,2.761 50.34,2.761 
		46.083,2.761 46.082,2.761 41.824,2.761 37.565,2.761 37.565,7.02 41.824,7.02 46.082,7.02 46.083,7.02 50.34,7.02 54.598,7.02 
		54.598,11.276 54.598,15.535 58.856,15.535 63.116,15.535 63.116,18.658 63.116,19.792 63.116,23.296 63.116,27.933 63.116,27.933 
		63.116,32.568 67.374,32.568 67.374,27.933 67.374,27.933 67.374,23.296 67.374,19.792 67.374,18.658 67.374,15.535 67.374,15.535 
		67.374,11.276 	"/>
	<g enable-background="new    ">
		<path fill="#FFFFFF" d="M77.973,5.518V6.89h0.039c0.367-0.521,0.809-0.929,1.325-1.216c0.518-0.287,1.109-0.432,1.777-0.432
			c0.64,0,1.227,0.125,1.757,0.374c0.529,0.25,0.932,0.687,1.207,1.314c0.301-0.445,0.71-0.839,1.227-1.178
			c0.518-0.342,1.129-0.511,1.836-0.511c0.537,0,1.033,0.066,1.491,0.197c0.458,0.13,0.851,0.338,1.179,0.628
			c0.326,0.288,0.582,0.664,0.766,1.129c0.183,0.465,0.274,1.022,0.274,1.676v6.794h-2.788V9.915c0-0.339-0.014-0.663-0.039-0.963
			s-0.098-0.562-0.216-0.784s-0.291-0.398-0.521-0.53c-0.229-0.131-0.539-0.197-0.932-0.197s-0.711,0.077-0.953,0.228
			s-0.432,0.347-0.568,0.587c-0.138,0.245-0.229,0.518-0.275,0.827c-0.045,0.306-0.068,0.618-0.068,0.932v5.654h-2.787V9.974
			c0-0.302-0.008-0.599-0.021-0.893c-0.013-0.295-0.068-0.566-0.167-0.815c-0.098-0.249-0.262-0.448-0.49-0.599
			s-0.566-0.228-1.012-0.228c-0.13,0-0.303,0.03-0.52,0.091c-0.216,0.057-0.426,0.169-0.628,0.333
			c-0.203,0.164-0.376,0.399-0.521,0.705c-0.145,0.31-0.216,0.711-0.216,1.209v5.89h-2.787V5.518H77.973z"/>
		<path fill="#FFFFFF" d="M92.932,8.637c0.039-0.653,0.201-1.197,0.49-1.629c0.287-0.432,0.654-0.777,1.1-1.039
			c0.444-0.262,0.945-0.448,1.501-0.561c0.557-0.109,1.116-0.166,1.679-0.166c0.51,0,1.027,0.035,1.551,0.108
			c0.523,0.071,1,0.211,1.433,0.421c0.433,0.21,0.786,0.5,1.06,0.875c0.275,0.372,0.412,0.867,0.412,1.482v5.279
			c0,0.459,0.027,0.896,0.079,1.314c0.052,0.419,0.144,0.733,0.274,0.944h-2.826c-0.053-0.159-0.096-0.318-0.127-0.482
			c-0.033-0.163-0.057-0.33-0.069-0.5c-0.444,0.457-0.969,0.779-1.57,0.962c-0.603,0.184-1.218,0.274-1.845,0.274
			c-0.484,0-0.936-0.058-1.355-0.178c-0.418-0.118-0.785-0.301-1.099-0.55c-0.314-0.246-0.56-0.561-0.736-0.94
			s-0.265-0.831-0.265-1.356c0-0.575,0.101-1.05,0.304-1.422c0.203-0.374,0.465-0.669,0.785-0.894
			c0.321-0.222,0.687-0.389,1.099-0.5c0.412-0.112,0.828-0.2,1.247-0.266c0.419-0.064,0.831-0.117,1.237-0.156
			c0.405-0.041,0.766-0.098,1.079-0.177c0.314-0.08,0.562-0.193,0.745-0.344c0.184-0.151,0.27-0.37,0.256-0.657
			c0-0.3-0.049-0.541-0.146-0.716c-0.098-0.178-0.229-0.314-0.393-0.412c-0.164-0.099-0.354-0.164-0.57-0.197
			c-0.215-0.033-0.447-0.05-0.695-0.05c-0.551,0-0.982,0.118-1.297,0.353c-0.313,0.237-0.497,0.629-0.549,1.178H92.932z
			 M99.37,10.698c-0.117,0.107-0.265,0.187-0.441,0.246c-0.177,0.058-0.367,0.107-0.568,0.147c-0.203,0.04-0.416,0.071-0.639,0.098
			c-0.223,0.025-0.445,0.058-0.668,0.099c-0.209,0.038-0.415,0.09-0.618,0.156c-0.202,0.065-0.38,0.152-0.53,0.265
			s-0.271,0.252-0.363,0.421c-0.092,0.172-0.137,0.388-0.137,0.648c0,0.249,0.045,0.458,0.137,0.628
			c0.092,0.169,0.217,0.303,0.373,0.401c0.158,0.099,0.341,0.167,0.551,0.208c0.209,0.039,0.424,0.058,0.646,0.058
			c0.551,0,0.976-0.091,1.277-0.273c0.301-0.184,0.522-0.405,0.666-0.659c0.145-0.254,0.232-0.514,0.266-0.776
			c0.033-0.26,0.049-0.469,0.049-0.626V10.698z"/>
		<path fill="#FFFFFF" d="M109.167,7.341c-0.445,0-0.818,0.104-1.119,0.306c-0.302,0.203-0.547,0.465-0.736,0.785
			s-0.324,0.673-0.402,1.061c-0.079,0.385-0.117,0.768-0.117,1.148c0,0.366,0.038,0.737,0.117,1.118
			c0.078,0.38,0.206,0.721,0.383,1.031c0.177,0.306,0.415,0.56,0.716,0.754c0.302,0.197,0.668,0.295,1.101,0.295
			c0.666,0,1.18-0.186,1.54-0.56c0.36-0.373,0.585-0.873,0.677-1.501h2.689c-0.184,1.349-0.706,2.376-1.57,3.081
			c-0.863,0.708-1.97,1.062-3.317,1.062c-0.759,0-1.456-0.129-2.091-0.383c-0.635-0.255-1.174-0.613-1.619-1.07
			c-0.445-0.459-0.791-1.005-1.041-1.641c-0.248-0.634-0.373-1.331-0.373-2.089c0-0.787,0.115-1.515,0.344-2.189
			c0.229-0.675,0.566-1.258,1.012-1.747c0.445-0.492,0.988-0.875,1.629-1.148c0.641-0.276,1.374-0.412,2.199-0.412
			c0.602,0,1.18,0.08,1.736,0.234c0.557,0.159,1.053,0.396,1.492,0.717c0.438,0.323,0.795,0.722,1.07,1.197
			c0.274,0.479,0.432,1.044,0.471,1.697h-2.729C111.043,7.924,110.356,7.341,109.167,7.341z"/>
		<path fill="#FFFFFF" d="M118.235,5.518v1.884h0.039c0.131-0.314,0.307-0.604,0.529-0.875c0.223-0.267,0.479-0.495,0.766-0.687
			c0.289-0.188,0.596-0.336,0.924-0.439c0.326-0.106,0.666-0.158,1.02-0.158c0.184,0,0.387,0.032,0.609,0.098v2.592
			c-0.131-0.028-0.289-0.048-0.472-0.068c-0.183-0.022-0.359-0.031-0.53-0.031c-0.51,0-0.941,0.085-1.295,0.255
			c-0.354,0.172-0.639,0.402-0.854,0.697c-0.217,0.295-0.37,0.637-0.462,1.03c-0.091,0.394-0.138,0.818-0.138,1.277v4.575h-2.787
			V5.518H118.235z"/>
		<path fill="#FFFFFF" d="M122.926,8.394c0.248-0.662,0.602-1.225,1.061-1.689c0.457-0.465,1.007-0.826,1.648-1.081
			c0.641-0.254,1.361-0.382,2.16-0.382c0.797,0,1.521,0.128,2.167,0.382c0.648,0.255,1.201,0.615,1.658,1.081
			c0.459,0.464,0.812,1.027,1.061,1.689c0.25,0.659,0.373,1.397,0.373,2.207c0,0.812-0.123,1.544-0.373,2.197
			c-0.248,0.657-0.602,1.217-1.061,1.679c-0.457,0.464-1.01,0.823-1.658,1.072c-0.646,0.249-1.371,0.373-2.167,0.373
			c-0.799,0-1.52-0.124-2.16-0.373c-0.642-0.249-1.191-0.608-1.648-1.072c-0.459-0.462-0.812-1.022-1.061-1.679
			c-0.249-0.653-0.373-1.386-0.373-2.197C122.553,9.791,122.677,9.053,122.926,8.394z M125.458,11.789
			c0.079,0.387,0.212,0.733,0.402,1.039c0.189,0.31,0.442,0.556,0.755,0.735c0.314,0.188,0.707,0.276,1.18,0.276
			c0.471,0,0.865-0.089,1.187-0.276c0.321-0.18,0.577-0.425,0.766-0.735c0.189-0.306,0.322-0.652,0.402-1.039
			c0.078-0.385,0.117-0.781,0.117-1.188c0-0.405-0.039-0.805-0.117-1.198c-0.08-0.391-0.213-0.738-0.402-1.039
			s-0.445-0.546-0.766-0.736c-0.321-0.191-0.716-0.287-1.187-0.287c-0.473,0-0.865,0.096-1.18,0.287
			c-0.312,0.189-0.565,0.436-0.755,0.736c-0.19,0.3-0.323,0.648-0.402,1.039c-0.079,0.394-0.118,0.793-0.118,1.198
			C125.34,11.008,125.379,11.404,125.458,11.789z"/>
		<path fill="#FFFFFF" d="M145.166,7.341c-0.443,0-0.816,0.104-1.117,0.306c-0.303,0.203-0.547,0.465-0.736,0.785
			c-0.191,0.32-0.324,0.673-0.402,1.061c-0.08,0.385-0.119,0.768-0.119,1.148c0,0.366,0.039,0.737,0.119,1.118
			c0.078,0.38,0.205,0.721,0.381,1.031c0.178,0.306,0.416,0.56,0.717,0.754c0.303,0.197,0.668,0.295,1.1,0.295
			c0.668,0,1.182-0.186,1.541-0.56c0.361-0.373,0.586-0.873,0.678-1.501h2.689c-0.184,1.349-0.707,2.376-1.57,3.081
			c-0.865,0.708-1.971,1.062-3.318,1.062c-0.758,0-1.455-0.129-2.09-0.383c-0.635-0.255-1.176-0.613-1.619-1.07
			c-0.445-0.459-0.793-1.005-1.041-1.641c-0.248-0.634-0.373-1.331-0.373-2.089c0-0.787,0.115-1.515,0.344-2.189
			c0.229-0.675,0.566-1.258,1.01-1.747c0.445-0.492,0.99-0.875,1.631-1.148c0.641-0.276,1.373-0.412,2.199-0.412
			c0.602,0,1.18,0.08,1.736,0.234c0.557,0.159,1.053,0.396,1.492,0.717c0.438,0.323,0.795,0.722,1.068,1.197
			c0.275,0.479,0.434,1.044,0.473,1.697h-2.73C147.045,7.924,146.357,7.341,145.166,7.341z"/>
		<path fill="#FFFFFF" d="M151.645,8.394c0.248-0.662,0.602-1.225,1.061-1.689c0.457-0.465,1.006-0.826,1.648-1.081
			c0.641-0.254,1.361-0.382,2.16-0.382c0.797,0,1.521,0.128,2.168,0.382c0.648,0.255,1.201,0.615,1.658,1.081
			c0.459,0.464,0.812,1.027,1.061,1.689c0.248,0.659,0.373,1.397,0.373,2.207c0,0.812-0.125,1.544-0.373,2.197
			c-0.248,0.657-0.602,1.217-1.061,1.679c-0.457,0.464-1.01,0.823-1.658,1.072c-0.646,0.249-1.371,0.373-2.168,0.373
			c-0.799,0-1.52-0.124-2.16-0.373c-0.643-0.249-1.191-0.608-1.648-1.072c-0.459-0.462-0.812-1.022-1.061-1.679
			c-0.25-0.653-0.373-1.386-0.373-2.197C151.271,9.791,151.395,9.053,151.645,8.394z M154.176,11.789
			c0.08,0.387,0.213,0.733,0.404,1.039c0.188,0.31,0.441,0.556,0.754,0.735c0.314,0.188,0.707,0.276,1.18,0.276
			c0.471,0,0.865-0.089,1.186-0.276c0.322-0.18,0.576-0.425,0.766-0.735c0.191-0.306,0.324-0.652,0.402-1.039
			c0.08-0.385,0.119-0.781,0.119-1.188c0-0.405-0.039-0.805-0.119-1.198c-0.078-0.391-0.211-0.738-0.402-1.039
			c-0.189-0.3-0.443-0.546-0.766-0.736c-0.32-0.191-0.715-0.287-1.186-0.287c-0.473,0-0.865,0.096-1.18,0.287
			c-0.312,0.189-0.566,0.436-0.754,0.736c-0.191,0.3-0.324,0.648-0.404,1.039c-0.078,0.394-0.117,0.793-0.117,1.198
			C154.059,11.008,154.098,11.404,154.176,11.789z"/>
		<path fill="#FFFFFF" d="M166.229,5.518v1.413h0.061c0.352-0.59,0.811-1.02,1.373-1.287s1.139-0.401,1.729-0.401
			c0.744,0,1.357,0.101,1.834,0.303c0.479,0.206,0.855,0.486,1.129,0.845c0.275,0.361,0.469,0.799,0.58,1.315
			c0.111,0.517,0.166,1.091,0.166,1.717v6.245h-2.787V9.933c0-0.836-0.131-1.462-0.393-1.875c-0.262-0.411-0.727-0.618-1.395-0.618
			c-0.758,0-1.309,0.228-1.648,0.679c-0.34,0.45-0.51,1.195-0.51,2.228v5.321h-2.787V5.518H166.229z"/>
		<path fill="#FFFFFF" d="M177.869,5.518v1.413h0.061c0.352-0.59,0.811-1.02,1.373-1.287s1.139-0.401,1.727-0.401
			c0.746,0,1.357,0.101,1.836,0.303c0.479,0.206,0.855,0.486,1.129,0.845c0.275,0.361,0.469,0.799,0.58,1.315
			c0.111,0.517,0.166,1.091,0.166,1.717v6.245h-2.787V9.933c0-0.836-0.131-1.462-0.393-1.875c-0.262-0.411-0.727-0.618-1.395-0.618
			c-0.758,0-1.309,0.228-1.648,0.679c-0.34,0.45-0.51,1.195-0.51,2.228v5.321h-2.787V5.518H177.869z"/>
		<path fill="#FFFFFF" d="M189.844,13.231c0.42,0.407,1.021,0.609,1.807,0.609c0.562,0,1.047-0.14,1.453-0.421
			c0.404-0.281,0.654-0.58,0.744-0.895h2.455c-0.393,1.218-0.994,2.087-1.807,2.612c-0.811,0.522-1.793,0.786-2.943,0.786
			c-0.799,0-1.52-0.129-2.16-0.383c-0.641-0.255-1.184-0.619-1.629-1.089c-0.445-0.473-0.789-1.034-1.031-1.69
			c-0.242-0.654-0.363-1.375-0.363-2.159c0-0.757,0.125-1.465,0.373-2.12c0.248-0.653,0.602-1.219,1.061-1.698
			c0.457-0.479,1.004-0.855,1.639-1.129c0.635-0.276,1.338-0.412,2.111-0.412c0.863,0,1.615,0.166,2.258,0.5
			c0.641,0.333,1.168,0.781,1.58,1.345c0.412,0.563,0.709,1.206,0.893,1.925c0.184,0.719,0.248,1.47,0.195,2.257h-7.322
			C189.197,12.172,189.426,12.826,189.844,13.231z M192.994,7.891c-0.332-0.367-0.84-0.55-1.521-0.55
			c-0.443,0-0.814,0.078-1.109,0.228c-0.293,0.15-0.529,0.336-0.705,0.561c-0.178,0.221-0.301,0.456-0.373,0.706
			c-0.072,0.248-0.115,0.47-0.129,0.666h4.535C193.561,8.796,193.328,8.26,192.994,7.891z"/>
		<path fill="#FFFFFF" d="M202.977,7.341c-0.445,0-0.818,0.104-1.119,0.306c-0.301,0.203-0.547,0.465-0.736,0.785
			s-0.324,0.673-0.402,1.061c-0.078,0.385-0.117,0.768-0.117,1.148c0,0.366,0.039,0.737,0.117,1.118
			c0.078,0.38,0.207,0.721,0.383,1.031c0.178,0.306,0.416,0.56,0.717,0.754c0.301,0.197,0.668,0.295,1.1,0.295
			c0.666,0,1.18-0.186,1.541-0.56c0.359-0.373,0.586-0.873,0.678-1.501h2.689c-0.186,1.349-0.707,2.376-1.572,3.081
			c-0.863,0.708-1.969,1.062-3.316,1.062c-0.76,0-1.457-0.129-2.09-0.383c-0.637-0.255-1.176-0.613-1.621-1.07
			c-0.445-0.459-0.791-1.005-1.039-1.641c-0.25-0.634-0.373-1.331-0.373-2.089c0-0.787,0.113-1.515,0.344-2.189
			c0.229-0.675,0.564-1.258,1.01-1.747c0.445-0.492,0.988-0.875,1.629-1.148c0.643-0.276,1.375-0.412,2.199-0.412
			c0.602,0,1.182,0.08,1.736,0.234c0.557,0.159,1.055,0.396,1.492,0.717c0.439,0.323,0.795,0.722,1.07,1.197
			c0.275,0.479,0.432,1.044,0.471,1.697h-2.729C204.854,7.924,204.168,7.341,202.977,7.341z"/>
		<path fill="#FFFFFF" d="M214.971,5.518v1.864h-2.041v5.025c0,0.471,0.078,0.785,0.234,0.943c0.158,0.157,0.471,0.235,0.943,0.235
			c0.156,0,0.307-0.009,0.451-0.022c0.143-0.011,0.281-0.029,0.412-0.056v2.16c-0.236,0.038-0.498,0.064-0.785,0.076
			c-0.289,0.014-0.57,0.021-0.844,0.021c-0.432,0-0.842-0.03-1.227-0.089c-0.387-0.058-0.727-0.174-1.021-0.343
			c-0.295-0.17-0.527-0.413-0.697-0.728s-0.256-0.728-0.256-1.235V7.382h-1.688V5.518h1.688V2.475h2.789v3.043H214.971z"/>
		<path fill="#FFFFFF" d="M216.383,3.945V1.649h2.787v2.296H216.383z M219.17,5.518v10.149h-2.787V5.518H219.17z"/>
		<path fill="#FFFFFF" d="M221.428,8.394c0.25-0.662,0.604-1.225,1.061-1.689c0.459-0.465,1.008-0.826,1.648-1.081
			c0.641-0.254,1.361-0.382,2.16-0.382c0.797,0,1.521,0.128,2.168,0.382c0.648,0.255,1.201,0.615,1.66,1.081
			c0.457,0.464,0.811,1.027,1.059,1.689c0.25,0.659,0.375,1.397,0.375,2.207c0,0.812-0.125,1.544-0.375,2.197
			c-0.248,0.657-0.602,1.217-1.059,1.679c-0.459,0.464-1.012,0.823-1.66,1.072c-0.646,0.249-1.371,0.373-2.168,0.373
			c-0.799,0-1.52-0.124-2.16-0.373s-1.189-0.608-1.648-1.072c-0.457-0.462-0.811-1.022-1.061-1.679
			c-0.248-0.653-0.373-1.386-0.373-2.197C221.055,9.791,221.18,9.053,221.428,8.394z M223.961,11.789
			c0.078,0.387,0.213,0.733,0.402,1.039c0.189,0.31,0.441,0.556,0.756,0.735c0.314,0.188,0.707,0.276,1.178,0.276
			s0.867-0.089,1.188-0.276c0.32-0.18,0.576-0.425,0.766-0.735c0.189-0.306,0.324-0.652,0.402-1.039
			c0.078-0.385,0.117-0.781,0.117-1.188c0-0.405-0.039-0.805-0.117-1.198c-0.078-0.391-0.213-0.738-0.402-1.039
			s-0.445-0.546-0.766-0.736c-0.32-0.191-0.717-0.287-1.188-0.287s-0.863,0.096-1.178,0.287c-0.314,0.189-0.566,0.436-0.756,0.736
			s-0.324,0.648-0.402,1.039c-0.078,0.394-0.117,0.793-0.117,1.198C223.844,11.008,223.883,11.404,223.961,11.789z"/>
		<path fill="#FFFFFF" d="M236.014,5.518v1.413h0.059c0.354-0.59,0.811-1.02,1.375-1.287c0.562-0.268,1.139-0.401,1.727-0.401
			c0.746,0,1.357,0.101,1.836,0.303c0.477,0.206,0.854,0.486,1.129,0.845c0.273,0.361,0.467,0.799,0.578,1.315
			c0.111,0.517,0.168,1.091,0.168,1.717v6.245h-2.789V9.933c0-0.836-0.131-1.462-0.391-1.875c-0.264-0.411-0.727-0.618-1.395-0.618
			c-0.76,0-1.309,0.228-1.648,0.679c-0.342,0.45-0.512,1.195-0.512,2.228v5.321h-2.787V5.518H236.014z"/>
		<path fill="#FFFFFF" d="M247.35,13.143c0.125,0.216,0.285,0.394,0.48,0.53c0.197,0.137,0.422,0.238,0.678,0.304
			c0.256,0.066,0.521,0.099,0.795,0.099c0.197,0,0.402-0.022,0.619-0.068c0.215-0.047,0.412-0.119,0.588-0.216
			c0.178-0.099,0.324-0.229,0.441-0.394c0.119-0.162,0.178-0.369,0.178-0.617c0-0.419-0.277-0.732-0.834-0.94
			c-0.557-0.211-1.332-0.421-2.326-0.629c-0.406-0.092-0.803-0.2-1.188-0.325c-0.387-0.123-0.73-0.287-1.031-0.489
			c-0.301-0.203-0.543-0.46-0.727-0.766c-0.184-0.31-0.273-0.684-0.273-1.13c0-0.653,0.127-1.188,0.383-1.61
			c0.254-0.417,0.592-0.749,1.01-0.989c0.418-0.243,0.891-0.413,1.414-0.511c0.523-0.099,1.059-0.147,1.609-0.147
			s1.084,0.052,1.6,0.158c0.518,0.104,0.979,0.281,1.383,0.527c0.406,0.249,0.744,0.58,1.012,0.992
			c0.268,0.413,0.428,0.933,0.48,1.561h-2.648c-0.041-0.536-0.242-0.898-0.609-1.09c-0.365-0.188-0.799-0.285-1.295-0.285
			c-0.158,0-0.328,0.012-0.512,0.03c-0.182,0.02-0.35,0.063-0.5,0.129c-0.15,0.066-0.277,0.159-0.383,0.284
			c-0.105,0.123-0.156,0.291-0.156,0.501c0,0.248,0.092,0.45,0.273,0.606c0.184,0.158,0.422,0.287,0.717,0.383
			c0.295,0.099,0.631,0.188,1.012,0.266c0.379,0.079,0.766,0.164,1.158,0.257c0.404,0.09,0.801,0.203,1.188,0.333
			c0.385,0.132,0.729,0.304,1.029,0.52c0.301,0.215,0.543,0.483,0.727,0.803c0.184,0.323,0.275,0.72,0.275,1.189
			c0,0.667-0.133,1.228-0.402,1.679c-0.268,0.451-0.619,0.814-1.051,1.088c-0.432,0.276-0.926,0.468-1.48,0.58
			c-0.559,0.112-1.125,0.167-1.699,0.167c-0.59,0-1.164-0.058-1.727-0.178c-0.564-0.118-1.064-0.312-1.502-0.587
			c-0.439-0.274-0.799-0.638-1.08-1.09c-0.281-0.452-0.436-1.019-0.461-1.7h2.65C247.164,12.67,247.225,12.927,247.35,13.143z"/>
	</g>
	<g enable-background="new    ">
		<path fill="#FFFFFF" d="M77.973,22.119v1.372h0.039c0.367-0.521,0.809-0.928,1.325-1.216c0.518-0.287,1.109-0.433,1.777-0.433
			c0.64,0,1.227,0.126,1.757,0.375c0.529,0.25,0.932,0.686,1.207,1.314c0.301-0.445,0.71-0.839,1.227-1.178
			c0.518-0.342,1.129-0.512,1.836-0.512c0.537,0,1.033,0.065,1.491,0.197c0.458,0.131,0.851,0.339,1.179,0.629
			c0.326,0.287,0.582,0.664,0.766,1.129c0.183,0.465,0.274,1.022,0.274,1.676v6.795h-2.788v-5.752c0-0.34-0.014-0.663-0.039-0.964
			s-0.098-0.562-0.216-0.784c-0.118-0.221-0.291-0.399-0.521-0.53c-0.229-0.132-0.539-0.197-0.932-0.197s-0.711,0.077-0.953,0.228
			s-0.432,0.347-0.568,0.587c-0.138,0.245-0.229,0.518-0.275,0.826c-0.045,0.306-0.068,0.618-0.068,0.933v5.654h-2.787v-5.693
			c0-0.303-0.008-0.599-0.021-0.894s-0.068-0.566-0.167-0.814c-0.098-0.249-0.262-0.448-0.49-0.599s-0.566-0.228-1.012-0.228
			c-0.13,0-0.303,0.03-0.52,0.091c-0.216,0.057-0.426,0.169-0.628,0.333c-0.203,0.164-0.376,0.399-0.521,0.705
			c-0.145,0.31-0.216,0.711-0.216,1.209v5.89h-2.787V22.119H77.973z"/>
		<path fill="#FFFFFF" d="M93.127,20.548v-2.297h2.787v2.297H93.127z M95.915,22.119v10.149h-2.787V22.119H95.915z"/>
		<path fill="#FFFFFF" d="M103.688,22.119v1.864h-2.041v5.025c0,0.471,0.078,0.784,0.236,0.943c0.156,0.154,0.471,0.235,0.941,0.235
			c0.158,0,0.307-0.009,0.451-0.022c0.145-0.011,0.282-0.029,0.412-0.059v2.162c-0.234,0.037-0.496,0.064-0.784,0.076
			c-0.288,0.014-0.569,0.021-0.845,0.021c-0.432,0-0.841-0.03-1.227-0.09c-0.386-0.058-0.727-0.173-1.021-0.342
			c-0.294-0.17-0.526-0.413-0.695-0.728c-0.171-0.314-0.256-0.728-0.256-1.236v-5.987h-1.688v-1.864h1.688v-3.043h2.787v3.043
			H103.688z"/>
		<path fill="#FFFFFF" d="M113.19,22.119v1.372h0.039c0.367-0.521,0.809-0.928,1.324-1.216c0.518-0.287,1.109-0.433,1.777-0.433
			c0.641,0,1.228,0.126,1.758,0.375c0.529,0.25,0.932,0.686,1.207,1.314c0.301-0.445,0.709-0.839,1.227-1.178
			c0.518-0.342,1.129-0.512,1.836-0.512c0.536,0,1.033,0.065,1.49,0.197c0.459,0.131,0.852,0.339,1.18,0.629
			c0.326,0.287,0.581,0.664,0.766,1.129c0.183,0.465,0.273,1.022,0.273,1.676v6.795h-2.787v-5.752c0-0.34-0.014-0.663-0.039-0.964
			c-0.026-0.301-0.098-0.562-0.217-0.784c-0.117-0.221-0.291-0.399-0.52-0.53c-0.229-0.132-0.54-0.197-0.932-0.197
			c-0.394,0-0.711,0.077-0.953,0.228s-0.432,0.347-0.568,0.587c-0.139,0.245-0.229,0.518-0.275,0.826
			c-0.046,0.306-0.068,0.618-0.068,0.933v5.654h-2.788v-5.693c0-0.303-0.007-0.599-0.02-0.894s-0.068-0.566-0.167-0.814
			c-0.098-0.249-0.262-0.448-0.49-0.599c-0.229-0.15-0.566-0.228-1.012-0.228c-0.131,0-0.304,0.03-0.52,0.091
			c-0.217,0.057-0.426,0.169-0.629,0.333s-0.376,0.399-0.52,0.705c-0.145,0.31-0.217,0.711-0.217,1.209v5.89h-2.787V22.119H113.19z"
			/>
		<path fill="#FFFFFF" d="M131.248,29.832c0.42,0.407,1.021,0.609,1.807,0.609c0.562,0,1.047-0.14,1.453-0.421
			c0.404-0.282,0.654-0.58,0.746-0.894h2.453c-0.393,1.216-0.994,2.085-1.807,2.61c-0.811,0.522-1.791,0.784-2.943,0.784
			c-0.799,0-1.518-0.128-2.16-0.382c-0.641-0.255-1.184-0.618-1.629-1.088c-0.445-0.474-0.789-1.034-1.031-1.69
			c-0.241-0.653-0.362-1.375-0.362-2.159c0-0.758,0.124-1.466,0.373-2.119c0.248-0.652,0.602-1.219,1.059-1.698
			c0.459-0.479,1.004-0.854,1.641-1.129c0.633-0.276,1.336-0.413,2.109-0.413c0.863,0,1.617,0.167,2.258,0.501
			c0.641,0.333,1.168,0.781,1.58,1.345s0.709,1.206,0.893,1.926c0.184,0.718,0.248,1.47,0.197,2.255h-7.322
			C130.602,28.772,130.83,29.427,131.248,29.832z M134.4,24.492c-0.334-0.365-0.842-0.55-1.521-0.55
			c-0.445,0-0.814,0.077-1.109,0.228s-0.531,0.336-0.707,0.562c-0.176,0.22-0.301,0.455-0.373,0.704s-0.115,0.47-0.127,0.667h4.535
			C134.965,25.397,134.732,24.861,134.4,24.492z"/>
		<path fill="#FFFFFF" d="M146.736,30.972c-0.326,0.55-0.754,0.947-1.285,1.187c-0.529,0.243-1.129,0.363-1.797,0.363
			c-0.758,0-1.426-0.147-2.002-0.438c-0.576-0.297-1.051-0.695-1.424-1.198c-0.371-0.506-0.654-1.083-0.844-1.739
			c-0.189-0.653-0.283-1.334-0.283-2.042c0-0.679,0.094-1.337,0.283-1.972c0.189-0.633,0.473-1.194,0.844-1.679
			c0.373-0.483,0.842-0.875,1.404-1.167c0.562-0.296,1.217-0.443,1.963-0.443c0.602,0,1.174,0.129,1.719,0.383
			c0.541,0.256,0.971,0.631,1.285,1.129h0.039v-5.104h2.787v14.018h-2.648v-1.297H146.736z M146.619,25.955
			c-0.078-0.386-0.213-0.724-0.402-1.02s-0.436-0.533-0.736-0.717c-0.301-0.183-0.682-0.276-1.139-0.276s-0.844,0.094-1.158,0.276
			c-0.314,0.184-0.566,0.427-0.756,0.728s-0.326,0.643-0.412,1.03c-0.086,0.386-0.127,0.788-0.127,1.206
			c0,0.394,0.045,0.785,0.137,1.178c0.092,0.395,0.24,0.744,0.441,1.051c0.203,0.309,0.459,0.558,0.766,0.746
			c0.309,0.189,0.678,0.284,1.109,0.284c0.457,0,0.84-0.09,1.148-0.276c0.307-0.181,0.553-0.427,0.736-0.734
			c0.184-0.307,0.314-0.658,0.393-1.051c0.078-0.394,0.117-0.797,0.117-1.217C146.736,26.745,146.697,26.343,146.619,25.955z"/>
		<path fill="#FFFFFF" d="M151.605,20.548v-2.297h2.787v2.297H151.605z M154.393,22.119v10.149h-2.787V22.119H154.393z"/>
		<path fill="#FFFFFF" d="M156.475,25.238c0.039-0.653,0.201-1.197,0.49-1.629c0.287-0.433,0.654-0.776,1.1-1.039
			c0.443-0.263,0.945-0.448,1.5-0.561c0.557-0.109,1.117-0.167,1.68-0.167c0.51,0,1.027,0.036,1.551,0.109
			c0.523,0.07,1,0.211,1.432,0.421c0.434,0.211,0.787,0.501,1.061,0.875c0.275,0.372,0.412,0.867,0.412,1.483v5.278
			c0,0.459,0.027,0.896,0.078,1.314c0.053,0.419,0.145,0.733,0.275,0.944h-2.826c-0.053-0.159-0.096-0.318-0.127-0.482
			c-0.033-0.164-0.057-0.33-0.07-0.5c-0.443,0.457-0.969,0.779-1.568,0.963c-0.604,0.184-1.219,0.272-1.846,0.272
			c-0.484,0-0.936-0.057-1.355-0.177c-0.418-0.118-0.785-0.301-1.1-0.55c-0.314-0.246-0.559-0.561-0.736-0.94
			c-0.176-0.38-0.264-0.832-0.264-1.355c0-0.575,0.1-1.051,0.303-1.423c0.203-0.374,0.465-0.67,0.785-0.894
			c0.322-0.222,0.688-0.389,1.1-0.5c0.412-0.112,0.828-0.201,1.246-0.266c0.42-0.065,0.832-0.117,1.238-0.156
			c0.404-0.041,0.766-0.098,1.078-0.178c0.314-0.079,0.562-0.193,0.746-0.344s0.27-0.369,0.256-0.656
			c0-0.301-0.049-0.542-0.146-0.717c-0.098-0.178-0.23-0.314-0.393-0.412c-0.164-0.099-0.354-0.164-0.57-0.197
			c-0.215-0.033-0.447-0.049-0.695-0.049c-0.551,0-0.982,0.118-1.297,0.353c-0.314,0.237-0.498,0.629-0.549,1.178H156.475z
			 M162.912,27.3c-0.117,0.106-0.266,0.187-0.441,0.246c-0.178,0.058-0.367,0.106-0.568,0.147c-0.203,0.038-0.416,0.071-0.639,0.099
			c-0.223,0.023-0.445,0.058-0.668,0.099c-0.209,0.038-0.416,0.091-0.619,0.157c-0.201,0.064-0.379,0.151-0.529,0.264
			s-0.271,0.252-0.363,0.42c-0.092,0.174-0.137,0.39-0.137,0.649c0,0.249,0.045,0.459,0.137,0.629
			c0.092,0.169,0.217,0.304,0.373,0.401c0.158,0.099,0.34,0.167,0.551,0.208c0.209,0.038,0.424,0.058,0.646,0.058
			c0.551,0,0.975-0.091,1.277-0.273c0.301-0.184,0.521-0.404,0.666-0.659c0.145-0.254,0.232-0.513,0.266-0.776
			c0.033-0.26,0.049-0.471,0.049-0.626V27.3z"/>
		<path fill="#FFFFFF" d="M176.182,18.251v14.018h-2.787V18.251H176.182z"/>
		<path fill="#FFFFFF" d="M178.264,25.238c0.039-0.653,0.201-1.197,0.49-1.629c0.287-0.433,0.654-0.776,1.1-1.039
			c0.443-0.263,0.945-0.448,1.5-0.561c0.557-0.109,1.115-0.167,1.68-0.167c0.51,0,1.027,0.036,1.551,0.109
			c0.523,0.07,1,0.211,1.432,0.421c0.434,0.211,0.785,0.501,1.061,0.875c0.275,0.372,0.412,0.867,0.412,1.483v5.278
			c0,0.459,0.025,0.896,0.078,1.314c0.053,0.419,0.145,0.733,0.275,0.944h-2.826c-0.053-0.159-0.096-0.318-0.127-0.482
			c-0.033-0.164-0.057-0.33-0.07-0.5c-0.445,0.457-0.969,0.779-1.57,0.963s-1.217,0.272-1.844,0.272
			c-0.486,0-0.938-0.057-1.355-0.177c-0.42-0.118-0.785-0.301-1.1-0.55c-0.314-0.246-0.559-0.561-0.736-0.94
			c-0.176-0.38-0.264-0.832-0.264-1.355c0-0.575,0.1-1.051,0.303-1.423c0.203-0.374,0.465-0.67,0.785-0.894
			c0.322-0.222,0.688-0.389,1.1-0.5c0.412-0.112,0.828-0.201,1.246-0.266c0.42-0.065,0.832-0.117,1.236-0.156
			c0.406-0.041,0.768-0.098,1.08-0.178c0.314-0.079,0.562-0.193,0.746-0.344s0.27-0.369,0.256-0.656
			c0-0.301-0.049-0.542-0.148-0.717c-0.098-0.178-0.229-0.314-0.391-0.412c-0.164-0.099-0.354-0.164-0.57-0.197
			c-0.215-0.033-0.447-0.049-0.695-0.049c-0.551,0-0.982,0.118-1.297,0.353c-0.314,0.237-0.498,0.629-0.549,1.178H178.264z
			 M184.701,27.3c-0.117,0.106-0.266,0.187-0.441,0.246c-0.178,0.058-0.367,0.106-0.57,0.147c-0.201,0.038-0.414,0.071-0.637,0.099
			c-0.223,0.023-0.445,0.058-0.668,0.099c-0.209,0.038-0.416,0.091-0.619,0.157c-0.203,0.064-0.379,0.151-0.529,0.264
			s-0.271,0.252-0.363,0.42c-0.092,0.174-0.137,0.39-0.137,0.649c0,0.249,0.045,0.459,0.137,0.629
			c0.092,0.169,0.217,0.304,0.373,0.401c0.158,0.099,0.34,0.167,0.549,0.208c0.211,0.038,0.426,0.058,0.648,0.058
			c0.551,0,0.975-0.091,1.277-0.273c0.301-0.184,0.521-0.404,0.666-0.659c0.145-0.254,0.232-0.513,0.266-0.776
			c0.033-0.26,0.049-0.471,0.049-0.626V27.3z"/>
		<path fill="#FFFFFF" d="M192.436,18.251v5.104h0.039c0.34-0.521,0.801-0.904,1.383-1.147c0.584-0.243,1.189-0.364,1.816-0.364
			c0.512,0,1.014,0.105,1.512,0.314c0.498,0.211,0.945,0.53,1.346,0.963c0.398,0.432,0.723,0.984,0.971,1.66
			c0.248,0.672,0.373,1.473,0.373,2.402s-0.125,1.73-0.373,2.406c-0.248,0.672-0.572,1.225-0.971,1.656
			c-0.4,0.432-0.848,0.755-1.346,0.963c-0.498,0.211-1,0.313-1.512,0.313c-0.746,0-1.414-0.117-2.002-0.353
			c-0.588-0.234-1.033-0.634-1.334-1.197h-0.041v1.297h-2.648V18.251H192.436z M196.951,25.966
			c-0.092-0.394-0.236-0.738-0.434-1.042c-0.195-0.301-0.441-0.538-0.736-0.716c-0.293-0.174-0.65-0.266-1.068-0.266
			c-0.406,0-0.76,0.092-1.061,0.266c-0.301,0.178-0.549,0.415-0.746,0.716c-0.197,0.304-0.34,0.648-0.432,1.042
			s-0.137,0.804-0.137,1.236c0,0.421,0.045,0.825,0.137,1.217c0.092,0.393,0.234,0.74,0.432,1.041s0.445,0.539,0.746,0.716
			c0.301,0.178,0.654,0.266,1.061,0.266c0.418,0,0.775-0.088,1.068-0.266c0.295-0.177,0.541-0.415,0.736-0.716
			c0.197-0.301,0.342-0.648,0.434-1.041c0.09-0.392,0.137-0.796,0.137-1.217C197.088,26.77,197.041,26.359,196.951,25.966z"/>
	</g>
</g>
</svg>
