<?xml version="1.0" encoding="utf-8"?>
<!-- Generator: Adobe Illustrator 16.0.0, SVG Export Plug-In . SVG Version: 6.00 Build 0)  -->
<!DOCTYPE svg PUBLIC "-//W3C//DTD SVG 1.1//EN" "http://www.w3.org/Graphics/SVG/1.1/DTD/svg11.dtd">
<svg version="1.1" id="Layer_2" xmlns="http://www.w3.org/2000/svg" xmlns:xlink="http://www.w3.org/1999/xlink" x="0px" y="0px"
	 width="993.099px" height="800px" viewBox="132.269 0 993.099 800" enable-background="new 132.269 0 993.099 800"
	 xml:space="preserve">
<polygon fill="none" stroke="#FFFFFF" stroke-width="31" stroke-linecap="round" stroke-linejoin="round" stroke-miterlimit="10" points="
	970.257,79.888 857.436,79.888 857.436,177.768 856.896,177.961 970.257,255.842 "/>
<polyline fill="none" stroke="#FFFFFF" stroke-width="31" stroke-linecap="round" stroke-linejoin="round" stroke-miterlimit="10" points="
	305.641,367.132 305.641,779.692 970.257,779.692 970.257,360.76 "/>
<polygon fill="none" stroke="#FFFFFF" stroke-width="31" stroke-linecap="round" stroke-linejoin="round" stroke-miterlimit="10" points="
	633.225,24.296 632.886,23.931 632.79,23.994 632.693,23.931 632.354,24.296 168.996,342.621 228.359,406.764 632.79,128.924 
	1037.221,406.764 1096.57,342.621 "/>
<rect x="409.77" y="519.089" fill="none" stroke="#FFFFFF" stroke-width="31" stroke-linecap="round" stroke-linejoin="round" stroke-miterlimit="10" width="178.461" height="260.604"/>
<rect x="546.719" y="272.065" fill="none" stroke="#FFFFFF" stroke-width="31" stroke-linecap="round" stroke-linejoin="round" stroke-miterlimit="10" width="178.461" height="141.157"/>
<rect x="692.82" y="516.949" fill="none" stroke="#FFFFFF" stroke-width="31" stroke-linecap="round" stroke-linejoin="round" stroke-miterlimit="10" width="178.461" height="141.157"/>
<line fill="none" stroke="#FFFFFF" stroke-width="31" stroke-linecap="round" stroke-linejoin="round" stroke-miterlimit="10" x1="692.82" y1="587.528" x2="871.281" y2="587.528"/>
<line fill="none" stroke="#FFFFFF" stroke-width="31" stroke-linecap="round" stroke-linejoin="round" stroke-miterlimit="10" x1="782.051" y1="519.089" x2="782.051" y2="658.106"/>
</svg>
