<?xml version="1.0" encoding="utf-8"?>
<!-- Generator: Adobe Illustrator 16.0.0, SVG Export Plug-In . SVG Version: 6.00 Build 0)  -->
<!DOCTYPE svg PUBLIC "-//W3C//DTD SVG 1.1//EN" "http://www.w3.org/Graphics/SVG/1.1/DTD/svg11.dtd">
<svg version="1.1" id="Layer_1" xmlns="http://www.w3.org/2000/svg" xmlns:xlink="http://www.w3.org/1999/xlink" x="0px" y="0px"
	 width="1040px" height="912.5px" viewBox="112.5 0 1040 912.5" enable-background="new 112.5 0 1040 912.5" xml:space="preserve">
<polygon fill="none" stroke="#FFFFFF" stroke-width="31" stroke-linecap="round" stroke-linejoin="round" stroke-miterlimit="10" points="
	642,17.5 140.559,241.341 642.702,467.257 1127.5,241.878 "/>
<path fill="none" stroke="#FFFFFF" stroke-width="31" stroke-linecap="round" stroke-linejoin="round" stroke-miterlimit="10" d="
	M950.372,324.224l42.132,234.141c0,0-108.004,130.275-352.504,130.275c-246.928,0-343.019-130.673-343.019-130.673l35.653-230.21"/>
<polyline fill="none" stroke="#FFFFFF" stroke-width="31" stroke-linecap="round" stroke-linejoin="round" stroke-miterlimit="10" points="
	643.742,232.378 393.072,354.947 393.072,758.325 "/>
<path fill="none" stroke="#FFFFFF" stroke-width="31" stroke-linecap="round" stroke-linejoin="round" stroke-miterlimit="10" d="
	M429.131,774.031c22.526,22.843,13.189,53.322-0.521,74.567c-8.741,13.546-35.838,45.192-35.838,45.192
	s-30.177-29.938-38.731-45.711c-13.883-25.602-20.216-54.123,0.52-74.57S408.683,753.295,429.131,774.031z"/>
</svg>
