<?xml version="1.0" encoding="utf-8"?>
<!-- Generator: Adobe Illustrator 16.0.0, SVG Export Plug-In . SVG Version: 6.00 Build 0)  -->
<!DOCTYPE svg PUBLIC "-//W3C//DTD SVG 1.1//EN" "http://www.w3.org/Graphics/SVG/1.1/DTD/svg11.dtd">
<svg version="1.1" id="Layer_1" xmlns="http://www.w3.org/2000/svg" xmlns:xlink="http://www.w3.org/1999/xlink" x="0px" y="0px"
	 width="400px" height="100px" viewBox="0 0 400 100" enable-background="new 0 0 400 100" xml:space="preserve">
<g opacity="0.9">
	<path fill="#FFFFFF" d="M386.724,76.479h-6.114c0,0-1.943-6.035-2.091-6.035c-0.148,0-2.087,6.035-2.087,6.035h-6.111
		c0,0.191,4.697,4.058,4.697,4.058l-2.443,5.721c0.103,0.079,5.944-3.228,5.944-3.228s5.842,3.307,5.944,3.228l-2.438-5.721
		C382.025,80.535,386.724,76.67,386.724,76.479z"/>
	<path fill="#FFFFFF" d="M376.55,18.79l-6.114-0.003c0,0-1.936-6.038-2.086-6.038c-0.146,0-2.09,6.038-2.09,6.038l-6.109,0.003
		c0,0.189,4.694,4.046,4.694,4.046l-2.444,5.725c0.108,0.078,5.949-3.229,5.949-3.229s5.84,3.307,5.946,3.229l-2.438-5.725
		C371.857,22.836,376.55,18.979,376.55,18.79z"/>
	<path fill="#FFFFFF" d="M381.438,47.661l-6.114-0.004c0,0-1.941-6.028-2.087-6.028c-0.15,0-2.095,6.028-2.095,6.028l-6.107,0.004
		c0,0.196,4.697,4.052,4.697,4.052l-2.442,5.725c0.103,0.082,5.947-3.229,5.947-3.229s5.84,3.311,5.941,3.229l-2.442-5.725
		C376.734,51.713,381.438,47.857,381.438,47.661z"/>
	<g>
		<path fill="#FFFFFF" d="M240.889,5.558h9.953v61.861c0,10.669-1.701,18.039-5.104,22.112c-3.4,4.074-8.211,6.109-14.426,6.109
			c-6.219,0-11.022-2.035-14.426-6.109c-3.4-4.073-5.104-11.443-5.104-22.112V5.558h9.953v63.75c0,6.803,0.841,11.528,2.521,14.176
			c1.679,2.646,4.011,3.968,6.992,3.968c2.979,0,5.334-1.322,7.058-3.968c1.719-2.646,2.582-7.373,2.582-14.176V5.558L240.889,5.558
			z"/>
		<path fill="#FFFFFF" d="M295.443,73.973c0-6.72-2.27-11.886-6.805-15.498l-10.08-7.435c-7.559-5.374-11.338-13.311-11.338-23.812
			c0-8.734,1.655-14.845,4.978-18.332c3.315-3.485,7.853-5.229,13.606-5.229c5.75,0,10.223,1.618,13.416,4.851
			c3.191,3.235,5.122,9.093,5.795,17.576l-9.572,2.142c-0.338-10.751-3.465-16.126-9.389-16.126c-5.921,0-8.882,4.577-8.882,13.732
			c0,4.03,0.438,7.308,1.323,9.826c0.881,2.521,2.582,4.788,5.102,6.804l9.953,7.434c2.352,1.682,4.241,3.275,5.67,4.785
			c1.428,1.515,2.791,3.931,4.096,7.246c1.302,3.319,1.953,7.244,1.953,11.779c0,8.064-1.744,13.734-5.229,17.012
			c-3.487,3.274-8.21,4.912-14.175,4.912c-5.963,0-10.626-1.933-13.983-5.795c-3.36-3.863-5.418-10.75-6.175-20.664l9.449-1.636
			c0.337,7.14,1.363,12.22,3.089,15.242c1.719,3.024,4.135,4.536,7.244,4.536C292.123,87.325,295.443,82.876,295.443,73.973z"/>
		<path fill="#FFFFFF" d="M350.625,93.751l-3.905-22.929h-17.764l-3.781,22.929h-10.078l16.126-88.193h13.354l16.129,88.193H350.625
			z M337.9,18.283l-7.56,44.474h14.992L337.9,18.283z"/>
	</g>
	<g>
		<path fill="#FFFFFF" d="M13.605,93.753V5.561H30.74c6.382,0,11.295,2.037,14.741,6.11c3.443,4.075,5.166,11.444,5.166,22.111
			v31.75c0,10.667-1.723,18.036-5.166,22.112c-3.446,4.073-8.359,6.107-14.741,6.107L13.605,93.753L13.605,93.753z M40.693,67.801
			v-36.16c0-12.012-3.319-18.017-9.953-18.017h-7.055v72.194h7.055C37.374,85.816,40.693,79.812,40.693,67.801z"/>
		<path fill="#FFFFFF" d="M96.884,93.753l-3.906-22.929H75.213l-3.779,22.929h-10.08L77.481,5.561h13.355l16.127,88.192H96.884z
			 M84.159,18.285L76.6,62.759h14.992L84.159,18.285z"/>
		<path fill="#FFFFFF" d="M109.484,13.624V5.561h34.396v8.063h-12.221v80.129h-9.955V13.624H109.484z"/>
		<path fill="#FFFFFF" d="M181.929,93.753l-3.906-22.929h-17.764l-3.779,22.929H146.4l16.127-88.192h13.355l16.127,88.192H181.929z
			 M169.205,18.285l-7.56,44.474h14.993L169.205,18.285z"/>
	</g>
</g>
</svg>
