<?xml version="1.0" encoding="utf-8"?>
<!-- Generator: Adobe Illustrator 16.0.0, SVG Export Plug-In . SVG Version: 6.00 Build 0)  -->
<!DOCTYPE svg PUBLIC "-//W3C//DTD SVG 1.1//EN" "http://www.w3.org/Graphics/SVG/1.1/DTD/svg11.dtd">
<svg version="1.1" id="Layer_1" xmlns="http://www.w3.org/2000/svg" xmlns:xlink="http://www.w3.org/1999/xlink" x="0px" y="0px"
	 width="57px" height="57px" viewBox="0 0 57 57" enable-background="new 0 0 57 57" xml:space="preserve">
<g>
	<g>
		<path fill="#33425B" d="M23.31,41.773c-11.69,0-21.167-3.098-21.167-6.916v14.705c0,3.82,9.477,6.916,21.167,6.916
			c11.689,0,21.166-3.096,21.166-6.916V34.857C44.476,38.676,34.999,41.773,23.31,41.773z"/>
	</g>
	<path fill="#465B7E" d="M44.47,7.125c-0.065,3.801-9.512,6.877-21.16,6.877c-11.65,0-21.096-3.076-21.161-6.877H2.143v27.853
		c0,3.82,9.477,6.916,21.167,6.916c11.689,0,21.166-3.096,21.166-6.916V7.125H44.47z"/>
	<g>
		<polyline fill="#5E79A8" points="44.476,7.139 44.476,7.125 2.143,7.125 2.143,7.139 		"/>
		<path fill="#5E79A8" d="M23.31,14.055c-11.69,0-21.167-3.097-21.167-6.916v14.706c0,3.819,9.477,6.917,21.167,6.917
			c11.689,0,21.166-3.097,21.166-6.917V7.139C44.476,10.958,34.999,14.055,23.31,14.055z"/>
	</g>
	<g>
		<path fill="#F99A9A" d="M46.815,12.646l-0.001,6.461c-9.117,0-15.915,1.185-22.012,5.403c-4.093,2.832-8.909,12.265-13.071,18.966
			c-2.605,4.195-4.402,6.553-6.088,7.715c-0.448,0.309-1.146,0.643-1.927,0.984c1.31,1.047,3.376,1.965,5.985,2.682
			c0.525-0.271,0.938-0.506,1.131-0.654c2.004-1.537,3.826-3.994,5.754-7.1c4.274-6.883,8.733-15.785,12.188-18.096
			c3.688-2.466,8.725-3.892,18.041-3.892v6.482c0,0,9.925-9.057,9.925-9.494C56.74,21.728,46.815,12.646,46.815,12.646z"/>
	</g>
	<path fill="#A1BEED" d="M43.913,5.564c-2.168-3.067-10.56-5.355-20.604-5.355c-10.045,0-18.436,2.288-20.605,5.355
		C2.349,6.067,2.143,6.587,2.143,7.125c0,3.819,9.477,6.916,21.167,6.916c11.689,0,21.166-3.097,21.166-6.916
		C44.476,6.587,44.269,6.067,43.913,5.564z"/>
</g>
</svg>
