<?xml version="1.0" encoding="utf-8"?>
<!-- Generator: Adobe Illustrator 16.0.0, SVG Export Plug-In . SVG Version: 6.00 Build 0)  -->
<!DOCTYPE svg PUBLIC "-//W3C//DTD SVG 1.1//EN" "http://www.w3.org/Graphics/SVG/1.1/DTD/svg11.dtd">
<svg version="1.1" id="Layer_1" xmlns="http://www.w3.org/2000/svg" xmlns:xlink="http://www.w3.org/1999/xlink" x="0px" y="0px"
	 width="121px" height="30px" viewBox="0 0 121 30" enable-background="new 0 0 121 30" xml:space="preserve">
<g>
	<g>
		<g>
			<g>
				<path fill="#FFCC33" d="M2.609,15.78c0-2.839,1.027-5.442,2.732-7.455l-0.914-0.91c-1.932,2.249-3.1,5.173-3.1,8.365
					c0,3.195,1.168,6.12,3.1,8.362l0.914-0.908C3.637,21.223,2.609,18.623,2.609,15.78z"/>
				<path fill="#FFCC33" d="M14.156,4.24c2.834,0,5.438,1.026,7.447,2.729l0.908-0.906c-2.242-1.939-5.166-3.106-8.355-3.106
					c-3.201,0-6.121,1.167-8.371,3.106l0.918,0.906C8.709,5.267,11.314,4.24,14.156,4.24z"/>
				<path fill="#FFCC33" d="M25.693,15.78c0,2.843-1.027,5.442-2.727,7.454l0.904,0.908c1.936-2.242,3.107-5.167,3.107-8.362
					c0-3.192-1.172-6.116-3.107-8.365l-0.904,0.91C24.666,10.338,25.693,12.941,25.693,15.78z"/>
				<path fill="#FFCC33" d="M14.156,27.326c-2.842,0-5.447-1.032-7.453-2.73l-0.918,0.909c2.25,1.934,5.17,3.102,8.371,3.102
					c3.189,0,6.113-1.168,8.355-3.102l-0.908-0.909C19.594,26.294,16.99,27.326,14.156,27.326z"/>
			</g>
			<g>
				<path fill="#FFCC33" d="M19.768,7.978l-0.643,1.114c2.043,1.521,3.361,3.951,3.361,6.688c0,2.74-1.318,5.169-3.361,6.691
					l0.643,1.12c2.424-1.753,4.002-4.598,4.002-7.812S22.191,9.721,19.768,7.978z"/>
				<path fill="#FFCC33" d="M14.156,24.12c-4.281,0-7.809-3.228-8.283-7.376H4.58c0.484,4.861,4.582,8.655,9.576,8.655
					c1.406,0,2.74-0.304,3.949-0.85l-0.645-1.114C16.443,23.873,15.326,24.12,14.156,24.12z"/>
				<path fill="#FFCC33" d="M14.156,7.443c1.17,0,2.287,0.246,3.305,0.686l0.645-1.111c-1.209-0.548-2.543-0.855-3.949-0.855
					c-4.994,0-9.092,3.795-9.576,8.656h1.293C6.348,10.668,9.875,7.443,14.156,7.443z"/>
			</g>
			<g>
				<path fill="#FFCC33" d="M9.055,16.365c-0.283-2.488,1.262-4.766,3.568-5.486l-0.145-1.29c-3.014,0.809-5.064,3.726-4.701,6.92
					c0.367,3.194,3.018,5.57,6.135,5.685l-0.146-1.297C11.359,20.719,9.34,18.85,9.055,16.365z"/>
				<path fill="#FFCC33" d="M14.535,10.668c2.41,0.176,4.428,2.041,4.713,4.531c0.285,2.486-1.264,4.761-3.57,5.479l0.146,1.293
					c3.014-0.809,5.064-3.723,4.697-6.915c-0.361-3.194-3.016-5.567-6.131-5.679L14.535,10.668z"/>
			</g>
		</g>
	</g>
	<g>
		<g>
			<path fill="#FFFFFF" d="M32.857,8.738h4.359c3.236,0,6.354,2.77,6.354,6.569c0,3.784-3.012,6.676-6.773,6.676h-3.939V8.738z
				 M36.779,20.41c2.961,0,5.016-2.264,5.016-5.191c0-2.824-2.264-4.912-5.154-4.912h-2.111V20.41H36.779z"/>
			<path fill="#FFFFFF" d="M84.459,12.902h1.672l-3.344,9.081h-1.291l-2.438-7.097h-0.035l-2.441,7.097h-1.291l-3.352-9.081h1.682
				l2.283,6.569h0.037l2.26-6.569h1.672l2.264,6.569h0.035L84.459,12.902z"/>
			<path fill="#FFFFFF" d="M93.691,16.699c0-1.355-0.559-2.539-2.111-2.539c-1.461,0-2.35,0.989-2.35,2.711v5.112h-1.564V8.738
				h1.564v5.226h0.037c0.469-0.818,1.479-1.272,2.492-1.272c1.758,0,3.502,0.959,3.502,3.416v5.876h-1.57V16.699z"/>
			<path fill="#FFFFFF" d="M105.889,20.221c-1.215,1.361-2.508,1.971-4.094,1.971c-3.217,0-4.945-2.336-4.945-4.762
				c0-2.575,1.844-4.738,4.689-4.738c2.803,0,4.756,2.146,4.756,5.35h-7.771c0.24,1.552,1.496,2.686,3.25,2.686
				c1.119,0,2.113-0.526,2.918-1.463L105.889,20.221z M104.518,16.754c-0.158-1.499-1.381-2.594-2.996-2.594
				c-1.924,0-2.842,1.354-2.998,2.594H104.518z"/>
			<path fill="#FFFFFF" d="M116.869,20.221c-1.219,1.361-2.508,1.971-4.094,1.971c-3.225,0-4.953-2.336-4.953-4.762
				c0-2.575,1.848-4.738,4.693-4.738c2.801,0,4.758,2.146,4.758,5.35H109.5c0.242,1.552,1.498,2.686,3.256,2.686
				c1.119,0,2.111-0.526,2.912-1.463L116.869,20.221z M115.488,16.754c-0.152-1.499-1.371-2.594-3-2.594
				c-1.91,0-2.834,1.354-2.988,2.594H115.488z"/>
			<path fill="#FFFFFF" d="M53.594,21.983h-1.529v-1.303h-0.037c-0.785,0.996-1.836,1.491-3.1,1.491
				c-2.643,0-4.299-2.232-4.299-4.719c0-2.562,1.623-4.765,4.322-4.765c1.221,0,2.328,0.58,3.076,1.533h0.037v-1.319h1.529V21.983z
				 M46.191,17.336c0,1.759,1.037,3.422,2.949,3.422c1.969,0,3.002-1.591,3.002-3.405c0-1.79-1.133-3.247-3.02-3.247
				C47.336,14.105,46.191,15.654,46.191,17.336z"/>
			<path fill="#FFFFFF" d="M70.273,21.983h-1.525v-1.303h-0.045c-0.777,0.996-1.826,1.491-3.098,1.491
				c-2.639,0-4.293-2.232-4.293-4.719c0-2.562,1.613-4.765,4.314-4.765c1.227,0,2.332,0.58,3.076,1.533h0.045v-1.319h1.525V21.983z
				 M62.881,17.336c0,1.759,1.029,3.422,2.938,3.422c1.969,0,3.004-1.591,3.004-3.405c0-1.79-1.127-3.247-3.02-3.247
				C64.023,14.105,62.881,15.654,62.881,17.336z"/>
			<path fill="#FFFFFF" d="M58.436,21.983h-1.52v-7.675H55.32v-1.406h1.596V8.738h1.52v4.164h1.598v1.406h-1.598V21.983z"/>
			<path fill="#FFFFFF" d="M120.283,21.983h-1.52V8.738h1.52V21.983z"/>
		</g>
	</g>
</g>
</svg>
