<?xml version="1.0" encoding="utf-8"?>
<!-- Generator: Adobe Illustrator 16.0.0, SVG Export Plug-In . SVG Version: 6.00 Build 0)  -->
<!DOCTYPE svg PUBLIC "-//W3C//DTD SVG 1.1//EN" "http://www.w3.org/Graphics/SVG/1.1/DTD/svg11.dtd">
<svg version="1.1" id="Layer_1" xmlns="http://www.w3.org/2000/svg" xmlns:xlink="http://www.w3.org/1999/xlink" x="0px" y="0px"
	 width="96px" height="30px" viewBox="-0.458 0 96 30" enable-background="new -0.458 0 96 30" xml:space="preserve">
<g id="layer1_3_" transform="translate(-400.50845,101.60621)">
	<g id="g3557_3_" transform="translate(17.716538,17.750166)">
		<path id="path3435_3_" fill="#FFFFFF" d="M412.296-94.799h4.197v-17.013h-4.197V-94.799z"/>
		<path id="path3439_3_" fill="#FFFFFF" d="M404.57-104.702c1.531,0,1.992,1.4,1.992,2.167h-4.123
			C402.439-103.621,403.195-104.702,404.57-104.702z M408.962-98.24c-0.674,0.231-1.693,0.544-2.982,0.544
			c-1.811,0-3.227-0.604-3.457-2.035h7.713c0.057-0.277,0.16-0.717,0.16-1.646c0-3.256-1.619-6.246-5.754-6.246
			c-4.018,0-6.158,3.151-6.158,6.678c0,4.074,2.846,6.4,6.816,6.4c2.498,0,3.6-0.587,4.283-0.817L408.962-98.24"/>
		<path id="path3443_3_" fill="#FFFFFF" d="M464.628-104.702c1.531,0,1.992,1.4,1.992,2.17h-4.123
			C462.497-103.621,463.249-104.702,464.628-104.702z M469.017-98.24c-0.668,0.231-1.686,0.544-2.977,0.544
			c-1.814,0-3.229-0.604-3.459-2.035h7.713c0.059-0.273,0.16-0.717,0.16-1.646c0-3.256-1.619-6.246-5.758-6.246
			c-4.014,0-6.152,3.151-6.152,6.678c0,4.074,2.848,6.396,6.816,6.396c2.492,0,3.602-0.583,4.285-0.813L469.017-98.24"/>
		<path id="path3447_3_" fill="#FFFFFF" d="M424.912-97.657c-1.357,0-2.25-1.34-2.25-3.418c0-1.656,0.598-3.425,2.262-3.425
			c1.615,0,2.18,1.832,2.18,3.407C427.103-99.005,426.238-97.657,424.912-97.657z M424.857-94.55c3.264,0,6.564-2.055,6.564-6.646
			c0-2.738-1.617-6.408-6.363-6.408c-4.883,0-6.662,3.559-6.662,6.617C418.396-97.155,421.056-94.55,424.857-94.55"/>
		<path id="path3449_3_" fill="#FFFFFF" d="M433.275-94.806h4.197v-12.543h-4.197V-94.806z"/>
		<path id="path3453_3_" fill="#FFFFFF" d="M450.494-110.765l0.008,3.412l-1.613,0.006v3.107h1.605v5.188
			c0,2.752,1.305,4.516,4.246,4.516c1.314,0,2.732-0.348,2.971-0.422c0,0-0.023-3.246-0.023-3.26
			c-0.133,0.045-0.928,0.209-1.451,0.209c-0.588,0-1.627-0.164-1.627-1.748v-4.482h2.703v-3.115c0,0-2.348,0-2.703,0
			c0-0.365,0-3.874,0-3.874L450.494-110.765"/>
		<path id="path3457_3_" fill="#FFFFFF" d="M440.785-110.765l0.008,3.412l-1.617,0.006v3.107h1.609v5.188
			c0,2.752,1.305,4.516,4.248,4.516c1.312,0,2.73-0.348,2.967-0.422c0,0-0.025-3.246-0.025-3.26
			c-0.135,0.045-0.928,0.209-1.443,0.209c-0.594,0-1.633-0.164-1.633-1.748v-4.482h2.703v-3.115c0,0-2.346,0-2.703,0
			c0-0.365,0-3.874,0-3.874L440.785-110.765"/>
		<path id="path3459_3_" fill="#FFFFFF" d="M433.275-108.548h4.197v-3.256h-4.197V-108.548z"/>
		<path id="path3463_3_" fill="#FFFFFF" d="M382.216-94.787h4.949c7.26,0,10.023-4.331,10.023-8.447
			c0-5.638-3.596-8.856-10.121-8.856c-1.795,0-3.773,0.083-4.855,0.199L382.216-94.787z M387.802-98.159
			c-0.562-0.011-1.148,0.031-1.438,0.01c0,0-0.027-10.458-0.01-10.458c0.309-0.03,0.855-0.057,1.492-0.057
			c2.465,0,4.984,1.613,4.984,5.306C392.831-99.123,389.615-98.117,387.802-98.159"/>
		<path id="path3467_3_" fill="#9ACD66" d="M471.81-96.852c0-1.285,1.041-2.322,2.322-2.322c1.279,0,2.322,1.037,2.322,2.322
			c0,1.281-1.043,2.322-2.322,2.322C472.851-94.53,471.81-95.571,471.81-96.852"/>
	</g>
</g>
</svg>
