<?xml version="1.0" encoding="utf-8"?>
<!-- Generator: Adobe Illustrator 16.0.0, SVG Export Plug-In . SVG Version: 6.00 Build 0)  -->
<!DOCTYPE svg PUBLIC "-//W3C//DTD SVG 1.1//EN" "http://www.w3.org/Graphics/SVG/1.1/DTD/svg11.dtd">
<svg version="1.1" id="Layer_1" xmlns="http://www.w3.org/2000/svg" xmlns:xlink="http://www.w3.org/1999/xlink" x="0px" y="0px"
	 width="48px" height="30px" viewBox="0 0 48 30" enable-background="new 0 0 48 30" xml:space="preserve">
<g>
	<polygon fill="#FFFFFF" points="19.158,4.956 19.158,4.956 16.045,4.956 12.936,4.956 12.933,4.956 9.827,4.956 9.825,4.956 
		6.716,4.956 6.716,8.066 6.716,11.18 3.606,11.18 3.606,11.18 0.494,11.18 0.494,14.289 0.494,14.289 0.494,16.352 0.494,17.398 
		0.494,19.812 0.494,23.27 0.494,23.273 0.494,26.73 3.606,26.73 3.606,23.273 3.606,23.27 3.606,19.812 3.606,17.398 3.606,16.352 
		3.606,14.289 6.716,14.289 9.827,14.289 9.827,11.18 9.827,8.066 12.933,8.066 12.936,8.066 16.045,8.066 19.158,8.066 
		19.158,8.066 22.267,8.066 22.267,4.956 	"/>
	<polygon fill="#FFFFFF" points="12.936,17.398 16.045,17.398 19.158,17.398 19.158,17.398 22.267,17.398 22.267,14.289 
		19.158,14.289 19.158,14.289 16.045,14.289 12.936,14.289 12.933,14.289 9.825,14.289 9.825,16.33 9.825,17.398 9.825,20.512 
		9.825,23.62 9.825,23.622 9.825,26.73 12.933,26.73 12.936,26.73 16.045,26.73 19.158,26.73 19.158,26.73 22.267,26.73 
		22.267,23.62 19.158,23.62 19.158,23.62 16.045,23.62 12.936,23.62 12.936,20.512 	"/>
	<polygon fill="#FFFFFF" points="35.01,23.62 31.9,23.62 31.9,23.62 28.789,23.62 28.789,20.512 28.789,18.202 28.789,17.4 
		28.789,14.289 25.676,14.289 25.676,17.4 25.676,18.202 25.676,20.512 25.676,23.62 25.676,23.622 25.676,26.73 28.789,26.73 
		31.9,26.73 31.9,26.73 35.01,26.73 38.119,26.73 38.119,23.62 	"/>
	<polygon fill="#FFFFFF" points="44.336,11.18 41.23,11.18 41.23,8.066 41.23,4.956 38.119,4.956 38.119,4.956 35.01,4.956 
		31.9,4.956 31.9,4.956 28.789,4.956 25.676,4.956 25.676,8.066 28.789,8.066 31.9,8.066 31.9,8.066 35.01,8.066 38.119,8.066 
		38.119,11.18 38.119,14.289 41.23,14.289 44.336,14.289 44.336,16.572 44.336,17.398 44.336,19.959 44.336,23.342 44.336,23.342 
		44.336,26.73 47.449,26.73 47.449,23.342 47.449,23.342 47.449,19.959 47.449,17.398 47.449,16.572 47.449,14.289 47.449,14.289 
		47.449,11.18 	"/>
</g>
</svg>
