<?xml version="1.0" encoding="utf-8"?>
<!-- Generator: Adobe Illustrator 16.0.0, SVG Export Plug-In . SVG Version: 6.00 Build 0)  -->
<!DOCTYPE svg PUBLIC "-//W3C//DTD SVG 1.1//EN" "http://www.w3.org/Graphics/SVG/1.1/DTD/svg11.dtd">
<svg version="1.1" id="Layer_1" xmlns="http://www.w3.org/2000/svg" xmlns:xlink="http://www.w3.org/1999/xlink" x="0px" y="0px"
	 width="463.158px" height="300px" viewBox="0 0 463.158 300" enable-background="new 0 0 463.158 300" xml:space="preserve">
<path opacity="0.2" fill="none" stroke="#FFFFFF" stroke-width="2" stroke-miterlimit="10" enable-background="new    " d="
	M106.304,300v-39.344 M140.275,205.157h-33.971v16.157 M106.304,221.314v39.342 M174.247,221.314v-31.472h-33.972v15.313
	 M174.247,300v-39.344 M174.247,221.314v39.342 M140.275,205.157v16.157 M140.275,221.314v39.342 M140.275,300v-39.344
	 M231.577,221.314v8.127 M197.605,221.314v39.342 M231.577,221.314v-22.858h-33.972v22.858 M197.605,300v-39.344 M265.552,300
	v-39.344 M265.552,260.656v-31.215h-33.975 M231.577,300v-39.344 M231.577,229.441v31.215 M322.882,221.314V210.9h-33.974v10.414
	 M288.909,221.314v39.342 M288.909,260.656V300 M322.882,252.773v-31.459 M356.854,300v-39.344 M356.854,260.656v-7.883h-33.973
	 M322.882,252.773v7.883 M322.882,300v-39.344 M414.181,259.372v-25.935h-33.969v27.219 M380.212,260.656V300 M448.157,260.656
	v-1.284h-33.977 M448.157,260.656V300 M414.181,300v-39.344 M414.181,259.372v1.284 M82.946,300v-39.344 M82.946,260.656v-31.215
	H48.974 M15,181.975v39.342 M15,221.314v39.342 M48.974,181.975V166.87H15v15.104 M48.974,221.314v8.127 M15,300v-39.344
	 M48.974,181.975v39.342 M48.974,229.441v31.215 M48.974,300v-39.344"/>
</svg>
