<?xml version="1.0" encoding="utf-8"?>
<!-- Generator: Adobe Illustrator 16.0.0, SVG Export Plug-In . SVG Version: 6.00 Build 0)  -->
<!DOCTYPE svg PUBLIC "-//W3C//DTD SVG 1.1//EN" "http://www.w3.org/Graphics/SVG/1.1/DTD/svg11.dtd">
<svg version="1.1" id="Layer_1" xmlns="http://www.w3.org/2000/svg" xmlns:xlink="http://www.w3.org/1999/xlink" x="0px" y="0px"
	 width="463.158px" height="300px" viewBox="0 0 463.158 300" enable-background="new 0 0 463.158 300" xml:space="preserve">
<line opacity="0.2" fill="none" stroke="#FFFFFF" stroke-width="2" stroke-miterlimit="10" x1="0.737" y1="169" x2="0.737" y2="191"/>
<path opacity="0.2" fill="none" stroke="#FFFFFF" stroke-width="2" stroke-miterlimit="10" d="M91.737,37h-90V14h90V37z M133.737,37
	h-132v23h132V37z M108.737,60h-107v23h107V60z M413.737,83h-412v22h412V83z M207.737,105h-206v23h206V105z M315.737,128h-314v23h314
	V128z"/>
<path opacity="0.2" fill="none" stroke="#FFFFFF" stroke-width="2" stroke-miterlimit="10" d="M91.737,276h-90v23h90V276z
	 M133.737,276h-132v-23h132V276z M108.737,253h-107v-23h107V253z M413.737,230h-412v-22h412V230z M207.737,208h-206v-23h206V208z"/>
</svg>
