<?xml version="1.0" encoding="utf-8"?>
<!-- Generator: Adobe Illustrator 16.0.0, SVG Export Plug-In . SVG Version: 6.00 Build 0)  -->
<!DOCTYPE svg PUBLIC "-//W3C//DTD SVG 1.1//EN" "http://www.w3.org/Graphics/SVG/1.1/DTD/svg11.dtd">
<svg version="1.1" id="Layer_1" xmlns="http://www.w3.org/2000/svg" xmlns:xlink="http://www.w3.org/1999/xlink" x="0px" y="0px"
	 width="463.158px" height="300px" viewBox="0 0 463.158 300" enable-background="new 0 0 463.158 300" xml:space="preserve">
<g opacity="0.2">
	<path fill="none" stroke="#FFFFFF" stroke-width="2" stroke-miterlimit="10" d="M55.193,298v-62.806 M74.706,146.597H55.193v25.797
		 M55.193,172.394v62.801 M94.222,172.394v-50.242H74.706v24.445 M94.222,298v-62.806 M94.222,172.394v62.801 M74.706,146.597
		v25.797 M74.706,172.394v62.801 M74.706,298v-62.806 M127.152,248.752v12.971 M107.638,248.752v-13.558 M127.152,248.752v-36.493
		h-19.515v36.493 M107.638,298v-62.806 M146.671,298v-36.277 M146.671,261.723h-19.519 M127.152,298v-62.806 M127.152,261.723
		v-26.528 M179.602,231.56v-16.626h-19.514v16.626 M160.087,231.56v3.635 M160.087,235.194V298 M179.602,281.779v-50.22
		 M199.116,298v-62.806 M199.116,235.194v-0.177h-19.515 M179.602,281.779v-46.585 M179.602,298v-62.806 M232.046,268.028V226.63
		h-19.512v43.452 M212.534,270.082V298 M251.562,270.082v-2.054h-19.517 M251.562,270.082V298 M232.046,298v-27.918
		 M232.046,268.028v2.054 M41.775,298v-62.806 M41.775,235.194v-49.83H22.261 M2.746,109.586v62.807 M2.746,172.394v62.801
		 M22.261,109.586V85.479H2.746v24.107 M22.261,172.394v12.971 M2.746,298v-62.806 M22.261,109.586v62.807 M22.261,185.364v49.83
		 M22.261,298v-62.806 M2.746,298 M22.261,298 M2.746,298"/>
	<path fill="none" stroke="#FFFFFF" stroke-width="2" stroke-miterlimit="10" d="M284.3,240.341h-19.511V298 M264.789,266.139
		 M303.814,266.139v-50.241H284.3v24.443 M303.814,298v-62.806 M284.3,240.341v25.798 M284.3,266.139v-30.944 M284.3,298v-62.806
		 M317.233,215.897v19.297 M336.748,215.897h-19.515 M317.233,298v-62.806 M356.265,298v-62.806 M356.265,235.194v-11.644h-19.517
		 M336.748,298v-62.806 M336.748,215.897v19.297 M389.197,172.394v-78.21h-19.517v78.21 M369.681,172.394v62.801 M369.681,235.194
		V298 M389.197,222.612v-50.219 M408.711,298v-62.806 M408.711,235.194V98.485h-19.514 M389.197,222.612v12.582 M389.197,298
		v-62.806 M441.642,233.141V77.415h-19.513v157.779 M422.129,235.194V298 M461.158,235.194v-116.38h-19.517 M461.158,235.194V298
		 M441.642,298v-62.806 M441.642,233.141v2.054"/>
</g>
</svg>
