<?xml version="1.0" encoding="utf-8"?>
<!-- Generator: Adobe Illustrator 16.0.0, SVG Export Plug-In . SVG Version: 6.00 Build 0)  -->
<!DOCTYPE svg PUBLIC "-//W3C//DTD SVG 1.1//EN" "http://www.w3.org/Graphics/SVG/1.1/DTD/svg11.dtd">
<svg version="1.1" id="Layer_1" xmlns="http://www.w3.org/2000/svg" xmlns:xlink="http://www.w3.org/1999/xlink" x="0px" y="0px"
	 width="463.158px" height="300px" viewBox="0 0 463.158 300" enable-background="new 0 0 463.158 300" xml:space="preserve">
<g opacity="0.2">
	<g id="fl_1_" opacity="0.3">
		<title>Florida</title>
		<path id="FL_1_" fill="none" stroke="#FFFFFF" stroke-width="2" stroke-miterlimit="10" d="M377.122,225.444l1.146,3.722
			l1.899,4.955l2.716,4.768l1.886,3.204l2.466,2.796l2.055,1.89l0.822,1.481l-0.572,0.657l-0.411,0.658l1.48,3.782l1.478,1.477
			l1.319,2.714l1.808,2.961l2.301,4.193l0.651,3.863l0.253,6.083l0.33,0.9l-0.165,1.73l-1.237,0.657l0.168,0.987l-0.327,0.985
			l0.159,1.231l0.249,0.986l-1.396,1.646l-1.562,0.739l-1.969,0.083l-0.743,0.821l-1.234,0.495l-0.654-0.246l-0.577-0.492
			l-0.169-1.484l-0.408-1.725l-1.725-2.629l-1.808-1.152l-1.977-0.166l-0.408,0.655l-1.562-2.216l-0.33-1.808l-1.312-2.056
			l-0.907-0.573l-0.823,1.065l-0.9-0.163l-1.07-2.549l-1.478-1.974l-1.483-2.712l-1.312-1.562l-1.812-1.889l1.072-1.234l1.643-2.794
			l-0.08-0.824l-2.305-0.49l-0.819,0.324l0.165,0.33l1.312,0.495l-0.742,2.298l-0.405,0.25l-0.907-2.056l-0.657-2.467l-0.166-1.399
			l0.742-2.381v-4.85l-1.562-1.891l-0.658-1.563l-2.634-0.655l-0.982-0.332l-0.826-1.314l-1.728-0.821l-0.57-1.726l-1.396-0.491
			l-1.238-1.895l-2.135-0.739l-1.481-0.739h-1.312l-2.055,0.411l-0.085,0.985l0.412,0.493l-0.245,0.572l-1.562-0.077l-1.889,1.808
			l-1.809,0.985h-1.977l-1.641,0.662l-0.164-1.399l-0.823-0.989l-1.479-0.573l-0.825-0.738l-4.112-1.975l-3.863-0.904l-2.217,0.327
			l-3.039,0.247l-3.044,1.069l-1.768,0.311l-0.125-4.088l-1.315-0.989l-0.903-0.904l0.165-1.565l5.174-0.654l12.992-1.477
			l3.451-0.332l2.77,0.139l1.316,1.978l0.734,0.736l4.123,0.266l5.499-0.331l10.939-0.658l2.768-0.34l2.597,0.104l0.22,1.477
			l1.137,0.412l0.117-2.354l-0.778-2.122l0.665-0.732l2.823,0.233L377.122,225.444z M383.498,292.772l1.234-0.33l0.658-0.122
			l0.742-1.19l1.191-0.825l0.653,0.248l0.864,0.166l0.209,0.531l-1.768,0.621l-2.143,0.74l-1.19,0.612L383.498,292.772z
			 M390.362,290.225l0.621,0.535l1.394-1.069l2.716-2.138l1.892-1.976l1.272-3.367l0.492-0.862l0.085-1.728l-0.375,0.248
			l-0.492,1.438l-0.738,2.341l-1.647,2.672l-2.216,2.136l-1.724,0.988L390.362,290.225z"/>
	</g>
	<g id="nh_1_" opacity="0.3">
		<title>New Hampshire</title>
		<path id="NH_1_" fill="none" stroke="#FFFFFF" stroke-width="2" stroke-miterlimit="10" d="M438.64,74.565l0.438-0.547
			l0.557-1.673l-1.295-0.467l-0.243-1.561l-1.974-0.577l-0.165-1.396l-3.697-11.916l-2.341-7.398l-0.455-0.004l-0.332,0.82
			l-0.33-0.243l-0.489-0.492l-0.741,0.983l-0.024,2.56l0.159,2.88l0.984,1.396v2.061l-1.89,2.57l-1.318,0.574v0.577l0.581,0.907
			v4.355l-0.416,4.686l-0.081,2.462l0.497,0.661l-0.086,2.303l-0.248,0.902l0.498,0.361l8.535-2.25l1.103-0.305l0.939-1.41
			L438.64,74.565L438.64,74.565z"/>
	</g>
	<g id="MI_1_" opacity="0.3">
		<title>Michigan</title>
		<path id="MI-_1_" fill="none" stroke="#FFFFFF" stroke-width="2" stroke-miterlimit="10" d="M345.617,92.269l-1.646-4.193
			l-1.147-4.605l-1.234-1.645l-1.315-0.906l-0.823,0.577l-1.971,0.905l-0.988,2.55l-1.396,1.889l-0.576,0.328l-0.742-0.328
			c0,0-1.312-0.739-1.229-1.067c0.078-0.329,0.246-2.547,0.246-2.547l1.725-0.659l0.408-1.728l0.333-1.312l1.231-0.827l-0.165-5.094
			l-0.82-1.154l-0.653-0.41l-0.415-1.068l0.415-0.412l0.815,0.165l0.085-0.821l-1.234-1.151l-0.655-1.314h-1.315l-2.301-0.741
			l-2.801-1.727h-1.396l-0.327,0.331l-0.496-0.244l-1.562-1.155l-1.48,0.904l-1.48,1.153l0.168,1.811l0.492,0.161l1.069,0.245
			l0.25,0.416l-1.319,0.408l-1.315,0.167l-0.739,0.903l-0.165,1.069l0.165,0.822l0.166,2.795l-1.809,1.066l-0.326-0.08v-2.137
			l0.653-1.231l0.331-1.235l-0.412-0.412l-0.988,0.412l-0.492,2.138l-1.4,0.579l-0.9,0.984l-0.084,0.491l0.33,0.412l-0.33,1.315
			l-1.151,0.249v0.571l0.409,1.233l-0.57,3.124l-0.824,2.058l0.332,2.381l0.246,0.577l-0.412,1.234l-0.166,0.412l-0.16,1.393
			l1.804,3.045l1.478,3.289l0.742,2.462l-0.408,2.383l-0.495,3.043l-1.231,2.632l-0.166,1.395l-1.656,1.571l2.24-0.086l10.89-1.147
			l3.704-0.502l0.048,0.848l3.484-0.619l5.234-0.764l1.964-0.231l0.068-0.303l0.084-0.739l1.069-1.887l1.017-0.885l-0.116-2.569
			l0.813-0.812l0.553-0.175l0.115-1.808l0.782-1.542l0.533,0.307l0.081,0.331l0.412,0.079l0.987-0.491L345.617,92.269
			L345.617,92.269z"/>
		<path id="SP-_1_" fill="none" stroke="#FFFFFF" stroke-width="2" stroke-miterlimit="10" d="M286.505,43.871l0.932-1.047
			l1.104-0.408l2.735-1.978l1.16-0.288l0.233,0.228l-2.615,2.618l-1.687,0.991l-1.045,0.463L286.505,43.871L286.505,43.871z
			 M330.328,60.205l0.326,1.274l1.644,0.084l0.658-0.617c0,0-0.044-0.741-0.205-0.823c-0.163-0.083-0.823-0.945-0.823-0.945
			l-1.11,0.125l-0.819,0.083l-0.167,0.573L330.328,60.205L330.328,60.205z M279.324,58.696l0.36-0.297l1.404-0.412l1.804-1.15
			v-0.493l0.331-0.331l3.04-0.493l1.234-0.985l2.219-1.069l0.082-0.658l0.988-1.478l0.904-0.411l0.655-0.908l1.153-1.146
			l2.219-1.239l2.382-0.246l0.577,0.577l-0.165,0.492l-1.893,0.497l-0.735,1.558l-1.153,0.415l-0.244,1.229l-1.238,1.648
			l-0.161,1.312l0.412,0.246l0.492-0.58l1.808-1.474l0.658,0.658h1.147l1.643,0.492l0.745,0.574l0.735,1.565l1.399,1.397
			l1.975-0.081l0.738-0.492l0.823,0.658l0.819,0.243l0.659-0.409h0.576l0.823-0.492l2.054-1.81l1.728-0.579l3.371-0.162l2.3-0.987
			l1.315-0.654l0.739,0.08v2.875l0.249,0.167l1.479,0.412l0.988-0.246l3.123-0.823l0.574-0.577l0.742,0.246v3.536l1.64,1.562
			l0.661,0.327l0.654,0.495l-0.654,0.167l-0.412-0.167l-1.889-0.245l-1.069,0.327l-1.149-0.083l-1.644,0.739h-0.908l-2.958-0.656
			l-2.628,0.084l-0.988,1.312l-3.536,0.332l-1.231,0.409l-0.576,1.565l-0.657,0.572l-0.251-0.083l-0.738-0.821l-2.301,1.234h-0.327
			l-0.577-0.821l-0.415,0.082l-0.98,2.219l-0.496,2.056l-1.616,3.556l-0.598-0.522l-0.694-0.524l-0.989-5.231l-1.801-0.699
			l-1.047-1.16l-6.163-1.397l-1.454-0.523l-4.187-1.106l-4.01-0.581L279.324,58.696L279.324,58.696z"/>
	</g>
	<g id="vt_1_" opacity="0.3">
		<title>Vermont</title>
		<path id="VT_1_" fill="none" stroke="#FFFFFF" stroke-width="2" stroke-miterlimit="10" d="M420.174,80.479l0.158-2.714
			l-1.467-5.487l-0.332-0.162l-1.478-0.661l0.412-1.481l-0.412-1.063l-1.372-2.362l0.495-1.974l-0.415-2.627l-1.23-3.291
			l-0.408-2.502l13.431-3.424l0.16,2.807l0.973,1.394v2.061l-1.887,2.567l-1.314,0.582l-0.007,0.568l0.668,0.773l-0.158,4.117
			l-0.311,4.71l-0.115,2.826l0.489,0.657l-0.077,2.324l-0.246,0.86l0.512,0.368l-3.778,0.766L420.174,80.479L420.174,80.479z"/>
	</g>
	<g id="me_1_" opacity="0.3">
		<title>Maine</title>
		<path id="ME_1_" fill="none" stroke="#FFFFFF" stroke-width="2" stroke-miterlimit="10" d="M460.018,42.226L461,43.295l1.157,1.89
			v0.986l-1.073,2.385l-0.985,0.329l-1.725,1.562l-2.465,2.797c0,0-0.327,0-0.658,0s-0.495-1.073-0.495-1.073l-0.901,0.083
			l-0.499,0.741l-1.231,0.742l-0.489,0.742l0.816,0.739l-0.246,0.324l-0.243,1.4l-0.988-0.081v-0.82l-0.165-0.661l-0.739,0.162
			l-0.903-1.642l-1.066,0.656l0.654,0.743l0.161,0.573l-0.408,0.662l0.166,1.56l0.081,0.821l-0.819,1.315l-1.481,0.247l-0.165,1.479
			l-2.709,1.561l-0.665,0.248l-0.816-0.741l-1.565,1.809l0.496,1.646l-0.738,0.658l-0.085,2.22l-0.57,3.181l-1.255-0.59
			l-0.246-1.559l-1.973-0.577L436,68.414l-3.698-11.919l-2.392-7.444l0.723-0.061l0.771,0.209v-1.313l0.666-2.29l1.312-2.382
			l0.742-2.058l-0.988-1.231v-3.039l0.412-0.494l0.411-1.399l-0.081-0.74l-0.081-2.464l0.904-2.469l1.478-4.519l1.07-2.137h0.656
			l0.654,0.083v0.575l0.658,1.15l1.399,0.329l0.412-0.41v-0.496l2.052-1.48l0.907-0.905l0.739,0.084l3.042,1.233l0.985,0.494
			l4.602,15.209h3.043l0.412,0.983l0.08,2.466l1.483,1.154h0.409l0.081-0.253l-0.246-0.57l1.396-0.084H460.018z M449.375,57.557
			l0.775-0.781l0.702,0.533l0.286,1.236L450.279,59L449.375,57.557z M452.785,54.556l0.908,0.947c0,0,0.655,0.039,0.655-0.123
			c0-0.166,0.121-1.029,0.121-1.029l0.451-0.412l-0.411-0.904l-1.025,0.371L452.785,54.556z"/>
	</g>
	<g id="ri_1_" opacity="0.3">
		<title>Rhode Island</title>
		<path id="RI_1_" fill="none" stroke="#FFFFFF" stroke-width="2" stroke-miterlimit="10" d="M435.213,93.109l-1.876-7.604
			l3.188-0.938l1.116,0.98l1.68,2.196l1.366,2.24l-1.524,0.821l-0.657-0.081l-0.573,0.904l-1.235,0.988L435.213,93.109
			L435.213,93.109z"/>
	</g>
	<g id="ny_1_" opacity="0.3">
		<title>New York</title>
		<path id="NY_1_" fill="none" stroke="#FFFFFF" stroke-width="2" stroke-miterlimit="10" d="M412.999,98.119l-0.573-0.493
			l-1.319-0.084l-1.147-0.985l-0.829-3.116l-1.758,0.046l-1.245-1.38l-9.857,2.229l-21.866,4.441l-3.822,0.628l-0.378-3.292
			l0.725-0.573l0.658-0.574l0.489-0.82l0.907-0.577l0.988-0.908l0.246-0.823l1.066-1.397l0.576-0.492l-0.08-0.493l-0.657-1.562
			l-0.905-0.084l-0.987-3.119l1.477-0.906l2.224-0.739l2.054-0.656l1.646-0.25l3.202-0.081l0.985,0.656l0.823,0.082l1.072-0.656
			l1.314-0.572l2.626-0.25l1.072-0.904l0.904-1.643l0.823-0.988h1.065l0.989-0.577l0.081-1.15l-0.74-1.07l-0.164-0.737l0.576-1.073
			v-0.737h-0.907l-0.9-0.412l-0.412-0.573l-0.081-1.314l2.955-2.795l0.332-0.415l0.741-1.478l1.478-2.302l1.396-1.888l1.069-1.234
			l1.228-0.931l1.566-0.632l2.796-0.657l1.644,0.082l2.304-0.739l3.85-1.054l0.264,2.533l1.23,3.288l0.408,2.63l-0.492,1.972
			l1.315,2.301l0.412,1.071l-0.412,1.481l1.481,0.654l0.33,0.167l1.562,5.588l-0.276,2.574l-0.24,5.506l0.404,2.795l0.415,1.809
			l0.738,3.7v4.107l-0.576,1.154l0.932,1.012l0.411,0.854l-0.988,0.906l0.165,0.656l0.654-0.164l0.739-0.656l1.153-1.315
			l0.577-0.331l0.823,0.331l1.15,0.079l4.024-1.972l1.478-1.397l0.661-0.741l2.139,0.822l-1.727,1.812l-1.975,1.476l-3.615,2.714
			l-1.312,0.496l-2.963,0.985l-2.054,0.577l-0.6-0.273l-0.126-1.875l0.25-1.4l-0.084-1.066l-1.431-0.862l-2.301-0.497l-1.974-0.57
			L412.999,98.119L412.999,98.119z"/>
	</g>
	<g id="pa_1_" opacity="0.3">
		<title>Pennsylvania</title>
		<path id="PA_1_" fill="none" stroke="#FFFFFF" stroke-width="2" stroke-miterlimit="10" d="M410.327,116.396l0.668-0.135
			l1.185-0.638l0.616-1.263l0.816-1.148l1.65-1.562v-0.416l-1.235-0.821l-1.808-1.229l-0.496-1.319l-1.396-0.166l-0.08-0.57
			l-0.412-1.4l1.15-0.577l0.084-1.231l-0.657-0.662l0.077-0.818l0.992-1.563v-1.562l1.369-1.346l-0.47-0.342l-1.281-0.096
			l-1.167-0.985l-0.785-3.114l-1.782,0.05l-1.251-1.376l-9.2,2.136l-21.863,4.442l-4.521,0.739l-0.317-3.316l-2.726,2.577
			l-0.658,0.245l-2.138,1.534l1.479,9.726l1.263,4.949l1.814,9.796l1.659-0.327l6.079-0.761l19.283-3.901l7.564-1.433l4.223-0.827
			l0.132-0.118l1.072-0.823L410.327,116.396L410.327,116.396z"/>
	</g>
	<path id="NJ_1_" opacity="0.3" fill="none" stroke="#FFFFFF" stroke-width="2" stroke-miterlimit="10" d="M412.644,97.974
		l-1.184,1.389v1.561l-0.981,1.564l-0.081,0.821l0.654,0.66l-0.08,1.234l-1.155,0.574l0.412,1.398l0.084,0.576l1.396,0.162
		l0.492,1.318l1.812,1.233l1.228,0.821v0.413l-1.515,1.368l-0.819,1.153l-0.739,1.396l-1.153,0.661l-0.233,0.815l-0.127,0.612
		l-0.308,1.326l0.556,1.14l1.644,1.481l2.467,1.153l2.055,0.327l0.083,0.741l-0.414,0.492l0.165,1.395h0.411l1.066-1.229
		l0.414-2.467l1.398-2.056l1.564-3.288l0.57-2.796l-0.324-0.574l-0.085-4.767l-0.819-1.729l-0.576,0.414l-1.399,0.165l-0.244-0.247
		l0.574-0.492l1.069-0.989l0.03-0.557l-0.193-1.744l0.288-1.4L420.588,101l-1.43-0.887l-2.588-0.6l-2.098-0.702L412.644,97.974
		L412.644,97.974z"/>
	<path id="DE_1_" opacity="0.3" fill="none" stroke="#FFFFFF" stroke-width="2" stroke-miterlimit="10" d="M410.585,118.221
		l0.187-1.09l0.192-0.86l-0.826,0.201l-0.823,0.236l-1.124,0.897l0.878,2.566l1.149,2.877l1.07,4.93l0.819,3.207l2.551-0.084
		l3.12-0.597l-1.15-3.759l-0.496,0.25l-1.805-1.233l-0.9-2.387l-0.992-1.805l-1.599-1.461l-0.438-1.066L410.585,118.221
		L410.585,118.221z"/>
	<path id="MD_1_" opacity="0.3" fill="none" stroke="#FFFFFF" stroke-width="2" stroke-miterlimit="10" d="M417.786,130.494
		l-3.053,0.61l-2.614,0.061l-0.941-3.521l-0.978-4.659l-1.307-3.147l-0.657-2.235l-3.812,0.825l-7.566,1.434l-19.044,3.839
		l0.576,2.55l0.489,2.878l0.17-0.166l1.062-1.235l1.153-1.329l1.235-0.312l0.735-0.744l0.907-1.316l0.658,0.333l1.481-0.164
		l1.315-1.069l1.02-0.741l0.94-0.245l0.836,0.572l1.479,0.74l0.984,0.906l0.622,0.781l2.09,0.864v1.478l2.798,0.659l0.581,0.273
		l0.718-1.03l1.467,1.003l-0.65,1.26l-0.389,2.024l-0.907,1.319v1.066l0.326,0.908l2.578,0.69l2.192-0.036l1.563,0.494l1.065,0.169
		l0.496-1.071l-0.739-1.07v-0.904l-1.234-1.07l-1.066-2.793l0.655-2.712l-0.081-1.073l-0.659-0.654c0,0,0.74-0.819,0.74-1.15
		c0-0.33,0.249-1.067,0.249-1.067l0.985-0.66l0.984-0.823l0.249,0.497l-0.745,0.821l-0.65,1.891l0.162,0.577l0.899,0.162
		l0.251,2.793l-1.07,0.499l0.166,1.806l0.242-0.083l0.581-0.987l0.82,0.902l-0.82,0.658l-0.17,1.726l1.316,1.73l1.977,0.243
		l0.82-0.412l1.646,2.129l0.691,0.273l3.384-1.422l1.022-2.046L417.786,130.494L417.786,130.494z M409.666,135.087l0.577,1.272
		l0.08,0.906l0.58,0.945c0,0,0.45-0.453,0.45-0.618s-0.368-1.56-0.368-1.56l-0.372-1.196L409.666,135.087L409.666,135.087z"/>
	<path id="VA_1_" opacity="0.3" fill="none" stroke="#FFFFFF" stroke-width="2" stroke-miterlimit="10" d="M413.639,137.437
		l-0.071-0.989l3.283-1.295l-0.392,1.637l-1.488,1.919l-0.212,2.331l0.236,1.724l-0.931,2.533l-1.1,0.975l-0.749-2.362l0.229-2.77
		l0.81-2.125L413.639,137.437z M415.343,151.832l-29.586,6.389l-19.03,2.689l-3.396-0.194l-1.316,0.979l-3.728,0.112l-4.268,0.499
		l-5.549,0.819l5.323-2.854l-0.006-1.052l0.775-1.093l5.366-5.847l2.005,2.273l1.926,0.493l1.296-0.578l1.134-0.668l1.292,0.682
		l1.989-0.729l0.955-2.313l1.319,0.274l1.451-1.083l0.916,0.248l1.441-1.868l0.175-1.061l-0.492-0.649l0.513-0.948l2.683-6.239
		l0.311-2.918l0.627-0.267l1.109,1.24l2.001-0.15l0.982-3.853l1.416-0.288l0.536-1.391l1.309-1.192l1.414-2.898l0.037-2.575l5,1.943
		c0.343,0.17,0.425-2.569,0.425-2.569l1.855,0.814l0.034,1.493l2.941,0.661l1.086,0.597l0.84,1.046l-0.33,1.859l-0.992,1.314
		l0.055,1.047l0.3,0.945l2.534,0.641l2.263,0.02l1.565,0.488l0.985,0.16l0.364,1.569l1.622,0.208l0.438,0.608l-0.222,2.381
		l0.694,0.563l-0.239,0.979l0.624,0.404l-0.111,0.702l-1.369-0.045l0.047,0.821l1.157,0.783l0.063,0.72l0.901,0.906l0.246,1.286
		l-1.295,0.701l0.799,0.759l2.952-0.856L415.343,151.832L415.343,151.832z"/>
	<path id="WV_1_" opacity="0.3" fill="none" stroke="#FFFFFF" stroke-width="2" stroke-miterlimit="10" d="M377.817,123.66
		l0.563,2.513l0.553,3.062l1.082-1.31l1.155-1.564l1.284-0.31l0.739-0.743l0.91-1.312l0.732,0.331l1.478-0.168l1.315-1.069
		l1.022-0.739l0.938-0.243l0.664,0.513l1.849,0.926l0.989,0.906l0.701,0.662l-0.388,2.823l-2.973-1.292l-2.159-0.825l-0.047,2.633
		l-1.4,2.81l-1.285,1.238l-0.604,1.398l-1.344,0.255l-0.458,1.833l-0.529,2.009l-2.017,0.17l-1.186-1.241l-0.547,0.285l-0.319,2.78
		l-0.688,1.8l-2.52,5.569l0.451,0.592l-0.101,0.972l-1.427,1.972l-0.918-0.279l-1.508,1.104l-1.296-0.294l-1.016,2.317
		c0,0-1.659,0.725-1.997,0.695c-0.08-0.007-1.255-0.639-1.255-0.639l-1.188,0.699l-1.225,0.536l-1.901-0.452l-0.574-0.593
		l-1.114-1.543l-1.599-1.007l-0.87-1.842l-2.179-1.766l-0.327-1.147l-1.319-0.743l-0.409-0.821l-0.123-2.674l1.108-0.039l0.989-0.41
		l0.081-1.4l0.82-0.743l0.083-2.543l0.493-1.971l0.658-0.335l0.657,0.578l0.246,0.904l0.908-0.496l0.245-0.822l-0.573-0.902v-1.233
		l0.493-0.656l1.146-1.729l0.657-0.737l1.069,0.243l1.151-0.821l1.564-1.729l1.151-1.97l0.158-2.875l0.25-2.55v-2.382l-0.578-1.562
		l0.497-0.742l0.65-0.657l1.781,10.083l2.352-0.383L377.817,123.66L377.817,123.66z"/>
	<path id="OH_1_" opacity="0.3" fill="none" stroke="#FFFFFF" stroke-width="2" stroke-miterlimit="10" d="M364.667,100.45
		l-3.1,2.064l-1.972,1.145l-1.726,1.893l-2.059,1.972l-1.643,0.41l-1.478,0.247l-2.801,1.314l-1.062,0.083l-1.728-1.562
		l-2.635,0.331l-1.31-0.741l-1.215-0.687l-2.485,0.358l-5.176,0.823l-5.7,1.109l0.657,7.438l0.9,6.985l1.319,11.924l0.283,2.456
		l2.099-0.067l1.231-0.409l1.714,0.765l1.049,2.219l2.614-0.012l0.962,1.08l0.895-0.035l1.292-0.68l1.271,0.188l2.756,0.248
		l0.885-1.083l1.188-0.658l1.056-0.345l0.327,1.395l0.907,0.494l1.766,1.191l1.112-0.042l0.676-0.248l0.097-1.407l0.801-0.74
		l0.05-2.436l0.522-2.085l0.662-0.308l0.671,0.582l0.276,0.864l0.874-0.528l0.223-0.741l-0.566-0.968l0.03-1.174l0.378-0.549
		l1.096-1.685l0.536-0.787l1.069,0.252l1.147-0.825l1.565-1.727l1.41-2.072l0.158-2.57l0.25-2.55l-0.092-2.695l-0.481-1.475
		l0.175-0.607l0.921-0.885l-1.167-4.603L364.667,100.45L364.667,100.45z"/>
	<path id="IN_1_" opacity="0.3" fill="none" stroke="#FFFFFF" stroke-width="2" stroke-miterlimit="10" d="M305.802,154.675
		l0.033-1.452l0.251-2.302l1.149-1.479l0.905-1.973l1.312-2.139l-0.246-2.958l-0.901-1.396l-0.164-1.645l0.407-2.795L308.305,133
		l-0.657-8.14l-0.662-7.807l-0.492-5.961l1.562,0.454l0.743,0.493l0.573-0.164l1.072-0.988l1.438-0.822l2.588-0.084l11.18-1.148
		l2.833-0.27l0.767,8.11l2.162,18.736l0.304,2.935l-0.189,1.152l0.624,0.91l0.051,0.701l-1.286,0.813l-1.798,0.788l-1.629,0.28
		l-0.304,2.475l-2.324,1.685l-1.424,2.039l0.167,1.208l-0.291,0.781h-1.697l-0.81-0.825l-1.266,0.648l-1.362,0.759l0.084,1.551
		l-0.61,0.134l-0.239-0.515l-1.097-0.766l-1.652,0.683l-0.793,1.53l-0.729-0.412l-0.738-0.814l-2.271,0.245l-2.848,0.495
		L305.802,154.675L305.802,154.675z"/>
	<path id="IL_1_" opacity="0.3" fill="none" stroke="#FFFFFF" stroke-width="2" stroke-miterlimit="10" d="M305.789,154.865
		l0.018-1.643l0.289-2.359l1.185-1.484l0.948-2.074l1.137-2.031l-0.188-2.672l-1.019-1.8l-0.052-1.704l0.354-2.68l-0.423-3.65
		l-0.538-8.025l-0.658-7.631l-0.469-5.918l-0.139-0.472l-0.411-1.312l-0.655-1.893l-0.822-0.904l-0.742-1.316l-0.122-2.79
		l-23.284,1.323l0.115,1.204l1.164,0.35l0.465,0.581l0.233,0.934l1.973,1.742l0.355,1.161l-0.355,1.745l-0.927,1.861l-0.355,1.277
		l-1.156,0.929l-0.932,0.351l-2.675,0.695l-0.347,0.928l-0.348,1.049l0.348,0.697l0.934,0.812l-0.118,2.094l-0.932,0.816
		l-0.347,0.815v1.395l-0.928,0.229l-0.819,0.583l-0.116,0.695l0.116,1.049l-0.87,0.667l-0.521,1.428l0.229,1.858l1.161,3.721
		l3.721,3.831l2.79,1.863l-0.115,2.21l0.466,0.693l3.256,0.234l1.393,0.699l-0.347,1.859l-1.164,3.022l-0.351,1.626l1.163,1.98
		l3.255,2.668l2.328,0.352l1.047,2.561l1.045,1.626l-0.462,1.51l0.81,2.093l0.931,1.046l0.723-0.445l0.459-1.06l1.127-0.883
		l1.082-0.314l1.323,0.598l1.842,0.701l0.607-0.155l0.101-1.144l-0.655-1.228l0.156-1.211l0.938-0.681l1.535-0.413l0.641-0.233
		l-0.317-0.705l-0.4-1.2l0.731-0.499L305.789,154.865L305.789,154.865z"/>
	<path id="CT_1_" opacity="0.3" fill="none" stroke="#FFFFFF" stroke-width="2" stroke-miterlimit="10" d="M435.213,93.092
		l-1.865-7.565l-2.403,0.47l-10.791,2.409l0.507,1.643l0.741,3.701l0.091,4.558l-0.624,1.103l0.982,0.985l2.168-1.987l1.809-1.646
		l0.986-1.066l0.411,0.328l1.396-0.741l2.634-0.57L435.213,93.092z"/>
	<path id="WI_1_" opacity="0.3" fill="none" stroke="#FFFFFF" stroke-width="2" stroke-miterlimit="10" d="M303.514,102.507
		l-0.033-1.609l-0.597-2.305l-0.331-3.12l-0.577-1.231l0.493-1.566l0.415-1.479l0.735-1.319l-0.327-1.719l-0.327-1.814l0.243-0.901
		l0.988-1.231l0.08-1.397l-0.412-0.657l0.332-1.319l-0.229-2.12l1.396-2.88l1.478-3.451l0.084-1.147l-0.166-0.498l-0.407,0.245
		l-2.139,3.21l-1.4,2.054l-0.984,0.903l-0.408,1.152l-0.995,0.412l-0.581,0.988l-0.734-0.167l-0.082-0.9l0.654-1.235l1.07-2.385
		l0.902-0.821l0.504-1.2l-1.298-0.966l-1.006-5.271l-1.806-0.685l-0.987-1.172l-6.168-1.385l-1.464-0.514l-4.177-1.1l-4.027-0.592
		l-1.909-2.606l-0.385,0.278l-0.607-0.079l-0.334-0.576l-0.674,0.152l-0.578,0.081l-0.903,0.495l-0.489-0.332l0.324-0.984
		l0.988-1.565l0.573-0.573l-0.988-0.741l-1.066,0.414l-1.478,0.981l-3.782,1.648l-1.48,0.331l-1.48-0.25l-0.5-0.445l-1.076,1.437
		l-0.117,1.397v4.304l-0.574,0.812l-2.675,1.978l-1.164,3.023l0.229,0.115l1.278,1.048l0.352,1.627l-0.932,1.626v1.977l0.236,3.372
		l1.508,1.513h1.741l0.935,1.624l1.74,0.235l1.979,2.908l3.604,2.09l1.046,1.398l0.462,3.775l0.349,1.684l1.163,0.813l0.118,0.698
		l-1.047,1.748l0.116,1.629l1.281,1.974l1.278,0.583l1.508,0.229l0.685,0.702L303.514,102.507L303.514,102.507z"/>
	<path id="NC_1_" opacity="0.3" fill="none" stroke="#FFFFFF" stroke-width="2" stroke-miterlimit="10" d="M415.343,151.801
		l1.06,2.502l1.809,3.287l1.23,1.233l0.33,1.151l-1.234,0.082l0.411,0.33l-0.164,2.136l-1.312,0.657l-0.33,1.069l-0.659,1.478
		l-1.893,0.823l-1.235-0.165l-0.737-0.079l-0.82-0.659l0.166,0.659v0.488h0.984l0.407,0.66l-0.979,3.205h2.138l0.324,0.82
		l1.153-1.148l0.654-0.246l-0.984,1.806l-1.562,2.468h-0.655l-0.577-0.244l-1.396,0.328l-2.628,1.233l-3.292,2.716l-1.729,2.381
		l-0.983,3.289l-0.247,1.229l-2.385,0.249l-2.772,0.683l-5.062-4.174l-6.405-3.863l-1.481-0.407l-6.413,0.735l-2.176,0.383
		l-0.819-1.644l-1.512-1.077l-8.383,0.244l-3.701,0.41l-4.603,2.304l-3.126,1.316l-10.769,1.315l0.256-2.064l0.901-0.735l1.4-0.332
		l0.326-1.89l2.143-1.396l1.97-0.745l2.14-1.807l2.219-1.067l0.325-1.562l1.977-1.973l0.327-0.082c0,0,0,0.575,0.415,0.575
		c0.404,0,0.982,0.165,0.982,0.165l1.149-1.813l1.069-0.325l1.154,0.163l0.822-1.805l1.478-1.318l0.247-1.066l0.094-1.855
		l2.176-0.012l3.66-0.434l8.013-1.151l7.695-1.058l11.004-2.398l10.165-2.166l5.684-1.226L415.343,151.801L415.343,151.801z
		 M417.511,168.688l1.316-1.274l1.6-1.314l0.785-0.331l0.082-1.027l-0.327-3.123l-0.74-1.193l-0.326-0.945l0.367-0.123l1.397,2.794
		l0.201,2.262l-0.079,1.724l-1.729,0.787l-1.437,1.23l-0.577,0.616L417.511,168.688L417.511,168.688z"/>
	<g id="dc_1_" opacity="0.3">
		<title>Washington, D.C.</title>
		<path id="DC_1_" fill="none" stroke="#FFFFFF" stroke-width="2" stroke-miterlimit="10" d="M400.513,129.694l-0.948-0.924
			l-0.623-0.348l0.731-1.03l1.467,0.991L400.513,129.694z"/>
		<path id="dc_2_" fill="none" stroke="#FFFFFF" stroke-width="2" stroke-miterlimit="10" d="M400.513,126.645
			c1.684,0,3.047,1.364,3.047,3.049c0,1.684-1.363,3.053-3.047,3.053s-3.054-1.37-3.054-3.053
			C397.459,128.009,398.83,126.645,400.513,126.645z"/>
	</g>
	<path id="MA_1_" opacity="0.3" fill="none" stroke="#FFFFFF" stroke-width="2" stroke-miterlimit="10" d="M448.211,90.241
		l1.106-0.347l0.229-0.871l0.522,0.054l0.522,1.164l-0.637,0.233l-1.977,0.057L448.211,90.241z M443.441,90.646l1.167-1.336h0.813
		l0.931,0.756l-1.225,0.523l-1.1,0.525L443.441,90.646L443.441,90.646z M425.75,79.467l8.974-2.358l1.15-0.332l0.975-1.42
		l1.899-0.847l1.468,2.243l-1.231,2.63l-0.166,0.744l0.986,1.314l0.576-0.414h0.904l1.146,1.315l1.977,3.045l1.81,0.244l1.153-0.496
		l0.897-0.904l-0.408-1.397l-1.066-0.821l-0.742,0.414l-0.492-0.658l0.246-0.25l1.068-0.079l0.905,0.41l0.987,1.231l0.493,1.485
		l0.166,1.231l-2.14,0.738l-1.973,0.987l-1.974,2.301l-0.988,0.74v-0.493l1.237-0.738l0.243-0.908l-0.408-1.559l-1.481,0.737
		l-0.408,0.741l0.243,1.152l-1.049,0.509l-1.396-2.306l-1.728-2.216l-1.053-0.921l-3.323,0.954l-2.59,0.537l-10.509,2.331
		l-0.344-2.426l0.33-5.382l2.183-0.451L425.75,79.467L425.75,79.467z"/>
	<path id="TN_1_" opacity="0.3" fill="none" stroke="#FFFFFF" stroke-width="2" stroke-miterlimit="10" d="M345.012,163.973
		l-26.385,2.553l-8.012,0.898l-2.354,0.26l-1.967-0.011l-0.108,2.087l-4.164,0.134l-3.535,0.327l-4.114-0.065l-0.723,3.601
		l-0.857,2.788l-1.679,1.395l-0.686,2.227l-0.166,1.319l-2.054,1.147l0.742,1.811l-0.493,2.22l-0.493,0.402l54.999-5.289
		l0.202-2.016l0.925-0.755l1.441-0.388l0.34-1.884l2.084-1.378l2.055-0.764l2.082-1.811l2.254-1.029l0.267-1.562l2.064-2.023
		l0.279-0.062c0,0,0.018,0.579,0.429,0.579c0.412,0,0.985,0.177,0.985,0.177l1.146-1.821l1.056-0.334l1.161,0.155l0.81-1.8
		l1.505-1.341l0.212-0.992l0.155-1.881l-1.086-0.104l-1.325,1.034l-3.557,0.015l-9.338,1.211L345.012,163.973z"/>
	<path id="AR_1_" opacity="0.3" fill="none" stroke="#FFFFFF" stroke-width="2" stroke-miterlimit="10" d="M292.715,176.586
		l-2.023,0.362l-2.604-0.32l0.22-0.817l1.512-1.302l0.479-1.863l-0.928-1.508l-39.875,1.275l0.81,3.488v4.184l0.702,5.583
		l0.115,19.237l1.167,0.993l1.508-0.699l1.393,0.581l0.348,3.342l28.28-0.578l0.587-1.066l-0.148-1.806l-0.931-1.508l0.816-0.756
		l-0.816-1.281l0.351-1.271l0.698-2.851l1.278-1.051l-0.352-1.163l1.863-2.729l1.396-0.695l-0.057-0.762l-0.179-0.926l1.453-2.846
		l1.221-0.641l0.196-1.747l0.904-0.629l-1.599-0.244l-0.686-2.036l1.427-1.211l0.277-1.028l0.651-2.059L292.715,176.586
		L292.715,176.586z"/>
	<path id="MO_1_" opacity="0.3" fill="none" stroke="#FFFFFF" stroke-width="2" stroke-miterlimit="10" d="M274.722,128.31
		l-1.282-1.572l-0.58-1.162l-32.73,1.222l-1.16,0.055l0.638,1.277l-0.118,1.167l1.282,1.974l1.568,2.095l1.569,1.395l1.096,0.113
		l0.77,0.472v1.505l-0.934,0.816l-0.233,1.161l1.046,1.748l1.281,1.508l1.278,0.929l0.695,5.932l0.162,18.342l0.115,2.382
		l0.235,2.736l11.406-0.438l11.8-0.348l10.58-0.409l5.924-0.115l1.103,1.739l-0.347,1.683l-1.569,1.222l-0.293,0.935l2.735,0.233
		l1.984-0.349l0.87-2.791l0.33-2.98l1.07-1.302l1.318-0.753l0.023-1.556l0.517-0.984l-0.856-1.291l-0.679,0.502l-1.015-1.131
		l-0.651-2.423l0.404-1.282l-0.988-1.741l-0.932-2.327l-2.439-0.405l-3.545-2.85l-0.873-2.091l0.404-1.629l1.053-3.078l0.233-1.454
		l-0.996-0.526l-3.481-0.405l-0.522-0.871l-0.057-2.152l-2.79-1.744l-3.55-3.947l-1.161-3.724l-0.117-2.149L274.722,128.31
		L274.722,128.31z"/>
	<path id="GA_1_" opacity="0.3" fill="none" stroke="#FFFFFF" stroke-width="2" stroke-miterlimit="10" d="M332.612,182.938v1.109
		l0.084,1.068l0.327,1.727l1.729,4.03l1.231,5.017l0.74,3.122l0.819,2.465l0.746,3.535l1.069,3.204l1.312,1.728l0.242,1.728
		l0.989,0.408l0.083,1.069l-0.906,2.466l-0.244,1.646l-0.085,0.986l0.821,2.22l0.165,2.711l-0.408,1.231l0.327,0.413l0.741,0.41
		l0.105,1.638l1.138,1.702l1.14,1.1l4.027,0.085l5.503-0.332l10.94-0.657l2.766-0.342l2.327,0.015l0.085,1.48l1.316,0.408
		l0.165-2.218l-0.823-2.303l0.573-0.82l2.962,0.409l2.53,0.162l-0.398-3.203l1.154-5.096l0.741-2.142l-0.249-1.31l1.697-3.178
		l-0.264-0.688l-0.976,0.358l-1.309-0.658l-0.33-1.063l-0.654-1.812l-1.153-1.067l-1.312-0.331l-0.823-2.465l-1.487-3.223
		l-2.136-0.986l-1.073-0.985l-0.654-1.313l-1.073-0.988l-1.15-0.656l-1.146-1.479l-1.565-1.155l-2.301-0.899l-0.246-0.74
		l-1.232-1.484l-0.249-0.739l-1.727-2.522l-1.788,0.047l-1.909-1.199l-0.723-0.653l-0.162-0.906l0.438-0.984l1.138-0.565
		l-0.324-1.068L332.612,182.938L332.612,182.938z"/>
	<path id="SC_1_" opacity="0.3" fill="none" stroke="#FFFFFF" stroke-width="2" stroke-miterlimit="10" d="M379.725,209.69
		l-0.903,0.496l-1.312-0.661l-0.33-1.065l-0.654-1.812l-1.157-1.065l-1.312-0.328l-0.823-2.467l-1.396-3.042l-2.136-0.984
		l-1.073-0.991l-0.654-1.309l-1.071-0.99l-1.148-0.657l-1.146-1.479l-1.565-1.152l-2.301-0.902l-0.25-0.737l-1.23-1.482l-0.247-0.74
		l-1.73-2.63l-1.724,0.086l-2.055-1.234l-0.654-0.658l-0.165-0.904l0.407-0.988l1.153-0.494l-0.262-1.162l2.931-1.19l4.642-2.331
		l3.947-0.415l8.198-0.213l1.347,0.955l0.847,1.709l2.186-0.31l6.413-0.742l1.483,0.408l6.41,3.867l5.145,4.13l-2.759,2.776
		l-1.315,3.123l-0.247,3.204l-0.823,0.409l-0.576,1.402l-1.231,0.328l-1.069,1.808l-1.4,1.396l-1.147,1.728l-0.823,0.411
		l-1.808,1.725l-1.478,0.084l0.489,1.643l-2.547,2.797L379.725,209.69L379.725,209.69z"/>
	<path id="KY_1_" opacity="0.3" fill="none" stroke="#FFFFFF" stroke-width="2" stroke-miterlimit="10" d="M359.917,152.283
		l-1.161,1.225l-1.817,2.031l-2.51,2.78l-0.618,0.873l-0.026,1.065l-2.23,1.104l-2.878,1.725L345,164l-26.375,2.49l-8.009,0.907
		l-2.354,0.258l-1.967-0.016l-0.116,2.152l-4.159,0.071l-3.535,0.326l-4.062-0.03l0.61-0.674l1.278-0.777l0.112-1.632l0.464-0.929
		l-0.815-1.291l0.408-0.972l1.147-0.902l1.072-0.329l1.396,0.658l1.812,0.654l0.568-0.162l0.086-1.15l-0.654-1.234l0.161-1.147
		l0.985-0.745l1.316-0.323l0.819-0.332l-0.408-0.9l-0.327-0.992l0.765-0.502c0-0.02,0.639-1.793,0.632-1.862l1.548-0.747
		l2.706-0.498l2.287-0.247l0.708,0.825l0.776,0.447l0.81-1.581l1.622-0.651l1.121,0.752l0.205,0.51l0.598-0.135l-0.082-1.5
		l1.597-0.891l1.089-0.548l0.776,0.85l1.687-0.024l0.302-0.798l-0.19-1.153l1.326-2.036l2.426-1.746l0.357-2.456l1.49-0.231
		l1.931-0.84l1.241-0.871l-0.101-0.794l-0.585-0.741l0.287-1.523l2.132-0.059l1.169-0.378l1.702,0.724l1.042,2.222l2.612,0.005
		l1.041,1.124l0.821-0.078l1.325-0.647l2.665,0.291l1.306,0.112l0.859-1.046l1.326-0.725l0.962-0.359l0.327,1.439l1.038,0.539
		l1.343,1.062l0.062,2.879l0.411,0.801l1.319,0.793l0.396,1.164l2.11,1.752l0.919,1.84L359.917,152.283L359.917,152.283z"/>
	<path id="AL_1_" opacity="0.3" fill="none" stroke="#FFFFFF" stroke-width="2" stroke-miterlimit="10" d="M311.773,236.264
		l-0.756-7.279l-1.402-9.539l0.087-7.153l0.408-15.782l-0.08-8.463l0.08-3.271l22.623-1.838l-0.078,1.109l0.085,1.068l0.327,1.727
		l1.728,4.026l1.235,5.018l0.741,3.123l0.816,2.467l0.745,3.531l1.062,3.208l1.323,1.725l0.242,1.73l0.985,0.408l0.084,1.069
		l-0.903,2.466l-0.25,1.642l-0.08,0.991l0.823,2.217l0.161,2.714l-0.408,1.231l0.327,0.413l0.739,0.41l0.165,1.468l-2.844-0.179
		l-3.451,0.328l-12.991,1.481l-5.29,0.713l-0.115,1.465l0.905,0.903l1.312,0.986l0.297,4.037l-2.817,1.306l-1.396-0.165l1.396-0.985
		v-0.492l-1.562-3.042l-1.15-0.332l-0.738,2.225l-0.661,1.396l-0.328-0.081H311.773L311.773,236.264z"/>
	<path id="LA_1_" opacity="0.3" fill="none" stroke="#FFFFFF" stroke-width="2" stroke-miterlimit="10" d="M299.905,235.627
		l-1.673-1.611l0.516-2.797l-0.337-0.454l-4.709,0.511l-12.726,0.231l-0.351-1.214l0.467-4.299l1.689-3.025l2.554-4.419
		l-0.291-1.223l0.639-0.341l0.235-0.994l-1.163-1.049l-0.062-0.985l-0.928-2.21l-0.074-3.225l-28.209,0.468l0.017,4.869l0.344,4.771
		l0.352,1.974l1.282,2.094l0.462,2.557l2.21,2.789l0.114,1.627l0.351,0.348l-0.351,4.304l-1.512,2.558l0.813,1.048l-0.344,1.276
		l-0.354,3.721l-0.694,1.626l0.062,1.843l2.379-0.773l6.16,0.105l5.259,1.808l3.293,0.575l1.89-0.739l1.646,0.576l1.643,0.491
		l0.411-1.067l-1.646-0.577l-1.314,0.245l-1.398-0.82c0,0,0.085-0.657,0.41-0.737c0.33-0.082,1.567-0.496,1.567-0.496l0.9,0.742
		l0.908-0.492l1.644,0.326l0.738,1.232l0.166,1.153l2.301,0.163l0.902,0.902l-0.41,0.823l-0.659,0.412l0.823,0.823l4.274,1.808
		l1.812-0.658l0.489-1.234l1.318-0.331l0.904-0.739l0.654,0.495l0.408,1.479l-1.147,0.41l0.331,0.33l1.724-0.659l1.15-1.724
		l0.412-0.246l-1.065-0.166l0.407-0.823l-0.081-0.739l1.069-0.249l0.573-0.653l0.331,0.41c0,0-0.085,1.562,0.331,1.562
		c0.403,0,2.136,0.327,2.136,0.327l2.058,0.984l0.488,0.739h1.481l0.573,0.496l1.153-1.562v-0.738h-0.661l-1.729-1.397l-2.956-0.411
		l-1.643-1.15l0.576-1.396l1.151,0.164l0.084-0.332l-0.907-0.492v-0.245h1.644l0.906-1.565l-0.657-0.983l-0.166-1.399l-0.742,0.083
		l-0.984,1.069l-0.328,1.314l-1.563-0.328l-0.49-0.905l0.904-0.988l0.969-1.748l-0.541-1.226L299.905,235.627L299.905,235.627z"/>
	<path id="MS_1_" opacity="0.3" fill="none" stroke="#FFFFFF" stroke-width="2" stroke-miterlimit="10" d="M311.905,235.717
		l-0.132,0.64h-2.632l-0.738-0.41l-1.072-0.162l-3.451,0.982l-0.908-0.41l-1.312,2.137l-0.56,0.396l-0.57-1.262l-0.583-1.976
		l-1.741-1.632l0.577-2.816l-0.348-0.464l-0.928,0.111l-4.024,0.444l-12.485,0.188l-0.389-1.129l0.442-4.261l1.585-2.886l2.66-4.649
		l-0.227-1.234l0.624-0.334l0.226-0.976l-1.181-1.056l-0.061-1.091l-0.932-2.093l-0.054-3.035l0.676-1.263l-0.116-1.736
		l-0.897-1.566l0.772-0.756l-0.799-1.269l0.236-0.842l0.804-3.317l1.262-1.037l-0.329-1.203l1.863-2.699l1.44-0.685l-0.114-0.854
		l-0.146-0.856l1.461-2.833l1.193-0.622l0.078-0.451l18.989-1.977l0.095,3.194l0.082,8.467l-0.409,15.784l-0.084,7.149l1.399,9.535
		L311.905,235.717L311.905,235.717z"/>
	<path id="IA_1_" opacity="0.3" fill="none" stroke="#FFFFFF" stroke-width="2" stroke-miterlimit="10" d="M280.187,103.631
		l0.135,1.417l1.131,0.292l0.485,0.623l0.253,0.942l1.934,1.712l0.344,1.214l-0.344,1.741l-0.8,1.643l-0.409,1.393l-1.104,0.813
		l-0.872,0.292l-2.838,0.946l-0.709,1.96l0.371,0.698l0.939,0.854l-0.146,2.051l-0.9,0.784l-0.387,0.837l0.062,1.411l-0.957,0.233
		l-0.83,0.56l-0.139,0.688l0.139,1.072l-0.789,0.57l-1.255-1.596l-0.642-1.245l-33.428,1.281l-0.465,0.081l-1.046-2.292
		l-0.114-3.374l-0.813-2.091l-0.352-2.673l-1.16-1.861l-0.465-2.44l-1.394-3.837l-0.58-2.731l-0.701-1.105l-0.813-1.396l0.999-2.463
		l0.692-2.904l-1.394-1.048l-0.229-1.396l0.462-1.277h0.87l42.03-0.646l0.422,2.129l1.151,0.792l0.128,0.723l-1.032,1.727
		l0.094,1.629l1.282,1.932l1.285,0.658l1.569,0.253L280.187,103.631z"/>
	<path id="MN_1_" opacity="0.3" fill="none" stroke="#FFFFFF" stroke-width="2" stroke-miterlimit="10" d="M232.412,67.649
		l-0.232-4.301l-0.931-3.722l-0.928-6.854l-0.233-5.003l-0.931-1.744l-0.812-2.557v-5.229l0.35-1.982l-0.93-2.771l15.321,0.021
		l0.169-4.192l0.327-0.084l1.151,0.248l0.987,0.412l0.408,2.795l0.74,3.123l0.826,0.823h2.466l0.158,0.739l3.212,0.166v1.072h2.466
		l0.166-0.661l0.573-0.577l1.149-0.329l0.654,0.495h1.482l1.976,1.317l2.71,1.229l1.237,0.25l0.243-0.493l0.742-0.247l0.245,1.478
		l1.313,0.658l0.246-0.25l0.662,0.087v1.064l1.312,0.493h1.562l0.823-0.408l1.643-1.645l1.315-0.243l0.408,0.901l0.25,0.658h0.491
		l0.497-0.411l4.521-0.166l0.903,1.559h0.328l0.363-0.547l2.261-0.191l-0.313,1.159l-2.003,0.935l-4.7,2.066l-2.429,1.02
		l-1.562,1.313l-1.234,1.812l-1.15,1.968l-0.904,0.414l-2.301,2.55l-0.657,0.084l-2.2,1.4l-1.255,1.626l-0.118,1.626l0.052,4.088
		l-0.702,0.862l-2.581,1.911l-1.137,3.04l1.464,1.137l0.347,1.643l-0.944,1.646l0.088,1.906l0.187,3.422l1.538,1.527h1.689
		l0.965,1.592l1.717,0.253l1.963,2.889l3.604,2.09l1.089,1.464l0.341,3.273l-41.291,0.583l-0.175-18.143l-0.233-1.509l-2.092-1.746
		l-0.579-0.928v-0.814l1.045-0.815l0.698-0.699L232.412,67.649L232.412,67.649z"/>
	<path id="OK_1_" opacity="0.3" fill="none" stroke="#FFFFFF" stroke-width="2" stroke-miterlimit="10" d="M184.161,165.28
		l-8.488-0.649l-0.443,5.568l10.402,0.59l16.302,0.662l-1.187,12.418l-0.231,9.069l0.115,0.812l2.207,1.862l1.047,0.579l0.351-0.116
		l0.347-1.047l0.7,0.93h1.043v-0.7l1.396,0.7l-0.231,1.979l2.093,0.114l1.279,0.583l2.091,0.345l1.278,0.932l1.162-1.043
		l1.744,0.345l1.277,1.747h0.467v1.163l1.165,0.35l1.16-1.168l0.931,0.352h1.277l0.464,1.277l3.21,1.056l0.692-0.344l0.933-2.094
		h0.58l0.58,1.044l2.096,0.353l1.858,0.697l1.511,0.465l0.931-0.465l0.348-1.28h2.208l1.043,0.46l1.396-1.038h0.583l0.348,0.809
		h2.095l0.809-1.044l0.932,0.235l1.046,1.276l1.626,0.926l1.633,0.465l0.985,0.57l-0.199-18.922l-0.698-5.583l-0.082-4.511
		l-0.729-3.324l-0.397-3.652l-0.033-1.938l-6.174,0.161l-23.597-0.236l-22.905-1.04L184.161,165.28z"/>
	<path id="TX_1_" opacity="0.3" fill="none" stroke="#FFFFFF" stroke-width="2" stroke-miterlimit="10" d="M174.557,170.241
		l11.541,0.548l15.808,0.582l-1.183,11.926l-0.153,9.23l0.034,1.062l2.21,1.939l1.008,0.735l0.602-0.283l0.192-0.928l0.577,0.921
		L206.27,196v-0.742l0.845,0.493l0.582,0.207l-0.186,2.021l2.082,0.046l1.486,0.609l2.011,0.266l1.211,1.061l1.082-1.061
		l1.895,0.315l1.13,1.64l0.546,0.162l-0.081,0.998l1.124,0.403l1.189-1.042l1.081,0.314l1.134,0.017l0.476,1.24l3.215,1.074
		l0.815-0.392l0.753-2.125h0.175l0.461,0.041l0.622,1.053l2,0.337l1.697,0.573l1.744,0.608l0.935-0.5l0.361-1.275l2.263,0.022
		l0.921,0.471l1.423-1.068l0.563,0.021l0.431,0.815h2.062l0.772-1.03l0.948,0.205l0.992,1.224l1.791,1.04l1.451,0.409l0.773,0.411
		l1.244,1.019l1.544-0.679l1.368,0.577l0.289,3.104l-0.021,4.937l0.345,4.846l0.361,1.833l1.356,2.249l0.458,2.518l2.146,2.812
		l0.101,1.603l0.378,0.398l-0.367,4.261l-1.465,2.543l0.777,1.101l-0.321,1.188l-0.338,3.764l-0.766,1.696l0.151,1.779l-2.88,0.81
		l-5.014,2.3l-0.496,0.988l-1.315,0.985l-1.066,0.742l-0.66,0.408l-2.875,2.716l-1.397,1.065l-2.712,1.643l-2.881,1.235
		l-3.205,1.725l-0.9,0.739l-2.962,1.813l-1.73,0.327l-1.97,2.793l-2.058,0.165l-0.491,0.988l1.154,0.984l-0.743,2.795l-0.655,2.3
		l-0.577,1.975l-0.412,2.301l0.412,1.234l0.902,3.534l0.497,3.125l0.903,1.396l-0.492,0.738l-1.562,0.993l-2.876-1.98l-2.795-0.572
		l-0.658,0.245l-1.645-0.328l-2.137-1.565l-2.635-0.573l-3.861-1.724l-1.067-1.974l-0.656-3.289l-1.646-0.982l-0.331-1.154
		l0.331-0.326l0.167-1.727l-0.659-0.332l-0.331-0.491l0.659-2.22l-0.822-1.154l-1.645-0.657l-1.724-2.216l-1.812-3.373l-2.136-1.314
		l0.081-0.984l-2.712-6.247l-0.412-2.139l-0.908-0.989l-0.074-0.739l-3.044-2.71l-1.316-1.561v-0.58l-1.316-1.066l-3.453-0.572
		l-3.781-0.333l-1.562-1.152l-2.302,0.904l-1.811,0.742l-1.15,1.644l-0.491,1.892l-2.218,3.124l-1.234,1.229l-1.316-0.49
		l-0.905-0.577l-0.983-0.327l-1.974-1.151v-0.328l-0.904-0.986l-2.633-1.067l-3.78-3.947l-1.148-2.383v-4.113l-1.643-3.285
		l-0.25-1.394l-0.823-0.497l-0.573-1.068l-2.549-1.07l-0.662-0.823l-3.616-4.026l-0.656-1.644l-2.383-1.149l-0.739-2.223
		l-1.315-1.479l-0.99-0.245l-0.33-2.381l4.073,0.35l14.766,1.396l14.759,0.812l1.14-9.895l1.977-28.25l0.81-9.533l0.702,0.011
		 M225.523,287.006l-0.285-3.616l-1.399-3.658l-0.285-3.575l0.779-4.19l1.687-3.498l1.764-2.754l1.605-1.805l0.331,0.124
		l-2.425,3.367l-2.221,3.326l-1.028,3.374l-0.166,2.632l0.454,3.124l1.317,3.656l0.248,2.63l0.076,0.74L225.523,287.006
		L225.523,287.006z"/>
	<path id="NM_1_" opacity="0.3" fill="none" stroke="#FFFFFF" stroke-width="2" stroke-miterlimit="10" d="M137.28,217.753
		l-0.395-2.417l4.396,0.267l15.342,1.503l13.865,0.856l1.128-9.517l1.96-28.409l0.884-9.856l0.8,0.062l0.42-5.676l-52.885-5.41
		l-8.899,61.243l7.863,1.012l0.658-5.098L137.28,217.753L137.28,217.753z"/>
	<path id="KS_1_" opacity="0.3" fill="none" stroke="#FFFFFF" stroke-width="2" stroke-miterlimit="10" d="M249.012,167.09
		l-6.416,0.103l-23.438-0.232l-22.658-1.044l-12.522-0.639l1.979-32.851l11.231,0.344l20.486,0.429l22.529,0.499h2.591l1.109,1.103
		l1.026-0.011l0.833,0.514l-0.03,1.528l-0.927,0.88l-0.173,1.133l0.938,1.729l1.502,1.625l1.184,0.823l0.658,5.715L249.012,167.09
		L249.012,167.09z"/>
	<path id="NE_1_" opacity="0.3" fill="none" stroke="#FFFFFF" stroke-width="2" stroke-miterlimit="10" d="M237.934,124.54
		l1.647,3.569l-0.068,1.169l1.758,2.795l1.383,1.602h-2.567l-22.113-0.479l-20.739-0.449l-11.316-0.402l0.547-10.844l-16.436-1.489
		l2.211-22.373l7.902,0.519l10.23,0.584l9.072,0.581l12.089,0.58l5.463-0.233l1.048,1.165l2.442,1.511l0.582,0.465l2.205-0.701
		l1.98-0.231l1.394-0.115l0.932,0.697l2.062,0.814l1.508,0.815l0.236,0.814l0.465,1.044h0.931l0.401,0.023l0.456,2.382l1.485,4.306
		l0.292,1.908l1.282,1.922l0.29,2.602l0.817,2.152L237.934,124.54L237.934,124.54z"/>
	<path id="SD_1_" opacity="0.3" fill="none" stroke="#FFFFFF" stroke-width="2" stroke-miterlimit="10" d="M233.025,105.887
		l-0.024-0.296l-1.474-2.462l0.948-2.394l0.759-2.994l-1.414-1.061l-0.196-1.394l0.401-1.297l1.62,0.006l-0.06-2.543l-0.17-15.346
		l-0.314-1.917l-2.075-1.693l-0.495-0.85l-0.031-0.823l1.026-0.773l0.779-0.853l0.125-1.346l-29.622-0.816l-27.863-1.752
		l-2.709,32.388l7.42,0.458l10.143,0.614l9.024,0.472l12.087,0.663l6.091-0.216l1.002,1.142l2.64,1.653l0.389,0.368l2.31-0.737
		l3.328-0.312l0.85,0.678l2.141,0.81l1.498,0.832l0.2,0.755l0.529,1.142L233.025,105.887L233.025,105.887z"/>
	<path id="ND_1_" opacity="0.3" fill="none" stroke="#FFFFFF" stroke-width="2" stroke-miterlimit="10" d="M232.448,67.696
		l-0.314-4.288l-0.853-3.464l-0.961-6.623l-0.233-5.59l-0.884-1.563l-0.896-2.64l0.018-5.313l0.317-1.943l-0.933-2.783
		l-14.567-0.283l-9.451-0.333l-13.484-0.656l-11.667-1.087l-3.556,34.164l27.931,1.697L232.448,67.696L232.448,67.696z"/>
	<path id="WY_1_" opacity="0.3" fill="none" stroke="#FFFFFF" stroke-width="2" stroke-miterlimit="10" d="M174.007,74.997
		l-54.28-6.842l-7.162,44.982l57.593,6.906L174.007,74.997z"/>
	<path id="MT_1_" opacity="0.3" fill="none" stroke="#FFFFFF" stroke-width="2" stroke-miterlimit="10" d="M178.497,31.11
		l-15.601-1.427l-14.877-1.808l-14.879-2.056l-16.44-2.714l-9.37-1.724l-16.642-3.529l-2.277,10.859l1.744,3.835l-0.698,2.328
		l0.934,2.323l1.626,0.696l2.352,5.472l1.37,1.621l0.229,0.579l1.744,0.579l0.234,1.049l-3.606,8.95v1.28l1.28,1.629h0.464
		l2.441-1.511l0.351-0.582l0.81,0.349l-0.113,2.67l1.395,6.398l1.512,1.28l0.464,0.349l0.933,1.162l-0.234,1.743l0.348,1.744
		l0.582,0.464l1.162-1.165h1.397l1.626,0.815l1.28-0.465h2.09l1.864,0.815l1.392-0.235l0.234-1.508l1.512-0.351l0.698,0.699
		l0.229,1.629l0.729,0.422l0.958-5.61l54.277,6.828L178.497,31.11L178.497,31.11z"/>
	<path id="CO_1_" opacity="0.3" fill="none" stroke="#FFFFFF" stroke-width="2" stroke-miterlimit="10" d="M183.998,165.353
		l2.494-43.896l-57.657-6.43l-6.212,44.716L183.998,165.353z"/>
	<path id="ID_1_" opacity="0.3" fill="none" stroke="#FFFFFF" stroke-width="2" stroke-miterlimit="10" d="M66.259,91.884
		l4.46-17.913l0.691-2.146l1.282-3.022l-0.639-1.166l-1.28,0.06l-0.406-0.523l0.232-0.58l0.174-1.572l2.269-2.79l0.933-0.229
		l0.575-0.583l0.293-1.625l0.465-0.351l1.974-2.963l1.98-2.21l0.113-1.919l-1.742-1.337l-0.783-2.24l6.929-32.205l6.875,1.285
		l-2.243,10.873l1.81,3.809l-0.8,2.366l1,2.36l1.595,0.641l1.952,4.857l1.785,2.261l0.258,0.577l1.695,0.579l0.194,1.071
		l-3.547,8.835l-0.086,1.307l1.339,1.685l0.462-0.023l2.497-1.539l0.344-0.554l0.791,0.332l-0.14,2.724l1.393,6.394l1.992,1.62
		l0.857,1.103l-0.37,2.075l0.545,1.427l0.54,0.553l1.266-1.196l1.445,0.025l1.484,0.681l1.414-0.351l1.926-0.078l2.024,0.813
		l1.398-0.152l0.252-1.543l1.492-0.393l0.64,0.774l0.223,1.497l0.727,0.617l-4.266,27.26
		C114.542,101.14,69.811,92.646,66.259,91.884z"/>
	<path id="UT_1_" opacity="0.3" fill="none" stroke="#FFFFFF" stroke-width="2" stroke-miterlimit="10" d="M122.713,159.833
		l-42.591-6.038l10.47-57.231l23.787,4.45l-0.755,5.404l-1.173,6.699l3.971,0.473l8.339,0.918l4.178,0.431L122.713,159.833z"/>
	<path id="AZ_1_" opacity="0.3" fill="none" stroke="#FFFFFF" stroke-width="2" stroke-miterlimit="10" d="M64.442,196.71
		l-1.338,1.092l-0.165,0.742l0.25,0.495l9.616,5.424l6.168,3.864l7.478,4.358l8.55,5.095l6.248,1.234l12.688,1.371l8.776-60.571
		l-42.58-6.064l-1.574,8.351l-0.818,0.007l-0.87,1.337l-1.28-0.059l-0.638-1.398l-1.396-0.172l-0.464-0.579h-0.466l-0.464,0.287
		l-0.987,0.527l-0.061,3.546l-0.116,0.871l-0.292,6.395l-0.754,1.106l-0.292,1.68l1.395,2.502l0.641,2.965l0.408,0.523l0.521,0.289
		l-0.059,1.163l-0.813,0.698l-1.742,0.872l-0.988,0.986l-0.756,1.861l-0.29,2.501l-1.454,1.393l-1.046,0.349l0.068,0.422
		l-0.233,0.872l0.233,0.409l1.86,0.29l-0.292,1.396l-0.752,1.104L64.442,196.71z"/>
	<path id="NV_1_" opacity="0.3" fill="none" stroke="#FFFFFF" stroke-width="2" stroke-miterlimit="10" d="M90.621,96.509
		l-12.022,65.501l-0.929,0.178l-0.803,1.228l-1.204,0.004l-0.75-1.395l-1.331-0.191l-0.393-0.563l-0.528-0.03l-1.414,0.836
		l-0.155,3.449l-0.186,2.938l-0.174,4.371l-0.737,1.062l-1.241-0.546l-35.128-52.987l9.655-34.364L90.621,96.509L90.621,96.509z"/>
	<path id="OR_1_" opacity="0.3" fill="none" stroke="#FFFFFF" stroke-width="2" stroke-miterlimit="10" d="M66.377,91.402
		l4.501-17.697l0.532-2.149l1.204-2.866l-0.313-0.588l-1.28-0.023l-0.654-0.849l0.232-0.744l0.256-1.653l2.267-2.792l0.93-0.558
		l0.582-0.579l0.756-1.813l2.059-2.881l1.813-1.967l0.117-1.757l-1.662-1.255l-0.911-2.358l-6.437-1.838l-7.672-1.803l-7.849,0.062
		l-0.229-0.702l-2.789,1.049l-2.269-0.29l-1.22-0.812l-0.645,0.344l-2.379-0.112l-0.872-0.698l-2.679-1.049l-0.405,0.061
		l-2.208-0.755l-0.987,0.928l-3.139-0.172l-3.021-2.095l0.348-0.41l0.118-3.949l-1.166-1.974l-2.092-0.29l-0.351-1.282l-1.195-0.238
		l-2.948,1.044l-1.152,3.293l-1.646,5.097l-1.64,3.286l-2.55,7.152l-3.292,6.906l-4.106,6.413l-0.988,1.481l-0.411,4.353
		l0.197,6.146L66.377,91.402L66.377,91.402z"/>
	<path id="WA_1_" opacity="0.3" fill="none" stroke="#FFFFFF" stroke-width="2" stroke-miterlimit="10" d="M42.66,6.012l2.22,0.742
		l4.93,1.395l4.355,0.987l10.197,2.877l11.67,2.877l7.744,1.631l-6.935,32.336l-6.327-1.796l-7.887-1.816l-7.743,0.02l-0.234-0.685
		l-2.846,1.106l-2.337-0.375l-1.088-0.806l-0.669,0.336l-2.407-0.069l-0.867-0.691l-2.675-1.071l-0.375,0.072l-2.229-0.772
		l-0.962,0.922l-3.189-0.15l-3.012-2.098l0.395-0.476l0.062-3.906l-1.159-1.947l-2.093-0.31l-0.344-1.277L27.7,32.834l-1.812,0.627
		l-1.15-1.638l0.164-1.479l1.398-0.166l0.825-2.055l-1.319-0.575l0.082-1.89l2.22-0.329l-1.398-1.398l-0.739-3.615l0.329-1.484
		V14.81l-0.904-1.646l1.152-4.769l1.067,0.248l1.232,1.481l1.396,1.317l1.645,0.981l2.303,1.073l1.562,0.324l1.479,0.74l1.729,0.496
		l1.148-0.081v-1.238l0.656-0.574l1.073-0.658l0.163,0.577l0.166,0.902l-1.152,0.248l-0.167,1.069l0.906,0.737l0.573,1.233
		l0.333,0.992l0.74-0.086l0.081-0.66l-0.495-0.654l-0.248-1.646l0.414-0.901l-0.328-0.742v-1.152l0.901-1.806l-0.573-1.312
		l-1.233-2.473l0.162-0.41L42.66,6.012z M37.849,9.055l1.03-0.081l0.247,0.695l0.783-0.822h1.189l0.41,0.781l-0.779,0.864
		l0.328,0.41l-0.372,1.029l-0.695,0.201c0,0-0.456,0.044-0.456-0.118c0-0.165,0.741-1.312,0.741-1.312l-0.864-0.288l-0.164,0.737
		l-0.368,0.331l-0.783-1.154L37.849,9.055z"/>
	<g id="ca_1_" opacity="0.3">
		<title>California</title>
		<path id="CA_1_" fill="none" stroke="#FFFFFF" stroke-width="2" stroke-miterlimit="10" d="M64.331,196.489l2.007-0.249
			l0.752-1.02l0.273-1.497l-1.803-0.3l-0.259-0.341l0.241-1.036l-0.083-0.296l0.98-0.318l1.55-1.437l0.292-2.54l0.707-1.728
			l0.985-1.105l1.793-0.807l0.835-0.821l0.037-1.07l-0.508-0.295l-0.518-0.545l-0.587-2.974l-1.365-2.454l0.287-1.786l-1.229-0.523
			L33.6,120.377l9.614-34.376L9.103,78.016l-0.765,2.408l-0.087,3.782l-2.629,6.001L4.06,91.523l-0.162,0.572l-0.906,0.413
			L2.25,94.647l-0.408,1.639l1.396,2.139l0.822,2.139l0.577,1.812l-0.165,3.284l-0.904,1.562l-0.329,2.96l-0.494,1.889l0.904,1.977
			l1.402,2.301l1.146,2.466l0.66,2.055l-0.166,1.64l-0.165,0.249v1.068l2.877,3.208l-0.246,1.233l-0.329,1.15L8.5,130.403
			l0.084,4.193l1.066,1.893l0.988,1.312l1.396,0.246l0.493,1.398l-0.577,1.81l-1.068,0.82h-0.577l-0.408,1.973l0.241,1.485
			l1.646,2.216l0.823,2.714l0.741,2.381l0.656,1.56l1.729,2.963l0.74,1.314l0.247,1.482l0.823,0.49v1.233l-0.415,0.987l-0.904,3.615
			l-0.245,0.987l1.233,1.399l2.137,0.245l2.301,0.902l1.972,1.074h1.479l1.485,1.558l1.313,2.47l0.575,1.146l1.972,1.069
			l2.466,0.412l0.74,1.066l0.328,1.646l-0.741,0.328l0.166,0.493l1.645,0.412l1.398,0.077l1.606-0.854l1.975,2.138l0.41,1.149
			l1.314,2.135l0.165,1.649v4.768l0.248,0.907l5.096,0.734l10.028,1.4L64.331,196.489L64.331,196.489z M19.514,174.262l0.658,0.78
			l-0.08,0.656l-1.646-0.041l-0.286-0.615l-0.33-0.737L19.514,174.262z M20.504,174.262l0.616-0.332l1.805,1.067l1.562,0.621
			l-0.45,0.327l-2.301-0.127l-0.823-0.821L20.504,174.262z M31.022,184.328l0.904,1.193l0.414,0.494l0.779,0.284l0.287-0.736
			l-0.493-0.904l-1.354-1.028l-0.537,0.082V184.328z M30.287,188.728l0.901,1.603l0.615,0.988l-0.739,0.121l-0.659-0.617
			c0,0-0.366-0.735-0.366-0.946c0-0.204,0-1.108,0-1.108L30.287,188.728z"/>
	</g>
</g>
</svg>
