<?xml version="1.0" encoding="utf-8"?>
<!-- Generator: Adobe Illustrator 16.0.0, SVG Export Plug-In . SVG Version: 6.00 Build 0)  -->
<!DOCTYPE svg PUBLIC "-//W3C//DTD SVG 1.1//EN" "http://www.w3.org/Graphics/SVG/1.1/DTD/svg11.dtd">
<svg version="1.1" id="Layer_1" xmlns="http://www.w3.org/2000/svg" xmlns:xlink="http://www.w3.org/1999/xlink" x="0px" y="0px"
	 width="463.158px" height="300px" viewBox="0 0 463.158 300" enable-background="new 0 0 463.158 300" xml:space="preserve">
<g opacity="0.2">
	<circle fill="none" stroke="#FFFFFF" stroke-width="2" stroke-miterlimit="10" cx="9.226" cy="277.388" r="7.442"/>
	<path fill="none" stroke="#FFFFFF" stroke-width="2" stroke-miterlimit="10" d="M47.329,248.758
		c0.92,8.155-4.943,15.51-13.094,16.428c-8.154,0.919-15.509-4.945-16.429-13.101c-0.918-8.148,4.946-15.504,13.1-16.423
		C39.057,234.743,46.411,240.606,47.329,248.758z"/>
	<path fill="none" stroke="#FFFFFF" stroke-width="2" stroke-miterlimit="10" d="M112.599,270.878
		c0.217,1.925-1.166,3.66-3.088,3.876c-1.922,0.217-3.657-1.166-3.875-3.092c-0.216-1.921,1.167-3.657,3.09-3.874
		C110.649,267.57,112.383,268.955,112.599,270.878z"/>
	<path fill="none" stroke="#FFFFFF" stroke-width="2" stroke-miterlimit="10" d="M126.685,213.414
		c1.249,11.082-6.72,21.081-17.807,22.329c-11.081,1.25-21.078-6.722-22.326-17.807c-1.249-11.082,6.721-21.079,17.802-22.33
		C115.44,194.357,125.434,202.331,126.685,213.414z"/>
	<circle fill="none" stroke="#FFFFFF" stroke-width="2" stroke-miterlimit="10" cx="146.714" cy="222.107" r="22.872"/>
	<path fill="none" stroke="#FFFFFF" stroke-width="2" stroke-miterlimit="10" d="M87.077,243.087
		c0.77,6.823-4.136,12.972-10.959,13.741c-6.818,0.767-12.971-4.134-13.741-10.956c-0.768-6.821,4.139-12.974,10.958-13.742
		C80.157,231.361,86.309,236.267,87.077,243.087z"/>
	<path fill="none" stroke="#FFFFFF" stroke-width="2" stroke-miterlimit="10" d="M275.594,205.384
		c2.352,20.861-12.656,39.676-33.516,42.027c-20.863,2.352-39.681-12.651-42.035-33.512c-2.35-20.862,12.655-39.682,33.517-42.033
		C254.423,169.516,273.243,184.521,275.594,205.384z"/>
	<path fill="none" stroke="#FFFFFF" stroke-width="2" stroke-miterlimit="10" d="M290.968,169.734
		c0.715,6.334-3.842,12.05-10.177,12.764c-6.332,0.715-12.05-3.845-12.764-10.177c-0.713-6.337,3.844-12.05,10.177-12.765
		C284.541,158.844,290.256,163.398,290.968,169.734z"/>
	<circle fill="none" stroke="#FFFFFF" stroke-width="2" stroke-miterlimit="10" cx="342.312" cy="156.962" r="29.575"/>
	<circle fill="none" stroke="#FFFFFF" stroke-width="2" stroke-miterlimit="10" cx="393.955" cy="154.372" r="7.812"/>
	<circle fill="none" stroke="#FFFFFF" stroke-width="2" stroke-miterlimit="10" cx="377.33" cy="105.235" r="11.017"/>
	<path fill="none" stroke="#FFFFFF" stroke-width="2" stroke-miterlimit="10" d="M462.117,87.132
		c0.398,3.52-2.135,6.692-5.654,7.088c-3.519,0.397-6.693-2.132-7.089-5.65c-0.396-3.522,2.135-6.695,5.654-7.092
		C458.545,81.082,461.721,83.612,462.117,87.132z"/>
	<circle fill="none" stroke="#FFFFFF" stroke-width="2" stroke-miterlimit="10" cx="144.946" cy="282.387" r="13.797"/>
</g>
</svg>
