<svg width="21" height="19" viewBox="0 0 21 19" fill="none" xmlns="http://www.w3.org/2000/svg">
<path d="M19.7439 3.91052C19.3613 3.4217 18.7662 3.12416 18.1499 3.12416H5.20694L4.80313 1.55145C4.56935 0.637584 3.76175 0 2.82662 0H0.658837C0.297539 0 0 0.297539 0 0.658837C0 1.02013 0.297539 1.31767 0.658837 1.31767H2.82662C3.14541 1.31767 3.4217 1.5302 3.50671 1.84899L6.09955 12.1779C6.33333 13.0917 7.14094 13.7293 8.07606 13.7293H16.5559C17.4911 13.7293 18.3199 13.0917 18.5324 12.1779L20.1264 5.63199C20.2752 5.03691 20.1477 4.39933 19.7439 3.91052ZM18.83 5.33445L17.236 11.8803C17.151 12.1991 16.8747 12.4116 16.5559 12.4116H8.07606C7.75727 12.4116 7.48099 12.1991 7.39597 11.8803L5.54698 4.46309H18.1499C18.3624 4.46309 18.5749 4.56935 18.7025 4.73937C18.83 4.9094 18.8937 5.12192 18.83 5.33445Z" fill="white"/>
<path d="M8.5223 14.5793C7.31089 14.5793 6.31201 15.5782 6.31201 16.7896C6.31201 18.001 7.31089 18.9999 8.5223 18.9999C9.73371 18.9999 10.7326 18.001 10.7326 16.7896C10.7326 15.5782 9.73371 14.5793 8.5223 14.5793ZM8.5223 17.661C8.03349 17.661 7.65094 17.2785 7.65094 16.7896C7.65094 16.3008 8.03349 15.9183 8.5223 15.9183C9.01112 15.9183 9.39367 16.3008 9.39367 16.7896C9.39367 17.2572 8.98986 17.661 8.5223 17.661Z" fill="white"/>
<path d="M15.8333 14.5793C14.6219 14.5793 13.623 15.5782 13.623 16.7896C13.623 18.001 14.6219 18.9999 15.8333 18.9999C17.0447 18.9999 18.0436 18.001 18.0436 16.7896C18.0224 15.5782 17.0447 14.5793 15.8333 14.5793ZM15.8333 17.661C15.3445 17.661 14.962 17.2785 14.962 16.7896C14.962 16.3008 15.3445 15.9183 15.8333 15.9183C16.3222 15.9183 16.7047 16.3008 16.7047 16.7896C16.7047 17.2572 16.3009 17.661 15.8333 17.661Z" fill="white"/>
</svg>
