<?xml version="1.0" encoding="UTF-8" standalone="no"?>
<svg width="22px" height="20px" viewBox="0 0 22 20" version="1.1" xmlns="http://www.w3.org/2000/svg" xmlns:xlink="http://www.w3.org/1999/xlink">
    <!-- Generator: Sketch 41 (35326) - http://www.bohemiancoding.com/sketch -->
    <title>Group</title>
    <desc>Created with Sketch.</desc>
    <defs></defs>
    <g id="Page-1" stroke="none" stroke-width="1" fill="none" fill-rule="evenodd">
        <g id="Group">
            <path d="M18.0629876,10.9965871 L7.26952275,10.9965871 C6.75979596,10.9965871 6.25614783,7.13275784 6.25614783,7.13275784 L19.0669613,7.13275784 L18.0629876,10.9965871 Z" id="Path-3" fill="#EF6145"></path>
            <path d="M17.5408239,16.9541551 L17.6563319,16.9537138 C18.1660577,16.9546992 18.5800709,16.5422835 18.5810563,16.0325577 C18.5820416,15.5228318 18.1696259,15.1088186 17.6599001,15.1078333 L8.07772077,15.1489338 L7.69619378,12.8424711 L18.7767612,12.8424711 C19.197093,12.8424711 19.5643318,12.5584605 19.6700402,12.1516379 L21.1536466,6.44192462 C21.3055359,5.85737339 20.8643299,5.28687385 20.2603676,5.28687385 L6.44637335,5.28687385 L5.79143665,1.32755473 C5.71773691,0.882014334 5.33246318,0.555235753 4.88086834,0.555235753 L1.10673531,0.555235753 C0.597008526,0.555235753 0.18379332,0.968450959 0.18379332,1.47817775 C0.18379332,1.98790454 0.597008526,2.40111974 1.10673531,2.40111974 L4.09805434,2.40111974 L6.38408836,16.2209869 C6.44229007,16.5728364 6.69483058,16.8506849 7.02097819,16.9519303 C6.68378835,17.210061 6.47475671,17.6176915 6.47475671,18.0548606 C6.47475671,18.7886815 7.06372656,19.4392736 7.8591697,19.4392736 C8.65461285,19.4392736 9.24358269,18.7886815 9.24358269,18.0548606 C9.24358269,17.6374136 9.05298581,17.2469002 8.74220647,16.9877674 L15.5881422,16.9616147 C15.3351934,17.2169345 15.1837933,17.5675943 15.1837933,17.9396487 C15.1837933,18.6734696 15.7727632,19.3240617 16.5682063,19.3240617 C17.3636495,19.3240617 17.9526193,18.6734696 17.9526193,17.9396487 C17.9526193,17.5639576 17.798245,17.2100813 17.5408239,16.9541551 Z M7.39085412,10.9965871 L18.0629876,10.9965871 L19.0669613,7.13275784 L6.75171301,7.13275784 L7.39085412,10.9965871 Z" id="Combined-Shape" fill="#FFFFFF"></path>
        </g>
    </g>
</svg>