<?xml version="1.0" encoding="utf-8"?>
<!-- Generator: Adobe Illustrator 16.0.0, SVG Export Plug-In . SVG Version: 6.00 Build 0)  -->
<!DOCTYPE svg PUBLIC "-//W3C//DTD SVG 1.1//EN" "http://www.w3.org/Graphics/SVG/1.1/DTD/svg11.dtd">
<svg version="1.1" id="Layer_1" xmlns="http://www.w3.org/2000/svg" xmlns:xlink="http://www.w3.org/1999/xlink" x="0px" y="0px"
	 width="38px" height="44px" viewBox="0 0 38 44" enable-background="new 0 0 38 44" xml:space="preserve">
<g>
	<path opacity="0.6" fill="#FFFFFF" d="M37.3,22.2c-0.5-0.3-1.2-0.1-1.399,0.399L19,41.5L2.1,22.6C1.8,22.1,1.2,22,0.7,22.2
		C0.2,22.5,0,23.1,0.3,23.5L18,43.4c0.2,0.3,0.6,0.5,1,0.5s0.8-0.2,1-0.5L37.7,23.6C38,23.1,37.8,22.5,37.3,22.2z"/>
	<path opacity="0.3" fill="#FFFFFF" d="M18,21.4c0.2,0.3,0.6,0.5,1,0.5s0.8-0.2,1-0.5L37.7,1.6c0.3-0.5,0.1-1.1-0.4-1.3
		C36.8,0,36.1,0.2,35.9,0.7L19,19.5L2.1,0.6C1.8,0.1,1.2,0,0.7,0.2C0.2,0.5,0,1.1,0.3,1.6L18,21.4z"/>
</g>
</svg>
