<?xml version="1.0" encoding="utf-8"?>
<!-- Generator: Adobe Illustrator 16.0.0, SVG Export Plug-In . SVG Version: 6.00 Build 0)  -->
<!DOCTYPE svg PUBLIC "-//W3C//DTD SVG 1.1//EN" "http://www.w3.org/Graphics/SVG/1.1/DTD/svg11.dtd">
<svg version="1.1" id="Layer_1" xmlns="http://www.w3.org/2000/svg" xmlns:xlink="http://www.w3.org/1999/xlink" x="0px" y="0px"
	 width="463.158px" height="300px" viewBox="0 0 463.158 300" enable-background="new 0 0 463.158 300" xml:space="preserve">
<g opacity="0.2">
	<path fill="#FFFFFF" d="M281.636,175.245c-15.31-6.034-31.493-9.095-48.098-9.095v-1.612c16.809,0,33.191,3.094,48.692,9.206
		L281.636,175.245z"/>
	<path fill="#FFFFFF" d="M366.369,297.365h-1.614c0-18.175-3.654-35.78-10.863-52.337l1.479-0.644
		C362.667,261.146,366.369,278.968,366.369,297.365z"/>
	<path fill="#FFFFFF" d="M353.891,245.028c-6.594-15.134-15.866-28.741-27.565-40.445l1.14-1.142
		c11.842,11.849,21.229,25.622,27.904,40.943L353.891,245.028z"/>
	<path fill="#FFFFFF" d="M326.326,204.583c-12.843-12.844-27.88-22.718-44.689-29.338l0.594-1.501
		c17.014,6.705,32.234,16.696,45.235,29.697L326.326,204.583z"/>
	<path fill="#FFFFFF" d="M140.756,204.583l-1.14-1.142c11.843-11.842,25.615-21.233,40.94-27.908l0.644,1.479
		C166.062,183.605,152.455,192.881,140.756,204.583z"/>
	<path fill="#FFFFFF" d="M102.325,297.365h-1.615c0-16.812,3.099-33.195,9.208-48.692l1.501,0.594
		C105.384,264.569,102.325,280.755,102.325,297.365z"/>
	<path fill="#FFFFFF" d="M181.201,177.012l-0.644-1.479c16.757-7.295,34.583-10.995,52.981-10.995v1.612
		C215.363,166.15,197.755,169.803,181.201,177.012z"/>
	<path fill="#FFFFFF" d="M111.42,249.267l-1.501-0.594c6.71-17.021,16.703-32.235,29.698-45.231l1.14,1.142
		C127.918,217.421,118.048,232.452,111.42,249.267z"/>
	<path fill="#FFFFFF" d="M207.53,203.866l-0.431-1.555c8.579-2.381,17.475-3.587,26.438-3.587v1.612
		C224.718,200.337,215.968,201.524,207.53,203.866z"/>
	<path fill="#FFFFFF" d="M332.181,297.365h-1.611c0-7.526-0.87-15.04-2.583-22.324l1.568-0.365
		C331.299,282.078,332.181,289.713,332.181,297.365z"/>
	<path fill="#FFFFFF" d="M259.622,203.885c-8.46-2.354-17.233-3.548-26.083-3.548v-1.612c8.997,0,17.918,1.213,26.514,3.605
		L259.622,203.885z"/>
	<path fill="#FFFFFF" d="M136.509,297.365h-1.615c0-12.476,2.303-24.642,6.838-36.16l1.5,0.594
		C138.771,273.128,136.509,285.092,136.509,297.365z"/>
	<path fill="#FFFFFF" d="M302.15,228.756c-5.246-5.248-11.118-9.91-17.459-13.852l0.852-1.371c6.443,4.01,12.419,8.744,17.75,14.077
		L302.15,228.756z"/>
	<path fill="#FFFFFF" d="M314.607,244.032c-3.634-5.503-7.823-10.643-12.457-15.276l1.143-1.146
		c4.71,4.714,8.969,9.938,12.66,15.534L314.607,244.032z"/>
	<path fill="#FFFFFF" d="M143.232,261.799l-1.5-0.594c2.956-7.49,6.843-14.629,11.556-21.208l1.313,0.938
		C149.963,247.409,146.142,254.428,143.232,261.799z"/>
	<path fill="#FFFFFF" d="M174.43,297.365h-1.612c0-1.731,0.083-3.49,0.248-5.376l1.606,0.142
		C174.509,293.97,174.43,295.679,174.43,297.365z"/>
	
		<rect x="123.936" y="196.477" transform="matrix(0.7071 0.7071 -0.7071 0.7071 178.6006 -36.5824)" fill="#FFFFFF" width="19.04" height="1.611"/>
	
		<rect x="137.011" y="210.873" transform="matrix(0.7072 0.7071 -0.7071 0.7072 192.9692 -42.5524)" fill="#FFFFFF" width="21.687" height="1.613"/>
	
		<rect x="298.714" y="226.859" transform="matrix(0.7059 0.7083 -0.7083 0.7059 251.9808 -144.1064)" fill="#FFFFFF" width="1.617" height="9.045"/>
	
		<rect x="314" y="199.006" transform="matrix(0.7062 0.708 -0.708 0.7062 245.491 -159.3989)" fill="#FFFFFF" width="1.618" height="34.185"/>
	
		<rect x="332.818" y="187.765" transform="matrix(0.7065 0.7077 -0.7077 0.7065 237.5374 -178.2079)" fill="#FFFFFF" width="1.613" height="19.034"/>
	<rect x="232.732" y="146.306" fill="#FFFFFF" width="1.615" height="19.038"/>
	<rect x="232.732" y="165.344" fill="#FFFFFF" width="1.615" height="34.188"/>
	<rect x="232.732" y="199.531" fill="#FFFFFF" width="1.615" height="19.815"/>
	<rect x="365.56" y="296.557" fill="#FFFFFF" width="19.034" height="1.614"/>
	<rect x="173.624" y="296.557" fill="#FFFFFF" width="4.558" height="1.614"/>
	<rect x="135.7" y="296.557" fill="#FFFFFF" width="37.924" height="1.614"/>
	<rect x="331.375" y="296.557" fill="#FFFFFF" width="34.185" height="1.614"/>
	<rect x="82.481" y="296.557" fill="#FFFFFF" width="19.039" height="1.614"/>
	<rect x="322.009" y="296.557" fill="#FFFFFF" width="9.366" height="1.614"/>
	<rect x="101.52" y="296.557" fill="#FFFFFF" width="34.181" height="1.614"/>
	
		<rect x="109.479" y="254.428" transform="matrix(0.9304 0.3665 -0.3665 0.9304 102.3423 -28.6299)" fill="#FFFFFF" width="34.194" height="1.614"/>
	
		<rect x="142.125" y="262.588" transform="matrix(0.9304 0.3665 -0.3665 0.9304 106.7802 -35.6531)" fill="#FFFFFF" width="10.325" height="1.612"/>
	
		<rect x="92.331" y="244.683" transform="matrix(0.9304 0.3665 -0.3665 0.9304 97.0554 -20.2393)" fill="#FFFFFF" width="18.999" height="1.612"/>
	<polygon fill="#FFFFFF" points="274.887,194.575 273.389,193.982 281.183,174.197 282.681,174.791 	"/>
	<polygon fill="#FFFFFF" points="282.681,174.791 281.183,174.197 288.146,156.518 289.644,157.109 	"/>
	
		<rect x="176.202" y="182.603" transform="matrix(0.399 0.917 -0.917 0.399 278.7605 -58.4717)" fill="#FFFFFF" width="15.565" height="1.615"/>
	
		<rect x="167.582" y="166.747" transform="matrix(0.3987 0.9171 -0.9171 0.3987 260.1537 -61.6513)" fill="#FFFFFF" width="19.015" height="1.616"/>
	
		<rect x="362.544" y="231.402" transform="matrix(0.4008 0.9162 -0.9162 0.4008 438.441 -188.5325)" fill="#FFFFFF" width="1.611" height="19.021"/>
	<polygon fill="#FFFFFF" points="335.625,253.851 334.985,252.368 354.305,243.967 354.951,245.442 	"/>
	<path fill="#FFFFFF" d="M207.313,203.896c-0.146,0-0.292-0.041-0.423-0.123l-20.227-12.537c-0.378-0.237-0.495-0.733-0.258-1.113
		c0.237-0.381,0.738-0.49,1.111-0.258l20.223,12.537c0.381,0.235,0.498,0.729,0.263,1.111
		C207.848,203.759,207.582,203.896,207.313,203.896z"/>
	<path fill="#FFFFFF" d="M329.543,275.091L328,274.627l6.536-21.749c0.126-0.427,0.579-0.672,1.002-0.54
		c0.427,0.128,0.668,0.577,0.54,1.004L329.543,275.091z"/>
	<path fill="#FFFFFF" d="M322.009,298.171c-0.076,0-0.153-0.013-0.231-0.037c-0.425-0.124-0.67-0.573-0.542-1.002L328,274.627
		c0.127-0.427,0.579-0.666,1.004-0.54c0.429,0.128,0.67,0.577,0.54,1.004l-6.762,22.503
		C322.679,297.944,322.357,298.171,322.009,298.171z"/>
	<path fill="#FFFFFF" d="M259.839,203.913c-0.27,0-0.535-0.136-0.688-0.383c-0.234-0.38-0.115-0.876,0.265-1.109l14.299-8.828
		c0.38-0.229,0.876-0.116,1.111,0.262c0.232,0.379,0.117,0.876-0.262,1.11l-14.3,8.831
		C260.132,203.874,259.986,203.913,259.839,203.913z"/>
	<path fill="#FFFFFF" d="M152.092,266.091c-0.022,0-0.04,0-0.061,0c-0.446-0.033-0.779-0.419-0.745-0.864l1.853-24.824
		c0.033-0.442,0.421-0.772,0.864-0.742c0.446,0.035,0.781,0.419,0.748,0.864l-1.856,24.822
		C152.86,265.77,152.51,266.091,152.092,266.091z"/>
	<path fill="#FFFFFF" d="M155.522,220.152c-0.219,0-0.436-0.084-0.595-0.262c-0.299-0.328-0.278-0.839,0.052-1.136l31.568-28.803
		c0.329-0.301,0.839-0.274,1.139,0.054c0.299,0.33,0.277,0.839-0.052,1.142l-31.568,28.795
		C155.911,220.086,155.715,220.152,155.522,220.152z"/>
	<path fill="#FFFFFF" d="M233.538,220.152c-0.143,0-0.291-0.037-0.425-0.119l-26.224-16.26c-0.379-0.235-0.495-0.732-0.26-1.111
		c0.235-0.377,0.736-0.49,1.108-0.26l26.228,16.26c0.375,0.237,0.494,0.729,0.259,1.113
		C234.072,220.019,233.81,220.152,233.538,220.152z"/>
	<path fill="#FFFFFF" d="M315.277,244.396c-0.115,0-0.231-0.022-0.345-0.076l-18.955-9.013c-0.4-0.191-0.571-0.672-0.382-1.073
		c0.189-0.404,0.674-0.573,1.074-0.382l18.956,9.008c0.403,0.194,0.574,0.673,0.381,1.076
		C315.871,244.225,315.58,244.396,315.277,244.396z"/>
	<path fill="#FFFFFF" d="M296.325,235.384c-0.286,0-0.559-0.148-0.709-0.415l-11.209-20.359l1.416-0.779l11.207,20.359
		c0.215,0.393,0.074,0.881-0.317,1.097C296.591,235.353,296.457,235.384,296.325,235.384z"/>
	<path fill="#FFFFFF" d="M173.868,292.867c-0.232,0-0.464-0.099-0.625-0.295l-21.777-26.778c-0.284-0.345-0.232-0.854,0.116-1.136
		c0.342-0.276,0.852-0.23,1.132,0.119l21.78,26.774c0.282,0.345,0.229,0.855-0.115,1.136
		C174.228,292.808,174.049,292.867,173.868,292.867z"/>
	<path fill="#FFFFFF" d="M153.945,241.272c-0.019,0-0.039,0-0.061-0.002c-0.443-0.033-0.779-0.419-0.745-0.868l1.578-21.113
		c0.037-0.445,0.428-0.781,0.867-0.744c0.443,0.032,0.779,0.418,0.745,0.863l-1.578,21.116
		C154.717,240.949,154.363,241.272,153.945,241.272z"/>
	<path fill="#FFFFFF" d="M178.182,298.171c-0.232,0-0.467-0.104-0.625-0.297l-4.313-5.302c-0.281-0.349-0.229-0.855,0.115-1.136
		c0.349-0.28,0.855-0.229,1.136,0.115l4.314,5.304c0.284,0.345,0.229,0.854-0.116,1.136
		C178.542,298.113,178.362,298.171,178.182,298.171z"/>
	<path fill="#FFFFFF" d="M285.114,215.028c-0.282,0-0.559-0.155-0.707-0.419l-10.977-19.938c-0.213-0.395-0.07-0.883,0.321-1.099
		c0.384-0.215,0.876-0.072,1.097,0.317l10.975,19.94c0.214,0.392,0.07,0.883-0.319,1.097
		C285.379,214.993,285.246,215.028,285.114,215.028z"/>
	<path fill="#FFFFFF" d="M233.538,220.152c-0.269,0-0.532-0.134-0.687-0.381c-0.233-0.38-0.116-0.877,0.262-1.109l26.302-16.241
		c0.377-0.229,0.876-0.119,1.11,0.26c0.231,0.382,0.116,0.88-0.262,1.115l-26.301,16.237
		C233.831,220.115,233.685,220.152,233.538,220.152z"/>
	<path fill="#FFFFFF" d="M335.304,253.915c-0.115,0-0.234-0.023-0.349-0.079l-20.023-9.517c-0.401-0.191-0.572-0.67-0.381-1.076
		c0.191-0.404,0.674-0.575,1.074-0.384l20.025,9.523c0.401,0.189,0.573,0.668,0.381,1.072
		C335.898,253.743,335.607,253.915,335.304,253.915z"/>
	<rect x="387.715" y="292.129" opacity="0.4" fill="#FFFFFF" width="32.57" height="5.016"/>
	<rect x="228.394" y="110.5" opacity="0.4" fill="#FFFFFF" width="10.468" height="32.57"/>
	
		<rect x="280.994" y="137.059" transform="matrix(0.3162 -0.9487 0.9487 0.3162 66.9843 375.3297)" opacity="0.4" fill="#FFFFFF" width="25.748" height="8.273"/>
	
		<rect x="338.796" y="175.903" transform="matrix(0.7071 -0.7071 0.7071 0.7071 -24.3962 300.3112)" opacity="0.4" fill="#FFFFFF" width="23.027" height="7.403"/>
	
		<rect x="374.877" y="227.122" transform="matrix(0.9487 -0.3163 0.3163 0.9487 -53.2353 134.4957)" opacity="0.4" fill="#FFFFFF" width="25.747" height="8.278"/>
	<rect x="46.866" y="292.819" opacity="0.4" fill="#FFFFFF" width="32.569" height="5.01"/>
	
		<rect x="64.689" y="233.671" transform="matrix(-0.9487 -0.3163 0.3163 -0.9487 75.9274 487.9426)" opacity="0.4" fill="#FFFFFF" width="25.745" height="8.278"/>
	
		<rect x="104.455" y="177.665" transform="matrix(-0.707 -0.7072 0.7072 -0.707 69.7054 391.6119)" opacity="0.4" fill="#FFFFFF" width="23.027" height="7.406"/>
	
		<rect x="154.751" y="139.786" transform="matrix(-0.3162 -0.9487 0.9487 -0.3162 84.0872 348.4569)" opacity="0.4" fill="#FFFFFF" width="25.751" height="8.275"/>
</g>
</svg>
