<?xml version="1.0" encoding="UTF-8" standalone="no"?>
<svg width="18px" height="19px" viewBox="0 0 18 19" version="1.1" xmlns="http://www.w3.org/2000/svg" xmlns:xlink="http://www.w3.org/1999/xlink">
    <!-- Generator: Sketch 39.1 (31720) - http://www.bohemiancoding.com/sketch -->
    <title>bottom-arrow</title>
    <desc>Created with Sketch.</desc>
    <defs></defs>
    <g id="Page-1" stroke="none" stroke-width="1" fill="none" fill-rule="evenodd">
        <g id="2-homepage-select" transform="translate(-541.000000, -582.000000)" fill="#FFFFFF">
            <g id="icons" transform="translate(521.000000, 582.000000)">
                <g id="Group-2">
                    <g id="bottom-arrow" transform="translate(20.000000, 0.000000)">
                        <path d="M0,9.5 C0,14.4148929 3.98389286,18.3981071 8.89810714,18.3981071 C13.8123214,18.3981071 17.7962143,14.4148929 17.7962143,9.5 C17.7962143,4.58578571 13.8123214,0.601892857 8.89810714,0.601892857 C3.98389286,0.601892857 0,4.58578571 0,9.5 L0,9.5 Z M17.0843929,9.5 C17.0843929,14.0138571 13.4119643,17.6862857 8.89810714,17.6862857 C4.38425,17.6862857 0.711821429,14.0138571 0.711821429,9.5 C0.711821429,4.98614286 4.38357143,1.31371429 8.89810714,1.31371429 C13.4126429,1.31371429 17.0843929,4.98614286 17.0843929,9.5 L17.0843929,9.5 Z" id="Shape"></path>
                        <polygon id="Shape" points="5.07232143 10.0401429 4.56882143 10.5436429 8.89742857 14.87225 13.2253571 10.5436429 12.7218571 10.0401429 9.253 13.509 9.253 4.87282143 8.54117857 4.87282143 8.54117857 13.509"></polygon>
                    </g>
                </g>
            </g>
        </g>
    </g>
</svg>