<?xml version="1.0" encoding="utf-8"?>
<!-- Generator: Adobe Illustrator 16.0.0, SVG Export Plug-In . SVG Version: 6.00 Build 0)  -->
<!DOCTYPE svg PUBLIC "-//W3C//DTD SVG 1.1//EN" "http://www.w3.org/Graphics/SVG/1.1/DTD/svg11.dtd">
<svg version="1.1" id="Layer_1" xmlns="http://www.w3.org/2000/svg" xmlns:xlink="http://www.w3.org/1999/xlink" x="0px" y="0px"
	 width="1215.388px" height="1011.102px" viewBox="69.007 -143.738 1215.388 1011.102"
	 enable-background="new 69.007 -143.738 1215.388 1011.102" xml:space="preserve">
<g>
	<g>
		<path fill="none" stroke="#FFFFFF" stroke-width="31" stroke-linecap="round" stroke-linejoin="round" d="M1147.072,450.618
			c0,0-30.753,306.577-444.97,327.516c-221.343,11.188-352.56-109.722-425.421-219.2"/>
		<g>
			<polygon fill="#FFFFFF" points="422.188,583.421 297.708,591.28 216.951,686.333 197.591,391.618 			"/>
		</g>
	</g>
</g>
<g>
	<path fill="#FFFFFF" d="M1024.102-74.239l128.245,318.213l-310.394-92.421l87.269-67.74
		C884.771,49.209,800.413,4.418,687.061,4.418c-1.85,0-3.727,0.012-5.591,0.036c-65.6,0.851-127.235,15.926-183.331,39.461
		c-44.83,18.81-96.046,50.513-133.123,81.418c-63.852,53.22-95.548,131.85-95.834,132.374l-30.577-12.637l-36.608-17.104
		c1.425-2.666,36.776-86.129,112.836-150.609c44.309-37.562,91.827-72.107,145.576-94.998
		c66.862-28.477,134.988-45.646,212.434-49.561c4.65-0.235,9.41-0.348,14.265-0.348c68.518,0,155.05,22.5,195.302,41.422
		c54.301,25.527,64.164,44.018,98.58,62.036L1024.102-74.239 M1024.103-105.239c-0.053,0-0.104,0-0.156,0
		c-12.703,0.063-24.082,7.871-28.712,19.701l-29.218,74.647c-0.552-0.416-1.108-0.835-1.668-1.257
		c-16.042-12.094-34.224-25.802-68.752-42.034c-22.999-10.812-57.035-21.74-93.383-29.984
		c-28.93-6.562-72.384-14.383-115.107-14.383c-5.417,0-10.743,0.13-15.829,0.387c-40.129,2.029-78.006,7.384-115.794,16.372
		c-35.915,8.542-70.988,20.196-107.222,35.628c-27.107,11.544-53.75,26.19-81.452,44.775c-22.672,15.21-46.231,33.233-72.023,55.098
		C225.618,112.349,187.61,185.082,174.48,213.632c-0.12,0.26-0.218,0.475-0.296,0.644c-3.595,7.301-4.179,15.739-1.599,23.486
		c2.689,8.075,8.579,14.689,16.29,18.291l36.608,17.104c0.423,0.197,0.85,0.385,1.281,0.564l30.577,12.637
		c3.858,1.595,7.873,2.355,11.828,2.355c11.042,0,21.64-5.922,27.224-16.154c0.745-1.365,1.199-2.436,1.5-3.145
		c2.093-4.94,9.983-22.778,23.609-44.897c18.683-30.329,40.593-56.392,63.363-75.37c35.344-29.461,84.515-59.546,125.269-76.645
		c56.83-23.844,114.611-36.309,171.739-37.049c1.718-0.022,3.463-0.034,5.188-0.034c85.135,0,149.669,27.016,189.328,50.162
		l-53.444,41.484c-9.178,7.124-13.602,18.782-11.46,30.201c2.141,11.419,10.487,20.683,21.622,23.998l310.394,92.421
		c2.916,0.868,5.894,1.29,8.844,1.29c8.594,0,16.96-3.579,22.926-10.131c8.014-8.802,10.279-21.417,5.83-32.458L1052.854-85.827
		C1048.125-97.561,1036.742-105.239,1024.103-105.239L1024.103-105.239z"/>
</g>
</svg>
