<?xml version="1.0" encoding="utf-8"?>
<!-- Generator: Adobe Illustrator 16.0.0, SVG Export Plug-In . SVG Version: 6.00 Build 0)  -->
<!DOCTYPE svg PUBLIC "-//W3C//DTD SVG 1.1//EN" "http://www.w3.org/Graphics/SVG/1.1/DTD/svg11.dtd">
<svg version="1.1" xmlns="http://www.w3.org/2000/svg" xmlns:xlink="http://www.w3.org/1999/xlink" x="0px" y="0px"
	 width="61.534px" height="60.064px" viewBox="-317.034 822.411 61.534 60.064"
	 enable-background="new -317.034 822.411 61.534 60.064" xml:space="preserve">
<g id="Layer_1">
</g>
<g id="Layer_2">
	
		<rect x="-306.378" y="857.93" transform="matrix(-0.707 -0.7072 0.7072 -0.707 -1131.2948 1266.4827)" fill="none" stroke="#FFFFFF" stroke-width="2" stroke-linecap="round" stroke-linejoin="round" stroke-miterlimit="10" width="6.179" height="19.33"/>
	
		<polyline fill="none" stroke="#FFFFFF" stroke-width="2" stroke-linecap="round" stroke-linejoin="round" stroke-miterlimit="10" points="
		-310.762,846.456 -305.684,843.705 -303.053,838.749 -290.932,850.869 -303.097,838.705 -313.025,836.484 -310.804,846.412 
		-298.64,858.577 -294.27,862.946 -277.164,880.054 -269.456,872.347 -286.562,855.239 -275.317,866.674 -282.9,874.255 	"/>
	<polyline fill="#FFFFFF" points="-313.025,836.484 -312.166,840.545 -309.663,840.038 -308.815,837.426 -313.025,836.484 	"/>
	<g>
		
			<rect x="-286.828" y="840.961" transform="matrix(-0.7071 -0.7071 0.7071 -0.7071 -1084.0291 1247.0703)" fill="none" stroke="#FFFFFF" stroke-width="2" stroke-linecap="round" stroke-linejoin="round" stroke-miterlimit="10" width="6.18" height="14.168"/>
		<path fill="none" stroke="#FFFFFF" stroke-width="2" stroke-linecap="round" stroke-linejoin="round" stroke-miterlimit="10" d="
			M-280.914,840.851l-1.475-1.476l2.887-2.886c-9.814-7.322-20.357-8.978-20.357-8.978c4.726-2.352,15.53-2.723,25.315,4.019
			l1.886-1.886l7.471,7.472l-1.679,1.679c7.942,10.159,8.099,21.867,5.073,26.784c0,0-1.814-11.594-10.08-21.778l-3.046,3.046
			l-1.626-1.626"/>
	</g>
</g>
</svg>
