<?xml version="1.0" encoding="utf-8"?>
<!-- Generator: Adobe Illustrator 16.0.0, SVG Export Plug-In . SVG Version: 6.00 Build 0)  -->
<!DOCTYPE svg PUBLIC "-//W3C//DTD SVG 1.1//EN" "http://www.w3.org/Graphics/SVG/1.1/DTD/svg11.dtd">
<svg version="1.1" id="Layer_1" xmlns="http://www.w3.org/2000/svg" xmlns:xlink="http://www.w3.org/1999/xlink" x="0px" y="0px"
	 width="30px" height="30px" viewBox="0 0 30 30" enable-background="new 0 0 30 30" xml:space="preserve">
<path fill="#5CB3AA" d="M25.305,8.52c0.22-0.219,0.22-0.574,0-0.793l-3.161-3.163c-0.21-0.209-0.584-0.209-0.794,0l-0.473,0.474
	c-4.398-2.829-8.982-2.435-10.89-1.481C9.769,3.665,9.646,3.902,9.682,4.144c0.037,0.241,0.227,0.43,0.467,0.469
	c0.041,0.007,4.008,0.66,7.838,3.314l-0.756,0.754c-0.104,0.106-0.164,0.248-0.164,0.397c0,0.15,0.06,0.292,0.164,0.397l0.228,0.226
	l-3.447,3.448l-4.75-4.75C9.188,8.324,9.092,8.271,8.988,8.248l-4.2-0.939C4.601,7.269,4.404,7.323,4.269,7.459
	c-0.136,0.135-0.193,0.332-0.151,0.52l0.939,4.2c0.022,0.102,0.074,0.194,0.146,0.27c0.014,0.014,0.029,0.03,0.046,0.043
	l4.703,4.703l-5.388,5.387c-0.219,0.22-0.219,0.575,0,0.794l1.849,1.85c0.105,0.104,0.248,0.164,0.397,0.164
	c0.149,0,0.292-0.061,0.396-0.164l5.388-5.388l6.849,6.851c0.108,0.108,0.253,0.164,0.397,0.164c0.143,0,0.286-0.056,0.396-0.164
	l3.261-3.263c0.22-0.22,0.22-0.574,0-0.794l-6.842-6.843l3.445-3.444l0.291,0.291c0.105,0.106,0.249,0.165,0.396,0.165
	c0.15,0,0.293-0.059,0.396-0.165l0.843-0.84c3.029,4.01,3.754,8.412,3.762,8.458c0.036,0.23,0.214,0.418,0.443,0.463
	c0.038,0.008,0.074,0.01,0.111,0.01c0.192,0,0.374-0.098,0.478-0.267c1.474-2.394,1.141-7.424-1.883-11.575L25.305,8.52z
	 M6.81,24.036L5.755,22.98l4.99-4.99l1.055,1.057L6.81,24.036z M5.599,9.459L6.088,9.36l0.185-0.57L8.05,9.188l-0.694,1.31
	l-1.36,0.736L5.599,9.459z M22.308,23.03l-2.467,2.468l-1.647-1.646l2.469-2.467L22.308,23.03z M17.399,23.058l-5.314-5.314
	l-0.943-0.942h0l-4.59-4.591l1.487-0.805c0.098-0.053,0.177-0.133,0.229-0.231l0.756-1.426l4.582,4.583
	c0.003,0.002,0.005,0.007,0.008,0.011l1.849,1.85c0.005,0.004,0.011,0.004,0.017,0.009l4.352,4.429L17.399,23.058z M15.86,15
	l-1.056-1.056l3.447-3.444l1.055,1.054L15.86,15z M26.447,18.187c-0.549-1.867-1.693-4.833-3.933-7.589
	c-0.099-0.124-0.248-0.198-0.405-0.207c-0.157-0.012-0.314,0.051-0.428,0.164l-0.893,0.892l-0.29-0.292
	c-0.004-0.004-0.01-0.004-0.015-0.009l-1.823-1.823c-0.004-0.004-0.007-0.012-0.012-0.016l-0.228-0.229l0.825-0.824
	c0.116-0.115,0.175-0.275,0.164-0.438c-0.013-0.162-0.095-0.311-0.226-0.409c-2.455-1.831-4.993-2.844-6.722-3.376
	c2.193-0.256,5.31,0.219,8.166,2.19c0.224,0.152,0.523,0.127,0.715-0.064l0.402-0.404l2.367,2.37l-0.313,0.314
	C23.6,8.637,23.58,8.956,23.754,9.18C26.3,12.434,26.836,15.924,26.447,18.187z"/>
</svg>
