<?xml version="1.0" encoding="utf-8"?>
<!-- Generator: Adobe Illustrator 16.0.0, SVG Export Plug-In . SVG Version: 6.00 Build 0)  -->
<!DOCTYPE svg PUBLIC "-//W3C//DTD SVG 1.1//EN" "http://www.w3.org/Graphics/SVG/1.1/DTD/svg11.dtd">
<svg version="1.1" id="Capa_1" xmlns="http://www.w3.org/2000/svg" xmlns:xlink="http://www.w3.org/1999/xlink" x="0px" y="0px"
	 width="40px" height="40px" viewBox="0 0 40 40" enable-background="new 0 0 40 40" xml:space="preserve">
<g id="mouse">
	<path fill="#FFFFFF" d="M20,0C13.786,0,8.75,5.036,8.75,11.25v17.5C8.75,34.964,13.786,40,20,40s11.25-5.036,11.25-11.25v-17.5
		C31.25,5.036,26.214,0,20,0z M28.75,28.75c0,4.832-3.918,8.75-8.75,8.75c-4.833,0-8.75-3.918-8.75-8.75v-17.5
		c0-4.833,3.917-8.75,8.75-8.75c4.832,0,8.75,3.917,8.75,8.75V28.75z M20,6.25c-0.69,0-1.25,0.56-1.25,1.25v6.25
		c0,0.691,0.56,1.25,1.25,1.25c0.691,0,1.25-0.559,1.25-1.25V7.5C21.25,6.81,20.691,6.25,20,6.25z"/>
</g>
</svg>
