<?xml version="1.0" encoding="utf-8"?>
<!-- Generator: Adobe Illustrator 16.0.0, SVG Export Plug-In . SVG Version: 6.00 Build 0)  -->
<!DOCTYPE svg PUBLIC "-//W3C//DTD SVG 1.1//EN" "http://www.w3.org/Graphics/SVG/1.1/DTD/svg11.dtd">
<svg version="1.1" id="Layer_1" xmlns="http://www.w3.org/2000/svg" xmlns:xlink="http://www.w3.org/1999/xlink" x="0px" y="0px"
	 width="59px" height="59px" viewBox="0 0 59 59" enable-background="new 0 0 59 59" xml:space="preserve">
<g>
	<polygon fill="none" stroke="#FFFFFF" stroke-miterlimit="10" points="35.771,0.695 14.454,11.539 37.973,5.023 	"/>
	<polygon fill="none" stroke="#FFFFFF" stroke-miterlimit="10" points="56.488,41.42 38.877,6.8 49.459,44.996 	"/>
	<polygon fill="none" stroke="#FFFFFF" stroke-miterlimit="10" points="14.454,11.539 8.729,13.125 11.336,13.125 	"/>
	<polygon fill="none" stroke="#FFFFFF" stroke-miterlimit="10" points="38.355,4.917 37.973,5.023 38.877,6.8 	"/>
	<polygon fill="none" stroke="#FFFFFF" stroke-miterlimit="10" points="49.459,44.996 39.781,49.919 39.781,51.936 50.555,48.951 	
		"/>
	<polygon fill="none" stroke="#FFFFFF" stroke-miterlimit="10" points="16.167,58.479 17.443,58.125 16.069,58.125 	"/>
	<polygon fill="none" stroke="#FFFFFF" stroke-miterlimit="10" points="39.781,13.125 39.781,49.919 49.459,44.996 38.877,6.8 
		37.973,5.023 14.454,11.539 11.336,13.125 	"/>
	<polyline fill="none" stroke="#FFFFFF" stroke-miterlimit="10" points="17.443,58.125 39.781,58.125 39.781,51.936 	"/>
	<polyline fill="none" stroke="#FFFFFF" stroke-miterlimit="10" points="8.729,13.125 3.781,13.125 3.781,58.125 16.069,58.125 	"/>
	<path fill="none" stroke="#FFFFFF" stroke-miterlimit="10" d="M17.443,58.125"/>
	<line fill="none" stroke="#FFFFFF" stroke-miterlimit="10" x1="39.781" y1="51.936" x2="39.781" y2="49.919"/>
	<line fill="none" stroke="#FFFFFF" stroke-miterlimit="10" x1="11.336" y1="13.125" x2="8.729" y2="13.125"/>
</g>
<g>
	
		<line fill="none" stroke="#FFFFFF" stroke-width="2" stroke-linecap="round" stroke-miterlimit="10" x1="11.781" y1="22.625" x2="22.781" y2="22.625"/>
	
		<line fill="none" stroke="#FFFFFF" stroke-width="2" stroke-linecap="round" stroke-miterlimit="10" x1="16.781" y1="28.625" x2="32.781" y2="28.625"/>
	
		<line fill="none" stroke="#FFFFFF" stroke-width="2" stroke-linecap="round" stroke-miterlimit="10" x1="11.781" y1="36.625" x2="20.781" y2="36.625"/>
	
		<line fill="none" stroke="#FFFFFF" stroke-width="2" stroke-linecap="round" stroke-miterlimit="10" x1="11.781" y1="42.625" x2="32.781" y2="42.625"/>
	
		<line fill="none" stroke="#FFFFFF" stroke-width="2" stroke-linecap="round" stroke-miterlimit="10" x1="11.781" y1="50.625" x2="30.781" y2="50.625"/>
</g>
</svg>
