<?xml version="1.0" encoding="utf-8"?>
<!-- Generator: Adobe Illustrator 16.0.0, SVG Export Plug-In . SVG Version: 6.00 Build 0)  -->
<!DOCTYPE svg PUBLIC "-//W3C//DTD SVG 1.1//EN" "http://www.w3.org/Graphics/SVG/1.1/DTD/svg11.dtd">
<svg version="1.1" id="Layer_1" xmlns="http://www.w3.org/2000/svg" xmlns:xlink="http://www.w3.org/1999/xlink" x="0px" y="0px"
	 width="57.625px" height="57.625px" viewBox="-0.625 -0.625 57.625 57.625" enable-background="new -0.625 -0.625 57.625 57.625"
	 xml:space="preserve">
<g>
	<g>
		<path fill="none" stroke="#FFFFFF" stroke-linejoin="round" stroke-miterlimit="10" d="M1.826,34.435V49.14
			c0,3.818,9.477,6.916,21.167,6.916c11.689,0,21.167-3.098,21.167-6.916V34.435"/>
	</g>
	<g>
		<line fill="none" stroke="#FFFFFF" stroke-miterlimit="10" x1="1.826" y1="6.702" x2="1.826" y2="6.716"/>
		<line fill="none" stroke="#FFFFFF" stroke-miterlimit="10" x1="44.159" y1="6.716" x2="44.159" y2="6.702"/>
	</g>
	<g>
		<path fill="none" stroke="#FFFFFF" stroke-miterlimit="10" d="M29.364,28.019c-0.311,0.183-0.616,0.369-0.908,0.565
			c-2.606,1.743-5.783,7.235-9.021,12.782c1.159,0.064,2.343,0.105,3.558,0.105c11.689,0,21.167-3.097,21.167-6.916v-9.827
			c-0.996,0.029-1.941,0.075-2.834,0.141C38.704,26.354,34.457,27.494,29.364,28.019z"/>
		<path fill="none" stroke="#FFFFFF" stroke-miterlimit="10" d="M22.993,13.632c11.689,0,21.167-3.097,21.167-6.916V6.702h-0.006
			c-0.066,3.801-9.513,6.877-21.161,6.877c-11.65,0-21.096-3.076-21.161-6.877H1.826v0.014
			C1.826,10.535,11.303,13.632,22.993,13.632z"/>
		<path fill="none" stroke="#FFFFFF" stroke-miterlimit="10" d="M1.826,21.422v13.134c0,2.623,4.469,4.904,11.055,6.077
			c2.481-4.165,5.126-8.874,7.672-12.343C10.014,27.894,1.826,24.971,1.826,21.422z"/>
		<path fill="none" stroke="#FFFFFF" stroke-linejoin="round" stroke-miterlimit="10" d="M41.325,24.869
			c-5.52,0.405-9.148,1.502-11.961,3.15C34.457,27.494,38.704,26.354,41.325,24.869z"/>
		<path fill="none" stroke="#FFFFFF" stroke-miterlimit="10" d="M20.553,28.29c1.352-1.841,2.675-3.334,3.93-4.203
			c5.563-3.848,11.717-5.168,19.676-5.371v-12c0,3.819-9.478,6.916-21.167,6.916c-11.69,0-21.167-3.097-21.167-6.916v14.706
			C1.826,24.971,10.014,27.894,20.553,28.29z"/>
		<path fill="none" stroke="#FFFFFF" stroke-miterlimit="10" d="M12.881,40.633c-0.497,0.833-0.987,1.646-1.468,2.421
			c-2.605,4.194-4.402,6.554-6.088,7.715c-0.448,0.31-1.146,0.644-1.927,0.983c1.31,1.048,3.376,1.966,5.985,2.683
			c0.525-0.271,0.938-0.506,1.131-0.653c2.004-1.537,3.826-3.994,5.754-7.101c1.051-1.692,2.112-3.506,3.167-5.314"/>
		<path fill="none" stroke="#FFFFFF" stroke-miterlimit="10" d="M44.159,24.729c0.752-0.021,1.522-0.036,2.338-0.036v6.482
			c0,0,9.926-9.059,9.926-9.496c0-0.374-9.926-9.456-9.926-9.456v6.461c-0.799,0-1.573,0.013-2.338,0.032"/>
		<path fill="none" stroke="#FFFFFF" stroke-miterlimit="10" d="M44.159,21.422"/>
		<path fill="none" stroke="#FFFFFF" stroke-miterlimit="10" d="M41.325,24.869"/>
		<path fill="none" stroke="#FFFFFF" stroke-miterlimit="10" d="M44.159,18.716c-7.959,0.203-14.112,1.522-19.676,5.371
			c-1.255,0.869-2.579,2.362-3.93,4.203"/>
	</g>
	<path fill="none" stroke="#FFFFFF" stroke-miterlimit="10" d="M43.596,5.141c-2.168-3.067-10.56-5.355-20.604-5.355
		c-10.045,0-18.436,2.288-20.605,5.355C2.032,5.644,1.826,6.164,1.826,6.702c0,3.819,9.477,6.916,21.167,6.916
		c11.689,0,21.167-3.097,21.167-6.916C44.159,6.164,43.952,5.644,43.596,5.141z"/>
</g>
</svg>
