<?xml version="1.0" encoding="utf-8"?>
<!-- Generator: Adobe Illustrator 16.0.0, SVG Export Plug-In . SVG Version: 6.00 Build 0)  -->
<!DOCTYPE svg PUBLIC "-//W3C//DTD SVG 1.1//EN" "http://www.w3.org/Graphics/SVG/1.1/DTD/svg11.dtd">
<svg version="1.1" id="Layer_1" xmlns="http://www.w3.org/2000/svg" xmlns:xlink="http://www.w3.org/1999/xlink" x="0px" y="0px"
	 width="57px" height="57px" viewBox="0 0 57 57" enable-background="new 0 0 57 57" xml:space="preserve">
<g>
	<g>
		<path fill="#F23434" d="M23.31,41.772c-11.69,0-21.167-3.098-21.167-6.916v14.705c0,3.82,9.477,6.916,21.167,6.916
			c11.688,0,21.167-3.096,21.167-6.916V34.856C44.477,38.675,34.998,41.772,23.31,41.772z"/>
	</g>
	<path fill="#F66767" d="M44.471,7.125c-0.066,3.801-9.514,6.877-21.161,6.877c-11.65,0-21.096-3.076-21.161-6.877H2.143v27.853
		c0,3.82,9.477,6.916,21.167,6.916c11.688,0,21.167-3.096,21.167-6.916V7.125H44.471z"/>
	<g>
		<polyline fill="#FCCCCC" points="44.477,7.139 44.477,7.125 2.143,7.125 2.143,7.139 		"/>
		<path fill="#F99A9A" d="M23.31,14.055c-11.69,0-21.167-3.097-21.167-6.916v14.706c0,3.819,9.477,6.917,21.167,6.917
			c11.688,0,21.167-3.097,21.167-6.917V7.139C44.477,10.958,34.998,14.055,23.31,14.055z"/>
	</g>
	<path fill="#FCCCCC" d="M43.912,5.563c-2.168-3.067-10.559-5.355-20.604-5.355S4.873,2.497,2.704,5.563
		C2.349,6.066,2.143,6.586,2.143,7.125c0,3.819,9.477,6.916,21.167,6.916c11.688,0,21.167-3.097,21.167-6.916
		C44.477,6.586,44.27,6.066,43.912,5.563z"/>
</g>
<g>
	<path fill="#D8E9F0" d="M31.315,26.826v-2.555h-6.403v-5.236c-0.562-0.104-1.139-0.164-1.731-0.164
		c-4.716,0-8.562,3.475-9.358,7.962c-6.778-0.9-11.637-3.142-11.681-5.676l0.017,3.452c0,2.552,4.861,4.779,11.68,5.682
		c0.834,4.438,4.662,7.734,9.342,7.734c0.593,0,1.17-0.061,1.731-0.164v-4.77h6.403v-2.555h-6.403v-3.71H31.315z"/>
</g>
</svg>
