<?xml version="1.0" encoding="utf-8"?>
<!-- Generator: Adobe Illustrator 16.0.0, SVG Export Plug-In . SVG Version: 6.00 Build 0)  -->
<!DOCTYPE svg PUBLIC "-//W3C//DTD SVG 1.1//EN" "http://www.w3.org/Graphics/SVG/1.1/DTD/svg11.dtd">
<svg version="1.1" id="Layer_1" xmlns="http://www.w3.org/2000/svg" xmlns:xlink="http://www.w3.org/1999/xlink" x="0px" y="0px"
	 width="54px" height="54px" viewBox="0 0 54 54" enable-background="new 0 0 54 54" xml:space="preserve">
<rect x="36.719" y="34.125" fill="none" stroke="#FFFFFF" stroke-miterlimit="10" width="13" height="6"/>
<polygon fill="none" stroke="#FFFFFF" stroke-miterlimit="10" points="36.719,21.125 49.719,21.125 49.719,13.125 36.719,13.125 
	36.719,13.527 "/>
<rect x="36.719" y="24.125" fill="none" stroke="#FFFFFF" stroke-miterlimit="10" width="13" height="7"/>
<rect x="20.719" y="43.125" fill="none" stroke="#FFFFFF" stroke-miterlimit="10" width="13" height="7"/>
<rect x="36.719" y="43.125" fill="none" stroke="#FFFFFF" stroke-miterlimit="10" width="13" height="7"/>
<line fill="none" stroke="#FFFFFF" stroke-miterlimit="10" x1="49.719" y1="43.125" x2="49.719" y2="40.125"/>
<line fill="none" stroke="#FFFFFF" stroke-miterlimit="10" x1="36.719" y1="34.125" x2="49.719" y2="34.125"/>
<line fill="none" stroke="#FFFFFF" stroke-miterlimit="10" x1="49.719" y1="31.125" x2="36.719" y2="31.125"/>
<rect x="20.719" y="34.125" fill="none" stroke="#FFFFFF" stroke-miterlimit="10" width="13" height="6"/>
<rect x="20.719" y="13.125" fill="none" stroke="#FFFFFF" stroke-miterlimit="10" width="13" height="8"/>
<rect x="20.719" y="24.125" fill="none" stroke="#FFFFFF" stroke-miterlimit="10" width="13" height="7"/>
<rect x="4.719" y="34.125" fill="none" stroke="#FFFFFF" stroke-miterlimit="10" width="13" height="6"/>
<polygon fill="none" stroke="#FFFFFF" stroke-miterlimit="10" points="20.719,3.125 20.719,10.125 33.523,10.125 33.719,10.125 
	33.719,3.125 "/>
<rect x="4.719" y="13.125" fill="none" stroke="#FFFFFF" stroke-miterlimit="10" width="13" height="8"/>
<rect x="4.719" y="3.125" fill="none" stroke="#FFFFFF" stroke-miterlimit="10" width="13" height="7"/>
<rect x="4.719" y="24.125" fill="none" stroke="#FFFFFF" stroke-miterlimit="10" width="13" height="7"/>
<polyline fill="none" stroke="#FFFFFF" stroke-miterlimit="10" points="36.719,13.125 49.719,13.125 49.719,21.125 "/>
<line fill="none" stroke="#FFFFFF" stroke-miterlimit="10" x1="49.719" y1="24.125" x2="49.719" y2="31.125"/>
<path fill="none" stroke="#FFFFFF" stroke-miterlimit="10" d="M49.719,34.125"/>
<g>
	<polygon fill="none" stroke="#FFFFFF" stroke-miterlimit="10" points="52.719,53.125 17.719,53.125 17.719,43.125 1.719,43.125 
		1.719,0.125 36.719,0.125 36.719,10.125 52.719,10.125 	"/>
</g>
<polyline fill="none" stroke="#FFFFFF" stroke-miterlimit="10" points="20.719,3.125 33.719,3.125 33.719,10.125 "/>
<polyline fill="none" stroke="#FFFFFF" stroke-miterlimit="10" points="4.719,10.125 4.719,3.125 17.719,3.125 "/>
<path fill="none" stroke="#FFFFFF" stroke-miterlimit="10" d="M4.719,13.125"/>
<path fill="none" stroke="#FFFFFF" stroke-miterlimit="10" d="M4.719,31.125"/>
<polyline fill="none" stroke="#FFFFFF" stroke-miterlimit="10" points="17.719,40.316 17.719,40.125 4.719,40.125 4.719,34.125 "/>
<path fill="none" stroke="#FFFFFF" stroke-miterlimit="10" d="M4.719,31.125"/>
<path fill="none" stroke="#FFFFFF" stroke-miterlimit="10" d="M4.719,34.125"/>
</svg>
