<?xml version="1.0" encoding="utf-8"?>
<!-- Generator: Adobe Illustrator 16.0.0, SVG Export Plug-In . SVG Version: 6.00 Build 0)  -->
<!DOCTYPE svg PUBLIC "-//W3C//DTD SVG 1.1//EN" "http://www.w3.org/Graphics/SVG/1.1/DTD/svg11.dtd">
<svg version="1.1" id="Layer_1" xmlns="http://www.w3.org/2000/svg" xmlns:xlink="http://www.w3.org/1999/xlink" x="0px" y="0px"
	 width="21.084px" height="21.084px" viewBox="0 0 21.084 21.084" enable-background="new 0 0 21.084 21.084" xml:space="preserve">
<path fill="none" stroke="#FFFFFF" stroke-miterlimit="10" d="M2.578,11.398V7.202C3.371,7.814,4.453,8.276,5.825,8.59
	s2.847,0.469,4.425,0.469c1.579,0,3.054-0.156,4.426-0.469s2.454-0.776,3.247-1.388v4.197 M10.25,17.452
	c1.579,0,3.054-0.156,4.426-0.47s2.454-0.775,3.247-1.388v1.857c0,0.503-0.344,0.969-1.029,1.398s-1.618,0.771-2.797,1.021
	c-1.179,0.252-2.461,0.378-3.847,0.378c-1.385,0-2.667-0.126-3.846-0.378c-1.179-0.251-2.111-0.592-2.797-1.021
	c-0.686-0.43-1.029-0.896-1.029-1.398v-1.857c0.792,0.612,1.875,1.074,3.247,1.388S8.672,17.452,10.25,17.452z M2.578,15.595v-4.196
	c0.792,0.611,1.875,1.075,3.247,1.388c1.372,0.313,2.847,0.47,4.425,0.47c1.579,0,3.054-0.156,4.426-0.47
	c1.372-0.312,2.454-0.776,3.247-1.388v4.196 M2.578,7.202V3.464c0-0.502,0.343-0.969,1.029-1.398
	c0.686-0.43,1.618-0.771,2.797-1.022c1.179-0.251,2.461-0.377,3.846-0.377c1.386,0,2.668,0.125,3.847,0.377s2.111,0.592,2.797,1.022
	c0.686,0.43,1.029,0.896,1.029,1.398v3.737 M2.578,3.455C3.371,4.068,4.453,4.53,5.825,4.843s2.847,0.47,4.425,0.47
	c1.579,0,3.054-0.156,4.426-0.47s2.454-0.775,3.247-1.388"/>
</svg>
