<svg width="16" height="15" viewBox="0 0 16 15" fill="none" xmlns="http://www.w3.org/2000/svg">
<path d="M14.4719 0.0373105L5.40084 0.0373106C4.77627 0.0373107 4.27067 0.542912 4.28554 1.15261C4.28554 1.77718 4.79115 2.28278 5.40084 2.26791L11.7952 2.26791L1.14784 12.9153C0.716586 13.3465 0.716586 14.0603 1.14783 14.4916C1.57908 14.9228 2.29287 14.9228 2.72412 14.4916L13.3566 3.85907L13.3715 10.2386C13.3715 10.8631 13.8771 11.3687 14.4868 11.3539C14.7842 11.3539 15.0816 11.2349 15.2898 11.0267C15.498 10.8185 15.617 10.5509 15.617 10.2237L15.617 1.12287C15.617 0.825455 15.498 0.528043 15.2898 0.319854C15.0668 0.156277 14.7694 0.0373109 14.4719 0.0373105Z" fill="white"/>
</svg>
