<svg width="21" height="16" viewBox="0 0 21 16" fill="none" xmlns="http://www.w3.org/2000/svg">
<path fill-rule="evenodd" clip-rule="evenodd" d="M20.7126 2.25101L19.9028 1.44116L12.2326 9.11193C11.256 10.0885 9.66706 10.0885 8.69045 9.11193L1.0203 1.44116L0.210449 2.25101L5.93783 7.97778L0.210449 13.7052L1.0203 14.5144L6.74706 8.78762L7.88122 9.92116C8.57045 10.6104 9.48676 10.9901 10.4615 10.9901C11.4363 10.9901 12.3526 10.6104 13.0418 9.92116L14.176 8.78762L19.9028 14.5144L20.7126 13.7052L14.9852 7.97778L20.7126 2.25101Z" fill="#EF6145"/>
<path fill-rule="evenodd" clip-rule="evenodd" d="M19.0769 16H1.84615C0.828308 16 0 15.1717 0 14.1538V1.84615C0 0.828308 0.828308 0 1.84615 0H19.0769C20.0948 0 20.9231 0.828308 20.9231 1.84615V14.1538C20.9231 15.1717 20.0948 16 19.0769 16ZM1.84615 1.23077C1.50708 1.23077 1.23077 1.50708 1.23077 1.84615V14.1538C1.23077 14.4929 1.50708 14.7692 1.84615 14.7692H19.0769C19.416 14.7692 19.6923 14.4929 19.6923 14.1538V1.84615C19.6923 1.50708 19.416 1.23077 19.0769 1.23077H1.84615Z" fill="#EF6145"/>
</svg>
