<svg width="40" height="40" viewBox="0 0 40 40" fill="none" xmlns="http://www.w3.org/2000/svg">
<path fill-rule="evenodd" clip-rule="evenodd" d="M12.5 32H7.5C7.10245 31.9989 6.72165 31.8404 6.44062 31.5594C6.1596 31.2783 6.00112 30.8975 6 30.5V9.49999C6.00111 9.10245 6.15959 8.72165 6.44062 8.44062C6.72165 8.1596 7.10245 8.00112 7.5 8H12.5C12.8975 8.00111 13.2783 8.15959 13.5594 8.44062C13.8404 8.72165 13.9989 9.10245 14 9.49999V30.5C13.9989 30.8975 13.8404 31.2783 13.5594 31.5594C13.2783 31.8404 12.8975 31.9989 12.5 32ZM9.29285 25.7071C9.48035 25.8946 9.73482 26 10 26C10.2652 26 10.5196 25.8946 10.7071 25.7071C10.8946 25.5196 11 25.2652 11 25C11 24.7348 10.8946 24.4804 10.7071 24.2929C10.5196 24.1054 10.2652 24 10 24C9.73482 24 9.48035 24.1054 9.29285 24.2929C9.10536 24.4804 9 24.7348 9 25C9 25.2652 9.10536 25.5196 9.29285 25.7071ZM11.5 12H8.5V20H11.5V12ZM22.3151 32C22.7126 31.9989 23.0934 31.8404 23.3744 31.5594C23.6555 31.2783 23.8139 30.8975 23.8151 30.5V9.49999C23.8139 9.10245 23.6555 8.72165 23.3744 8.44062C23.0934 8.15959 22.7126 8.00111 22.3151 8H17.3151C16.9175 8.00112 16.5367 8.1596 16.2557 8.44062C15.9747 8.72165 15.8162 9.10245 15.8151 9.49999V30.5C15.8162 30.8975 15.9747 31.2783 16.2557 31.5594C16.5367 31.8404 16.9175 31.9989 17.3151 32H22.3151ZM19.8151 26C19.5499 26 19.2954 25.8946 19.1079 25.7071C18.9204 25.5196 18.8151 25.2652 18.8151 25C18.8151 24.7348 18.9204 24.4804 19.1079 24.2929C19.2954 24.1054 19.5499 24 19.8151 24C20.0802 24 20.3347 24.1054 20.5222 24.2929C20.7097 24.4804 20.8151 24.7348 20.8151 25C20.8151 25.2652 20.7097 25.5196 20.5222 25.7071C20.3347 25.8946 20.0802 26 19.8151 26ZM18.3151 12H21.3151V20H18.3151V12ZM32.3151 32C32.7126 31.9989 33.0934 31.8404 33.3744 31.5594C33.6555 31.2783 33.8139 30.8975 33.8151 30.5V9.49999C33.8139 9.10245 33.6555 8.72165 33.3744 8.44062C33.0934 8.15959 32.7126 8.00111 32.3151 8H27.3151C26.9175 8.00112 26.5367 8.1596 26.2557 8.44062C25.9747 8.72165 25.8162 9.10245 25.8151 9.49999V30.5C25.8162 30.8975 25.9747 31.2783 26.2557 31.5594C26.5367 31.8404 26.9175 31.9989 27.3151 32H32.3151ZM29.8151 26C29.5499 26 29.2954 25.8946 29.1079 25.7071C28.9204 25.5196 28.8151 25.2652 28.8151 25C28.8151 24.7348 28.9204 24.4804 29.1079 24.2929C29.2954 24.1054 29.5499 24 29.8151 24C30.0802 24 30.3347 24.1054 30.5222 24.2929C30.7097 24.4804 30.8151 24.7348 30.8151 25C30.8151 25.2652 30.7097 25.5196 30.5222 25.7071C30.3347 25.8946 30.0802 26 29.8151 26ZM28.3151 12H31.3151V20H28.3151V12Z" fill="white"/>
</svg>
