<svg width="40" height="40" viewBox="0 0 40 40" fill="none" xmlns="http://www.w3.org/2000/svg">
<path fill-rule="evenodd" clip-rule="evenodd" d="M21.7623 21.8425C21.959 21.7605 22.2381 21.662 22.5992 21.5473L27.9899 19.9471C28.1871 20.62 28.4672 21.6287 28.8273 22.975C28.9093 23.4015 28.9259 23.8202 28.8761 24.2306C28.7614 24.6244 28.5648 24.9938 28.2852 25.3379C28.0221 25.617 27.8089 25.8546 27.6449 26.0523C27.4156 26.2987 27.1774 26.5042 26.9305 26.6681C24.354 28.5717 21.4656 29.2613 18.2649 28.7362C15.9836 28.3751 14.038 27.4069 12.4296 25.8318C11.9538 25.3555 11.6337 24.8636 11.4697 24.3552C11.3063 23.7969 11.3224 23.1981 11.5185 22.5579C11.5346 22.4105 11.7816 21.5399 12.2574 19.9486L12.6511 20.0716C14.1277 20.5313 16.3359 21.2042 19.2731 22.0903C19.8641 22.2538 20.414 22.2538 20.922 22.0903C21.1718 22.0059 21.451 21.924 21.7623 21.8425ZM29.6154 18.2236C29.0899 17.6653 28.3681 17.1651 27.4487 16.722C26.3981 16.1803 25.2485 15.7285 24.0021 15.3678C22.952 15.056 21.7291 14.7935 20.3345 14.5802C20.0056 14.4978 19.7274 14.5222 19.4971 14.6539C19.3004 14.8013 19.1857 14.9818 19.153 15.1956C19.1369 15.4259 19.2106 15.6221 19.3741 15.7865C19.5059 15.95 19.7601 16.0656 20.1378 16.1315C21.812 16.378 23.4195 16.78 24.962 17.3383C25.2909 17.453 25.6925 17.6252 26.1688 17.8551C26.4313 17.9698 26.8251 18.1342 27.3502 18.3475L27.3014 18.4704C27.2194 18.5031 27.1696 18.5192 27.154 18.5192C24.1011 19.4708 21.8609 20.1603 20.433 20.5873C20.3344 20.62 20.2197 20.6371 20.088 20.6371C19.9738 20.6371 19.8503 20.621 19.7186 20.5873C19.0461 20.358 17.4216 19.8485 14.8446 19.0609C9.7724 17.5345 6.36785 16.5005 4.62816 15.9588C4.51349 15.91 4.41492 15.8524 4.33244 15.7865C4.18507 15.7045 4.1031 15.6231 4.08601 15.5401C3.97133 15.3766 3.97133 15.2122 4.08601 15.0477C4.16799 14.8672 4.33244 14.7364 4.57838 14.6539C11.5209 12.5205 16.5754 10.9774 19.7441 10.0254C19.8588 10.0093 19.9979 10 20.1633 10C20.278 10 20.4097 10.0083 20.5571 10.0254C23.3308 10.8789 27.4753 12.1422 32.9895 13.8166L35.7222 14.7027C36.0501 14.7847 36.2141 14.9492 36.2141 15.1951C36.2141 15.3757 36.1321 15.5728 35.9677 15.7861C35.935 15.8188 35.8774 15.8598 35.7954 15.909C35.6807 15.9417 35.6149 15.9578 35.5987 15.9578L31.3396 17.2627C31.2576 17.2954 31.1342 17.3368 30.9702 17.3856C31.0849 17.5828 31.2493 17.8619 31.4626 18.223C31.6431 18.568 31.7983 18.8389 31.9301 19.035C32.012 19.1995 32.1267 19.3224 32.2741 19.4044C32.6855 19.6011 32.948 19.9129 33.0627 20.3399C33.2101 20.7498 33.153 21.1358 32.8904 21.4969C32.7918 21.6443 32.7269 21.8004 32.6933 21.9649C32.6611 22.1122 32.6777 22.2684 32.743 22.4324C32.743 22.4812 32.7513 22.5797 32.7674 22.7276C32.8001 22.8423 32.8162 22.9242 32.8162 22.974C33.1774 24.4019 33.7678 25.7233 34.5882 26.9379C35.3606 28.0705 36.3356 29.1289 37.518 30.1142L37.8132 30.3357C37.3872 30.7456 36.9934 31.0906 36.6323 31.3697C36.1887 31.6811 35.7461 31.9114 35.303 32.0588C34.8765 32.1905 34.4495 32.2315 34.0235 32.1817C33.6458 32.149 33.2842 32.009 32.9397 31.7626C32.6928 31.5659 32.4391 31.2702 32.176 30.8764C31.8481 30.3669 31.5856 29.7935 31.3889 29.1533C31.2245 28.6278 31.0844 28.0129 30.9697 27.3073C30.7726 25.8136 30.7311 24.1559 30.8458 22.3347C30.8619 22.2361 30.8458 22.1459 30.797 22.0639C30.7643 21.9653 30.7067 21.875 30.6247 21.793C30.3783 21.5798 30.2231 21.3007 30.1572 20.9557C30.1084 20.6438 30.1655 20.3486 30.3295 20.0695C30.4442 19.905 30.4856 19.7416 30.4525 19.5771C30.4525 19.4615 30.4037 19.3063 30.3051 19.1091C30.0426 18.7485 29.8121 18.4534 29.6154 18.2236Z" fill="white"/>
</svg>
