<?xml version="1.0" encoding="utf-8"?>
<!-- Generator: Adobe Illustrator 16.0.0, SVG Export Plug-In . SVG Version: 6.00 Build 0)  -->
<!DOCTYPE svg PUBLIC "-//W3C//DTD SVG 1.1//EN" "http://www.w3.org/Graphics/SVG/1.1/DTD/svg11.dtd">
<svg version="1.1" id="Layer_1" xmlns="http://www.w3.org/2000/svg" xmlns:xlink="http://www.w3.org/1999/xlink" x="0px" y="0px"
	 width="16px" height="16px" viewBox="0 0 16 16" enable-background="new 0 0 16 16" xml:space="preserve">
<path fill="#FFFFFF" d="M9.707,13.707l5-5c0.391-0.39,0.391-1.024,0-1.414l-5-5c-0.391-0.391-1.023-0.391-1.414,0
	c-0.39,0.391-0.391,1.024,0,1.414L11.586,7H2C1.448,7,1,7.448,1,8s0.448,1,1,1h9.586l-3.293,3.293C8.098,12.488,8,12.744,8,13
	s0.098,0.512,0.293,0.707C8.684,14.098,9.316,14.098,9.707,13.707z"/>
</svg>
