<?xml version="1.0" encoding="utf-8"?>
<!-- Generator: Adobe Illustrator 16.0.4, SVG Export Plug-In . SVG Version: 6.00 Build 0)  -->
<!DOCTYPE svg PUBLIC "-//W3C//DTD SVG 1.1//EN" "http://www.w3.org/Graphics/SVG/1.1/DTD/svg11.dtd">
<svg version="1.1" id="Layer_1" xmlns="http://www.w3.org/2000/svg" xmlns:xlink="http://www.w3.org/1999/xlink" x="0px" y="0px"
	 width="500px" height="410.5px" viewBox="0 0 500 410.5" enable-background="new 0 0 500 410.5" xml:space="preserve">
<rect fill="#FFFFFF" width="500" height="410.5"/>
<g>
	<g>
		<g>
			<rect x="40.399" y="42.624" stroke="#000000" stroke-miterlimit="10" width="416.58" height="13.446"/>
		</g>
		<g>
			<g>
				<path stroke="#000000" stroke-miterlimit="10" d="M480.769,12.828v384.844H19.231V12.828H480.769 M500,0H0v410.5h500V0L500,0z"
					/>
			</g>
		</g>
		<g>
			<rect x="45.121" y="108.776" stroke="#000000" stroke-miterlimit="10" width="173.663" height="13.446"/>
		</g>
		<g>
			<rect x="45.121" y="145.349" stroke="#000000" stroke-miterlimit="10" width="149.5" height="13.446"/>
		</g>
		<g>
			<rect x="45.121" y="181.922" stroke="#000000" stroke-miterlimit="10" width="149.5" height="13.445"/>
		</g>
		<g>
			<rect x="45.121" y="218.494" stroke="#000000" stroke-miterlimit="10" width="166.841" height="13.446"/>
		</g>
		<g>
			<path d="M444.417,354.289v-85.048h-45.272v85.048h-20.313V209.228h-45.562v144.741h-20.312V145.042h-45.271v208.926h-20.606
				V108.776h-7.835v253.857h28.441h45.271h20.313h45.271h20.314h45.271h27.279v-8.667h-26.989L444.417,354.289L444.417,354.289z
				 M275.229,354.289V153.707h29.891v200.582H275.229z M341.105,354.289V217.893h29.891v136.396H341.105L341.105,354.289z
				 M406.981,354.289v-76.705h29.891v76.383h-29.891V354.289z"/>
		</g>
		<g>
			<rect x="43.022" y="255.066" stroke="#000000" stroke-miterlimit="10" width="173.662" height="13.446"/>
		</g>
		<g>
			<rect x="43.022" y="291.64" stroke="#000000" stroke-miterlimit="10" width="149.501" height="13.445"/>
		</g>
	</g>
</g>
<g display="none">
	<path display="inline" d="M123.5,381h-325v400h325V381L123.5,381z"/>
	<g display="inline">
		<polygon points="-148.875,602.625 -164,602.625 -81.5,496.625 6.5,602.625 -9,602.75 -81.25,515.75 		"/>
		<polygon points="69.125,581.25 23.125,535.25 -20.375,578.75 -28.875,570.375 23.125,518.375 86,581.25 		"/>
		<path d="M-22,512.125c-13.625,0-24.75-11.125-24.75-24.875s11.125-24.875,24.75-24.875S2.875,473.5,2.875,487.25
			S-8.375,512.125-22,512.125z M-22,474.5c-7.125,0-12.875,5.75-12.875,12.875S-29.125,500.25-22,500.25s12.875-5.75,12.875-12.875
			S-14.875,474.5-22,474.5z"/>
	</g>
	<rect x="-151.5" y="649.5" display="inline" width="225" height="12.5"/>
	<rect x="-151.5" y="687" display="inline" width="225" height="12.5"/>
</g>
<g display="none">
	<g display="inline">
		<path d="M164.5,50v400h325V50H164.5z M344,131.5c13.625,0,24.875,11.125,24.875,24.875S357.75,181.25,344,181.25
			s-24.75-11.125-24.75-24.875S330.25,131.5,344,131.5z M439.5,368.5h-225V356h225V368.5z M439.5,331h-225v-12.5h225V331z
			 M435.125,250.25l-46-46L349.5,243.875l23.125,27.75H357l-72.125-87l-67.625,87H202l82.5-106l57.375,69l47.25-47.25L452,250.25
			H435.125z"/>
		<circle cx="344" cy="156.375" r="12.875"/>
	</g>
</g>
<text transform="matrix(1 0 0 1 -239 968.5)" display="none" enable-background="new    " font-family="'HelveticaNeue-Bold'" font-size="62.5">Created by Alfredo Hernandez</text>
<text transform="matrix(1 0 0 1 -239 1031)" display="none" enable-background="new    " font-family="'HelveticaNeue-Bold'" font-size="62.5">from the Noun Project</text>
</svg>
