<?xml version="1.0" encoding="utf-8"?>
<!-- Generator: Adobe Illustrator 19.0.0, SVG Export Plug-In . SVG Version: 6.00 Build 0)  -->
<svg version="1.1" id="Layer_1" xmlns="http://www.w3.org/2000/svg" xmlns:xlink="http://www.w3.org/1999/xlink" x="0px" y="0px"
	 viewBox="-499 361 200 120" style="enable-background:new -499 361 200 120;" xml:space="preserve">
<style type="text/css">
	.st0{opacity:0.15;}
	.st1{fill-rule:evenodd;clip-rule:evenodd;fill:#505A78;}
	.st2{fill:#505A78;}
	.st3{opacity:0.1;}
	.st4{fill:#B2D8F7;}
	.st5{fill:#92E3A5;}
	.st6{fill:#BCDBF5;}
	.st7{fill:#F6F7F8;}
</style>
<g>
	<g class="st0">
		<path class="st1" d="M-328.1,468.8H-469c-0.6,0-1.2-0.5-1.2-1.2v-0.3c0-0.6,0.5-1.2,1.2-1.2h140.9c0.6,0,1.2,0.5,1.2,1.2v0.3
			C-327,468.3-327.5,468.8-328.1,468.8z"/>
		<path class="st2" d="M-328,469l0.1,0l0.1,0l0,0l0,0l0,0c0.1,0,0.1,0,0.2-0.1c0.4-0.2,0.7-0.5,0.8-1c0-0.2,0-0.4,0-0.6
			c0-0.2-0.1-0.4-0.2-0.6c-0.2-0.4-0.6-0.7-1-0.7c-0.4,0-0.8,0-1.2,0c-3.1,0-6.1,0-8.9,0c-5.6,0-10.4,0-13.1,0c-9.7,0-18.9,0-27.9,0
			c-9.3,0-18.5,0-27.8,0c-9,0-18.2,0-27.8,0c-7.3,0-14.6-0.1-22-0.1c-3.7,0-7.4,0-11.1,0c-0.5,0-0.9,0-1.4,0
			c-0.6,0.1-1.1,0.5-1.2,1.1c0,0.1-0.1,0.3-0.1,0.4l0,0.4c0,0.3,0.1,0.6,0.3,0.8c0.2,0.2,0.4,0.4,0.7,0.5c0.3,0.1,0.6,0.1,0.8,0.1
			c1.8,0,3.7,0,5.5,0c7.4,0,14.8,0,22.1,0c7.4,0,14.4,0,21.6,0c7,0,15.8,0,24.1,0c8.3,0,16.7,0,23.7,0c4.8,0,15.6,0,26.7,0
			c5.6,0,11.9,0,16.6,0c0.2,0,0.3,0,0.4,0v-0.4c-0.1,0-0.2,0-0.4,0c-4.7,0-13.8,0-22.1,0c-14.2,0-28.1,0-30.5,0
			c-8.5,0-16.6,0-24.4,0c-8.3,0-16.3,0-24.4,0c-8,0-16,0-24.3,0c-3.9,0-7.8,0-11.9,0c-1,0-2,0-3,0c-0.4,0-0.8-0.4-0.8-0.8
			c0-0.2,0-0.5,0-0.7c0-0.2,0.2-0.4,0.3-0.5c0.2-0.1,0.4-0.2,0.6-0.2l0.8,0c0.5,0,1,0,1.6,0c1,0,2.1,0,3.2,0c8.7,0,17.6,0,26.4,0
			c8.8,0,17.6,0,26.4,0c8.8,0,17.6,0,26.4-0.1c8.8,0,17.6,0.1,26.3,0.1c4.2,0,10.8,0,22.5-0.1c1.8,0,3.7,0,5.5,0l1.4,0
			c0.2,0,0.5,0,0.6,0c0.2,0,0.3,0.1,0.5,0.3c0.1,0.1,0.2,0.3,0.3,0.5c0,0.1,0,0.5,0,0.6c0,0.4-0.3,0.7-0.7,0.8
			c-0.1,0-0.2,0.1-0.2,0.1v0.4L-328,469z"/>
	</g>
	<g>
		<g class="st3">
			<path class="st2" d="M-333.5,389.3h-130.2c-0.5,0-0.9-0.4-0.9-0.9v-2.3c0-0.5,0.4-0.9,0.9-0.9h130.2c0.5,0,0.9,0.4,0.9,0.9v2.3
				C-332.5,388.9-333,389.3-333.5,389.3z"/>
			<path class="st2" d="M-333.5,389.9h-130.2c-0.8,0-1.5-0.7-1.5-1.5v-2.3c0-0.8,0.7-1.5,1.5-1.5h130.2c0.8,0,1.5,0.7,1.5,1.5v2.3
				C-332,389.3-332.6,389.9-333.5,389.9z M-463.7,385.8c-0.2,0-0.3,0.1-0.3,0.3v2.3c0,0.2,0.1,0.3,0.3,0.3h130.2
				c0.2,0,0.3-0.1,0.3-0.3v-2.3c0-0.2-0.1-0.3-0.3-0.3H-463.7z"/>
		</g>
		<path class="st2" d="M-332.4,388.2c-0.4,0.4-0.6,1.5-0.7,2.8c-0.1,13.1-0.1,28.6-0.1,34.7c0,13.9-0.1,26.6-0.1,39.3
			c-0.1,0.2-0.2,0.4-0.4,0.5c-0.1,0.1-0.2,0.1-0.3,0.1c-0.1,0-0.2,0-0.4,0l-2.4,0c-1.6,0-3.2,0-4.8,0c-3.2,0-6.4,0-9.7,0
			c-6.5,0-13.2-0.1-20.1-0.1c-27.6-0.2-56.4-0.2-83.6-0.2c-1.7,0-3.4,0-5.2,0c-0.9,0-1.8,0-2.7,0c-0.2,0-0.4-0.1-0.5-0.3
			c-0.1-0.1-0.1-0.2-0.1-0.3c0-0.1,0-0.1,0-0.4c0-3.8,0-7.7,0-11.7c0-7.9-0.1-15.7-0.1-22.4c0-7-0.1-31.3-0.2-40.7
			c0-1.9-1.4-2.6-1.4,0.2c0,9.7,0,45.7,0,49.4c0,8.4,0,16.2,0,23.8l0,1.4c0,0.6,0.2,1.4,0.7,1.9c0.5,0.5,1.2,0.8,1.8,0.7l1.4,0
			c1.9,0,3.7,0,5.6,0c3.7,0,7.4,0,11.1,0c14.7,0,29.4,0,46,0.1c16.5,0.1,33.2,0.1,49.9,0.1c4.2,0,8.3,0,12.5,0l1.6,0l0.4,0l0.2,0
			c0.1,0,0.2,0,0.3,0c0.4-0.1,0.8-0.2,1.1-0.4c0.7-0.5,1.1-1.2,1.2-2.1c0-0.2,0-0.3,0-0.5l0-0.4l0-0.8l0-6.2c0-8.3,0-16.6,0-24.9
			c0-1.4,0-23.8-0.2-41.2C-331.9,389.2-332.1,387.8-332.4,388.2z"/>
		<path class="st2" d="M-430.5,462.6c0.4-0.4,0.6-1.5,0.7-2.8c0.1-3.1,0.1-6.7,0.1-8.2c0.1-6.6,0-12.1,0.2-18.6
			c0.2-6.5,0.2-13.3,0.2-19.7c0-3.1-0.1-7.4-0.2-10.6c0-1.6-0.1-6.2-0.2-9.2c0-0.7,0-1.2,0-1.5c0-1.9-1.4-2.6-1.4,0.2
			c0,0.3,0,0.6,0,1.3c0,3.5,0,10.5,0,11.3c-0.1,7.9,0.2,13.9-0.1,21.7c-0.3,7.8,0,15.8-0.1,23.5c0,0.3,0,5.6,0.2,9.7
			C-431.1,461.6-430.9,463-430.5,462.6z"/>
	</g>
	<path class="st2" d="M-438.7,397.7c-0.3-0.3-1.1-0.4-2.1-0.5c-0.8-0.1-1.7-0.1-2.1-0.1c-1.7-0.1-3,0-4.7-0.1
		c-1.6-0.1-3.3-0.1-5-0.1c-0.8,0-1.9,0.1-2.7,0.1c-0.4,0-1.6,0.1-2.3,0.1c-0.5,0-0.9,0-1.2,0c-1.4,0-2,1.1,0.2,1.1c0.2,0,0.5,0,1,0
		c0.9,0,2.6,0,2.8,0c2,0.1,3.5-0.1,5.5,0.1c2,0.2,4,0,5.9,0.1c0.1,0,1.4,0,2.4-0.1C-439.4,398.1-438.4,398-438.7,397.7z"/>
	<path class="st2" d="M-438.7,406.3c-0.3-0.3-1.1-0.4-2.1-0.5c-0.8-0.1-1.7-0.1-2.1-0.1c-1.7-0.1-3,0-4.7-0.1
		c-1.6-0.1-3.3-0.1-5-0.1c-0.8,0-1.9,0.1-2.7,0.1c-0.4,0-1.6,0.1-2.3,0.1c-0.5,0-0.9,0-1.2,0c-1.4,0-2,1.1,0.2,1.1c0.2,0,0.5,0,1,0
		c0.9,0,2.6,0,2.8,0c2,0.1,3.5-0.1,5.5,0.1c2,0.2,4,0,5.9,0.1c0.1,0,1.4,0,2.4-0.1C-439.4,406.7-438.4,406.5-438.7,406.3z"/>
	<path class="st2" d="M-438.7,414.8c-0.3-0.3-1.1-0.4-2.1-0.5c-0.8-0.1-1.7-0.1-2.1-0.1c-1.7-0.1-3,0-4.7-0.1
		c-1.6-0.1-3.3-0.1-5-0.1c-0.8,0-1.9,0.1-2.7,0.1c-0.4,0-1.6,0.1-2.3,0.1c-0.5,0-0.9,0-1.2,0c-1.4,0-2,1.1,0.2,1.1c0.2,0,0.5,0,1,0
		c0.9,0,2.6,0,2.8,0c2,0.1,3.5-0.1,5.5,0.1c2,0.2,4,0,5.9,0.1c0.1,0,1.4,0,2.4-0.1C-439.4,415.2-438.4,415.1-438.7,414.8z"/>
	<path class="st2" d="M-438.7,423.4c-0.3-0.3-1.1-0.4-2.1-0.5c-0.8-0.1-1.7-0.1-2.1-0.1c-1.7-0.1-3,0-4.7-0.1
		c-1.6-0.1-3.3-0.1-5-0.1c-0.8,0-1.9,0.1-2.7,0.1c-0.4,0-1.6,0.1-2.3,0.1c-0.5,0-0.9,0-1.2,0c-1.4,0-2,1.1,0.2,1.1c0.2,0,0.5,0,1,0
		c0.9,0,2.6,0,2.8,0c2,0.1,3.5-0.1,5.5,0.1c2,0.2,4,0,5.9,0.1c0.1,0,1.4,0,2.4-0.1C-439.4,423.8-438.4,423.6-438.7,423.4z"/>
	<path class="st2" d="M-438.7,431.9c-0.3-0.3-1.1-0.4-2.1-0.5c-0.8-0.1-1.7-0.1-2.1-0.1c-1.7-0.1-3,0-4.7-0.1
		c-1.6-0.1-3.3-0.1-5-0.1c-0.8,0-1.9,0.1-2.7,0.1c-0.4,0-1.6,0.1-2.3,0.1c-0.5,0-0.9,0-1.2,0c-1.4,0-2,1.1,0.2,1.1c0.2,0,0.5,0,1,0
		c0.9,0,2.6,0,2.8,0c2,0.1,3.5-0.1,5.5,0.1c2,0.2,4,0,5.9,0.1c0.1,0,1.4,0,2.4-0.1C-439.4,432.3-438.4,432.2-438.7,431.9z"/>
	<path class="st4" d="M-444,456.8h-10.5c-0.7,0-1.3-0.6-1.3-1.3v-5.6c0-0.7,0.6-1.3,1.3-1.3h10.5c0.7,0,1.3,0.6,1.3,1.3v5.6
		C-442.7,456.2-443.3,456.8-444,456.8z"/>
	<path class="st2" d="M-444.9,448.6c0.2-0.3,0.3-0.9,0.4-1.7c0.1-0.7-0.1-1.7-0.4-2.4c-0.4-0.8-0.9-1.4-1.6-1.9
		c-1.3-0.9-2.8-0.9-3.5-0.8c-1.7,0.2-3.1,1.4-3.7,2.9c-0.3,0.7-0.4,1.6-0.4,2.3l0,1l0,0.1c0,0-0.1,0-0.1,0l-0.5,0l-0.3,0l-0.2,0
		c-0.1,0-0.2,0-0.2,0c-0.3,0.1-0.6,0.3-0.7,0.6c-0.1,0.1-0.1,0.4-0.1,0.5l0,0.3c0,0.8,0,1.5,0,2.3c0,0.8,0,1.6,0,2.4
		c0,0.4,0,0.8,0,1.2l0,0.6l0,0.2c0,0.1,0,0.2,0,0.3c0,0.2,0.1,0.4,0.3,0.5c0.1,0.1,0.3,0.2,0.5,0.3c0.2,0.1,0.4,0.1,0.5,0.1l0.6,0
		l1.2,0c0.8,0,1.6,0,2.4,0c1.6,0,3.2,0,4.8,0l2.4,0c0.1,0,0.3,0,0.5-0.1c0.2-0.1,0.4-0.2,0.5-0.3c0.1-0.1,0.2-0.3,0.3-0.5
		c0.1-0.2,0.1-0.4,0.1-0.5l0-1.2c0-1.6,0-3.2,0-4.7c0-0.2,0-0.4,0-0.6l0-0.3c0-0.1,0-0.4-0.1-0.5c-0.2-0.4-0.5-0.7-0.9-0.7
		c-0.2,0-0.3,0-0.4,0l-0.3,0c-0.9,0-1.8,0-2.7,0c-0.9,0-1.8,0-2.7,0c-0.4,0-0.9,0-1.3,0c-0.1,0-0.3,0-0.4,0c0,0-0.1,0-0.1,0
		c0,0,0,0,0,0c0-0.2,0-0.5,0-0.8c0-0.2,0-0.4,0-0.6c0-0.2,0-0.4,0.1-0.5c0.2-0.7,1-1.4,2-1.3c0.9,0.1,1.7,1,1.7,1.8c0,0.4,0,0.7,0,1
		c0,1.2,0.9,1.6,0.9-0.1c0-0.1,0-0.2,0-0.4c0-0.1,0-0.2,0-0.2l0-0.1l0-0.1c0-0.1,0-0.1,0-0.2c0-0.6-0.3-1.2-0.8-1.7
		c-0.4-0.5-1.1-0.8-1.8-0.9c-0.7-0.1-1.4,0.1-1.9,0.5c-0.5,0.4-0.9,0.9-1,1.5c-0.1,0.3-0.1,0.5-0.1,0.8c0,0.2,0,0.4,0,0.6
		c0,0.4,0,0.8,0,1c0,0.4,0.1,0.6,0.3,0.8c0.2,0.1,0.5,0.1,0.8,0.1c0.3,0,0.5,0,0.7,0c0.3,0,0.5,0,0.6,0c1.9,0,3.7,0,5.5,0l0.7,0
		l0.2,0c0,0,0,0,0,0c0,0,0,0,0.1,0c0,0,0,0,0,0.1c0,0,0,0,0,0.2l0,0.6c0,0.9,0,1.7,0,2.5c0,0.8,0,1.7,0,2.5c0,0.4,0,0.8,0,1.2
		c-0.1,0.1,0,0.1-0.6,0.1c-1.7,0-3.5,0-5.4-0.1c-1.3,0-2.6,0-3.9-0.1l-1.8,0l0,0l0,0l0,0l0-0.1l0-1l0-3.9l0-2c0,0,0,0,0,0l1.1,0
		l0.9,0c0.1-0.2,0-0.6,0-0.8l0-1.1c0-0.6,0-1.1,0.1-1.6c0.3-1,0.9-1.9,1.8-2.3c0.1,0,1.2-0.7,2.8-0.4c0.8,0.2,1.6,0.7,2.1,1.4
		c0.6,0.7,0.8,1.6,0.8,2.6C-445.2,448-445.1,448.9-444.9,448.6z"/>
	<g class="st3">
		<path class="st2" d="M-450.5,449.8v6.1c0,0.4-0.3,0.8-0.8,0.8h-3.2c-0.4,0-0.8-0.3-0.8-0.8v-6.1c0-0.4,0.3-0.8,0.8-0.8h3.2
			C-450.8,449-450.5,449.3-450.5,449.8z"/>
		<path class="st2" d="M-451.3,457.3h-3.2c-0.8,0-1.5-0.7-1.5-1.5v-6.1c0-0.8,0.7-1.5,1.5-1.5h3.2c0.8,0,1.5,0.7,1.5,1.5v6.1
			C-449.8,456.7-450.5,457.3-451.3,457.3z M-454.5,449.7C-454.5,449.7-454.6,449.7-454.5,449.7l-0.1,6.2c0,0,0,0.1,0.1,0.1h3.2
			c0,0,0.1,0,0.1-0.1v-6.1c0,0,0-0.1-0.1-0.1H-454.5z"/>
	</g>
	<g>
		<path class="st4" d="M-347.8,407.7c-2,2.4-4.3,5.2-5.2,6.3c-1.7,2.2-3.4,4.2-5,6.2l-0.5,0.7c0,0-0.1,0.1-0.1,0.1l-5.5-1.9
			c-1.2-0.4-2.5-0.8-3.7-1.2c-0.6-0.2-1.3-0.4-1.9-0.6c-0.3-0.1-0.6-0.2-1-0.3c-0.4-0.1-0.7-0.3-1.1-0.4l-0.4-0.1
			c-0.1,0-0.3,0.1-0.4,0.2l-0.8,0.3l-0.7,0.3l-1.4,0.5c-0.9,0.4-1.8,0.7-2.7,1.1c-1.9,0.9-3.8,1.9-5.7,2.8c-1,0.4-1.9,0.9-2.9,1.3
			l-1.4,0.6c0,0,0,0-0.1,0l-0.2,0l-0.8-0.2c-2.1-0.5-4-1-6-1.5c-2-0.4-4.4-0.9-6.8-1.4c-0.6-0.1-1.2-0.2-1.8-0.3
			c-0.2,0-0.5-0.1-0.7,0c-0.1,0-0.2,0.1-0.3,0.1l-0.2,0.1c-0.3,0.1-0.6,0.2-0.8,0.3c-1.1,0.4-2.1,0.9-3,1.3c-1.3,0.5-4.1,1.8-7,3.1
			c-1.5,0.7-3.1,1.4-4.3,2c-0.4,0.2-0.7,0.4-0.9,0.5l0.4,1c0.2-0.1,0.4-0.2,1-0.4c1.2-0.5,3.6-1.6,5.8-2.5c3.7-1.6,7.4-3.2,8.1-3.4
			c0.5-0.2,1.2-0.5,1.6-0.6c0.1-0.1,0.1,0,0.2,0l0.4,0.1c0.3,0.1,0.6,0.1,0.8,0.2c1.1,0.2,2.2,0.5,3.3,0.7c2.3,0.5,4.6,1.1,6.8,1.6
			c1.1,0.2,2.2,0.5,3.4,0.7l0.9,0.2c0.1,0,0.2,0.1,0.3,0.1l0.3-0.2l0.5-0.2c0.5-0.2,1.1-0.5,1.6-0.7c2-0.9,4.2-1.8,6.4-2.7
			c2.3-1,4.6-2.1,6.9-3.2l0.1,0c-0.1-0.1,0.7,0.2,1.2,0.4l1.7,0.6l3.5,1.2c1.2,0.4,2.4,0.8,3.6,1.1l1.8,0.6l0.9,0.3l0.6,0.2l0.4,0.1
			l0.2,0.1c0.1,0,0.1,0.1,0.2,0l0.9-1.1l0.6-0.7l1.2-1.4c0.8-0.9,1.7-1.9,2.4-2.9c0.7-1,1.8-2.5,3.9-5.2c0.6-0.8,1.3-1.7,1.9-2.6
			c0.2-0.3,0.3-0.5,0.5-0.8l-0.8-0.7L-347.8,407.7z"/>
		<path class="st5" d="M-353.4,400.1c-0.2,0.1-0.4,0.2-0.5,0.2c-2.5,1.4-5,2.7-6,3.3c-2.2,1.2-4.3,2.3-6.3,3.5
			c-2.1,1.2-4.1,2.4-6.2,3.5c-0.3,0.2-0.5,0.3-0.8,0.5l-0.2,0.1l0,0c0,0,0,0-0.1,0c-0.7-0.3-1.4-0.6-2.2-0.9
			c-0.8-0.3-1.6-0.7-2.4-1.1c-1.7-0.8-3.3-1.8-5.1-2.6c-0.8-0.4-1.6-0.7-2.4-1l-1.2-0.5l-0.6-0.3l-0.6-0.2l-0.3-0.1
			c-0.1,0-0.2,0.1-0.3,0.1l-0.6,0.4c-1.6,1-3.3,1.9-4.9,2.9c-1.7,1-3.2,1.8-4.8,2.7c-1.5,0.9-3.5,2.1-5.3,3.3
			c-0.1,0-0.1,0.1-0.2,0.1c0,0-0.1,0.1-0.1,0c-1.7-0.6-3.3-1.2-4.7-1.8c-1.2-0.4-3.8-1.4-6.4-2.4c-1.4-0.5-2.9-1-4-1.4
			c-0.4-0.1-0.8-0.2-1-0.3l-0.4,1c0.2,0.1,0.5,0.2,1,0.4c1.1,0.4,3.3,1.3,5.3,2c3.4,1.3,6.8,2.6,7.3,2.8c1,0.4,2,0.8,3,1.2
			c0.1,0.1,0.2,0,0.3-0.1l0.3-0.2l0.4-0.3c0.2-0.1,0.5-0.3,0.7-0.4c0.5-0.3,0.9-0.6,1.4-0.8c1.9-1.1,3.6-2.1,5.4-3.1
			c1.8-1.1,3.5-2.2,5.4-3.2c0.4-0.2,0.8-0.4,1.2-0.7c0.2-0.1,0.4-0.2,0.6-0.3l0.3-0.2l0.1,0c0,0,0.1,0,0.1,0c0,0,0,0,0.2,0.1
			c0.3,0.1,0.5,0.3,0.8,0.4c0.5,0.3,1.1,0.5,1.6,0.8c2,1,4.1,1.8,6.2,2.8c1.9,0.9,3.7,1.7,5.6,2.6l0.4,0.2l0.4-0.2l0.6-0.4
			c2-1.1,3.8-2.4,5.8-3.6c2-1.1,4.1-2,6-3.2c0.9-0.5,2.3-1.5,4.9-3c0.8-0.5,1.6-1,2.4-1.5c0.2-0.2,0.5-0.4,0.7-0.6l-0.5-0.9
			C-353.2,400-353.3,400.1-353.4,400.1z"/>
		<g>
			<circle class="st4" cx="-346.5" cy="406.9" r="1.7"/>
			<path class="st4" d="M-344.4,406.6c-0.1-0.6-0.3-1-0.6-1.3c-0.3-0.3-0.5-0.4-0.8-0.5c-0.5-0.2-0.7-0.2-1-0.2c-0.3,0-0.6,0-1,0.3
				c-0.2,0.1-0.5,0.4-0.7,0.7c-0.2,0.4-0.4,0.9-0.4,1.6c0.2,1.4,1.3,2,2.2,2c0.9,0,1.8-0.5,2.2-1.5c0.1-0.4,0.1-0.6,0.1-0.8h-1.1
				c0,0.1,0,0.2-0.1,0.4c-0.2,0.5-0.8,0.8-1.3,0.6c-0.5-0.2-0.9-0.8-0.7-1.4c0.1-0.4,0.4-0.7,0.8-0.8c0.4-0.1,0.7,0,0.9,0.2
				c0.5,0.4,0.4,0.9,0.5,0.9h1.1C-344.3,406.9-344.3,406.6-344.4,406.6z"/>
		</g>
		<g>
			<circle class="st5" cx="-352.7" cy="400.2" r="1.7"/>
			<path class="st5" d="M-350.6,399.9c-0.1-0.6-0.3-1-0.6-1.3c-0.3-0.3-0.5-0.4-0.8-0.5c-0.5-0.2-0.7-0.2-1-0.2c-0.3,0-0.6,0-1,0.3
				c-0.2,0.1-0.5,0.4-0.7,0.7c-0.2,0.4-0.4,0.9-0.4,1.6c0.2,1.4,1.3,2,2.2,2c0.9,0,1.8-0.5,2.2-1.5c0.1-0.4,0.1-0.6,0.1-0.8h-1.1
				c0,0.1,0,0.2-0.1,0.4c-0.2,0.5-0.8,0.8-1.3,0.6c-0.5-0.2-0.9-0.8-0.7-1.4c0.1-0.4,0.4-0.7,0.8-0.8c0.4-0.1,0.7,0,0.9,0.2
				c0.5,0.4,0.4,0.9,0.5,0.9h1.1C-350.5,400.2-350.5,399.9-350.6,399.9z"/>
		</g>
		<path class="st2" d="M-343.8,432.6c-0.3-0.3-1.1-0.4-2.1-0.5c-5-0.1-10.9-0.1-13.2-0.1c-10.6-0.1-19.5,0-30.1-0.1
			c-10.2-0.1-20.9-0.1-31-0.2c0-5-0.1-11.8-0.1-16.8c0-2.8-0.1-12.3-0.1-16.1c0-1.4-1.1-2-1.1,0.2c0,3.8,0,17.9,0,19.3
			c0,3.2,0,6.2,0,9.1c0,1.5,0,2.9,0,4.3c0,0.6,0.5,1.1,1.1,1.3c0.1,0,0.3,0,0.4,0l0.3,0l0.5,0l2.1,0c5.6,0,11.2,0,17.5,0.1
			c12.6,0.2,25.4,0,38,0.1c0.5,0,9.1,0,15.7-0.1C-344.5,433-343.5,432.9-343.8,432.6z"/>
	</g>
	<path class="st2" d="M-409.5,443.1c0.3,0.3,1.1,0.4,2.1,0.5c2.9,0.1,6.2,0.1,7.6,0.1c6.1,0.1,11.2,0,17.2,0.1
		c6,0.1,12.3,0.1,18.2,0.1c2.9,0,6.9-0.1,9.8-0.1c1.7,0,7.4-0.1,9.7-0.1c1.4,0,2-1.1-0.2-1.1c-2.3,0-10.6,0-11.5,0
		c-7.3-0.1-12.8,0.1-20.1-0.1c-7.2-0.2-14.5,0-21.7-0.1c-0.3,0-5.2,0-9,0.1C-408.7,442.7-409.8,442.8-409.5,443.1z"/>
	<g>
		<circle class="st5" cx="-416.9" cy="443.2" r="2.1"/>
		<path class="st2" d="M-414.5,442.8c-0.1-0.7-0.4-1.1-0.7-1.4c-0.3-0.3-0.6-0.5-0.9-0.6c-0.5-0.2-0.8-0.2-1.1-0.2
			c-0.3,0-0.6,0-1.1,0.3c-0.3,0.2-0.6,0.4-0.8,0.8c-0.3,0.4-0.5,1-0.4,1.7c0.2,1.5,1.5,2.2,2.4,2.3c1,0,2-0.5,2.5-1.6
			c0.1-0.4,0.1-0.7,0.1-0.9h-0.8c0,0.1,0,0.3-0.1,0.6c-0.3,0.7-1.2,1.2-2,1c-0.8-0.2-1.4-1.2-1.1-2.1c0.2-0.5,0.6-1,1.1-1.1
			c0.5-0.1,1.1,0,1.4,0.3c0.7,0.6,0.7,1.3,0.7,1.4h0.8C-414.4,443.2-414.4,442.8-414.5,442.8z"/>
	</g>
	<path class="st2" d="M-409.5,453.4c0.3,0.3,1.1,0.4,2.1,0.5c2.9,0.1,6.2,0.1,7.6,0.1c6.1,0.1,11.2,0,17.2,0.1
		c6,0.1,12.3,0.1,18.2,0.1c2.9,0,6.9-0.1,9.8-0.1c1.7,0,7.4-0.1,9.7-0.1c1.4,0,2-1.1-0.2-1.1c-2.3,0-10.6,0-11.5,0
		c-7.3-0.1-12.8,0.1-20.1-0.1c-7.2-0.2-14.5,0-21.7-0.1c-0.3,0-5.2,0-9,0.1C-408.7,452.9-409.8,453.1-409.5,453.4z"/>
	<g>
		<circle class="st6" cx="-416.9" cy="453.4" r="2.1"/>
		<path class="st2" d="M-414.5,453.1c-0.1-0.7-0.4-1.1-0.7-1.4c-0.3-0.3-0.6-0.5-0.9-0.6c-0.5-0.2-0.8-0.2-1.1-0.2
			c-0.3,0-0.6,0-1.1,0.3c-0.3,0.2-0.6,0.4-0.8,0.8c-0.3,0.4-0.5,1-0.4,1.7c0.2,1.5,1.5,2.2,2.4,2.3c1,0,2-0.5,2.5-1.6
			c0.1-0.4,0.1-0.7,0.1-0.9h-0.8c0,0.1,0,0.3-0.1,0.6c-0.3,0.7-1.2,1.2-2,1c-0.8-0.2-1.4-1.2-1.1-2.1c0.2-0.5,0.6-1,1.1-1.1
			c0.5-0.1,1.1,0,1.4,0.3c0.7,0.6,0.7,1.3,0.7,1.4h0.8C-414.4,453.4-414.4,453.1-414.5,453.1z"/>
	</g>
	<g>
		<path class="st7" d="M-332.6,386.2h-132c-0.1,0-0.2-0.1-0.2-0.2v-7.4c0-1,0.9-1.9,1.9-1.9h128.7c1,0,1.9,0.9,1.9,1.9v7.4
			C-332.3,386.1-332.4,386.2-332.6,386.2z"/>
		<path class="st2" d="M-332.5,386c0,0,0.1,0,0.2,0c0.1-0.1,0.1-0.2,0.1-0.2c0.1-0.2,0.1-0.4,0.2-0.6c0.1-0.5,0.2-1.1,0.2-1.7
			c0-1.6,0-3.3,0-4.9c0-1.1-0.8-2.1-1.9-2.4c-0.2-0.1-0.6-0.1-0.8-0.1l-0.6,0l-1.3,0c-3.3,0-6.6,0-9.7,0c-6.2,0-11.5,0-14.5,0
			c-27.4-0.1-50.3-0.1-77.6-0.2c-6.8,0-13.6-0.1-20.5-0.1l-2.6,0l-1.3,0l-0.7,0c-0.3,0-0.6,0.1-0.9,0.2c-0.6,0.2-1.1,0.7-1.4,1.2
			c-0.2,0.3-0.3,0.6-0.3,0.9c0,0.2,0,0.3,0,0.5l0,0.3l0,2.6l0,2.6l0,1.5c0,0.2,0,0.4,0,0.6c0,0.2,0.1,0.3,0.2,0.5
			c0.2,0.3,0.5,0.5,0.9,0.5l5.6,0c13.8,0,27.5,0,40.9,0c13,0,31-0.1,44-0.2c6.9,0,30.7-0.1,40-0.2c1.9,0,2.6-1.4-0.2-1.4
			c-9.5,0-44.9,0-48.5,0c-16.4-0.1-30.9,0-45.3,0c-7.2,0-14.4,0-21.9,0c-3.7,0-7.5,0-11.4,0c-0.8,0-1.6,0-2.4,0
			c-0.1,0-0.1,0-0.1-0.1l0-0.3l0-1.5c0-1,0-2,0-3c0-0.5,0-1,0-1.5l0-0.4c0-0.1,0-0.1,0-0.2c0-0.1,0.1-0.3,0.2-0.4
			c0.2-0.2,0.4-0.4,0.7-0.4c0.1,0,0.1,0,0.2,0l0.4,0l0.8,0l3,0c2,0,4.1,0,6.1,0c4.1,0,8.2,0,12.2,0c8.2,0,16.4,0,24.6,0
			c16.4,0,32.8,0,49,0c0.7,0,6.5,0,14.3,0c3.9,0,8.3,0,12.8-0.1c1.1,0,2.3,0,3.4,0l1.7,0l0.4,0c0.1,0,0.2,0,0.2,0
			c0.1,0,0.3,0.1,0.4,0.2c0.2,0.2,0.4,0.5,0.4,0.8c0,0.6,0,1.1,0,1.7c0,1.1,0,2.2,0,3.3c0.1,0.9,0.1,1.7,0.3,2.2c0,0.1,0,0.1,0,0.2
			l0,0l0,0l0,0l0,0c-0.1,0,0.5,0,0.2,0l0,0l0,0l0,0c0,0,0,0,0,0c0,0,0,0,0,0l0,0C-332.6,386-332.6,386-332.5,386z"/>
	</g>
</g>
</svg>
