<svg width="46" height="31" viewBox="0 0 46 31" fill="none" xmlns="http://www.w3.org/2000/svg">
<path fill-rule="evenodd" clip-rule="evenodd" d="M3.83332 1.05803C3.52665 1.05803 3.21999 1.36464 3.21999 1.67131L0.15332 12.4047C0.15332 12.5581 0.15332 12.7113 0.15332 12.8646L3.21999 20.5313C3.21999 20.6846 3.37332 20.8381 3.52665 20.8381L8.12666 23.9047C8.27999 24.0581 8.43332 24.058 8.58665 24.058H11.5L14.4133 25.4381C14.4133 25.4381 14.4133 25.4381 14.5667 25.4381L16.8667 26.2047L18.0933 26.5113L19.4733 29.2714C19.4733 29.4247 19.6267 29.578 19.78 29.578L22.08 30.8047C22.3867 30.9581 22.8467 30.8046 23.1533 30.498C23.3067 30.3446 23.3067 30.0379 23.1533 29.8846L22.8467 28.9646L23 28.5047L24.5333 28.198C24.6867 28.198 24.6867 28.198 24.84 28.0447L26.8333 26.8179L27.14 26.9714C27.2933 26.9714 27.2933 27.1247 27.4467 27.1247H29.7467C30.2067 27.1247 30.5133 26.818 30.5133 26.358V26.0513H33.7333L35.42 29.1179C35.5733 29.4246 35.88 29.578 36.0333 29.578H38.64C39.1 29.578 39.4067 29.2713 39.4067 28.8113C39.4067 28.658 39.4067 28.5047 39.2533 28.5047L37.4133 24.8247V23.2914L41.4 18.078C41.7067 17.7713 41.5533 17.3114 41.4 17.0047L40.1733 15.778L41.4 13.0179L44.62 11.6381C45.08 11.4847 45.2333 11.0246 45.08 10.5646C45.08 10.4113 44.9267 10.4114 44.9267 10.258L44.16 9.49136L45.8467 6.57799C46 6.27133 46 5.9647 45.6933 5.65803L44.16 4.1247C43.8533 3.81803 43.3933 3.81803 43.0867 4.1247L41.7067 5.81133L39.2533 6.57799C39.1 6.57799 38.9467 6.73125 38.7933 6.88458L37.8733 8.41792H36.0333C35.88 8.41792 35.5733 8.5714 35.42 8.5714L32.66 11.3313L30.9733 11.178L32.8133 7.49795C32.9667 7.19129 32.9667 6.73133 32.66 6.57799L30.0533 4.27799C29.7467 3.97132 29.2867 3.97129 28.98 4.43129C28.98 4.43129 28.98 4.43134 28.8267 4.58468L27.9067 6.11801H26.8333L27.4467 4.89136C27.6 4.5847 27.4467 4.12468 27.14 3.81801L24.0733 2.59136C23.92 2.59136 23.92 2.59136 23.7667 2.59136L11.6533 3.35803L4.13999 0.751343C3.98665 1.05801 3.83332 1.05803 3.83332 1.05803ZM4.29332 2.74466L11.1933 5.19795C11.3467 5.19795 11.3467 5.19795 11.5 5.19795L23.6133 4.43129L25.76 5.19795L24.9933 6.73129C24.84 7.03795 24.9933 7.49807 25.3 7.80473C25.4533 7.80473 25.4533 7.95803 25.6067 7.95803H28.2133C28.52 7.95803 28.6733 7.80458 28.8267 7.65125L29.44 6.57799L30.9733 7.95803L28.98 12.098C28.8267 12.4046 28.98 12.8647 29.2867 13.1714C29.44 13.1714 29.44 13.1714 29.5933 13.1714L32.66 13.478C32.9667 13.478 33.12 13.478 33.2733 13.3247L36.1867 10.4113H38.3333C38.64 10.4113 38.7933 10.2581 38.9467 10.1047L39.8667 8.41792L42.32 7.80473C42.4733 7.80473 42.6267 7.65129 42.78 7.49795L43.8533 6.27131L44.3133 6.73129L42.6267 9.64466C42.4733 9.95133 42.4733 10.258 42.78 10.5646L43.0867 10.8714L40.6333 11.9447C40.48 11.9447 40.3267 12.0981 40.1733 12.4047L38.64 15.9313C38.4867 16.238 38.64 16.5446 38.7933 16.8513L39.8667 17.9247L36.0333 22.8313C35.88 22.9846 35.88 23.138 35.88 23.2914V25.1313C35.88 25.2846 35.88 25.4381 36.0333 25.4381L37.4133 28.198H36.4933L34.8067 25.1313C34.6533 24.8246 34.3467 24.6714 34.1933 24.6714H29.5933C29.1333 24.6714 28.8267 24.9781 28.8267 25.4381V25.7447H27.4467L26.8333 25.4381C26.5267 25.2847 26.22 25.2847 26.0667 25.4381L23.92 26.8179L22.08 27.1247C21.7733 27.1247 21.62 27.4313 21.4667 27.5846L21.16 28.658L20.5467 28.3513L19.1667 25.4381C19.0133 25.2847 18.86 25.1313 18.7067 24.978L17.1733 24.6714L15.0267 23.9047L11.96 22.3714C11.8067 22.3714 11.8067 22.2179 11.6533 22.2179H8.73999L4.59999 19.458L1.68665 12.2513L4.29332 2.74466Z" fill="white"/>
<path fill-rule="evenodd" clip-rule="evenodd" d="M15.3333 4.12469V16.3914H16.8666V4.12469H15.3333Z" fill="white"/>
<path fill-rule="evenodd" clip-rule="evenodd" d="M2.29999 15.6247V17.158H39.8667V15.6247H2.29999Z" fill="white"/>
<path fill-rule="evenodd" clip-rule="evenodd" d="M6.59333 5.9646C6.59333 6.4246 6.28666 6.73127 5.82666 6.73127C5.36666 6.73127 5.06 6.4246 5.06 5.9646C5.06 5.5046 5.36666 5.19794 5.82666 5.19794C6.13333 5.19794 6.59333 5.5046 6.59333 5.9646Z" fill="white"/>
<path fill-rule="evenodd" clip-rule="evenodd" d="M9.65998 5.9646C9.65998 6.4246 9.35331 6.73127 8.89331 6.73127C8.43331 6.73127 8.12665 6.4246 8.12665 5.9646C8.12665 5.5046 8.43331 5.19794 8.89331 5.19794C9.19998 5.19794 9.65998 5.5046 9.65998 5.9646Z" fill="white"/>
<path fill-rule="evenodd" clip-rule="evenodd" d="M8.12666 7.95801C8.12666 8.41801 7.81999 8.72468 7.35999 8.72468C6.89999 8.72468 6.59332 8.41801 6.59332 7.95801C6.59332 7.49801 6.89999 7.19135 7.35999 7.19135C7.81999 7.19135 8.12666 7.49801 8.12666 7.95801Z" fill="white"/>
<path fill-rule="evenodd" clip-rule="evenodd" d="M5.05998 7.95801C5.05998 8.41801 4.75331 8.72468 4.29331 8.72468C3.83331 8.72468 3.52664 8.41801 3.52664 7.95801C3.52664 7.49801 3.83331 7.19135 4.29331 7.19135C4.75331 7.19135 5.05998 7.49801 5.05998 7.95801Z" fill="white"/>
<path fill-rule="evenodd" clip-rule="evenodd" d="M11.1933 7.95801C11.1933 8.41801 10.8866 8.72468 10.4266 8.72468C9.96664 8.72468 9.65997 8.41801 9.65997 7.95801C9.65997 7.49801 9.96664 7.19135 10.4266 7.19135C10.8866 7.19135 11.1933 7.49801 11.1933 7.95801Z" fill="white"/>
<path fill-rule="evenodd" clip-rule="evenodd" d="M14.26 7.95801C14.26 8.41801 13.9533 8.72468 13.4933 8.72468C13.0333 8.72468 12.7267 8.41801 12.7267 7.95801C12.7267 7.49801 13.0333 7.19135 13.4933 7.19135C13.9533 7.19135 14.26 7.49801 14.26 7.95801Z" fill="white"/>
<path fill-rule="evenodd" clip-rule="evenodd" d="M9.65998 9.79798C9.65998 10.258 9.35331 10.5646 8.89331 10.5646C8.43331 10.5646 8.12665 10.258 8.12665 9.79798C8.12665 9.33798 8.43331 9.03131 8.89331 9.03131C9.35331 9.03131 9.65998 9.33798 9.65998 9.79798Z" fill="white"/>
<path fill-rule="evenodd" clip-rule="evenodd" d="M6.59333 9.79798C6.59333 10.258 6.28666 10.5646 5.82666 10.5646C5.36666 10.5646 5.06 10.258 5.06 9.79798C5.06 9.33798 5.36666 9.03131 5.82666 9.03131C6.28666 9.03131 6.59333 9.33798 6.59333 9.79798Z" fill="white"/>
<path fill-rule="evenodd" clip-rule="evenodd" d="M12.7267 9.79798C12.7267 10.258 12.42 10.5646 11.96 10.5646C11.5 10.5646 11.1933 10.258 11.1933 9.79798C11.1933 9.33798 11.5 9.03131 11.96 9.03131C12.42 9.03131 12.7267 9.33798 12.7267 9.79798Z" fill="white"/>
<path fill-rule="evenodd" clip-rule="evenodd" d="M11.1933 11.7914C11.1933 12.2514 10.8866 12.5581 10.4266 12.5581C9.96664 12.5581 9.65997 12.2514 9.65997 11.7914C9.65997 11.3314 9.96664 11.0247 10.4266 11.0247C10.8866 11.0247 11.1933 11.3314 11.1933 11.7914Z" fill="white"/>
<path fill-rule="evenodd" clip-rule="evenodd" d="M8.12666 11.7914C8.12666 12.2514 7.81999 12.5581 7.35999 12.5581C6.89999 12.5581 6.59332 12.2514 6.59332 11.7914C6.59332 11.3314 6.89999 11.0247 7.35999 11.0247C7.81999 11.0247 8.12666 11.3314 8.12666 11.7914Z" fill="white"/>
<path fill-rule="evenodd" clip-rule="evenodd" d="M5.05998 11.7914C5.05998 12.2514 4.75331 12.5581 4.29331 12.5581C3.83331 12.5581 3.52664 12.2514 3.52664 11.7914C3.52664 11.3314 3.83331 11.0247 4.29331 11.0247C4.75331 11.0247 5.05998 11.3314 5.05998 11.7914Z" fill="white"/>
<path fill-rule="evenodd" clip-rule="evenodd" d="M14.26 11.7914C14.26 12.2514 13.9533 12.5581 13.4933 12.5581C13.0333 12.5581 12.7267 12.2514 12.7267 11.7914C12.7267 11.3314 13.0333 11.0247 13.4933 11.0247C13.9533 11.0247 14.26 11.3314 14.26 11.7914Z" fill="white"/>
<path fill-rule="evenodd" clip-rule="evenodd" d="M9.65998 13.6313C9.65998 14.0913 9.35331 14.398 8.89331 14.398C8.43331 14.398 8.12665 14.0913 8.12665 13.6313C8.12665 13.1713 8.43331 12.8646 8.89331 12.8646C9.35331 12.8646 9.65998 13.1713 9.65998 13.6313Z" fill="white"/>
<path fill-rule="evenodd" clip-rule="evenodd" d="M6.59333 13.6313C6.59333 14.0913 6.28666 14.398 5.82666 14.398C5.36666 14.398 5.06 14.0913 5.06 13.6313C5.06 13.1713 5.36666 12.8646 5.82666 12.8646C6.28666 12.8646 6.59333 13.1713 6.59333 13.6313Z" fill="white"/>
<path fill-rule="evenodd" clip-rule="evenodd" d="M12.7267 13.6313C12.7267 14.0913 12.42 14.398 11.96 14.398C11.5 14.398 11.1933 14.0913 11.1933 13.6313C11.1933 13.1713 11.5 12.8646 11.96 12.8646C12.42 12.8646 12.7267 13.1713 12.7267 13.6313Z" fill="white"/>
</svg>
