<svg width="43" height="45" viewBox="0 0 43 45" fill="none" xmlns="http://www.w3.org/2000/svg">
<path d="M41.6448 34.6903L38.1241 31.6889C37.9682 31.5508 37.7481 31.514 37.5556 31.5784L33.4939 33.0055L30.1565 30.1605C30.184 30.0869 30.2023 30.0132 30.2023 29.9396V19.7752C30.2023 19.7752 30.2023 19.7752 30.2023 19.766C30.2023 19.7475 30.2023 19.7291 30.2023 19.7015V19.6923C30.2023 19.6739 30.1932 19.6463 30.1932 19.6279V19.6187C30.184 19.6002 30.184 19.5818 30.1748 19.5634L30.1657 19.545C30.1565 19.5266 30.1473 19.5082 30.1382 19.4898L30.129 19.4805C30.1015 19.4345 30.074 19.3977 30.0373 19.3701L30.0281 19.3609C30.019 19.3517 30.0006 19.3332 29.9823 19.324L29.9731 19.3148C29.9364 19.2872 29.8998 19.2596 29.8631 19.2412L22.0055 15.4663V11.1575L25.728 9.02151C25.9114 8.92023 26.0214 8.71768 26.0214 8.51513V3.89327C26.0214 3.68151 25.9114 3.48816 25.728 3.38689L21.7121 1.07596C21.5288 0.974681 21.3087 0.974681 21.1345 1.07596L17.1186 3.38689C16.9353 3.48816 16.8253 3.68151 16.8253 3.89327V8.50592C16.8253 8.71768 16.9353 8.91103 17.1186 9.0123L20.8411 11.1483V15.4663L12.9836 19.2412C12.9469 19.2596 12.9011 19.2872 12.8736 19.3148L12.8644 19.324C12.846 19.3332 12.8369 19.3517 12.8185 19.3609L12.8094 19.3701C12.7819 19.4069 12.7544 19.4437 12.7269 19.4805C12.7269 19.4805 12.7269 19.4898 12.7177 19.4898C12.7085 19.5082 12.6994 19.5266 12.6994 19.545L12.6902 19.5634C12.681 19.5818 12.681 19.6002 12.6718 19.6187V19.6279C12.6627 19.6463 12.6627 19.6739 12.6627 19.6923V19.7015C12.6627 19.7199 12.6627 19.7383 12.6627 19.766V29.9396C12.6627 30.0132 12.681 30.0869 12.7085 30.1605L9.37112 33.0055L5.30024 31.5784C5.10769 31.514 4.88765 31.5508 4.73178 31.6889L1.20184 34.6903C1.04597 34.8284 0.972625 35.0402 1.0093 35.2428L1.86199 39.7726C1.89866 39.9751 2.04536 40.15 2.24707 40.2145L6.62052 41.7428C6.81307 41.8073 7.03311 41.7704 7.18898 41.6323L10.7097 38.6309C10.8656 38.4928 10.9481 38.281 10.9023 38.0785L10.1138 33.8801L13.6621 30.8603L13.6896 30.8327L21.1529 34.8469C21.3271 34.9389 21.5288 34.9389 21.703 34.8469L29.1663 30.8327L29.1938 30.8603L32.7329 33.8801L31.9444 38.0785C31.9077 38.281 31.9811 38.4928 32.1369 38.6309L35.6577 41.6416C35.7677 41.7336 35.8961 41.7797 36.0336 41.7797C36.0978 41.7797 36.162 41.7704 36.2262 41.7428L40.6088 40.2237C40.8105 40.15 40.948 39.9843 40.9939 39.7818L41.8465 35.252C41.874 35.0402 41.8007 34.8284 41.6448 34.6903ZM21.4279 16.4975L28.2953 19.7936L21.4279 23.2462L14.5606 19.7844L21.4279 16.4975ZM13.8179 20.7327L20.8411 24.2681V33.3738L13.8179 29.5989V20.7327ZM22.0055 24.2589L29.0287 20.7235V29.5897L22.0055 33.3645V24.2589ZM17.9897 4.23392L21.4188 2.26365L24.8478 4.23392V8.16527L21.4188 10.1355L17.9897 8.16527V4.23392ZM6.6847 40.5367L2.94389 39.2293L2.21956 35.3624L5.22689 32.7937L8.9677 34.1011L9.69203 37.968L6.6847 40.5367ZM39.9028 39.2293L36.162 40.5367L33.1546 37.968L33.879 34.1011L37.6198 32.7937L40.6271 35.3624L39.9028 39.2293Z" fill="white" stroke="white" stroke-width="0.5"/>
<path d="M29.5423 40.8593C27.03 42.1667 24.2519 42.8388 21.428 42.8296C18.5949 42.8296 15.7984 42.1483 13.277 40.8409C12.9928 40.6844 12.6352 40.7857 12.4794 41.0711C12.3235 41.3565 12.4244 41.7156 12.7086 41.8721C12.7177 41.8813 12.7269 41.8813 12.7361 41.8813C18.1731 44.6986 24.637 44.7078 30.0832 41.8997C30.3674 41.7524 30.4866 41.3933 30.3308 41.1079C30.1749 40.8225 29.8265 40.712 29.5423 40.8593Z" fill="white" stroke="white" stroke-width="0.5"/>
<path d="M30.2207 10.1819C35.6486 13.303 39.0135 19.1033 39.0135 25.3364C39.0135 26.3215 38.931 27.2975 38.7659 28.2642C38.7109 28.5864 38.9218 28.8903 39.2427 28.9455C39.2794 28.9547 39.3069 28.9547 39.3435 28.9547C39.6278 28.9547 39.8753 28.7522 39.9212 28.4668C40.0954 27.4356 40.1871 26.386 40.1871 25.3364C40.1871 18.689 36.5929 12.4928 30.7983 9.16909C30.5141 9.02178 30.1565 9.13227 30.0098 9.41768C29.8631 9.68468 29.9548 10.0161 30.2207 10.1819Z" fill="white" stroke="white" stroke-width="0.5"/>
<path d="M3.43906 28.5311C3.46657 28.5311 3.49407 28.5311 3.52158 28.5219C3.84248 28.4759 4.06253 28.1812 4.01669 27.859C3.89749 27.0212 3.83331 26.1833 3.83331 25.3363C3.83331 19.1861 6.98734 13.6067 12.2685 10.3935C12.5436 10.2278 12.6352 9.86872 12.461 9.58331C12.296 9.3071 11.9384 9.21503 11.6542 9.38996C6.03379 12.8149 2.66889 18.7718 2.66889 25.3363C2.66889 26.2386 2.73307 27.1317 2.86143 28.0247C2.89811 28.3193 3.14566 28.5311 3.43906 28.5311Z" fill="white" stroke="white" stroke-width="0.5"/>
</svg>
