<?xml version="1.0" encoding="UTF-8"?>
<svg width="17px" height="21px" viewBox="0 0 17 21" version="1.1" xmlns="http://www.w3.org/2000/svg" xmlns:xlink="http://www.w3.org/1999/xlink">
    <!-- Generator: Sketch 41.2 (35397) - http://www.bohemiancoding.com/sketch -->
    <title>Group 2</title>
    <desc>Created with Sketch.</desc>
    <defs></defs>
    <g id="Page-1" stroke="none" stroke-width="1" fill="none" fill-rule="evenodd" stroke-linecap="round" stroke-linejoin="round">
        <g id="share-modal" transform="translate(-1193.000000, -12.000000)" stroke="#FFFFFF" fill="#EF6145">
            <g id="download-data-icon" transform="translate(1194.000000, 13.000000)">
                <g id="Group-2">
                    <path d="M0.0474770825,7.27891432 L0.0474770825,2.35963721 M15.352556,2.35930319 L15.352556,7.27891432 L15.352556,16.5100481 C15.2842758,17.7674927 11.3723475,18.8062924 7.83153697,18.8153175 C4.29072639,18.8243426 0.0474770825,18.633209 0.0474770825,16.5100481 L0.0474770825,2.35930319" id="Stroke-9"></path>
                    <path d="M4.26681823,0.294980557 C2.26501679,0.599579062 0.768180101,1.1622329 0.250729026,1.83816317 C0.122370676,2.00617588 0.0478866767,2.17986695 0.0478866767,2.35957041 C0.0478866767,3.63519771 3.47451224,4.66966164 7.70129844,4.66966164 C11.927723,4.66966164 15.3543486,3.63519771 15.3543486,2.35957041 C15.3543486,2.17986695 15.2795031,2.00617588 15.1507832,1.83816317 C14.6200972,1.14462485 13.0580034,0.570341556 10.9774217,0.271704008 C10.9774217,0.271704008 9.42023395,0.0138637955 7.70111765,0.0198267607 C5.98200135,0.0257897259 4.26681823,0.294980557 4.26681823,0.294980557 Z" id="Stroke-19"></path>
                </g>
            </g>
        </g>
    </g>
</svg>