<?xml version="1.0" encoding="utf-8"?>
<!-- Generator: Adobe Illustrator 23.0.1, SVG Export Plug-In . SVG Version: 6.00 Build 0)  -->
<svg version="1.1" id="Capa_1" xmlns="http://www.w3.org/2000/svg" xmlns:xlink="http://www.w3.org/1999/xlink" x="0px" y="0px"
	 viewBox="0 0 64 75" style="enable-background:new 0 0 64 75;" xml:space="preserve">
<style type="text/css">
	.st0{fill:#FFFFFF;}
</style>
<g>
	<g>
		<path class="st0" d="M6.9,67.4c-0.8,0-1.4,0.6-1.4,1.4c0,0.8,0.6,1.4,1.4,1.4h50.6c0.8,0,1.4-0.6,1.4-1.4c0-0.8-0.6-1.4-1.4-1.4
			h-2.1V53.1h2.1c0.8,0,1.4-0.6,1.4-1.4s-0.6-1.4-1.4-1.4h-3.6V35.7h0.6c0.8,0,1.4-0.6,1.4-1.4v-2.3c0-12.6-9.9-22.9-22.2-23.6V3.9
			c0-0.8-0.6-1.4-1.4-1.4c-0.8,0-1.4,0.6-1.4,1.4v4.4C18.3,9.1,8.5,19.4,8.5,31.9v2.3c0,0.8,0.6,1.4,1.4,1.4h0.6v14.6H6.9
			c-0.8,0-1.4,0.6-1.4,1.4s0.6,1.4,1.4,1.4H9v14.3H6.9z M23.5,53.1v14.3h-4.4V53.1H23.5z M45.2,53.1v14.3h-4.4V53.1H45.2z M38,67.4
			h-4.4V53.1H38V67.4z M30.7,67.4h-4.4V53.1h4.4V67.4z M52.5,67.4h-4.4V53.1h4.4V67.4z M11.3,31.9c0-11.5,9.3-20.8,20.8-20.8
			S53,20.5,53,31.9v0.9H11.3V31.9z M13.4,35.7h37.6v14.6H13.4V35.7z M11.8,53.1h4.4v14.3h-4.4V53.1z"/>
		<path class="st0" d="M20.4,38.8c-0.8,0-1.4,0.6-1.4,1.4v5.4c0,0.8,0.6,1.4,1.4,1.4s1.4-0.6,1.4-1.4v-5.4
			C21.8,39.4,21.2,38.8,20.4,38.8z"/>
		<path class="st0" d="M28.2,38.8c-0.8,0-1.4,0.6-1.4,1.4v5.4c0,0.8,0.6,1.4,1.4,1.4s1.4-0.6,1.4-1.4v-5.4
			C29.7,39.4,29,38.8,28.2,38.8z"/>
		<path class="st0" d="M36.1,38.8c-0.8,0-1.4,0.6-1.4,1.4v5.4c0,0.8,0.6,1.4,1.4,1.4s1.4-0.6,1.4-1.4v-5.4
			C37.5,39.4,36.8,38.8,36.1,38.8z"/>
		<path class="st0" d="M43.9,38.8c-0.8,0-1.4,0.6-1.4,1.4v5.4c0,0.8,0.6,1.4,1.4,1.4s1.4-0.6,1.4-1.4v-5.4
			C45.3,39.4,44.7,38.8,43.9,38.8z"/>
	</g>
</g>
</svg>
