<?xml version="1.0" encoding="utf-8"?>
<!-- Generator: Adobe Illustrator 19.0.0, SVG Export Plug-In . SVG Version: 6.00 Build 0)  -->
<svg version="1.1" id="Layer_2" xmlns="http://www.w3.org/2000/svg" xmlns:xlink="http://www.w3.org/1999/xlink" x="0px" y="0px"
	 viewBox="-1479 1525 1040 951" style="enable-background:new -1479 1525 1040 951;" xml:space="preserve">
<style type="text/css">
	.st0{fill:#FFFFFF;}
</style>
<g>
	<path class="st0" d="M-572.3,2027.5c-6.6-5-13.2-9.2-18-12.1c-0.9-6.4-2.5-15.7-4.9-25.2c-2.7-10.2-10.7-41.2-34.1-44.8
		c-12.6-1.9-25.1,4.8-37,20.1c-10,12.8-20.4,32-31.8,58.8l-40.6,25.4c0.4-0.7,0.7-1.3,1.1-2c14.6-28.4,9.3-55,5-76.3
		c-1.7-8.7-3.4-16.9-3.4-23.8c0-9,3.5-12.3,14.7-21.2c19.8-15.8,49.6-39.6,49.6-123.4c0-62.1-32.1-118.7-90.3-159.4
		c-52.4-36.6-123.3-57.8-194.5-58.1c-0.2,0-0.4,0-0.6,0l-0.6,0l-0.6,0c-0.2,0-0.4,0-0.6,0c-71.2,0.4-142.1,21.5-194.5,58.1
		c-58.2,40.6-90.3,97.2-90.3,159.4c0,83.8,29.9,107.7,49.6,123.4c11.2,8.9,14.7,12.2,14.7,21.2c0,6.9-1.6,15.1-3.4,23.8
		c-4.3,21.3-9.6,47.9,5,76.3c0.8,1.5,1.6,2.9,2.4,4.4l-44.4-27.8c-11.4-26.8-21.8-46-31.8-58.8c-11.9-15.3-24.4-22-37-20.1
		c-23.4,3.6-31.5,34.6-34.1,44.8c-2.5,9.5-4,18.8-4.9,25.2c-4.8,2.9-11.5,7.1-18,12.1c-20.1,15.4-28.9,30-26.6,44.6
		c3.9,25.7,39.3,32.2,51,34.3c37.8,6.9,58.5,6.4,69.5,4.5l118.1,75.3l-119,70.1c-29.1-1.7-51.1-0.9-67,2.5
		c-19,3.9-30.5,12.1-34.4,24.3c-7.2,22.6,17.1,43.5,25,50.4c7.4,6.4,15.1,11.9,20.4,15.6c0.4,5.6,1.3,13.4,2.9,21.5
		c4.9,24.9,14.1,39.1,28.2,43.6c2.9,0.9,5.8,1.3,8.6,1.3c21,0,38.5-23.5,44.7-31.9c22.9-30.8,31.6-49.6,34.8-60.4l90.4-54.7
		c35.9,28.1,95.5,45,140.5,45.3c0.1,0,0.2,0,0.3,0h1.2c0,0,0,0,0,0c0.2,0,0.3,0,0.5,0c27.6-0.2,60-6.7,89.1-17.7
		c22.4-8.5,38.6-17.9,50.2-26.8l89,53.9c3.2,10.8,11.9,29.6,34.8,60.4c6.2,8.4,23.7,31.9,44.7,31.9c2.8,0,5.7-0.4,8.6-1.3
		c14.1-4.5,23.3-18.8,28.2-43.6c1.6-8.1,2.4-15.9,2.9-21.5c5.3-3.6,13-9.1,20.4-15.6c8-6.9,32.2-27.8,25-50.4
		c-3.9-12.2-15.4-20.3-34.4-24.3c-15.9-3.3-37.9-4.1-67-2.5l-119-70.1l118.1-75.3c11,1.9,31.8,2.4,69.5-4.5
		c11.6-2.1,47.1-8.6,51-34.3C-543.4,2057.5-552.2,2042.9-572.3,2027.5z M-1212.8,1803c0-26.6,7-51.9,20.8-75.2
		c13.1-22.1,32.1-41.9,56.3-58.8c47.5-33.2,112.2-52.3,177.5-52.6c0.1,0,0.3,0,0.4,0l0.2,0l0.1,0c0.1,0,0.3,0,0.4,0
		c65.3,0.2,129.9,19.4,177.5,52.6c24.2,16.9,43.1,36.7,56.3,58.8c13.8,23.2,20.8,48.5,20.8,75.2c0,68.9-20.2,85-38,99.2
		c-12.4,9.9-26.4,21.1-26.4,45.4c0,10,2,20.1,4,29.9c3.8,19.2,7.5,37.3-2.2,56.1c-4.8,9.3-12.7,18.4-23.8,27.4
		c-1.7,0.9-3.2,2-4.5,3.5c-16.4,12.3-38.8,24.3-67,35.7c-7.4,3-11.3,11.2-9,18.9c0,0.1,1.9,7.7-3.9,15.6c-1.8,2.5-4.7,5.4-9.4,8.4
		c-4.3,0.3-8.1,2.3-10.7,5.3c-12.8,5-32.7,9.1-63.6,9.2c-0.1,0-0.2,0-0.4,0l-0.2,0l-0.1,0c-0.1,0-0.2,0-0.4,0
		c-57.6-0.2-77-14.1-83.4-22.4c-5.8-7.5-4.6-14.8-4.3-16.3c2.7-7.8-1.4-15.7-9-18.8c-28.2-11.5-50.6-23.4-67-35.7
		c-1.3-1.4-2.8-2.6-4.5-3.5c-11.1-9-19.1-18.1-23.8-27.4c-9.7-18.8-6-36.9-2.2-56.1c2-9.8,4-19.9,4-29.9c0-24.4-14-35.6-26.4-45.4
		C-1192.6,1888-1212.8,1871.9-1212.8,1803z M-1255.2,2079.9c-1.5,0.4-16.5,4.1-60.6-4c-17.8-3.3-23.9-7.2-25.6-8.7
		c1-2.4,5.1-8.1,16.3-16.3c9.5-7,18.9-12,19-12c4.7-2.4,7.8-7.1,8.3-12.3c0-0.1,1.1-11.9,4.2-24.9c3.6-15.3,7.6-22.4,9.7-24.9
		c3.8,2.4,16.3,13.6,37.3,64.2c1.2,3,3.4,5.5,6.1,7.2l102.9,64.3c3.7,13.1,7,27.2,9.2,40.4l-112.4-71.7
		C-1245.1,2078.4-1250.5,2077.9-1255.2,2079.9z M-1211.4,2300.2c-4.4,2.7-7.1,7.3-7.4,12.3c-0.3,1.5-3.7,16.6-30.4,52.6
		c-10.8,14.6-17,18.2-19.2,19.1c-1.7-2-5-8.2-7.5-21.8c-2.1-11.6-2.4-22.3-2.4-22.4c-0.1-5.3-2.9-10.1-7.4-12.8
		c-0.1-0.1-10.2-6.3-20.4-14.7c-12.2-10-16.7-16.8-18-19.7c3.8-2.3,19.4-8.6,74.1-5.1c3.1,0.2,6.2-0.5,8.9-2.1l110.6-65.1
		c1,8.6,4.2,17,9.5,25.2L-1211.4,2300.2z M-878.6,2267.2c-26,9.9-54.9,15.6-79.2,15.7c-24.3-0.1-53.1-5.8-79.2-15.7
		c-26.5-10.1-47.3-23.5-57-37c-7.6-10.6-6.4-18.1-4.8-22.9c8.5-25.7,1.1-65.9-7.1-96.4c8.8,4.6,18.3,9.2,28.6,13.6
		c0.3,8,2.6,18.3,10.2,28.6c3.9,5.3,8.8,10,14.6,14.1v45.7c0,8.6,6.9,15.5,15.5,15.5s15.5-6.9,15.5-15.5v-31.7
		c13.8,3.9,30.1,6.3,48.8,7.1v45c0,8.6,6.9,15.5,15.5,15.5s15.5-6.9,15.5-15.5v-45c16.7-0.8,31.5-2.9,44.3-6.1v30.9
		c0,8.6,6.9,15.5,15.5,15.5s15.5-6.9,15.5-15.5v-43.6c7.3-4.6,13.3-10,17.9-16.2c7.6-10.3,9.9-20.6,10.2-28.6
		c10.3-4.4,19.8-9,28.6-13.6c-5.5,20.5-10.6,45.3-10.9,67.1c-0.5,2.3-0.5,4.7,0.1,7c0.1,1.9,0.2,3.8,0.4,5.7
		c-0.2,2.4,0.1,4.7,0.9,6.9c0.6,3.4,1.4,6.7,2.4,9.7c1.6,4.8,2.8,12.3-4.8,22.9c-1.8,2.4-3.9,4.9-6.3,7.3c-1.2,0.8-2.2,1.8-3.2,2.9
		C-842.3,2250.3-858.8,2259.7-878.6,2267.2z M-668,2287.6c54.7-3.5,70.2,2.8,74.1,5.1c-1.3,3-5.8,9.6-17.8,19.5
		c-10.3,8.5-20.6,14.9-20.7,14.9c-4.5,2.8-7.3,7.6-7.4,12.8c0,0.1-0.3,10.4-2.3,22c-2.4,13.9-5.8,20.2-7.5,22.2
		c-2.1-0.9-8.4-4.5-19.2-19.1c-26.7-36-30.1-51-30.4-52.6c-0.3-5.1-3.1-9.7-7.4-12.3l-88.6-53.7c5.4-8,8.8-16.4,10-24.9l108.3,63.8
		C-674.2,2287-671.1,2287.8-668,2287.6z M-602.2,2075.9c-44.1,8-59.1,4.4-60.6,4c-4.7-2-10-1.5-14.4,1.2l-109.6,70
		c2.3-13.4,5.7-27.5,9.4-40.5l99.9-62.5c2.7-1.7,4.9-4.2,6.1-7.2c21-50.6,33.6-61.8,37.3-64.2c2.1,2.4,6.1,9.4,9.7,24.6
		c3.1,13,4.2,25.1,4.2,25.2c0.5,5.2,3.6,9.9,8.3,12.3c0.1,0,9.2,4.9,18.8,11.8c11.4,8.3,15.5,14.1,16.6,16.6
		C-578.3,2068.7-584.4,2072.7-602.2,2075.9z"/>
	<path class="st0" d="M-1075.9,2025.4h17.2c37.8,0,68.5-30.7,68.5-68.5v-20.5c0-20.4-16.6-37-37-37h-57.1
		c-24.2,0-43.9,19.7-43.9,43.9v29.9C-1128.1,2002-1104.6,2025.4-1075.9,2025.4z M-1097.1,1943.3c0-7.1,5.8-12.9,12.9-12.9h57.1
		c3.2,0,6,2.7,6,6v20.5c0,20.7-16.8,37.5-37.5,37.5h-17.2c-11.7,0-21.2-9.5-21.2-21.2V1943.3z"/>
	<path class="st0" d="M-853.9,2025.4h17.2c28.8,0,52.2-23.4,52.2-52.2v-29.9c0-24.2-19.7-43.9-43.9-43.9h-57.1
		c-20.4,0-37,16.6-37,37v20.5C-922.5,1994.6-891.7,2025.4-853.9,2025.4z M-891.5,1936.4c0-3.2,2.7-6,6-6h57.1
		c7.1,0,12.9,5.8,12.9,12.9v29.9c0,11.7-9.5,21.2-21.2,21.2h-17.2c-20.7,0-37.5-16.8-37.5-37.5V1936.4z"/>
	<path class="st0" d="M-957.8,2090.3c19,21.2,39.4,18.4,38.3,10.8c-1-7.7-15.6-75-38.3-75.1v0c0,0,0,0,0,0l0,0v0
		c-22.8,0-37.3,67.4-38.3,75.1C-997.1,2108.7-976.8,2111.5-957.8,2090.3z"/>
</g>
</svg>
