<?xml version="1.0" encoding="utf-8"?>
<!-- Generator: Adobe Illustrator 19.0.0, SVG Export Plug-In . SVG Version: 6.00 Build 0)  -->
<svg version="1.1" id="Layer_2" xmlns="http://www.w3.org/2000/svg" xmlns:xlink="http://www.w3.org/1999/xlink" x="0px" y="0px"
	 viewBox="-1479 1525 1040 951" style="enable-background:new -1479 1525 1040 951;" xml:space="preserve">
<style type="text/css">
	.st0{fill:#FFFFFF;}
</style>
<g>
	<path class="st0" d="M-1025.7,1993.5v70.1c0,8.6,6.9,15.5,15.5,15.5h91.9c8.6,0,15.5-6.9,15.5-15.5v-70.1h70.1
		c8.6,0,15.5-6.9,15.5-15.5v-91.9c0-8.6-6.9-15.5-15.5-15.5h-70.1v-70.1c0-8.6-6.9-15.5-15.5-15.5h-91.9c-8.6,0-15.5,6.9-15.5,15.5
		v70.1h-70.1c-8.6,0-15.5,6.9-15.5,15.5v91.9c0,8.6,6.9,15.5,15.5,15.5H-1025.7z M-1080.3,1901.6h70.1c8.6,0,15.5-6.9,15.5-15.5
		V1816h60.9v70.1c0,8.6,6.9,15.5,15.5,15.5h70.1v60.9h-70.1c-8.6,0-15.5,6.9-15.5,15.5v70.1h-60.9V1978c0-8.6-6.9-15.5-15.5-15.5
		h-70.1V1901.6z"/>
	<path class="st0" d="M-551.2,1916.5h-173.4v-197.1c0-8.6-6.9-15.5-15.5-15.5h-70.9v-74.7c0-8.6-6.9-15.5-15.5-15.5h-265.2
		c-8.6,0-15.5,6.9-15.5,15.5v74.7h-70.9c-8.6,0-15.5,6.9-15.5,15.5v198.5h-173.4c-8.6,0-15.5,6.9-15.5,15.5v438.3
		c0,8.6,6.9,15.5,15.5,15.5h188.9c2.3,0,4.4-0.5,6.3-1.4h95.7h223.4H-740h188.9c8.6,0,15.5-6.9,15.5-15.5V1932
		C-535.7,1923.5-542.6,1916.5-551.2,1916.5z M-1076.1,1644.8h234.2v59.2h-234.2V1644.8z M-1351.3,1948.9h157.9v407.3h-157.9V1948.9z
		 M-1162.5,1933.4v-198.5h70.9h265.2h70.9V1932v422.8H-837v-163.9c0-8.6-6.9-15.5-15.5-15.5h-223.4c-8.6,0-15.5,6.9-15.5,15.5v163.9
		h-71V1933.4z M-1060.4,2354.8v-148.4H-868v148.4H-1060.4z M-566.7,2354.8h-157.9v-407.3h157.9V2354.8z"/>
</g>
</svg>
