<?xml version="1.0" encoding="utf-8"?>
<!-- Generator: Adobe Illustrator 19.0.0, SVG Export Plug-In . SVG Version: 6.00 Build 0)  -->
<svg version="1.1" id="Layer_2" xmlns="http://www.w3.org/2000/svg" xmlns:xlink="http://www.w3.org/1999/xlink" x="0px" y="0px"
	 viewBox="-1479 1525 1040 951" style="enable-background:new -1479 1525 1040 951;" xml:space="preserve">
<style type="text/css">
	.st0{fill:#FFFFFF;}
</style>
<g>
	<path class="st0" d="M-1031.5,1953.3h153.4c8.6,0,15.5-6.9,15.5-15.5s-6.9-15.5-15.5-15.5h-153.4c-8.6,0-15.5,6.9-15.5,15.5
		S-1040,1953.3-1031.5,1953.3z"/>
	<path class="st0" d="M-878.1,2143.6h-153.4c-8.6,0-15.5,6.9-15.5,15.5c0,8.6,6.9,15.5,15.5,15.5h153.4c8.6,0,15.5-6.9,15.5-15.5
		C-862.6,2150.5-869.5,2143.6-878.1,2143.6z"/>
	<path class="st0" d="M-824.5,2033c-0.1,0-0.1,0-0.2,0c-91.7,1-240.1,2-260,0.6c-3.9-1.1-8.2-0.8-12,1.4c-6.2,3.5-9.3,10.8-7.4,17.6
		c0.6,2.3,3.5,10.1,13.6,11.6c0.9,0.1,2,0.2,3.5,0.3c2.2,0.1,5.1,0.3,9.1,0.4c7,0.2,17.2,0.3,30.4,0.4c7.3,0,15.6,0.1,24.8,0.1
		c18.5,0,40.7-0.1,66.3-0.2c65.3-0.4,131.4-1.1,132.1-1.1c8.6-0.1,15.4-7.1,15.3-15.7C-809.1,2039.8-816,2033-824.5,2033z"/>
	<path class="st0" d="M-576.3,1907.8c-33.8-14.2-81.4-19.3-140.9-24.3c-19.9-30-44.2-60.4-71.1-93.4c-19.6-24.1-32.3-51.5-44.6-77.9
		c-12.5-26.9-24.3-52.3-42.2-71.7c-20.8-22.6-47.2-33.8-80.7-34.2c-0.4,0-0.9,0-1.4,0s-0.9,0-1.4,0c-33.5,0.4-59.9,11.6-80.7,34.2
		c-18,19.5-29.7,44.9-42.2,71.7c-12.3,26.5-25,53.8-44.6,77.9c-26.8,32.9-51,63.2-70.9,93.1c-61.4,5.2-110.3,10.1-144.9,24.7
		c-43,18-62.9,50.4-62.7,101.9c0.1,15.4,5.3,27.8,15.4,36.8c13.7,12.2,34.5,15.9,58.2,15.9c18.8,0,39.3-2.3,59.6-4.7
		c7.5-0.9,15.2-1.7,22.8-2.5c5.1,67.8,30.6,125.6,74.8,168.5c51.5,50,126.1,76.6,215.6,76.9c0.2,0,0.4,0,0.6,0h0.5h0.5
		c0.2,0,0.4,0,0.6,0c89.5-0.3,164-26.9,215.6-76.9c44.1-42.8,69.7-100.5,74.8-168.1c6.4,0.6,12.8,1.4,19,2.1
		c20.3,2.3,40.8,4.7,59.6,4.7c23.6,0,44.4-3.7,58.2-15.9c10.2-9,15.4-21.4,15.4-36.8C-513.4,1958.2-533.3,1925.8-576.3,1907.8z
		 M-1274.9,2026.9c-35.3,4-79.3,9-93.6-3.6c-2.1-1.9-5-5.4-5-13.8c-0.2-38.9,12.5-60.1,43.7-73.2c26.3-11,64.8-16,112.9-20.4
		c-21,38.3-31.4,73-32.5,108.3C-1257.8,2025-1266.3,2026-1274.9,2026.9z M-762.2,2201.5c-45.7,44.4-113,67.9-194.6,68.1
		c-0.1,0-0.3,0-0.4,0h-0.1h-0.1c-0.1,0-0.3,0-0.4,0c-81.6-0.2-148.9-23.7-194.6-68.1c-38.4-37.3-60.8-88.1-65.4-147.9
		c9.2,0.1,16.8,1.1,21.6,3.5c7.7,3.8,17,0.7,20.8-6.9c3.8-7.7,0.7-17-6.9-20.8c-9.6-4.8-22.1-6.6-36.2-6.8
		c1.7-37.4,15.8-72.4,39.2-109.9c0.3,0,0.5,0,0.8-0.1c12.1-1,24.6-2,37.7-3.2c8.5-0.8,14.8-8.3,14.1-16.8s-8.3-14.8-16.8-14.1
		c-4.5,0.4-9,0.8-13.4,1.2c15.8-21.9,34.3-45,54.8-70.2c22.1-27.1,36.2-57.6,48.7-84.5c23.6-50.9,40.7-87.6,95.8-88
		c0.1,0,0.3,0,0.4,0c0.1,0,0.3,0,0.4,0c55.1,0.4,72.2,37.1,95.8,88c12.5,26.9,26.6,57.4,48.7,84.5c20.6,25.3,39.1,48.5,55,70.5
		c-5.7-0.5-11.5-1-17.4-1.5c-8.5-0.7-16,5.6-16.8,14.1s5.6,16,14.1,16.8c13.1,1.1,25.6,2.2,37.7,3.2c1.6,0.1,3.2,0.3,4.7,0.4
		c23.3,37.4,37.4,72.3,39,109.6c-15.7-0.2-29.5,1.5-40,6.8c-7.7,3.8-10.8,13.1-6.9,20.8c3.8,7.7,13.1,10.8,20.8,6.9
		c5.5-2.7,14.5-3.6,25.4-3.5C-701.3,2113.4-723.7,2164.2-762.2,2201.5z M-549.7,2023.3c-14.3,12.7-58.3,7.7-93.6,3.6
		c-7.3-0.8-14.6-1.7-21.6-2.4c-1-35.2-11.3-70-32.3-108.3c46.2,4.3,83.3,9.3,108.9,20c31.2,13.1,43.8,34.3,43.7,73.2
		C-544.7,2017.9-547.5,2021.4-549.7,2023.3z"/>
	<path class="st0" d="M-1025.9,1766.3c2.2,1.1,4.6,1.7,7,1.7c5.7,0,11.1-3.1,13.8-8.5c14.8-29.2,31-45.4,45.6-45.6
		c0.1,0,0.3,0,0.4,0c15,0,32.4,16.4,48.9,46.2c4.2,7.5,13.6,10.2,21.1,6c7.5-4.2,10.2-13.6,6-21.1c-23.2-41.7-49-62.6-77-62.1
		c-27.4,0.5-51.8,21.6-72.7,62.6C-1036.6,1753.1-1033.5,1762.5-1025.9,1766.3z"/>
</g>
</svg>
