<?xml version="1.0" encoding="utf-8"?>
<!-- Generator: Adobe Illustrator 16.0.0, SVG Export Plug-In . SVG Version: 6.00 Build 0)  -->
<!DOCTYPE svg PUBLIC "-//W3C//DTD SVG 1.1//EN" "http://www.w3.org/Graphics/SVG/1.1/DTD/svg11.dtd">
<svg version="1.1" id="Layer_1" xmlns="http://www.w3.org/2000/svg" xmlns:xlink="http://www.w3.org/1999/xlink" x="0px" y="0px"
	 width="816.569px" height="816.57px" viewBox="218.927 0 816.569 816.57" enable-background="new 218.927 0 816.569 816.57"
	 xml:space="preserve">
<path fill="none" stroke="#FFFFFF" stroke-width="31" stroke-linejoin="round" stroke-miterlimit="10" d="M481.635,64.235
	c-49.135,39.265-67.926,78.841-76.609,104.659c-15.976,47.505,4.926,78.196-1.373,105.908
	c-7.443,32.746-37.676,73.21-75.047,122.686l58.066,30.701c12.827,35.406-19.43,104.107,4.294,130.208
	c21.605,23.77,134.02,16.138,139.566,44.714c8.605,44.333,6.903,59.11,6.903,59.11h214.671c0,0,24.369-102.146,35.857-113.614
	c52.098-52.008,113.3-93.107,132.062-192.054C942.637,237.322,898.5,150.5,860.597,108.818
	c-26.299-28.92-64.8-56.721-109.961-72.508C662.5,5.5,543.469,14.823,481.635,64.235z"/>
<line fill="none" stroke="#FFFFFF" stroke-width="31" stroke-linecap="round" stroke-linejoin="round" stroke-miterlimit="10" x1="540.315" y1="723.5" x2="754.23" y2="723.5"/>
<line fill="none" stroke="#FFFFFF" stroke-width="31" stroke-linecap="round" stroke-linejoin="round" stroke-miterlimit="10" x1="551.011" y1="784.5" x2="743.534" y2="784.5"/>
<path fill="none" stroke="#FFFFFF" stroke-width="31" stroke-linecap="round" stroke-linejoin="round" stroke-miterlimit="10" d="
	M610.214,605.08c0,0-10.621-219.238-78.769-223.803c-30.298-2.029-35.425,24.545-11.081,41.429
	c35.983,24.955,162.988-35.67,155.909-77.817c-6.173-36.75-48.986-34.64-56.764,0c-8.586,38.237,120.187,98.159,155.826,74.288
	c29.724-19.909,13.484-46.604-15.319-40.625c-67.507,14.01-73.203,226.528-73.203,226.528"/>
</svg>
