<svg width="16" height="20" viewBox="0 0 16 20" fill="none" xmlns="http://www.w3.org/2000/svg">
<g clip-path="url(#clip0_302_411)">
<path d="M14.0553 6.26888C12.8923 5.23522 11.2344 4.92272 9.77438 5.49965L8.2649 6.02849C8.3144 5.64388 8.31439 5.25926 8.31439 4.89868C8.48761 4.89868 8.66083 4.92272 8.83405 4.92272C9.89811 4.92272 10.7642 4.6583 11.4323 4.12945C12.051 3.62465 12.4469 2.87945 12.5211 2.11022C12.5211 1.91791 12.3974 1.74965 12.1994 1.72561C10.0218 1.50926 8.75981 2.59099 8.11643 3.43234C7.81949 2.27849 7.12661 1.26888 6.16154 0.547723C5.98832 0.427531 5.76561 0.475608 5.64188 0.643877C5.51816 0.812146 5.56765 1.02849 5.74087 1.14868C5.8151 1.2208 7.25034 2.18234 7.54729 4.44195C7.54729 4.51407 7.54729 4.56215 7.57203 4.63426C7.62152 5.13907 7.59678 5.66791 7.52254 6.17272L5.69137 5.49965C3.53852 4.70638 1.11346 5.74003 0.272115 7.85541C-0.0495763 8.64868 -0.0990672 9.53811 0.148388 10.3554L2.32599 16.966C2.5487 17.8314 3.14259 18.5766 3.95919 18.9852C4.47885 19.2737 5.09748 19.3218 5.64188 19.1295L6.23577 19.0093C7.25034 18.817 8.31439 18.841 9.30421 19.1295C9.57641 19.2016 9.87336 19.2496 10.1456 19.2496C11.5561 19.2496 12.7686 18.3121 13.115 16.966L15.2926 10.3314C15.7133 8.86503 15.2431 7.27849 14.0553 6.26888ZM11.7045 2.42272C11.5808 2.87945 11.3333 3.28811 10.9622 3.57657C10.393 4.05734 9.55167 4.24965 8.48761 4.17753C9.131 3.07176 10.3683 2.37465 11.7045 2.42272ZM14.5997 10.1391L12.4221 16.7737V16.7977C12.1252 17.9996 10.9127 18.7448 9.6754 18.4804C9.62591 18.4804 9.60116 18.4564 9.55167 18.4564C8.43812 18.1439 7.27508 18.0958 6.13679 18.3121L5.49341 18.4323C5.46867 18.4323 5.44392 18.4564 5.41917 18.4564C5.04799 18.5766 4.65206 18.5285 4.30563 18.3362C3.68699 18.0237 3.21683 17.4468 3.06835 16.7737V16.7496L0.890752 10.1391C0.420588 8.33618 1.50939 6.50926 3.3653 6.05253C4.03343 5.88426 4.75105 5.9083 5.41917 6.14868L7.49779 6.91791C7.57203 6.94195 7.64627 6.94195 7.7205 6.91791C7.79474 6.94195 7.86898 6.94195 7.94321 6.91791L10.0218 6.14868C11.8035 5.49965 13.7831 6.36503 14.476 8.0958C14.7235 8.76888 14.773 9.46599 14.5997 10.1391Z" fill="#00112C"/>
<path d="M11.0365 6.84619C10.8385 6.82215 10.6406 6.96638 10.6158 7.15869C10.5911 7.351 10.7396 7.5433 10.9375 7.56734C11.0118 7.56734 12.7439 7.8558 12.8924 9.80292C12.9172 9.99523 13.0656 10.1395 13.2636 10.1395H13.2884C13.4863 10.1154 13.6348 9.94715 13.6348 9.75484C13.5606 8.31253 12.4965 7.11061 11.0365 6.84619Z" fill="#00112C"/>
</g>
<defs>
<clipPath id="clip0_302_411">
<rect width="15.4412" height="18.75" fill="white" transform="translate(0 0.5)"/>
</clipPath>
</defs>
</svg>
