<?xml version="1.0" encoding="utf-8"?>
<!-- Generator: Adobe Illustrator 16.0.0, SVG Export Plug-In . SVG Version: 6.00 Build 0)  -->
<!DOCTYPE svg PUBLIC "-//W3C//DTD SVG 1.1//EN" "http://www.w3.org/Graphics/SVG/1.1/DTD/svg11.dtd">
<svg version="1.1" xmlns="http://www.w3.org/2000/svg" xmlns:xlink="http://www.w3.org/1999/xlink" x="0px" y="0px"
	 width="61.534px" height="60.064px" viewBox="-317.034 822.411 61.534 60.064"
	 enable-background="new -317.034 822.411 61.534 60.064" xml:space="preserve">
<g id="Layer_1">
</g>
<g id="Layer_2">
	<g>
		<path fill="none" stroke="#141b2e" stroke-miterlimit="10" d="M-267.939,843.411c0,2.122-0.386,4.149-1.061,6.041
			C-268.444,848.09-267.939,846.396-267.939,843.411z"/>
		<path fill="none" stroke="#141b2e" stroke-width="2" stroke-linecap="round" stroke-linejoin="round" stroke-miterlimit="10" d="
			M-302.05,851.479c3.037,7.534,16.607,27.932,16.607,27.932s12.652-20.446,15.593-27.964"/>
		<path fill="none" stroke="#141b2e" stroke-width="2" stroke-linecap="round" stroke-linejoin="round" stroke-miterlimit="10" d="
			M-303.938,843.411c0,2.766,0.642,5.375,1.756,7.716"/>
		<path fill="none" stroke="#141b2e" stroke-width="2" stroke-linecap="round" stroke-linejoin="round" stroke-miterlimit="10" d="
			M-269.849,851.447c0.322-0.645,0.605-1.311,0.849-1.995c-0.282,0.69-0.577,1.297-0.827,1.94
			C-269.834,851.41-269.843,851.43-269.849,851.447z"/>
		<path fill="none" stroke="#141b2e" stroke-width="2" stroke-linecap="round" stroke-linejoin="round" stroke-miterlimit="10" d="
			M-302.182,851.127"/>
		<path fill="none" stroke="#141b2e" stroke-width="2" stroke-linecap="round" stroke-linejoin="round" stroke-miterlimit="10" d="
			M-269.827,851.393c0.25-0.644,0.545-1.25,0.827-1.94c0.675-1.892,1.061-3.919,1.061-6.041c0-9.94-8.059-17.999-17.999-17.999
			c-9.941,0-18,8.059-18,17.999"/>
	</g>

		<circle fill="none" stroke="#141b2e" stroke-width="2" stroke-linecap="round" stroke-linejoin="round" stroke-miterlimit="10" cx="-285.938" cy="842.724" r="6.812"/>
</g>
</svg>
