<svg width="15" height="21" viewBox="0 0 15 21" fill="none" xmlns="http://www.w3.org/2000/svg">
<path d="M7.49755 20.6146C7.35312 20.6146 7.23757 20.5568 7.1509 20.4412C6.89092 20.1235 0.766785 12.295 0.766785 8.07743C0.766785 3.91764 3.59775 0.88446 7.49755 0.88446C11.3974 0.88446 14.2283 3.91764 14.2283 8.07743C14.2283 12.295 8.10419 20.1235 7.8442 20.4412C7.75754 20.5568 7.6131 20.6146 7.49755 20.6146ZM7.49755 1.75108C4.08884 1.75108 1.63341 4.40873 1.63341 8.07743C1.63341 11.4573 6.19762 17.7547 7.49755 19.4591C8.79749 17.7258 13.3617 11.4284 13.3617 8.07743C13.3617 4.40873 10.8774 1.75108 7.49755 1.75108Z" fill="#00112C"/>
<path d="M7.4976 11.4572C5.44659 11.4572 3.77112 9.78175 3.77112 7.73075C3.77112 5.67974 5.44659 4.00427 7.4976 4.00427C9.5486 4.00427 11.2241 5.67974 11.2241 7.73075C11.253 9.78175 9.57749 11.4572 7.4976 11.4572ZM7.4976 4.84201C5.90879 4.84201 4.63774 6.14194 4.63774 7.70186C4.63774 9.29067 5.93768 10.5617 7.4976 10.5617C9.08641 10.5617 10.3575 9.26178 10.3575 7.70186C10.3863 6.14194 9.08641 4.84201 7.4976 4.84201Z" fill="#00112C"/>
</svg>
