<svg xmlns="http://www.w3.org/2000/svg" xmlns:xlink="http://www.w3.org/1999/xlink" version="1.1" id="Layer_1" x="0px" y="0px" width="100px" height="100px" viewBox="0 0 100 100" enable-background="new 0 0 100 100" xml:space="preserve">
<path fill="#F3BE7B" d="M96.515,26.779L59.594,1.78c-0.96-0.65-2.154-0.855-3.274-0.566L8.63,13.521c-1.784,0.46-3.03,2.069-3.03,3.912v44.421  c0,1.05,0.408,2.058,1.139,2.812l29.999,30.96c0.774,0.799,1.827,1.229,2.902,1.229c0.442,0,0.887-0.072,1.319-0.222l52.304-18.073  c1.556-0.538,2.63-1.966,2.715-3.609l2.308-44.617C98.357,28.92,97.687,27.572,96.515,26.779z M56.573,9.493l29.128,19.722  l-17.566,5.364L40.355,13.678L56.573,9.493z M41.342,42.761L16.096,19.938l17.589-4.539l28.078,21.125L41.342,42.761z   M13.679,60.218V25.013l24.42,22.076v38.33L13.679,60.218z M43.485,87.21V47.738l46.543-14.213l-1.979,38.287L43.485,87.21z"/>
</svg>
