<?xml version="1.0" encoding="UTF-8"?>
<svg width="83px" height="86px" viewBox="0 0 83 86" version="1.1" xmlns="http://www.w3.org/2000/svg" xmlns:xlink="http://www.w3.org/1999/xlink">
    <!-- Generator: Sketch 52.5 (67469) - http://www.bohemiancoding.com/sketch -->
    <title>NAPCS - Color</title>
    <desc>Created with Sketch.</desc>
    <g id="Page-1" stroke="none" stroke-width="1" fill="none" fill-rule="evenodd">
        <g id="NAPCS---Color" fill="#141b2e" fill-rule="nonzero">
            <path d="M81.4095707,23.0722007 L48.3487693,0.623258731 C47.4891401,0.039562893 46.4199763,-0.144525794 45.4170755,0.114994355 L2.71320463,11.1666016 C1.11572705,11.5796786 0,13.0245503 0,14.6795525 L0,54.5693261 C0,55.5122194 0.365342406,56.4173969 1.01991422,57.0944841 L27.882431,84.8963659 C28.575507,85.6138628 29.5184128,86 30.4810184,86 C30.876806,86 31.2752799,85.9353445 31.6621131,85.8006454 L78.4975768,69.5712071 C79.8908924,69.0880866 80.8526026,67.8057517 80.9287156,66.3303482 L82.9954074,26.2645679 C83.0589842,24.994805 82.4590346,23.7843096 81.4095707,23.0722007 Z M45.9882775,2.84658825 L77.2533936,24.3326549 L55.9967827,30.0765507 L27.4284237,7.72941323 L45.9882775,2.84658825 Z M31.0500008,37.8079191 L5.90132609,13.2102425 L22.431697,8.90262402 L50.5481988,32.049424 L31.0500008,37.8079191 Z M3.11078719,54.1814289 L3.11078719,14.9837958 L28.3119486,39.8246491 L28.3119486,80.5544124 L3.11078719,54.1814289 Z M31.748073,81.7264541 L31.748073,41.1989484 L79.4589982,26.7772825 L77.7811758,66.2747945 L31.748073,81.7264541 Z" id="Shape"></path>
        </g>
    </g>
</svg>
