<svg width="17" height="20" viewBox="0 0 17 20" fill="none" xmlns="http://www.w3.org/2000/svg">
<path fill-rule="evenodd" clip-rule="evenodd" d="M16.4643 5.05938L8.66066 0.545492C8.5459 0.476047 8.43114 0.476047 8.31638 0.545492L0.535664 5.05938C0.443856 5.12882 0.375 5.24457 0.375 5.36031V14.3881C0.375 14.5038 0.443856 14.6196 0.535664 14.689L8.31638 19.2029C8.36229 19.226 8.43114 19.2492 8.47705 19.2492C8.52295 19.2492 8.59181 19.226 8.63771 19.2029L16.4414 14.689C16.5561 14.6196 16.602 14.527 16.602 14.3881V5.36031C16.625 5.24457 16.5561 5.12882 16.4643 5.05938ZM5.5851 2.92975L12.7002 7.05012L11.4149 7.79086L4.29979 3.67049L5.5851 2.92975ZM11.7592 10.9853V8.36957L13.0215 7.62882V10.2446L11.7592 10.9853ZM8.5 1.21679L15.6151 5.33716L13.3658 6.63345L6.25071 2.51308L8.5 1.21679ZM3.63418 4.04086L10.7493 8.16123L8.5 9.45753L1.38489 5.36031L3.63418 4.04086ZM1.04061 5.93901L8.15572 10.0594V18.3233L1.04061 14.2029V5.93901ZM8.84428 18.3233V10.0594L11.0936 8.76308V11.564C11.0936 11.6797 11.1624 11.7955 11.2542 11.8649C11.3231 11.9112 11.4149 11.9112 11.5067 11.8881C11.5297 11.8881 11.5756 11.8881 11.5985 11.8649L13.5494 10.7307C13.6642 10.6612 13.7101 10.5686 13.7101 10.4298V7.23531L15.9594 5.93901V14.2029L8.84428 18.3233Z" fill="#00112C"/>
</svg>
