<svg width="20" height="20" viewBox="0 0 20 20" fill="none" xmlns="http://www.w3.org/2000/svg">
<g clip-path="url(#clip0_302_405)">
<path d="M13.7353 11.3264L12.8687 10.4634C12.8687 10.3849 12.8687 10.3065 12.8687 10.228C12.9475 10.1496 13.105 9.99268 13.1838 9.91423C13.2626 9.83577 13.3414 9.75732 13.4202 9.67887L13.7353 9.36506C14.0504 9.05126 14.4443 8.659 14.8382 8.34519C15.1534 8.10983 15.3897 7.95293 15.7048 7.87448C15.9412 7.79602 16.0987 7.71757 16.3351 7.63912C16.4139 7.63912 16.4139 7.63912 16.4926 7.56067C16.5714 7.48222 16.6502 7.48222 16.729 7.40377L16.9653 7.16841C17.438 6.61925 17.9895 6.14854 18.4622 5.67782C19.4076 4.65795 19.5651 3.63808 18.8561 2.69665C18.3834 1.91213 17.5168 0.892259 16.1775 0.5H16.0987H15.6261H15.5473C15.0746 0.656904 14.7595 0.813808 14.4443 1.12762L14.1292 1.44142L12.5536 3.08891C12.3172 3.32427 12.1597 3.63808 12.0809 3.87343C12.0021 4.10879 11.8445 4.42259 11.687 4.7364C11.5294 4.97176 11.2931 5.20711 11.1355 5.44247C10.8992 5.67782 10.584 5.99163 10.3477 6.22699C10.1113 6.46234 9.875 6.6977 9.71744 6.93305H9.63866C9.55987 6.93305 9.48109 6.93305 9.48109 6.93305L8.37815 5.99163C8.77206 4.5795 8.37815 2.93201 7.35399 1.83368C6.25105 0.735356 4.43908 0.421548 2.94223 1.04916C2.78466 1.12762 2.6271 1.28452 2.6271 1.51987C2.6271 1.75523 2.6271 1.91213 2.78466 2.06904L4.91176 4.26569L3.88761 5.12866L1.83929 3.01046C1.68172 2.85356 1.52416 2.7751 1.28782 2.85356C1.13025 2.85356 0.893908 3.01046 0.815126 3.24582C0.578782 3.71653 0.5 4.26569 0.5 4.81485C0.5 5.83473 0.893908 6.8546 1.68172 7.56067C2.70588 8.58054 4.36029 9.05126 5.77836 8.58054L7.66912 10.4634L3.02101 15.092L2.07563 15.5628C1.99685 15.5628 1.99685 15.6412 1.91807 15.7197L0.893908 17.4456C0.815126 17.6025 0.815126 17.7594 0.972689 17.8379L1.83929 18.7008C1.91807 18.7793 1.99685 18.7793 2.07563 18.7793C2.15441 18.7793 2.15441 18.7793 2.23319 18.7008L3.96639 17.681C4.04517 17.681 4.04517 17.6025 4.12395 17.5241L4.59664 16.5826L9.24475 11.954L10.4265 13.1308L11.1355 13.8368C10.7416 15.249 11.1355 16.8964 12.1597 17.9948C12.8687 18.7793 13.8929 19.1715 14.917 19.1715C15.4685 19.1715 16.02 19.0931 16.5714 18.8577C16.8078 18.7793 16.8866 18.6224 16.9653 18.387C17.0441 18.1517 16.9653 17.9948 16.8078 17.8379L14.6807 15.7197L14.6019 15.6412L15.5473 14.6998H15.6261L17.6744 16.818C17.8319 16.9749 18.0683 17.0533 18.2258 16.9749C18.4622 16.9749 18.6197 16.818 18.6985 16.5826C19.3288 15.092 19.0137 13.3661 17.8319 12.1893C16.8078 11.3264 15.1534 10.9341 13.7353 11.3264ZM12.1597 11.2479C12.0809 11.3264 12.0809 11.4048 11.9233 11.4833C11.8445 11.4833 11.7658 11.4833 11.687 11.4048C11.4506 11.1695 10.9779 10.6987 10.584 10.3065L10.1113 9.83577L8.37815 8.10983C8.22059 7.95293 8.22059 7.87448 8.29937 7.79602C8.29937 7.71757 8.37815 7.63912 8.53571 7.56067C8.85084 7.56067 9.24475 7.56067 9.48109 7.56067H9.55987L12.2384 10.228C12.2384 10.3065 12.2384 10.3065 12.2384 10.3849C12.2384 10.6203 12.2384 10.9341 12.1597 11.2479ZM16.5714 6.54079L16.3351 6.77615L13.0263 3.48117L14.3655 2.14749L17.6744 5.44247C17.2805 5.83473 16.8866 6.14854 16.5714 6.54079ZM15.6261 1.12762H16.02C17.1229 1.44142 17.9107 2.30439 18.3046 3.01046C18.9349 3.87343 18.4622 4.5795 18.0683 4.97176L14.6807 1.59833L14.8382 1.44142C15.0746 1.36297 15.3109 1.20607 15.6261 1.12762ZM10.6628 6.6977C10.8992 6.46234 11.2143 6.14854 11.4506 5.91318C11.687 5.67782 11.9233 5.44247 12.0809 5.12866C12.3172 4.81485 12.396 4.42259 12.5536 4.18724C12.5536 4.18724 12.5536 4.18724 12.5536 4.10879L15.6261 7.16841H15.5473C15.1534 7.24686 14.7595 7.48222 14.3655 7.79602C13.9716 8.10983 13.6565 8.50209 13.2626 8.8159L13.0263 9.12971C12.9475 9.20816 12.8687 9.28661 12.7899 9.36506C12.7111 9.44351 12.6324 9.52197 12.6324 9.52197L10.2689 7.16841C10.3477 7.01151 10.5053 6.8546 10.6628 6.6977ZM6.01471 8.03138C5.93592 7.95293 5.85714 7.95293 5.69958 7.95293C4.51786 8.34519 3.02101 8.03138 2.07563 7.08996C1.44538 6.46234 1.05147 5.59937 1.05147 4.7364C1.05147 4.26569 1.13025 3.79498 1.28782 3.40272L3.33613 5.52092C3.57248 5.75628 4.04517 5.75628 4.28151 5.52092L5.14811 4.65795C5.38445 4.42259 5.38445 3.95188 5.14811 3.71653L3.17857 1.59833C4.43908 1.04916 5.93592 1.36297 6.96008 2.30439C7.82668 3.24582 8.22059 4.7364 7.7479 5.99163C7.7479 6.07008 7.7479 6.22699 7.82668 6.30544L8.45693 6.93305C8.06303 7.01151 7.7479 7.24686 7.66912 7.56067C7.59034 7.87448 7.66912 8.26674 7.98424 8.50209L8.85084 9.36506L8.14181 10.0711L6.01471 8.03138ZM2.15441 18.0732L1.60294 17.5241L2.46954 16.1119L3.33613 15.7197C3.33613 15.7197 3.33613 15.7197 3.41492 15.7197C3.41492 15.7197 3.41492 15.7197 3.4937 15.7197L9.32353 9.91423L9.95378 10.5418L4.12395 16.3473C4.12395 16.3473 4.12395 16.3473 4.12395 16.4257L3.73004 17.2887L2.15441 18.0732ZM18.0683 16.5042L16.02 14.386C15.7836 14.1506 15.3109 14.0722 15.0746 14.386L14.1292 15.3274C13.8929 15.5628 13.8929 16.0335 14.208 16.2688L16.3351 18.387C14.917 18.9362 13.5777 18.6224 12.6324 17.681C11.687 16.7395 11.3718 15.249 11.7658 13.9937C11.7658 13.9153 11.7658 13.7584 11.687 13.6799L9.71744 11.7186C9.71744 11.7186 9.71744 11.7186 9.63866 11.7186L9.55987 11.6402L10.2689 10.9341C10.6628 11.3264 10.9779 11.6402 11.2143 11.8755C11.3718 12.0324 11.6082 12.1893 11.8445 12.1893C11.9233 12.1893 12.0021 12.1893 12.0021 12.1893C12.3172 12.1109 12.5536 11.8755 12.6324 11.5617C12.6324 11.4833 12.6324 11.4048 12.7111 11.3264L13.3414 11.954C13.4202 12.0324 13.5777 12.0324 13.6565 12.0324C14.8382 11.6402 16.3351 11.954 17.2805 12.8954C18.3834 13.7584 18.6197 15.249 18.0683 16.5042Z" fill="#00112C"/>
</g>
<defs>
<clipPath id="clip0_302_405">
<rect width="18.75" height="18.75" fill="white" transform="translate(0.5 0.5)"/>
</clipPath>
</defs>
</svg>
