<svg width="20" height="20" viewBox="0 0 20 20" fill="none" xmlns="http://www.w3.org/2000/svg">
<path d="M19.0149 10.9195V8.29768C19.0149 8.21823 18.9364 8.13878 18.858 8.05933C18.7795 7.97988 18.7011 7.97988 18.6226 7.97988L13.9155 9.25107V8.29768C13.9155 8.21823 13.8371 8.13878 13.7586 8.05933C13.6802 7.97988 13.6017 7.97988 13.5233 7.97988L8.8946 9.25107L8.73769 7.10594C8.73769 6.94705 8.58079 6.78815 8.42389 6.78815H6.46259C6.30568 6.78815 6.14878 6.94705 6.14878 7.10594L5.12891 19.1028C5.12891 19.1028 5.12891 19.1028 5.12891 19.1822C5.12891 19.1822 5.12891 19.1822 5.12891 19.2617C5.12891 19.2617 5.12891 19.3411 5.20736 19.3411C5.20736 19.3411 5.28581 19.3411 5.28581 19.4206C5.28581 19.4206 5.36426 19.4206 5.44271 19.4206H5.91343H9.44376H18.9364C19.0933 19.4206 19.2502 19.2617 19.2502 19.1028V11.1578C19.2502 10.999 19.1718 10.9195 19.0149 10.9195ZM9.12995 11.4756H13.6017C13.6017 11.4756 13.6017 11.4756 13.6802 11.4756C13.7586 11.4756 13.6802 11.4756 13.7586 11.4756H18.7011V12.429H9.28686L9.12995 11.4756ZM18.3873 8.69493V10.8401H13.9155V9.88666L18.3873 8.69493ZM13.2879 8.69493V10.8401H9.0515L8.97305 9.88666L13.2879 8.69493ZM5.91343 18.8644H5.75652L6.7764 7.42374H8.11008L9.12995 18.8644H5.91343ZM9.75757 18.8644L9.28686 13.0646H18.6226V18.8644H9.75757Z" fill="#00112C"/>
<path d="M16.818 14.6535H15.0136C14.8567 14.6535 14.6998 14.8124 14.6998 14.9713V16.6397C14.6998 16.7986 14.8567 16.9575 15.0136 16.9575H16.818C16.9749 16.9575 17.1318 16.7986 17.1318 16.6397V14.9713C17.1318 14.8124 16.9749 14.6535 16.818 14.6535ZM16.5042 16.4014H15.3274V15.3685H16.5042V16.4014Z" fill="#00112C"/>
<path d="M12.974 14.6535H11.1696C11.0127 14.6535 10.8558 14.8124 10.8558 14.9713V16.6397C10.8558 16.7986 11.0127 16.9575 11.1696 16.9575H12.974C13.1309 16.9575 13.2878 16.7986 13.2878 16.6397V14.9713C13.2878 14.8124 13.1309 14.6535 12.974 14.6535ZM12.6602 16.4014H11.4835V15.3685H12.6602V16.4014Z" fill="#00112C"/>
<path d="M7.08996 6.0716C7.71757 6.0716 8.26674 5.51545 8.26674 4.87986C8.26674 4.64151 8.18828 4.40317 8.03138 4.16482C8.18828 3.84702 8.26674 3.52922 8.26674 3.13198C8.26674 1.94024 7.32531 0.907402 6.07008 0.907402C5.75628 0.907402 5.36402 0.986852 5.05021 1.14575C4.5795 0.669055 3.63808 0.589606 3.01046 1.0663C2.69665 0.907402 2.38285 0.827953 2.14749 0.827953C1.20607 0.827953 0.5 1.543 0.5 2.41694C0.5 3.29088 1.20607 4.08537 2.14749 4.08537C2.38285 4.08537 2.6182 4.00592 2.7751 3.92647C3.16736 4.32372 3.79498 4.48261 4.34414 4.32372C4.7364 4.87986 5.28556 5.19766 5.91318 5.27711C6.07008 5.7538 6.54079 6.0716 7.08996 6.0716ZM4.81485 3.84702C4.7364 3.76757 4.5795 3.68812 4.50105 3.68812H4.42259C3.95188 3.84702 3.40272 3.68812 3.08891 3.37033C2.93201 3.21143 2.7751 3.21143 2.6182 3.29088C2.4613 3.37033 2.30439 3.44978 2.14749 3.44978C1.59833 3.44978 1.12762 2.97308 1.12762 2.41694C1.12762 1.86079 1.59833 1.3841 2.14749 1.3841C2.38285 1.3841 2.6182 1.46355 2.7751 1.62244C2.93201 1.70189 3.08891 1.70189 3.16736 1.62244C3.63808 1.2252 4.42259 1.30465 4.89331 1.78134C4.97176 1.94024 5.20711 1.94024 5.28556 1.86079C5.52092 1.62244 5.83473 1.543 6.14854 1.543C7.01151 1.543 7.71757 2.25804 7.71757 3.13198C7.71757 3.44978 7.63912 3.76757 7.40377 4.08537C7.24686 4.16482 7.32531 4.32372 7.40377 4.48261C7.56067 4.56206 7.63912 4.72096 7.63912 4.87986C7.63912 5.19766 7.40376 5.436 7.08996 5.436C6.77615 5.436 6.54079 5.19766 6.54079 4.95931C6.54079 4.80041 6.38389 4.64151 6.22699 4.64151C5.59937 4.64151 5.05021 4.32372 4.81485 3.84702Z" fill="#00112C"/>
</svg>
