<svg width="19" height="19" viewBox="0 0 19 19" fill="none" xmlns="http://www.w3.org/2000/svg">
<path d="M5.41129 5.64453H13.5891C13.7008 5.64453 13.8124 5.5625 13.8682 5.45313C13.8961 5.34375 13.8682 5.20703 13.7566 5.15234L9.65371 2.36328C9.56998 2.30859 9.43042 2.30859 9.34669 2.36328L5.27173 5.15234C5.16009 5.20703 5.13218 5.34375 5.16009 5.45313C5.188 5.5625 5.29964 5.64453 5.41129 5.64453ZM9.51416 2.9375L12.696 5.125H6.30443L9.51416 2.9375Z" fill="#00112C"/>
<path d="M2.25718 13.7667C2.08971 13.7667 1.97807 13.876 1.97807 14.0401V15.2706H1.61523C1.44777 15.2706 1.33612 15.3799 1.33612 15.544V17.7042H1.02911C0.861643 17.7042 0.75 17.8135 0.75 17.9776C0.75 18.1417 0.861643 18.251 1.02911 18.251C7.0299 18.251 12.4725 18.251 17.9709 18.251C18.1384 18.251 18.25 18.1417 18.25 17.9776C18.25 17.8135 18.1384 17.7042 17.9709 17.7042H17.6639V15.544C17.6639 15.3799 17.5522 15.2706 17.3848 15.2706H17.0219V14.0401C17.0219 13.876 16.9103 13.7667 16.7428 13.7667H16.4916V8.18854H16.6591C16.8266 8.18854 16.9382 8.07916 16.9382 7.9151V6.95807H17.8313C17.943 6.95807 18.0546 6.87604 18.1104 6.76666C18.1384 6.65729 18.1104 6.52057 17.9988 6.46588L9.65351 0.805725C9.56978 0.751038 9.43022 0.751038 9.34649 0.805725L1.02911 6.46588C0.917464 6.52057 0.889553 6.65729 0.917464 6.76666C0.945375 6.87604 1.05702 6.95807 1.19657 6.95807H2.08971V7.9151C2.08971 8.07916 2.20136 8.18854 2.36882 8.18854H2.53628V13.7667H2.25718ZM2.53628 14.3135C2.75957 14.3135 4.35048 14.3135 4.32257 14.3135V15.2706H2.53628V14.3135ZM4.49003 8.18854C4.6575 8.18854 4.76914 8.07916 4.76914 7.9151V6.95807H6.10885V7.9151C6.10885 8.07916 6.22049 8.18854 6.38796 8.18854H6.55542V13.7667H6.30423C6.13676 13.7667 6.02512 13.876 6.02512 14.0401V15.2706H4.88078V14.0401C4.88078 13.876 4.76914 13.7667 4.60167 13.7667H4.35048V8.18854H4.49003ZM10.1838 6.98541V7.94245C10.1838 8.10651 10.2955 8.21588 10.4629 8.21588H10.6304V13.794H10.3792C10.2117 13.794 10.1001 13.9034 10.1001 14.0674V15.2979H8.95574V14.0674C8.95574 13.9034 8.8441 13.794 8.67663 13.794H8.42544V8.18854H8.5929C9.03947 8.18854 8.81619 7.53229 8.87201 6.95807H10.1838V6.98541ZM14.2309 6.98541C14.2867 7.53229 14.0634 8.21588 14.51 8.21588H14.6774V13.794H14.4262C14.2588 13.794 14.1471 13.9034 14.1471 14.0674V15.2979H13.0028V14.0674C13.0028 13.9034 12.8911 13.794 12.7237 13.794H12.4725V8.18854H12.64C13.0865 8.18854 12.8632 7.53229 12.9191 6.95807H14.2309V6.98541ZM11.8864 13.7667H11.1886V8.18854H11.8864V13.7667ZM10.6304 15.2706V14.3135C10.8537 14.3135 12.4446 14.3135 12.4167 14.3135V15.2706H10.6304ZM12.305 7.64166C12.0817 7.64166 11.1049 7.64166 10.7141 7.64166V6.95807H12.305V7.64166ZM7.83931 13.7667H7.14155V8.18854H7.83931V13.7667ZM6.58333 15.2706V14.3135C6.80662 14.3135 8.39753 14.3135 8.36962 14.3135V15.2706H6.58333ZM8.25797 7.64166C8.03469 7.64166 7.05782 7.64166 6.66707 7.64166V6.95807H8.25797V7.64166ZM17.1057 17.7042H1.89434V15.8174C5.38317 15.8174 17.9709 15.8174 17.1057 15.8174V17.7042ZM14.6774 15.2706V14.3135C14.9007 14.3135 16.4916 14.3135 16.4637 14.3135V15.2706H14.6774ZM15.9334 13.7667H15.2356V8.18854H15.9334V13.7667ZM16.3521 7.64166C16.1288 7.64166 15.1519 7.64166 14.7612 7.64166V6.95807H16.3521V7.64166ZM9.51396 1.3526L16.9382 6.43854C15.2356 6.43854 1.97807 6.43854 2.0618 6.43854L9.51396 1.3526ZM4.21092 6.98541V7.66901C3.98764 7.66901 3.01077 7.66901 2.62002 7.66901V6.98541H4.21092ZM3.0945 8.18854H3.79226V13.7667H3.0945V8.18854Z" fill="#00112C"/>
</svg>
