<?xml version="1.0" encoding="utf-8"?>
<!-- Generator: Adobe Illustrator 16.0.0, SVG Export Plug-In . SVG Version: 6.00 Build 0)  -->
<!DOCTYPE svg PUBLIC "-//W3C//DTD SVG 1.1//EN" "http://www.w3.org/Graphics/SVG/1.1/DTD/svg11.dtd">
<svg version="1.1" id="Layer_1" xmlns="http://www.w3.org/2000/svg" xmlns:xlink="http://www.w3.org/1999/xlink" x="0px" y="0px"
	 width="23px" height="23px" viewBox="0 0 23 23" enable-background="new 0 0 23 23" xml:space="preserve">
<path fill="#EF6145" d="M14.182,0.686c-4.495,0-8.152,3.657-8.152,8.153c0,1.977,0.708,3.79,1.882,5.203L6.754,15.19
	c-0.481-0.389-0.93-0.552-1.321-0.16c0,0-0.711,1.358-1.039,1.737c-0.768,0.888-3.613,2.912-3.613,2.912
	c-0.52,0.521-0.021,1.103,0.646,1.77l0.103,0.105c0.666,0.666,1.25,1.163,1.769,0.646c0,0,2.063-2.888,2.959-3.659
	c0.374-0.318,1.703-1.003,1.703-1.003c0.384-0.386,0.227-0.817-0.148-1.285l1.159-1.149c1.414,1.178,3.23,1.889,5.21,1.889
	c4.496,0,8.154-3.658,8.154-8.153C22.336,4.343,18.678,0.686,14.182,0.686z M14.182,15.191c-3.503,0-6.353-2.85-6.353-6.353
	s2.85-6.353,6.353-6.353c3.504,0,6.354,2.85,6.354,6.353S17.686,15.191,14.182,15.191z"/>
</svg>
