<?xml version="1.0" encoding="UTF-8" standalone="no"?>
<svg width="22px" height="22px" viewBox="0 0 22 22" version="1.1" xmlns="http://www.w3.org/2000/svg" xmlns:xlink="http://www.w3.org/1999/xlink">
    <!-- Generator: Sketch 41 (35326) - http://www.bohemiancoding.com/sketch -->
    <title>Combined Shape</title>
    <desc>Created with Sketch.</desc>
    <defs></defs>
    <g id="Page-1" stroke="none" stroke-width="1" fill="none" fill-rule="evenodd">
        <path d="M6.38325883,14.2995531 L0.662690735,20.0159012 C0.272166443,20.4064255 0.272166443,21.0395905 0.662690735,21.4301147 C1.05321503,21.820639 1.68638001,21.820639 2.0769043,21.4301147 L7.91571791,15.5956084 C9.2582763,16.4832167 10.8674943,17 12.5974135,17 C17.2918339,17 21.0974135,13.1944204 21.0974135,8.5 C21.0974135,3.80557963 17.2918339,0 12.5974135,0 C7.90299313,0 4.0974135,3.80557963 4.0974135,8.5 C4.0974135,10.7417499 4.96523657,12.7808089 6.38325883,14.2995531 Z M12.5974135,15 C9.00756263,15 6.0974135,12.0898509 6.0974135,8.5 C6.0974135,4.91014913 9.00756263,2 12.5974135,2 C16.1872644,2 19.0974135,4.91014913 19.0974135,8.5 C19.0974135,12.0898509 16.1872644,15 12.5974135,15 Z" id="Combined-Shape" fill="#EF6145"></path>
    </g>
</svg>