<?xml version="1.0" encoding="UTF-8" standalone="no"?>
<svg width="16px" height="16px" viewBox="0 0 16 16" version="1.1" xmlns="http://www.w3.org/2000/svg" xmlns:xlink="http://www.w3.org/1999/xlink">
    <!-- Generator: Sketch 41 (35326) - http://www.bohemiancoding.com/sketch -->
    <title>search_w</title>
    <desc>Created with Sketch.</desc>
    <defs></defs>
    <g id="Page-1" stroke="none" stroke-width="1" fill="none" fill-rule="evenodd">
        <g id="search_w" transform="translate(8.000000, 8.000000) scale(-1, 1) translate(-8.000000, -8.000000) " fill="#FFFFFF">
            <g id="Page-1">
                <g id="search_w">
                    <path d="M4.7056382,10.4861653 L0.510624404,14.6780845 C0.224244665,14.9644642 0.224244665,15.4287775 0.510624404,15.7151572 C0.797004144,16.001537 1.26131744,16.001537 1.54769718,15.7151572 L5.82942291,11.4365901 C6.81394943,12.0874921 7.99402309,12.4664602 9.26260952,12.4664602 C12.7051274,12.4664602 15.4958396,9.67574808 15.4958396,6.2332301 C15.4958396,2.79071218 12.7051274,0 9.26260952,0 C5.82009157,0 3.02937938,2.79071218 3.02937938,6.2332301 C3.02937938,7.87715281 3.66577243,9.372438 4.7056382,10.4861653 Z M9.26260952,10.933139 C6.66692147,10.933139 4.56270058,8.82891816 4.56270058,6.2332301 C4.56270058,3.63754209 6.66692147,1.53332119 9.26260952,1.53332119 C11.8582975,1.53332119 13.9625184,3.63754209 13.9625184,6.2332301 C13.9625184,8.82891816 11.8582975,10.933139 9.26260952,10.933139 Z" id="Combined-Shape" transform="translate(7.895840, 7.964971) scale(-1, 1) translate(-7.895840, -7.964971) "></path>
                </g>
            </g>
        </g>
    </g>
</svg>