<?xml version="1.0" encoding="utf-8"?>
<!-- Generator: Adobe Illustrator 16.0.0, SVG Export Plug-In . SVG Version: 6.00 Build 0)  -->
<!DOCTYPE svg PUBLIC "-//W3C//DTD SVG 1.1//EN" "http://www.w3.org/Graphics/SVG/1.1/DTD/svg11.dtd">
<svg version="1.1" id="Layer_1" xmlns="http://www.w3.org/2000/svg" xmlns:xlink="http://www.w3.org/1999/xlink" x="0px" y="0px"
	 width="23px" height="23px" viewBox="0 0 23 23" enable-background="new 0 0 23 23" xml:space="preserve">
<circle fill="none" stroke="#FFFFFF" stroke-width="1.8" stroke-miterlimit="10" cx="8.995" cy="9.014" r="7.253"/>
<line fill="none" stroke="#FFFFFF" stroke-width="1.5" stroke-linecap="round" stroke-miterlimit="10" x1="14.123" y1="14.141" x2="18.805" y2="18.785"/>
<path fill="#FFFFFF" d="M21.646,21.729c-0.666,0.668-1.25,1.164-1.769,0.646c0,0-2.063-2.887-2.959-3.659
	c-0.374-0.319-1.703-1.003-1.703-1.003c-0.521-0.521-0.05-1.13,0.616-1.797l0.105-0.104c0.666-0.668,1.287-1.127,1.807-0.607
	c0,0,0.711,1.359,1.039,1.738c0.769,0.887,3.613,2.912,3.613,2.912c0.52,0.521,0.021,1.103-0.646,1.77L21.646,21.729z"/>
</svg>
