<?xml version="1.0" encoding="utf-8"?>
<!-- Generator: Adobe Illustrator 16.0.4, SVG Export Plug-In . SVG Version: 6.00 Build 0)  -->
<!DOCTYPE svg PUBLIC "-//W3C//DTD SVG 1.1//EN" "http://www.w3.org/Graphics/SVG/1.1/DTD/svg11.dtd">
<svg version="1.1" id="Layer_1" xmlns="http://www.w3.org/2000/svg" xmlns:xlink="http://www.w3.org/1999/xlink" x="0px" y="0px"
	 width="23px" height="23px" viewBox="0 0 23 23" enable-background="new 0 0 23 23" xml:space="preserve">
<circle fill="none" stroke="#FFFFFF" stroke-width="1.8" stroke-miterlimit="10" cx="15.358" cy="9.014" r="7.253"/>
<line fill="none" stroke="#FFFFFF" stroke-width="1.5" stroke-linecap="round" stroke-miterlimit="10" x1="5.549" y1="18.785" x2="10.23" y2="14.141"/>
<path fill="#FFFFFF" d="M2.604,21.625c-0.667-0.667-1.166-1.249-0.646-1.77c0,0,2.844-2.025,3.612-2.912
	c0.328-0.379,1.039-1.738,1.039-1.738c0.521-0.52,1.142-0.061,1.808,0.607l0.104,0.104c0.666,0.667,1.138,1.275,0.616,1.797
	c0,0-1.329,0.684-1.703,1.003c-0.896,0.772-2.959,3.659-2.959,3.659c-0.52,0.518-1.104,0.021-1.77-0.646L2.604,21.625z"/>
</svg>
