<?xml version="1.0" encoding="utf-8"?>
<!-- Generator: Adobe Illustrator 16.0.4, SVG Export Plug-In . SVG Version: 6.00 Build 0)  -->
<!DOCTYPE svg PUBLIC "-//W3C//DTD SVG 1.1//EN" "http://www.w3.org/Graphics/SVG/1.1/DTD/svg11.dtd">
<svg version="1.1" id="Layer_1" xmlns="http://www.w3.org/2000/svg" xmlns:xlink="http://www.w3.org/1999/xlink" x="0px" y="0px"
	 width="23px" height="23px" viewBox="0 0 23 23" enable-background="new 0 0 23 23" xml:space="preserve">
<circle fill="none" stroke="#446078" stroke-width="1.8" stroke-miterlimit="10" cx="14.182" cy="8.839" r="7.253"/>
<line fill="none" stroke="#446078" stroke-width="1.5" stroke-linecap="round" stroke-miterlimit="10" x1="4.373" y1="18.609" x2="9.054" y2="13.965"/>
<path fill="#446078" d="M1.427,21.449C0.76,20.782,0.261,20.2,0.781,19.68c0,0,2.845-2.025,3.613-2.912
	c0.328-0.379,1.039-1.738,1.039-1.738c0.52-0.52,1.141-0.061,1.807,0.607l0.105,0.104c0.666,0.667,1.137,1.275,0.616,1.797
	c0,0-1.329,0.684-1.703,1.003c-0.896,0.772-2.959,3.659-2.959,3.659c-0.519,0.518-1.103,0.021-1.769-0.646L1.427,21.449z"/>
</svg>
