<?xml version="1.0" encoding="utf-8"?>
<!-- Generator: Adobe Illustrator 16.0.0, SVG Export Plug-In . SVG Version: 6.00 Build 0)  -->
<!DOCTYPE svg PUBLIC "-//W3C//DTD SVG 1.1//EN" "http://www.w3.org/Graphics/SVG/1.1/DTD/svg11.dtd">
<svg version="1.1" id="Layer_2" xmlns="http://www.w3.org/2000/svg" xmlns:xlink="http://www.w3.org/1999/xlink" x="0px" y="0px"
	 width="957.25px" height="956.588px" viewBox="314.25 127.912 957.25 956.588"
	 enable-background="new 314.25 127.912 957.25 956.588" xml:space="preserve">
<line fill="none" stroke="#000000" stroke-width="31" stroke-linecap="round" stroke-linejoin="round" stroke-miterlimit="10" x1="1150.25" y1="988.25" x2="436.25" y2="988.25"/>
<polyline fill="none" stroke="#000000" stroke-width="31" stroke-linecap="round" stroke-linejoin="round" stroke-miterlimit="10" points="
	502.75,388.75 502.75,268.25 1217.75,268.25 1217.75,268.25 "/>
<path fill="none" stroke="#000000" stroke-width="31" stroke-linecap="round" stroke-linejoin="round" stroke-miterlimit="10" d="
	M502.75,912.024c0,0,0.044,75.35-67,75.35s-67-75.35-67-75.35V389.25h134V912.024z"/>
<path fill="none" stroke="#000000" stroke-width="31" stroke-linecap="round" stroke-linejoin="round" stroke-miterlimit="10" d="
	M1217.75,268.75v643.274c0,0,0.018,75.701-67.026,75.701"/>
<line fill="none" stroke="#000000" stroke-width="31" stroke-linecap="round" stroke-linejoin="round" stroke-miterlimit="10" x1="600.579" y1="379.408" x2="1120.992" y2="379.408"/>
<g>
	
		<line fill="none" stroke="#000000" stroke-width="31" stroke-linecap="round" stroke-linejoin="round" stroke-miterlimit="10" x1="910.724" y1="683.858" x2="1120.992" y2="683.858"/>
	
		<line fill="none" stroke="#000000" stroke-width="31" stroke-linecap="round" stroke-linejoin="round" stroke-miterlimit="10" x1="600.579" y1="683.858" x2="810.847" y2="683.858"/>
</g>
<g>
	
		<line fill="none" stroke="#000000" stroke-width="31" stroke-linecap="round" stroke-linejoin="round" stroke-miterlimit="10" x1="910.724" y1="777.385" x2="1120.992" y2="777.385"/>
	
		<line fill="none" stroke="#000000" stroke-width="31" stroke-linecap="round" stroke-linejoin="round" stroke-miterlimit="10" x1="600.579" y1="777.385" x2="810.847" y2="777.385"/>
</g>
<g>
	
		<line fill="none" stroke="#000000" stroke-width="31" stroke-linecap="round" stroke-linejoin="round" stroke-miterlimit="10" x1="910.724" y1="870.909" x2="1120.992" y2="870.909"/>
	
		<line fill="none" stroke="#000000" stroke-width="31" stroke-linecap="round" stroke-linejoin="round" stroke-miterlimit="10" x1="600.579" y1="870.909" x2="810.847" y2="870.909"/>
</g>
<rect x="600.579" y="477.314" fill="none" stroke="#000000" stroke-width="31" stroke-linecap="round" stroke-linejoin="round" stroke-miterlimit="10" width="520.413" height="113.019"/>
</svg>
