<svg width="25" height="26" viewBox="0 0 25 26" fill="none" xmlns="http://www.w3.org/2000/svg">
<path d="M5.40469 3.68911L5.40481 3.6891L5.40428 3.68565C5.1608 2.10545 3.82138 0.95 2.23797 0.95H0.799413C0.608253 0.95 0.445057 1.01384 0.329519 1.12921C0.213973 1.24458 0.150012 1.40757 0.150012 1.5985C0.150012 1.78944 0.213973 1.95243 0.329519 2.0678C0.445057 2.18317 0.608253 2.24701 0.799413 2.24701H2.23797C3.17253 2.24701 3.98979 2.94715 4.10644 3.87903L4.10644 3.87903L4.10656 3.8799L6.14452 18.1243L6.1445 18.1243L6.14478 18.1259C6.32849 19.1654 7.18689 19.9627 8.29192 19.9627H20.3998C20.7238 19.9627 21.0492 19.7042 21.0492 19.3142C21.0492 19.1483 20.9666 18.9866 20.8472 18.8674C20.7278 18.7481 20.5659 18.6657 20.3998 18.6657H8.29192C7.83625 18.6657 7.49907 18.3839 7.44244 17.9314L7.44232 17.9306L7.3306 17.1498H19.6805C20.7259 17.1498 21.5225 16.4124 21.767 15.4361L21.7671 15.4356L24.2242 5.14336C24.2898 4.94388 24.222 4.73255 24.0944 4.58123C23.9674 4.43061 23.7729 4.32997 23.5726 4.36147H5.4608L5.40469 3.68911ZM7.13637 15.8527L5.65242 5.65848H22.794L20.5313 15.112C20.4151 15.5165 20.0705 15.8527 19.6805 15.8527H7.13637Z" fill="white" stroke="white" stroke-width="0.1"/>
<path d="M11.4584 22.7257C11.4584 21.4412 10.417 20.4014 9.13069 20.4014C7.8444 20.4014 6.80297 21.4412 6.80297 22.7257C6.80297 24.0103 7.8444 25.05 9.13069 25.05C10.417 25.05 11.4584 24.0103 11.4584 22.7257ZM8.10177 22.7257C8.10177 22.1549 8.55883 21.6984 9.13069 21.6984C9.70255 21.6984 10.1596 22.1549 10.1596 22.7257C10.1596 23.2965 9.70255 23.753 9.13069 23.753C8.55883 23.753 8.10177 23.2965 8.10177 22.7257Z" fill="white" stroke="white" stroke-width="0.1"/>
<path d="M20.7493 22.7257C20.7493 21.4412 19.7079 20.4014 18.4216 20.4014C17.1353 20.4014 16.0939 21.4412 16.0939 22.7257C16.0939 24.0103 17.1353 25.05 18.4216 25.05C19.7079 25.05 20.7493 24.0103 20.7493 22.7257ZM17.3927 22.7257C17.3927 22.1549 17.8497 21.6984 18.4216 21.6984C18.9934 21.6984 19.4505 22.1549 19.4505 22.7257C19.4505 23.2965 18.9934 23.753 18.4216 23.753C17.8497 23.753 17.3927 23.2965 17.3927 22.7257Z" fill="white" stroke="white" stroke-width="0.1"/>
</svg>
