<svg width="27" height="26" viewBox="0 0 27 26" fill="none" xmlns="http://www.w3.org/2000/svg">
<path d="M4.11597 8.93077L4.0942 8.94166L4.07699 8.95887L4.07374 8.96212C4.02936 8.98789 4.0029 9.01434 3.98428 9.03296L3.98392 9.03333L3.98392 9.03333L1.00562 12.0116L1.00562 12.0116L1.00448 12.0128C0.996209 12.021 0.978648 12.0386 0.961612 12.0608H0.944524L0.903065 12.1437C0.888977 12.1719 0.881583 12.194 0.876597 12.209L0.876312 12.2099C0.871994 12.2228 0.870091 12.2282 0.865836 12.2368L0.85 12.2684V12.3038V12.3039V12.3041V12.3042V12.3043V12.3044V12.3045V12.3046V12.3047V12.3048V12.3049V12.3051V12.3052V12.3053V12.3054V12.3055V12.3056V12.3058V12.3059V12.306V12.3061V12.3062V12.3063V12.3065V12.3066V12.3067V12.3068V12.3069V12.3071V12.3072V12.3073V12.3074V12.3075V12.3077V12.3078V12.3079V12.308V12.3082V12.3083V12.3084V12.3085V12.3086V12.3088V12.3089V12.309V12.3092V12.3093V12.3094V12.3095V12.3097V12.3098V12.3099V12.31V12.3102V12.3103V12.3104V12.3106V12.3107V12.3108V12.311V12.3111V12.3112V12.3114V12.3115V12.3116V12.3118V12.3119V12.312V12.3122V12.3123V12.3124V12.3126V12.3127V12.3128V12.313V12.3131V12.3132V12.3134V12.3135V12.3136V12.3138V12.3139V12.3141V12.3142V12.3143V12.3145V12.3146V12.3148V12.3149V12.315V12.3152V12.3153V12.3155V12.3156V12.3157V12.3159V12.316V12.3162V12.3163V12.3165V12.3166V12.3167V12.3169V12.317V12.3172V12.3173V12.3175V12.3176V12.3178V12.3179V12.318V12.3182V12.3183V12.3185V12.3186V12.3188V12.3189V12.3191V12.3192V12.3194V12.3195V12.3197V12.3198V12.32V12.3201V12.3203V12.3204V12.3206V12.3207V12.3209V12.321V12.3212V12.3213V12.3215V12.3216V12.3218V12.3219V12.3221V12.3222V12.3224V12.3225V12.3227V12.3228V12.323V12.3231V12.3233V12.3234V12.3236V12.3237V12.3239V12.3241V12.3242V12.3244V12.3245V12.3247V12.3248V12.325V12.3251V12.3253V12.3254V12.3256V12.3258V12.3259V12.3261V12.3262V12.3264V12.3265V12.3267V12.3269V12.327V12.3272V12.3273V12.3275V12.3276V12.3278V12.328V12.3281V12.3283V12.3284V12.3286V12.3288V12.3289V12.3291V12.3292V12.3294V12.3295V12.3297V12.3299V12.33V12.3302V12.3303V12.3305V12.3307V12.3308V12.331V12.3311V12.3313V12.3315V12.3316V12.3318V12.332V12.3321V12.3323V12.3324V12.3326V12.3328V12.3329V12.3331V12.3332V12.3334V12.3336V12.3337V12.3339V12.3341V12.3342V12.3344V12.3345V12.3347V12.3349V12.335V12.3352V12.3354V12.3355V12.3357V12.3358V12.336V12.3362V12.3363V12.3365V12.3367V12.3368V12.337V12.3371V12.3373V12.3375V12.3376V12.3378V12.338V12.3381V12.3383V12.3384V12.3386V12.3388V12.3389V12.3391V12.3393V12.3394V12.3396V12.3398V12.3399V12.3401V12.3402V12.3404V12.3406V12.3407V12.3409V12.3411V12.3412V12.3414V12.3416V12.3417V12.3419V12.342V12.3422V12.3424V12.3425V12.3427V12.3429V12.343V12.3432V12.3434V12.3435V12.3437V12.3438V12.344V12.3442V12.3443V12.3445V12.3447V12.3448V12.345V12.3452V12.3453V12.3455V12.3456V12.3458V12.346V12.3461V12.3463V12.3465V12.3466V12.3468V12.3469V12.3471V12.3473V12.3474V12.3476V12.3478V12.3479V12.3481V12.3482V12.3484V12.3486V12.3487V12.3489V12.349V12.3492V12.3494V12.3495V12.3497V12.3499V12.35V12.3502V12.3503V12.3505V12.3507V12.3508V12.351V12.3511V12.3513V12.3515V12.3516V12.3518V12.3519V12.3521V12.3523V12.3524V12.3526V12.3527V12.3529V12.3531V12.3532V12.3534V12.3535V12.3537V12.3539V12.354V12.3542V12.3543V12.3545V12.3546V12.3548V12.355V12.3551V12.3553V12.3554V12.3556V12.3557V12.3559V12.3561V12.3562V12.3564V12.3565V12.3567V12.3568V12.357V12.3571V12.3573V12.3575V12.3576V12.3578V12.3579V12.3581V12.3582V12.3584V12.3585V12.3587V12.3588V12.359V12.3592V12.3593V12.3595V12.3596V12.3598V12.3599V12.3601V12.3602V12.3604V12.3605V12.3607V12.3608V12.361V12.3611V12.3613V12.3614V12.3616V12.3617V12.3619V12.362V12.3622V12.3623V12.3625V12.3626V12.3628V12.3629V12.3631V12.3632V12.3634V12.3635V12.3637V12.3638V12.3639V12.3641V12.3642V12.3644V12.3645V12.3647V12.3648V12.365V12.3651V12.3652V12.3654V12.3655V12.3657V12.3658V12.366V12.3661V12.3662V12.3664V12.3665V12.3667V12.3668V12.367V12.3671V12.3672V12.3674V12.3675V12.3677V12.3678V12.3679V12.3681V12.3682V12.3683V12.3685V12.3686V12.3688V12.3689V12.369V12.3692V12.3693V12.3694V12.3696V12.3697V12.3698V12.37V12.3701V12.3702V12.3704V12.3705V12.3706V12.3708V12.3709V12.371V12.3712V12.3713V12.3714V12.3716V12.3717V12.3718V12.372V12.3721V12.3722V12.3723V12.3725V12.3726V12.3727V12.3729V12.373V12.3731V12.3732V12.3734V12.3735V12.3736V12.3737V12.3739V12.374V12.3741V12.3742V12.3744V12.3745V12.3746V12.3747V12.3748V12.375V12.3751V12.3752V12.3753V12.3754V12.3756V12.3757V12.3758V12.3759V12.376V12.3761V12.3763V12.3764V12.3765V12.3766V12.3767V12.3768V12.377V12.3771V12.3772V12.3773V12.3774V12.3775V12.3776V12.3777V12.3779V12.378V12.3781V12.3782V12.3783V25.0361C0.85 25.3237 1.08469 25.5583 1.37229 25.5583H11.7963C12.0839 25.5583 12.3186 25.3237 12.3186 25.0361V9.4C12.3186 9.1124 12.0839 8.87771 11.7963 8.87771H4.35058H4.35048H4.35037H4.35026H4.35015H4.35004H4.34993H4.34982H4.34971H4.3496H4.34949H4.34938H4.34928H4.34917H4.34906H4.34895H4.34884H4.34873H4.34862H4.34851H4.3484H4.34829H4.34818H4.34807H4.34797H4.34786H4.34775H4.34764H4.34753H4.34742H4.34731H4.3472H4.34709H4.34698H4.34687H4.34676H4.34665H4.34654H4.34643H4.34632H4.34621H4.3461H4.34599H4.34588H4.34577H4.34566H4.34555H4.34544H4.34533H4.34522H4.34511H4.345H4.34489H4.34478H4.34467H4.34456H4.34445H4.34434H4.34423H4.34412H4.34401H4.3439H4.34379H4.34368H4.34357H4.34346H4.34335H4.34324H4.34312H4.34301H4.3429H4.34279H4.34268H4.34257H4.34246H4.34235H4.34223H4.34212H4.34201H4.3419H4.34179H4.34168H4.34156H4.34145H4.34134H4.34123H4.34112H4.341H4.34089H4.34078H4.34067H4.34055H4.34044H4.34033H4.34022H4.3401H4.33999H4.33988H4.33977H4.33965H4.33954H4.33943H4.33931H4.3392H4.33909H4.33897H4.33886H4.33874H4.33863H4.33852H4.3384H4.33829H4.33817H4.33806H4.33795H4.33783H4.33772H4.3376H4.33749H4.33737H4.33726H4.33714H4.33703H4.33691H4.3368H4.33668H4.33656H4.33645H4.33633H4.33622H4.3361H4.33598H4.33587H4.33575H4.33564H4.33552H4.3354H4.33529H4.33517H4.33505H4.33493H4.33482H4.3347H4.33458H4.33446H4.33435H4.33423H4.33411H4.33399H4.33387H4.33376H4.33364H4.33352H4.3334H4.33328H4.33316H4.33304H4.33292H4.3328H4.33268H4.33257H4.33245H4.33233H4.33221H4.33209H4.33197H4.33184H4.33172H4.3316H4.33148H4.33136H4.33124H4.33112H4.331H4.33088H4.33075H4.33063H4.33051H4.33039H4.33027H4.33014H4.33002H4.3299H4.32977H4.32965H4.32953H4.32941H4.32928H4.32916H4.32903H4.32891H4.32879H4.32866H4.32854H4.32841H4.32829H4.32816H4.32804H4.32791H4.32779H4.32766H4.32754H4.32741H4.32728H4.32716H4.32703H4.3269H4.32678H4.32665H4.32652H4.3264H4.32627H4.32614H4.32601H4.32588H4.32576H4.32563H4.3255H4.32537H4.32524H4.32511H4.32498H4.32485H4.32472H4.32459H4.32446H4.32433H4.3242H4.32407H4.32394H4.32381H4.32368H4.32355H4.32342H4.32329H4.32315H4.32302H4.32289H4.32276H4.32262H4.32249H4.32236H4.32222H4.32209H4.32196H4.32182H4.32169H4.32155H4.32142H4.32129H4.32115H4.32102H4.32088H4.32074H4.32061H4.32047H4.32034H4.3202H4.32006H4.31993H4.31979H4.31965H4.31951H4.31938H4.31924H4.3191H4.31896H4.31882H4.31868H4.31855H4.31841H4.31827H4.31813H4.31799H4.31785H4.31771H4.31757H4.31742H4.31728H4.31714H4.317H4.31686H4.31672H4.31657H4.31643H4.31629H4.31615H4.316H4.31586H4.31572H4.31557H4.31543H4.31528H4.31514H4.31499H4.31485H4.3147H4.31456H4.31441H4.31427H4.31412H4.31397H4.31383H4.31368H4.31353H4.31338H4.31324H4.31309H4.31294H4.31279H4.31264H4.31249H4.31234H4.31219H4.31204H4.31189H4.31174H4.31159H4.31144H4.31129H4.31114H4.31099H4.31083H4.31068H4.31053H4.31038H4.31022H4.31007H4.30992H4.30976H4.30961H4.30945H4.3093H4.30914H4.30899H4.30883H4.30868H4.30852H4.30836H4.30821H4.30805H4.30789H4.30774H4.30758H4.30742H4.30726H4.3071H4.30694H4.30678H4.30662H4.30646H4.3063H4.30614H4.30598H4.30582H4.30566H4.3055H4.30534H4.30517H4.30501H4.30485H4.30469H4.30452H4.30436H4.30419H4.30403H4.30387H4.3037H4.30354H4.30337H4.3032H4.30304H4.30287H4.3027H4.30254H4.30237H4.3022H4.30203H4.30187H4.3017H4.30153H4.30136H4.30119H4.30102H4.30085H4.30068H4.30051H4.30034H4.30016H4.29999H4.29982H4.29965H4.29948H4.2993H4.29913H4.29896H4.29878H4.29861H4.29843H4.29826H4.29808H4.29791H4.29773H4.29755H4.29738H4.2972H4.29702H4.29684H4.29667H4.29649H4.29631H4.29613H4.29595H4.29577H4.29559H4.29541H4.29523H4.29505H4.29486H4.29468H4.2945H4.29432H4.29413H4.29395H4.29377H4.29358H4.2934H4.29321H4.29303H4.29284H4.29266H4.29247H4.29229H4.2921H4.29191H4.29172H4.29154H4.29135H4.29116H4.29097H4.29078H4.29059H4.2904H4.29021H4.29002H4.28983H4.28964H4.28944H4.28925H4.28906H4.28887H4.28867H4.28848H4.28828H4.28809H4.28789H4.2877H4.2875H4.28731H4.28711H4.28691H4.28672H4.28652H4.28632H4.28612H4.28592H4.28572H4.28552H4.28532H4.28512H4.28492H4.28472H4.28452H4.28432H4.28412H4.28391H4.28371H4.28351H4.2833H4.2831H4.28289H4.28269H4.28248H4.28228H4.28207H4.28186H4.28166H4.28145H4.28124H4.28103H4.28082H4.28062H4.28041H4.2802H4.27999H4.27977H4.27956H4.27935H4.27914H4.27893H4.27871H4.2785H4.27829H4.27807H4.27786H4.27764H4.27743H4.27721H4.277H4.27678H4.27656H4.27635H4.27613C4.22825 8.87771 4.19119 8.89084 4.16251 8.90518C4.15173 8.91057 4.14134 8.91658 4.13495 8.92027C4.1343 8.92065 4.13368 8.92101 4.13311 8.92134C4.12578 8.92557 4.12096 8.92828 4.11597 8.93077ZM2.62791 11.856L3.8283 10.6556V11.856H2.62791ZM11.274 24.5138H1.89457V12.9006H4.35058C4.63819 12.9006 4.87287 12.6659 4.87287 12.3783V9.92228H11.274V24.5138Z" fill="white" stroke="white" stroke-width="0.3"/>
<path d="M17.9647 8.93077L17.9429 8.94166L17.9257 8.95887L17.9224 8.96212C17.8781 8.98789 17.8516 9.01434 17.833 9.03296L17.8326 9.03333L17.8326 9.03333L14.8543 12.0116L14.8543 12.0116C14.8416 12.0243 14.8317 12.0373 14.8251 12.0463C14.8186 12.0553 14.8125 12.0644 14.8082 12.0709L14.8076 12.0717C14.8026 12.0792 14.7997 12.0836 14.7972 12.0871C14.7968 12.0875 14.7965 12.0879 14.7963 12.0883L14.7799 12.1047L14.7626 12.1219L14.7518 12.1437C14.7377 12.1719 14.7303 12.194 14.7253 12.209L14.725 12.2099C14.7207 12.2228 14.7188 12.2282 14.7145 12.2368L14.6987 12.2684V12.2886L14.6971 12.2936L14.6967 12.2947C14.6946 12.3009 14.6911 12.3114 14.6883 12.322C14.6867 12.3279 14.6848 12.3355 14.6832 12.344C14.6818 12.3522 14.6801 12.3642 14.6801 12.3783V25.0361C14.6801 25.3237 14.9148 25.5583 15.2024 25.5583H25.6264C25.914 25.5583 26.1487 25.3237 26.1487 25.0361V9.40621C26.1714 9.10904 25.9273 8.87771 25.645 8.87771H18.1993H18.1992H18.1991H18.1989H18.1988H18.1987H18.1986H18.1985H18.1984H18.1983H18.1982H18.1981H18.198H18.1979H18.1977H18.1976H18.1975H18.1974H18.1973H18.1972H18.1971H18.197H18.1969H18.1968H18.1967H18.1965H18.1964H18.1963H18.1962H18.1961H18.196H18.1959H18.1958H18.1957H18.1956H18.1955H18.1953H18.1952H18.1951H18.195H18.1949H18.1948H18.1947H18.1946H18.1945H18.1944H18.1942H18.1941H18.194H18.1939H18.1938H18.1937H18.1936H18.1935H18.1934H18.1933H18.1931H18.193H18.1929H18.1928H18.1927H18.1926H18.1925H18.1924H18.1923H18.1921H18.192H18.1919H18.1918H18.1917H18.1916H18.1915H18.1914H18.1913H18.1911H18.191H18.1909H18.1908H18.1907H18.1906H18.1905H18.1904H18.1903H18.1901H18.19H18.1899H18.1898H18.1897H18.1896H18.1895H18.1894H18.1892H18.1891H18.189H18.1889H18.1888H18.1887H18.1886H18.1885H18.1883H18.1882H18.1881H18.188H18.1879H18.1878H18.1877H18.1876H18.1874H18.1873H18.1872H18.1871H18.187H18.1869H18.1868H18.1866H18.1865H18.1864H18.1863H18.1862H18.1861H18.1859H18.1858H18.1857H18.1856H18.1855H18.1854H18.1853H18.1851H18.185H18.1849H18.1848H18.1847H18.1846H18.1844H18.1843H18.1842H18.1841H18.184H18.1839H18.1837H18.1836H18.1835H18.1834H18.1833H18.1832H18.183H18.1829H18.1828H18.1827H18.1826H18.1824H18.1823H18.1822H18.1821H18.182H18.1819H18.1817H18.1816H18.1815H18.1814H18.1813H18.1811H18.181H18.1809H18.1808H18.1807H18.1805H18.1804H18.1803H18.1802H18.1801H18.1799H18.1798H18.1797H18.1796H18.1794H18.1793H18.1792H18.1791H18.179H18.1788H18.1787H18.1786H18.1785H18.1783H18.1782H18.1781H18.178H18.1779H18.1777H18.1776H18.1775H18.1774H18.1772H18.1771H18.177H18.1769H18.1767H18.1766H18.1765H18.1764H18.1762H18.1761H18.176H18.1758H18.1757H18.1756H18.1755H18.1753H18.1752H18.1751H18.175H18.1748H18.1747H18.1746H18.1744H18.1743H18.1742H18.1741H18.1739H18.1738H18.1737H18.1735H18.1734H18.1733H18.1732H18.173H18.1729H18.1728H18.1726H18.1725H18.1724H18.1722H18.1721H18.172H18.1718H18.1717H18.1716H18.1714H18.1713H18.1712H18.171H18.1709H18.1708H18.1706H18.1705H18.1704H18.1702H18.1701H18.17H18.1698H18.1697H18.1696H18.1694H18.1693H18.1692H18.169H18.1689H18.1688H18.1686H18.1685H18.1683H18.1682H18.1681H18.1679H18.1678H18.1677H18.1675H18.1674H18.1672H18.1671H18.167H18.1668H18.1667H18.1665H18.1664H18.1663H18.1661H18.166H18.1658H18.1657H18.1656H18.1654H18.1653H18.1651H18.165H18.1648H18.1647H18.1646H18.1644H18.1643H18.1641H18.164H18.1638H18.1637H18.1635H18.1634H18.1632H18.1631H18.163H18.1628H18.1627H18.1625H18.1624H18.1622H18.1621H18.1619H18.1618H18.1616H18.1615H18.1613H18.1612H18.161H18.1609H18.1607H18.1606H18.1604H18.1603H18.1601H18.16H18.1598H18.1597H18.1595H18.1594H18.1592H18.1591H18.1589H18.1588H18.1586H18.1585H18.1583H18.1581H18.158H18.1578H18.1577H18.1575H18.1574H18.1572H18.1571H18.1569H18.1567H18.1566H18.1564H18.1563H18.1561H18.156H18.1558H18.1556H18.1555H18.1553H18.1552H18.155H18.1548H18.1547H18.1545H18.1544H18.1542H18.154H18.1539H18.1537H18.1535H18.1534H18.1532H18.1531H18.1529H18.1527H18.1526H18.1524H18.1522H18.1521H18.1519H18.1517H18.1516H18.1514H18.1512H18.1511H18.1509H18.1507H18.1506H18.1504H18.1502H18.1501H18.1499H18.1497H18.1495H18.1494H18.1492H18.149H18.1489H18.1487H18.1485H18.1483H18.1482H18.148H18.1478H18.1476H18.1475H18.1473H18.1471H18.1469H18.1468H18.1466H18.1464H18.1462H18.1461H18.1459H18.1457H18.1455H18.1454H18.1452H18.145H18.1448H18.1446H18.1445H18.1443H18.1441H18.1439H18.1437H18.1436H18.1434H18.1432H18.143H18.1428H18.1426H18.1425H18.1423H18.1421H18.1419H18.1417H18.1415H18.1414H18.1412H18.141H18.1408H18.1406H18.1404H18.1402H18.14H18.1399H18.1397H18.1395H18.1393H18.1391H18.1389H18.1387H18.1385H18.1383H18.1381H18.1379H18.1378H18.1376H18.1374H18.1372H18.137H18.1368H18.1366H18.1364H18.1362H18.136H18.1358H18.1356H18.1354H18.1352H18.135H18.1348H18.1346H18.1344H18.1342H18.134H18.1338H18.1336H18.1334H18.1332H18.133H18.1328H18.1326H18.1324H18.1322H18.132H18.1318H18.1316H18.1314H18.1312H18.131H18.1308H18.1306H18.1303H18.1301H18.1299H18.1297H18.1295H18.1293H18.1291H18.1289H18.1287H18.1285H18.1283H18.128H18.1278H18.1276H18.1274H18.1272H18.127H18.1268H18.1266H18.1263H18.1261H18.1259H18.1257H18.1255H18.1253H18.125H18.1248C18.0769 8.87771 18.0399 8.89084 18.0112 8.90518C18.0004 8.91057 17.99 8.91658 17.9836 8.92027C17.983 8.92066 17.9824 8.92101 17.9818 8.92134C17.9745 8.92557 17.9697 8.92828 17.9647 8.93077ZM16.4766 11.856L17.677 10.6556V11.856H16.4766ZM25.1227 24.5138H15.7433V12.9006H18.1993C18.4869 12.9006 18.7216 12.6659 18.7216 12.3783V9.92228H25.1227V24.5138Z" fill="white" stroke="white" stroke-width="0.3"/>
<path d="M13.8396 0.875034L13.8396 0.875023L13.8378 0.875275C12.4764 1.06435 11.4054 2.09644 11.1789 3.42402H7.92044C7.63284 3.42402 7.39816 3.6587 7.39816 3.9463V7.29689C7.39816 7.58449 7.63284 7.81918 7.92044 7.81918C8.20804 7.81918 8.44273 7.58449 8.44273 7.29689V4.46859H11.1614C11.4548 6.11769 12.9825 7.24521 14.6586 7.01764C16.0248 6.86502 17.0945 5.83017 17.3369 4.48721H20.0559V7.3155C20.0559 7.6031 20.2906 7.83779 20.5782 7.83779C20.8658 7.83779 21.1005 7.6031 21.1005 7.3155V3.96492C21.1005 3.67732 20.8658 3.44263 20.5782 3.44263H17.3372C17.0427 1.79237 15.4967 0.66552 13.8396 0.875034ZM14.2493 6.04864C13.1036 6.04864 12.1656 5.11062 12.1656 3.96492C12.1656 2.81921 13.1036 1.88119 14.2493 1.88119C15.395 1.88119 16.333 2.81921 16.333 3.96492C16.333 5.11062 15.395 6.04864 14.2493 6.04864Z" fill="white" stroke="white" stroke-width="0.3"/>
</svg>
