<?xml version="1.0" encoding="utf-8"?>
<!-- Generator: Adobe Illustrator 16.0.0, SVG Export Plug-In . SVG Version: 6.00 Build 0)  -->
<!DOCTYPE svg PUBLIC "-//W3C//DTD SVG 1.1//EN" "http://www.w3.org/Graphics/SVG/1.1/DTD/svg11.dtd">
<svg version="1.1" id="Layer_1" xmlns="http://www.w3.org/2000/svg" xmlns:xlink="http://www.w3.org/1999/xlink" x="0px" y="0px"
	 width="650px" height="1235px" viewBox="292.5 0 650 1235" enable-background="new 292.5 0 650 1235" xml:space="preserve">
<rect x="292.5" fill="#B22234" width="650" height="1235"/>
<path stroke="#FFFFFF" stroke-width="50" d="M867.5,0v1235 M767.5,1235V0 M667.5,0v1235 M567.5,1235V0 M467.5,0v1235 M367.5,1235V0"
	/>
<rect x="592.5" fill="#3C3B6E" width="350" height="494"/>
<g>
	<g>
		<g>
			<g id="s5">
				<g id="s4">
					<path id="s" fill="#FFFFFF" d="M927.5,41.167l-36.18,11.756l22.36-30.777v38.042l-22.36-30.777L927.5,41.167z"/>
					<g>
						<path id="s_1_" fill="#FFFFFF" d="M857.5,41.167l-36.18,11.756l22.36-30.777v38.042l-22.36-30.777L857.5,41.167z"/>
					</g>
					<g>
						<path id="s_2_" fill="#FFFFFF" d="M787.5,41.167l-36.18,11.756l22.36-30.777v38.042l-22.36-30.777L787.5,41.167z"/>
					</g>
					<g>
						<path id="s_3_" fill="#FFFFFF" d="M717.5,41.167l-36.18,11.756l22.36-30.777v38.042l-22.36-30.777L717.5,41.167z"/>
					</g>
				</g>
				<g>
					<path id="s_4_" fill="#FFFFFF" d="M647.5,41.167l-36.18,11.756l22.36-30.777v38.042l-22.36-30.777L647.5,41.167z"/>
				</g>
			</g>
			<g id="s9">
				<g id="s4_1_">
					<path id="s_5_" fill="#FFFFFF" d="M892.5,82.333l-36.18,11.755l22.36-30.777v38.042l-22.36-30.777L892.5,82.333z"/>
					<g>
						<path id="s_6_" fill="#FFFFFF" d="M822.5,82.333l-36.18,11.755l22.36-30.777v38.042l-22.36-30.777L822.5,82.333z"/>
					</g>
					<g>
						<path id="s_7_" fill="#FFFFFF" d="M752.5,82.333l-36.18,11.755l22.36-30.777v38.042l-22.36-30.777L752.5,82.333z"/>
					</g>
					<g>
						<path id="s_8_" fill="#FFFFFF" d="M682.5,82.333l-36.18,11.755l22.36-30.777v38.042l-22.36-30.777L682.5,82.333z"/>
					</g>
				</g>
			</g>
			<g>
				<g id="s18">
					<g id="s5_1_">
						<g id="s4_2_">
							<path id="s_9_" fill="#FFFFFF" d="M927.5,123.5l-36.18,11.756l22.36-30.777v38.042l-22.36-30.777L927.5,123.5z"/>
							<g>
								<path id="s_10_" fill="#FFFFFF" d="M857.5,123.5l-36.18,11.756l22.36-30.777v38.042l-22.36-30.777L857.5,123.5z"/>
							</g>
							<g>
								<path id="s_11_" fill="#FFFFFF" d="M787.5,123.5l-36.18,11.756l22.36-30.777v38.042l-22.36-30.777L787.5,123.5z"/>
							</g>
							<g>
								<path id="s_12_" fill="#FFFFFF" d="M717.5,123.5l-36.18,11.756l22.36-30.777v38.042l-22.36-30.777L717.5,123.5z"/>
							</g>
						</g>
						<g>
							<path id="s_13_" fill="#FFFFFF" d="M647.5,123.5l-36.18,11.756l22.36-30.777v38.042l-22.36-30.777L647.5,123.5z"/>
						</g>
					</g>
					<g id="s9_1_">
						<g id="s4_3_">
							<path id="s_14_" fill="#FFFFFF" d="M892.5,164.667l-36.18,11.756l22.36-30.777v38.042l-22.36-30.777L892.5,164.667z"/>
							<g>
								<path id="s_15_" fill="#FFFFFF" d="M822.5,164.667l-36.18,11.756l22.36-30.777v38.042l-22.36-30.777L822.5,164.667z"/>
							</g>
							<g>
								<path id="s_16_" fill="#FFFFFF" d="M752.5,164.667l-36.18,11.756l22.36-30.777v38.042l-22.36-30.777L752.5,164.667z"/>
							</g>
							<g>
								<path id="s_17_" fill="#FFFFFF" d="M682.5,164.667l-36.18,11.756l22.36-30.777v38.042l-22.36-30.777L682.5,164.667z"/>
							</g>
						</g>
					</g>
				</g>
				<g>
					<g>
						<g>
							<g id="s5_2_">
								<g id="s4_4_">
									<path id="s_18_" fill="#FFFFFF" d="M927.5,205.833l-36.18,11.755l22.36-30.777v38.042l-22.36-30.777L927.5,205.833z"/>
									<g>
										<path id="s_19_" fill="#FFFFFF" d="M857.5,205.833l-36.18,11.755l22.36-30.777v38.042l-22.36-30.777L857.5,205.833z"/>
									</g>
									<g>
										<path id="s_20_" fill="#FFFFFF" d="M787.5,205.833l-36.18,11.755l22.36-30.777v38.042l-22.36-30.777L787.5,205.833z"/>
									</g>
									<g>
										<path id="s_21_" fill="#FFFFFF" d="M717.5,205.833l-36.18,11.755l22.36-30.777v38.042l-22.36-30.777L717.5,205.833z"/>
									</g>
								</g>
								<g>
									<path id="s_22_" fill="#FFFFFF" d="M647.5,205.833l-36.18,11.755l22.36-30.777v38.042l-22.36-30.777L647.5,205.833z"/>
								</g>
							</g>
							<g id="s9_2_">
								<g id="s4_5_">
									<path id="s_23_" fill="#FFFFFF" d="M892.5,247l-36.18,11.756l22.36-30.777l-0.001,38.042l-22.359-30.777L892.5,247z"/>
									<g>
										<path id="s_24_" fill="#FFFFFF" d="M822.5,247l-36.18,11.756l22.36-30.777v38.042l-22.36-30.777L822.5,247z"/>
									</g>
									<g>
										<path id="s_25_" fill="#FFFFFF" d="M752.5,247l-36.18,11.756l22.36-30.777v38.042l-22.36-30.777L752.5,247z"/>
									</g>
									<g>
										<path id="s_26_" fill="#FFFFFF" d="M682.5,247l-36.18,11.756l22.36-30.777v38.042l-22.36-30.777L682.5,247z"/>
									</g>
								</g>
							</g>
							<g>
								<g id="s18_1_">
									<g id="s5_3_">
										<g id="s4_6_">
											<path id="s_27_" fill="#FFFFFF" d="M927.5,288.167l-36.18,11.756l22.359-30.777v38.042l-22.359-30.776L927.5,288.167z"/>
											<g>
												<path id="s_28_" fill="#FFFFFF" d="M857.5,288.167l-36.18,11.756l22.36-30.777v38.042l-22.36-30.776L857.5,288.167z"/>
											</g>
											<g>
												<path id="s_29_" fill="#FFFFFF" d="M787.5,288.167l-36.18,11.756l22.36-30.777v38.042l-22.36-30.776L787.5,288.167z"/>
											</g>
											<g>
												<path id="s_30_" fill="#FFFFFF" d="M717.5,288.167l-36.18,11.756l22.36-30.777v38.042l-22.36-30.776L717.5,288.167z"/>
											</g>
										</g>
										<g>
											<path id="s_31_" fill="#FFFFFF" d="M647.5,288.167l-36.18,11.756l22.36-30.777v38.042l-22.36-30.776L647.5,288.167z"/>
										</g>
									</g>
									<g id="s9_3_">
										<g id="s4_7_">
											<path id="s_32_" fill="#FFFFFF" d="M892.5,329.333l-36.18,11.756l22.359-30.776v38.042l-22.359-30.776L892.5,329.333z"/>
											<g>
												<path id="s_33_" fill="#FFFFFF" d="M822.5,329.333l-36.18,11.756l22.36-30.776v38.042l-22.36-30.776L822.5,329.333z"/>
											</g>
											<g>
												<path id="s_34_" fill="#FFFFFF" d="M752.5,329.333l-36.18,11.756l22.36-30.776v38.042l-22.36-30.776L752.5,329.333z"/>
											</g>
											<g>
												<path id="s_35_" fill="#FFFFFF" d="M682.5,329.333l-36.18,11.756l22.36-30.776v38.042l-22.36-30.776L682.5,329.333z"/>
											</g>
										</g>
									</g>
								</g>
								<g>
									<g>
										<g id="s5_4_">
											<g id="s4_8_">
												<path id="s_36_" fill="#FFFFFF" d="M927.5,370.5l-36.18,11.756l22.359-30.777v38.043l-22.359-30.777L927.5,370.5z"/>
												<g>
													<path id="s_37_" fill="#FFFFFF" d="M857.5,370.5l-36.18,11.756l22.36-30.777v38.043l-22.36-30.777L857.5,370.5z"/>
												</g>
												<g>
													<path id="s_38_" fill="#FFFFFF" d="M787.5,370.5l-36.18,11.756l22.36-30.777v38.043l-22.36-30.777L787.5,370.5z"/>
												</g>
												<g>
													<path id="s_39_" fill="#FFFFFF" d="M717.5,370.5l-36.18,11.756l22.36-30.777v38.043l-22.36-30.777L717.5,370.5z"/>
												</g>
											</g>
											<g>
												<path id="s_40_" fill="#FFFFFF" d="M647.5,370.5l-36.18,11.756l22.36-30.777v38.043l-22.36-30.777L647.5,370.5z"/>
											</g>
										</g>
										<g id="s9_4_">
											<g id="s4_9_">
												<path id="s_41_" fill="#FFFFFF" d="M892.5,411.667l-36.18,11.756l22.359-30.777v38.042l-22.359-30.776L892.5,411.667z"
													/>
												<g>
													<path id="s_42_" fill="#FFFFFF" d="M822.5,411.667l-36.18,11.756l22.36-30.777v38.042l-22.36-30.776L822.5,411.667z"/>
												</g>
												<g>
													<path id="s_43_" fill="#FFFFFF" d="M752.5,411.667l-36.18,11.756l22.36-30.777v38.042l-22.36-30.776L752.5,411.667z"/>
												</g>
												<g>
													<path id="s_44_" fill="#FFFFFF" d="M682.5,411.667l-36.18,11.756l22.36-30.777v38.042l-22.36-30.776L682.5,411.667z"/>
												</g>
											</g>
										</g>
										<g>
											<g id="s5_5_">
												<g id="s4_10_">
													<path id="s_45_" fill="#FFFFFF" d="M927.5,452.833l-36.18,11.756l22.359-30.776v38.042l-22.359-30.776L927.5,452.833z"
														/>
													<g>
														<path id="s_46_" fill="#FFFFFF" d="M857.5,452.833l-36.18,11.756l22.36-30.776l-0.001,38.042l-22.359-30.776
															L857.5,452.833z"/>
													</g>
													<g>
														<path id="s_47_" fill="#FFFFFF" d="M787.5,452.833l-36.18,11.756l22.36-30.776l-0.001,38.042l-22.359-30.776
															L787.5,452.833z"/>
													</g>
													<g>
														<path id="s_48_" fill="#FFFFFF" d="M717.5,452.833l-36.18,11.756l22.36-30.776v38.042l-22.36-30.776L717.5,452.833z"
															/>
													</g>
												</g>
												<g>
													<path id="s_49_" fill="#FFFFFF" d="M647.5,452.833l-36.18,11.756l22.36-30.776v38.042l-22.36-30.776L647.5,452.833z"/>
												</g>
											</g>
										</g>
									</g>
								</g>
							</g>
						</g>
					</g>
				</g>
			</g>
		</g>
	</g>
</g>
</svg>
