<?xml version="1.0" encoding="utf-8"?>
<!-- Generator: Adobe Illustrator 16.0.4, SVG Export Plug-In . SVG Version: 6.00 Build 0)  -->
<!DOCTYPE svg PUBLIC "-//W3C//DTD SVG 1.1//EN" "http://www.w3.org/Graphics/SVG/1.1/DTD/svg11.dtd">
<svg version="1.1" id="Layer_1" xmlns="http://www.w3.org/2000/svg" xmlns:xlink="http://www.w3.org/1999/xlink" x="0px" y="0px"
	 width="500px" height="500px" viewBox="0 0 500 500" enable-background="new 0 0 500 500" xml:space="preserve">
<g>
	<g>
		<path fill="#FFFFFF" d="M250.132,19.916c-99.412,0-180,80.588-180,180s80.588,180,180,180c99.416,0,179.977-80.588,179.977-180
			S349.548,19.916,250.132,19.916z M291.084,324.74c-11.42,4.5-16.389,3.092-23.204,5.451c-6.808,2.369-14.72,3.553-23.716,3.553
			c-13.856,0-24.616-3.389-32.288-10.128c-7.68-6.757-16.008-15.324-16.008-25.716c0-0.492-1.112-20.108,5.344-33.512l19.844-46.409
			c1.272-4.848,2.348-9.432,3.212-13.756c0.864-4.332,1.292-4.824,1.292-8.404c0-6.46-4.092-10.968-6.752-13.496
			c-2.668-2.544-13.988-3.82-21.524-3.82c-3.688,0-7.488,0.584-11.364,1.728c-3.88,1.156-8.056,2.256-10.832,3.296l1.048-19.048
			c9.364-3.812,28.164-9.148,36.724-11.864c8.548-2.7,16.628-4.068,24.26-4.068c13.756,0,27.788,3.324,35.239,9.96
			c7.437,6.632,16.717,17.344,16.717,27.964c0,2.188-0.26,6.048-0.784,11.596c-0.508,5.544-1.46,10.628-2.853,15.236l-23.203,46.219
			c-1.168,4.057-2.213,8.66-3.133,13.86c-0.92,5.196-1.383,15.968-1.383,18.624c0,6.696,1.491,11.256,4.495,13.68
			c2.996,2.429,6.112,6.408,13.488,6.408c9.996,0,9.392,1.676,19.176-2.939L291.084,324.74z M290.82,116.784
			c-6.221,5.772-13.7,9.964-22.444,9.964c-8.76,0-16.272-4.192-22.548-9.964c-6.264-5.788-9.396-13.428-9.396-21.644
			c0-8.216,3.132-15.888,9.396-21.728c6.275-5.832,13.788-9.4,22.548-9.4c8.748,0,16.228,2.916,22.444,8.756
			c6.22,5.836,9.304,14.156,9.304,22.372C300.124,103.356,297.04,110.996,290.82,116.784z"/>
	</g>
</g>
</svg>
