<?xml version="1.0" encoding="utf-8"?>
<!-- Generator: Adobe Illustrator 16.0.0, SVG Export Plug-In . SVG Version: 6.00 Build 0)  -->
<!DOCTYPE svg PUBLIC "-//W3C//DTD SVG 1.1//EN" "http://www.w3.org/Graphics/SVG/1.1/DTD/svg11.dtd">
<svg version="1.1" id="Layer_1" xmlns="http://www.w3.org/2000/svg" xmlns:xlink="http://www.w3.org/1999/xlink" x="0px" y="0px"
	 width="30px" height="30px" viewBox="0 0 30 30" enable-background="new 0 0 30 30" xml:space="preserve">
<g>
	<path fill="#E2CFE6" d="M13.509,24.986c-0.007,0-0.013,0-0.02,0H5.291c-0.141,0-0.275-0.06-0.37-0.164
		c-0.094-0.104-0.14-0.244-0.126-0.384l1.571-15.84c0.026-0.255,0.24-0.45,0.496-0.45h5.056c0.256,0,0.47,0.195,0.495,0.45
		l1.559,15.705c0.023,0.057,0.036,0.12,0.036,0.185C14.007,24.763,13.785,24.986,13.509,24.986z M5.84,23.989h7.099L11.467,9.145
		H7.313L5.84,23.989z"/>
	<path fill="#E2CFE6" d="M25.273,24.986h-11.24c-0.275,0-0.498-0.223-0.498-0.498s0.223-0.498,0.498-0.498h10.742v-6.923H13.195
		c-0.275,0-0.498-0.224-0.498-0.5c0-0.274,0.223-0.498,0.498-0.498h12.079c0.276,0,0.498,0.224,0.498,0.498v7.921
		C25.771,24.764,25.55,24.986,25.273,24.986z"/>
	<path fill="#E2CFE6" d="M19.84,7.918c-0.902,0-1.834-0.236-2.733-0.462c-0.554-0.14-1.126-0.284-1.684-0.372
		c-0.301-0.048-0.616-0.071-0.937-0.071c-0.935,0-1.623,0.205-1.63,0.207c-0.193,0.057-0.402-0.006-0.53-0.162
		c-0.127-0.156-0.149-0.373-0.054-0.55c0.042-0.08,1.055-1.939,2.994-2.766c0.66-0.283,1.312-0.42,1.985-0.42
		c1.207,0,2.374,0.456,3.464,0.923c0.4,0.172,0.82,0.257,1.248,0.257c0.842,0,1.445-0.337,1.451-0.341
		c0.18-0.104,0.406-0.084,0.566,0.05c0.158,0.132,0.222,0.349,0.152,0.544c-0.027,0.082-0.713,2.007-2.63,2.839
		C20.998,7.812,20.454,7.918,19.84,7.918z M14.486,6.018c0.373,0,0.739,0.027,1.091,0.082c0.604,0.095,1.197,0.245,1.773,0.391
		c1.417,0.358,2.761,0.62,3.757,0.188c0.689-0.298,1.182-0.786,1.514-1.232c-0.687,0.108-1.554,0.03-2.298-0.286
		c-1.924-0.822-3.217-1.12-4.666-0.502C14.86,5,14.244,5.562,13.82,6.047C14.025,6.027,14.248,6.018,14.486,6.018z"/>
</g>
</svg>
