<?xml version="1.0" encoding="UTF-8" standalone="no"?>
<svg width="20px" height="20px" viewBox="0 0 20 20" version="1.1" xmlns="http://www.w3.org/2000/svg" xmlns:xlink="http://www.w3.org/1999/xlink">
    <!-- Generator: Sketch 41 (35326) - http://www.bohemiancoding.com/sketch -->
    <title>Combined-Shape</title>
    <desc>Created with Sketch.</desc>
    <defs></defs>
    <g id="Page-1" stroke="none" stroke-width="1" fill="none" fill-rule="evenodd">
        <g id="search_w" fill="#FFFFFF">
            <path d="M5.88204675,13.1077066 L0.638279505,18.3476056 C0.280304832,18.7055803 0.280304832,19.2859719 0.638279505,19.6439465 C0.99625418,20.0019212 1.5766458,20.0019212 1.93462047,19.6439465 L7.28677764,14.2957376 C8.51743579,15.1093651 9.99252786,15.5830753 11.5782609,15.5830753 C15.8814083,15.5830753 19.3697985,12.0946851 19.3697985,7.79153763 C19.3697985,3.48839022 15.8814083,0 11.5782609,0 C7.27511346,0 3.78672323,3.48839022 3.78672323,7.79153763 C3.78672323,9.84644101 4.58221454,11.7155475 5.88204675,13.1077066 Z M11.5782609,13.6664238 C8.33365084,13.6664238 5.70337472,11.0361477 5.70337472,7.79153763 C5.70337472,4.54692761 8.33365084,1.91665149 11.5782609,1.91665149 C14.8228709,1.91665149 17.453147,4.54692761 17.453147,7.79153763 C17.453147,11.0361477 14.8228709,13.6664238 11.5782609,13.6664238 Z" id="Combined-Shape" transform="translate(9.869799, 9.956214) scale(-1, 1) translate(-9.869799, -9.956214) "></path>
        </g>
    </g>
</svg>