<?xml version="1.0" encoding="utf-8"?>
<!-- Generator: Adobe Illustrator 16.0.0, SVG Export Plug-In . SVG Version: 6.00 Build 0)  -->
<!DOCTYPE svg PUBLIC "-//W3C//DTD SVG 1.1//EN" "http://www.w3.org/Graphics/SVG/1.1/DTD/svg11.dtd">
<svg version="1.1" xmlns="http://www.w3.org/2000/svg" xmlns:xlink="http://www.w3.org/1999/xlink" x="0px" y="0px"
	 width="61.534px" height="60.064px" viewBox="-317.034 822.411 61.534 60.064"
	 enable-background="new -317.034 822.411 61.534 60.064" xml:space="preserve">
<g id="Layer_1">
</g>
<g id="Layer_2">
	<path fill="none" stroke="#FFFFFF" stroke-width="2" stroke-linecap="round" stroke-linejoin="round" stroke-miterlimit="10" d="
		M-264.072,856.964c-3.909,9.708-9.958,18.413-16.769,18.413c-1.961,0-1.835-1.359-5.294-1.351c-3.979,0.01-2.851,1.293-4.534,1.293
		c-8.029,0-12.541-6.642-17.076-18.254c-2.554-6.539,1.685-18.41,6.633-22.64c3.288-2.811,5.417-3.123,9.874-2.495
		c1.213,0.171,4.05,0.981,5.103,0.981c1.125,0,4.253-0.851,5.313-0.978c4.376-0.524,6.409-0.284,9.642,2.473
		C-266.218,838.637-261.445,850.441-264.072,856.964z"/>
	<path fill="none" stroke="#FFFFFF" stroke-width="2" stroke-linecap="round" stroke-linejoin="round" stroke-miterlimit="10" d="
		M-292.043,836.786c0,0,1.777,2.625,6.125,2.625c4.361,0,6.125-2.625,6.125-2.625"/>
	<path fill="none" stroke="#FFFFFF" stroke-width="2" stroke-linecap="round" stroke-linejoin="round" stroke-miterlimit="10" d="
		M-288.391,826.412c0,0,1.688,1.687,2.473,3.833c1.946,5.321,0,9.166,0,9.166"/>
</g>
</svg>
