<?xml version="1.0" encoding="utf-8"?>
<!-- Generator: Adobe Illustrator 16.0.0, SVG Export Plug-In . SVG Version: 6.00 Build 0)  -->
<!DOCTYPE svg PUBLIC "-//W3C//DTD SVG 1.1//EN" "http://www.w3.org/Graphics/SVG/1.1/DTD/svg11.dtd">
<svg version="1.1" id="Layer_1" xmlns="http://www.w3.org/2000/svg" xmlns:xlink="http://www.w3.org/1999/xlink" x="0px" y="0px"
	 width="30px" height="30px" viewBox="0 0 30 30" enable-background="new 0 0 30 30" xml:space="preserve">
<path fill="#879BF5" d="M14.957,7.664c-1.953,0-3.542,1.589-3.542,3.542c0,1.954,1.589,3.544,3.542,3.544
	c1.954,0,3.544-1.59,3.544-3.544C18.501,9.252,16.911,7.664,14.957,7.664z M14.957,13.598c-1.319,0-2.393-1.072-2.393-2.393
	c0-1.318,1.074-2.392,2.393-2.392c1.319,0,2.392,1.074,2.392,2.392C17.349,12.525,16.276,13.598,14.957,13.598z M23.374,11.74
	c0-4.64-3.775-8.416-8.417-8.416c-4.641,0-8.417,3.776-8.417,8.416c0,1.217,0.32,2.588,0.864,3.729
	c1.33,3.299,7.046,11.908,7.29,12.275l0.497,0.745l0.471-0.763c0.227-0.363,5.528-8.948,6.83-12.253
	c0.039-0.078,0.077-0.156,0.113-0.236c0,0,0.238-0.577,0.267-0.657C23.121,13.971,23.374,13.156,23.374,11.74z M21.824,14.103
	l-0.433,1.026c-1.088,2.693-4.895,9.02-6.235,11.22c-1.448-2.209-5.624-8.679-6.698-11.343c-0.488-1.024-0.768-2.214-0.768-3.267
	c0-4.005,3.259-7.265,7.266-7.265c4.006,0,7.267,3.26,7.267,7.265C22.224,12.911,22.037,13.565,21.824,14.103z"/>
</svg>
