<?xml version="1.0" encoding="utf-8"?>
<!-- Generator: Adobe Illustrator 16.0.0, SVG Export Plug-In . SVG Version: 6.00 Build 0)  -->
<!DOCTYPE svg PUBLIC "-//W3C//DTD SVG 1.1//EN" "http://www.w3.org/Graphics/SVG/1.1/DTD/svg11.dtd">
<svg version="1.1" id="Layer_2" xmlns="http://www.w3.org/2000/svg" xmlns:xlink="http://www.w3.org/1999/xlink" x="0px" y="0px"
	 width="957.25px" height="956.588px" viewBox="0 0 957.25 956.588" enable-background="new 0 0 957.25 956.588"
	 xml:space="preserve">
<line fill="none" stroke="#FFFFFF" stroke-width="31" stroke-linecap="round" stroke-linejoin="round" stroke-miterlimit="10" x1="835.625" y1="860.25" x2="121.625" y2="860.25"/>
<polyline fill="none" stroke="#FFFFFF" stroke-width="31" stroke-linecap="round" stroke-linejoin="round" stroke-miterlimit="10" points="
	188.125,260.75 188.125,140.25 903.125,140.25 903.125,140.25 "/>
<path fill="none" stroke="#FFFFFF" stroke-width="31" stroke-linecap="round" stroke-linejoin="round" stroke-miterlimit="10" d="
	M188.125,784.024c0,0,0.044,75.35-67,75.35s-67-75.35-67-75.35V261.25h134V784.024z"/>
<path fill="none" stroke="#FFFFFF" stroke-width="31" stroke-linecap="round" stroke-linejoin="round" stroke-miterlimit="10" d="
	M903.125,140.75v643.274c0,0,0.018,75.7-67.026,75.7"/>
<line fill="none" stroke="#FFFFFF" stroke-width="31" stroke-linecap="round" stroke-linejoin="round" stroke-miterlimit="10" x1="285.954" y1="251.408" x2="806.367" y2="251.408"/>
<g>
	
		<line fill="none" stroke="#FFFFFF" stroke-width="31" stroke-linecap="round" stroke-linejoin="round" stroke-miterlimit="10" x1="596.099" y1="555.858" x2="806.367" y2="555.858"/>
	
		<line fill="none" stroke="#FFFFFF" stroke-width="31" stroke-linecap="round" stroke-linejoin="round" stroke-miterlimit="10" x1="285.954" y1="555.858" x2="496.222" y2="555.858"/>
</g>
<g>
	
		<line fill="none" stroke="#FFFFFF" stroke-width="31" stroke-linecap="round" stroke-linejoin="round" stroke-miterlimit="10" x1="596.099" y1="649.385" x2="806.367" y2="649.385"/>
	
		<line fill="none" stroke="#FFFFFF" stroke-width="31" stroke-linecap="round" stroke-linejoin="round" stroke-miterlimit="10" x1="285.954" y1="649.385" x2="496.222" y2="649.385"/>
</g>
<g>
	
		<line fill="none" stroke="#FFFFFF" stroke-width="31" stroke-linecap="round" stroke-linejoin="round" stroke-miterlimit="10" x1="596.099" y1="742.909" x2="806.367" y2="742.909"/>
	
		<line fill="none" stroke="#FFFFFF" stroke-width="31" stroke-linecap="round" stroke-linejoin="round" stroke-miterlimit="10" x1="285.954" y1="742.909" x2="496.222" y2="742.909"/>
</g>
<rect x="285.954" y="349.314" fill="none" stroke="#FFFFFF" stroke-width="31" stroke-linecap="round" stroke-linejoin="round" stroke-miterlimit="10" width="520.413" height="113.019"/>
</svg>
