<?xml version="1.0" encoding="utf-8"?>
<!-- Generator: Adobe Illustrator 16.0.0, SVG Export Plug-In . SVG Version: 6.00 Build 0)  -->
<!DOCTYPE svg PUBLIC "-//W3C//DTD SVG 1.1//EN" "http://www.w3.org/Graphics/SVG/1.1/DTD/svg11.dtd">
<svg version="1.1" id="Layer_1" xmlns="http://www.w3.org/2000/svg" xmlns:xlink="http://www.w3.org/1999/xlink" x="0px" y="0px"
	 width="30px" height="30px" viewBox="0 0 30 30" enable-background="new 0 0 30 30" xml:space="preserve">
<path fill="#EF7760" d="M21.966,6.773c-1.151-0.983-2.059-1.349-3.34-1.349c-0.392,0-0.834,0.031-1.436,0.105
	c-0.2,0.021-0.556,0.097-0.946,0.184c-0.153,0.034-0.323,0.071-0.494,0.107c-0.062-0.387-0.147-0.782-0.294-1.184
	c-0.393-1.074-1.21-1.899-1.245-1.932c-0.215-0.216-0.564-0.216-0.779,0c-0.217,0.212-0.217,0.564-0.002,0.779
	c0.007,0.008,0.683,0.694,0.989,1.531c0.114,0.313,0.185,0.623,0.236,0.928c-0.285-0.04-0.72-0.138-1.063-0.218
	c-0.377-0.085-0.73-0.166-0.959-0.196c-0.631-0.089-1.1-0.13-1.521-0.13c-1.28,0-2.194,0.375-3.373,1.382
	c-2.417,2.066-4.378,7.694-3.149,10.84c2.013,5.155,4.181,8.59,8.221,8.59c0.47,0,0.698-0.164,0.892-0.337
	c0.116-0.101,0.277-0.243,1.172-0.245c0.737,0,1.006,0.145,1.287,0.301c0.264,0.144,0.564,0.309,1.085,0.309
	c4.146,0,7.034-6.054,8.083-8.657C26.646,14.316,24.234,8.705,21.966,6.773z M24.304,17.168c-2.007,4.986-4.646,7.965-7.057,7.965
	c-0.237,0-0.344-0.058-0.556-0.173c-0.336-0.187-0.797-0.438-1.835-0.438c-1.196,0.004-1.575,0.25-1.884,0.523l-0.161,0.062
	c-2.998,0-4.946-2.14-7.192-7.889c-1.062-2.719,0.727-7.793,2.839-9.6c0.977-0.833,1.646-1.114,2.654-1.114
	c0.361,0,0.796,0.035,1.366,0.116c0.208,0.03,0.527,0.104,0.865,0.183c0.623,0.142,1.068,0.236,1.389,0.258
	c-0.029,1.21-0.383,2.122-0.421,2.207c-1.14-0.193-1.635-0.848-1.665-0.89c-0.172-0.249-0.514-0.313-0.766-0.142
	s-0.318,0.514-0.146,0.768c0.039,0.059,0.991,1.428,3.221,1.428c2.237,0,3.186-1.369,3.225-1.431c0.168-0.25,0.101-0.589-0.147-0.76
	c-0.25-0.17-0.591-0.108-0.768,0.14c-0.023,0.034-0.546,0.745-1.79,0.909c0.16-0.501,0.355-1.354,0.36-2.357
	c0.197-0.04,0.408-0.085,0.646-0.138c0.345-0.079,0.663-0.148,0.839-0.17c0.56-0.067,0.96-0.096,1.306-0.096
	c1.009,0,1.673,0.273,2.624,1.085C23.447,9.486,25.36,14.551,24.304,17.168z"/>
</svg>
