<?xml version="1.0" encoding="utf-8"?>
<!-- Generator: Adobe Illustrator 16.0.4, SVG Export Plug-In . SVG Version: 6.00 Build 0)  -->
<!DOCTYPE svg PUBLIC "-//W3C//DTD SVG 1.1//EN" "http://www.w3.org/Graphics/SVG/1.1/DTD/svg11.dtd">
<svg version="1.1" id="Layer_1" xmlns="http://www.w3.org/2000/svg" xmlns:xlink="http://www.w3.org/1999/xlink" x="0px" y="0px"
	 width="61.535px" height="60.064px" viewBox="0 0 61.535 60.064" enable-background="new 0 0 61.535 60.064" xml:space="preserve">
<g id="Layer_1_1_">
</g>
<g id="Layer_2">
	<path fill="none" stroke="#69061A" stroke-width="2" stroke-linecap="round" stroke-linejoin="round" stroke-miterlimit="10" d="
		M51.847,36.069c-3.909,9.708-9.958,18.413-16.769,18.413c-1.961,0-1.835-1.359-5.294-1.351c-3.979,0.01-2.852,1.293-4.534,1.293
		c-8.029,0-12.541-6.644-17.076-18.254c-2.554-6.539,1.685-18.41,6.633-22.642c3.288-2.811,5.417-3.123,9.874-2.495
		c1.213,0.171,4.05,0.981,5.104,0.981c1.125,0,4.253-0.853,5.312-0.979c4.376-0.522,6.409-0.282,9.642,2.475
		C49.701,17.741,54.474,29.547,51.847,36.069z"/>
	<path fill="none" stroke="#69061A" stroke-width="2" stroke-linecap="round" stroke-linejoin="round" stroke-miterlimit="10" d="
		M23.876,15.891c0,0,1.776,2.625,6.125,2.625c4.36,0,6.125-2.625,6.125-2.625"/>
	<path fill="none" stroke="#69061A" stroke-width="2" stroke-linecap="round" stroke-linejoin="round" stroke-miterlimit="10" d="
		M27.527,5.517c0,0,1.688,1.687,2.474,3.833c1.945,5.321,0,9.166,0,9.166"/>
</g>
</svg>
