<?xml version="1.0" encoding="UTF-8" standalone="no"?>
<svg width="17px" height="13px" viewBox="0 0 17 13" version="1.1" xmlns="http://www.w3.org/2000/svg" xmlns:xlink="http://www.w3.org/1999/xlink">
    <!-- Generator: Sketch 39.1 (31720) - http://www.bohemiancoding.com/sketch -->
    <title>Group 24</title>
    <desc>Created with Sketch.</desc>
    <defs></defs>
    <g id="Page-1" stroke="none" stroke-width="1" fill="none" fill-rule="evenodd">
        <g id="4-comparison-on-scroll" transform="translate(-797.000000, -11.000000)">
            <g id="Group-24" transform="translate(797.000000, 11.000000)">
                <g id="photo-gallery" fill="#D4816D">
                    <path d="M14.2256739,2.457 L14.2256739,0.146791667 L0.335380435,0.146791667 L0.335380435,10.5424583 L2.40420652,10.5424583 L2.40420652,12.8526667 L16.2945,12.8526667 L16.2945,2.457 L14.2256739,2.457 L14.2256739,2.457 Z M0.926869565,9.96558333 L0.926869565,0.72475 L13.6347391,0.72475 L13.6347391,2.45754167 L2.40420652,2.45754167 L2.40420652,9.96558333 L0.926315217,9.96558333 L0.926869565,9.96558333 Z M15.7035652,12.2757917 L2.99569565,12.2757917 L2.99569565,3.03495833 L15.7035652,3.03495833 L15.7035652,12.2757917 L15.7035652,12.2757917 Z" id="Shape"></path>
                </g>
                <g id="Group-3" transform="translate(7.391304, 5.777778)" stroke="#FFFFFF" stroke-linecap="round">
                    <path d="M0,0 L3.658509,3.57481762" id="Line"></path>
                    <path d="M-2.87325719e-13,0 L3.658509,3.57481762" id="Line-Copy" transform="translate(1.829254, 1.787409) scale(-1, 1) translate(-1.829254, -1.787409) "></path>
                </g>
            </g>
        </g>
    </g>
</svg>