<?xml version="1.0" encoding="utf-8"?>
<!-- Generator: Adobe Illustrator 16.0.0, SVG Export Plug-In . SVG Version: 6.00 Build 0)  -->
<!DOCTYPE svg PUBLIC "-//W3C//DTD SVG 1.1//EN" "http://www.w3.org/Graphics/SVG/1.1/DTD/svg11.dtd">
<svg version="1.1" id="Layer_1" xmlns="http://www.w3.org/2000/svg" xmlns:xlink="http://www.w3.org/1999/xlink" x="0px" y="0px"
	 width="770.219px" height="751.822px" viewBox="0 0 770.219 751.822" enable-background="new 0 0 770.219 751.822"
	 xml:space="preserve">
<g>
	<path fill="#231F20" d="M581.452,519.361l-3.771-3.772c-4.889-4.889-15.016-4.153-21.075-1.824l-17.555-17.554
		c25.978-28.307,41.858-66.02,41.858-107.377c0-6.318-0.383-12.549-1.104-18.677l0,0c-0.001-0.009-0.002-0.019-0.003-0.025
		c-0.119-1.009-0.247-2.015-0.385-3.018c-0.003-0.024-0.009-0.048-0.011-0.071c-0.418-3.021-0.916-6.017-1.5-8.979
		c-0.007-0.028-0.012-0.06-0.018-0.088c-0.179-0.899-0.365-1.8-0.559-2.694c-0.045-0.2-0.088-0.4-0.131-0.602
		c-0.193-0.877-0.393-1.752-0.6-2.624c-0.01-0.043-0.021-0.086-0.031-0.13c-0.461-1.929-0.955-3.845-1.483-5.747
		c-0.002-0.008-0.005-0.015-0.007-0.021l0,0c-7.746-27.765-22.855-52.483-43.086-71.917l0,0c-0.003-0.003-0.007-0.005-0.01-0.008
		c-2.137-2.053-4.331-4.045-6.579-5.977c-0.038-0.034-0.079-0.067-0.118-0.101c-1.041-0.894-2.098-1.772-3.16-2.639
		c-0.16-0.13-0.32-0.258-0.48-0.387c-0.97-0.784-1.949-1.556-2.938-2.317c-0.176-0.135-0.353-0.27-0.526-0.404
		c-1.03-0.786-2.07-1.56-3.121-2.322c-0.107-0.079-0.218-0.16-0.327-0.239c-26.127-18.846-58.178-29.968-92.779-29.968
		c-72.868,0-134.438,49.29-153.131,116.278l0,0c-0.004,0.016-0.008,0.031-0.013,0.046c-0.521,1.875-1.01,3.765-1.465,5.668
		c-0.016,0.063-0.032,0.13-0.048,0.195c-0.205,0.863-0.4,1.731-0.592,2.603c-0.045,0.206-0.09,0.412-0.137,0.618
		c-0.191,0.895-0.38,1.792-0.558,2.691c-0.005,0.023-0.01,0.051-0.015,0.073c-1.963,9.962-3.002,20.252-3.002,30.781
		c0,53.999,27.071,101.787,68.351,130.527l0,0c0.006,0.004,0.011,0.008,0.019,0.012c15.899,11.068,33.905,19.307,53.288,23.985
		c0.006,0.001,0.01,0.002,0.014,0.003l0,0c11.965,2.887,24.448,4.428,37.286,4.428c41.355,0,79.069-15.882,107.378-41.859
		l13.432,13.434l4.122,4.122c-0.141,0.363-0.271,0.744-0.393,1.14c-0.041,0.132-0.074,0.271-0.112,0.408
		c-0.076,0.265-0.151,0.526-0.218,0.803c-0.042,0.176-0.078,0.356-0.117,0.535c-0.053,0.243-0.105,0.483-0.151,0.733
		c-0.038,0.204-0.067,0.414-0.102,0.622c-0.036,0.229-0.072,0.458-0.104,0.691c-0.029,0.229-0.054,0.464-0.078,0.698
		c-0.021,0.215-0.043,0.429-0.06,0.646c-0.021,0.256-0.034,0.513-0.047,0.771c-0.011,0.196-0.021,0.393-0.023,0.591
		c-0.008,0.279-0.011,0.559-0.01,0.84c0.001,0.175,0.004,0.349,0.008,0.523c0.007,0.304,0.02,0.604,0.035,0.908
		c0.009,0.146,0.021,0.291,0.031,0.438c0.022,0.331,0.053,0.659,0.09,0.988c0.013,0.106,0.028,0.217,0.042,0.323
		c0.046,0.361,0.097,0.722,0.159,1.077c0.01,0.059,0.021,0.113,0.032,0.171c0.578,3.183,1.804,6.129,3.839,8.164l141.552,133.557
		c3.311,3.311,8.646,1.965,12.984,1.965c4.339,0,8.677-1.655,11.983-4.964c6.619-6.619,9.62-19.353,3.001-25.971L581.452,519.361z
		 M527.095,466.136c-1.116,1.516-2.266,3.001-3.443,4.464c-0.028,0.038-0.062,0.076-0.092,0.114
		c-1.181,1.462-2.391,2.898-3.632,4.31c-0.012,0.013-0.023,0.023-0.034,0.037c-5.035,5.713-10.559,10.979-16.508,15.74
		c-0.015,0.012-0.029,0.023-0.045,0.035c-1.469,1.175-2.964,2.318-4.484,3.43c-0.035,0.025-0.067,0.053-0.104,0.076
		c-1.527,1.114-3.078,2.197-4.653,3.246l0,0c-20.144,13.406-44.203,21.367-70.067,21.773l0,0c-0.689,0.011-1.382,0.024-2.074,0.024
		c-0.694,0-1.387-0.016-2.076-0.024l0,0c-71.034-1.114-128.479-59.233-128.479-130.527c0-6.341,0.464-12.575,1.344-18.677l0,0
		c0.146-1.024,0.307-2.045,0.478-3.062c0.003-0.018,0.005-0.034,0.008-0.051c0.168-0.999,0.351-1.994,0.54-2.985
		c0.007-0.035,0.015-0.072,0.021-0.109c0.188-0.975,0.388-1.942,0.598-2.907c0.013-0.057,0.025-0.112,0.037-0.168
		c0.208-0.951,0.427-1.898,0.656-2.842c0.016-0.066,0.03-0.132,0.048-0.198c0.229-0.936,0.467-1.868,0.716-2.796
		c0.019-0.069,0.038-0.139,0.056-0.208c0.25-0.926,0.511-1.848,0.779-2.766c0.021-0.066,0.039-0.134,0.061-0.198
		c0.272-0.925,0.557-1.849,0.85-2.766c0.014-0.044,0.029-0.088,0.043-0.132c0.302-0.938,0.613-1.876,0.936-2.807
		c17.723-51.096,66.334-87.882,123.387-87.882c34.055,0,65.101,13.112,88.367,34.545c4.075,3.754,7.911,7.765,11.482,12.004
		c0.021,0.024,0.041,0.048,0.062,0.072c1.182,1.405,2.334,2.834,3.457,4.291c0.007,0.007,0.013,0.015,0.019,0.021
		c4.53,5.871,8.574,12.137,12.067,18.736l0,0c3.084,5.824,5.739,11.905,7.927,18.208l0,0c0.325,0.938,0.642,1.886,0.946,2.835
		c0.011,0.033,0.021,0.064,0.03,0.1c0.295,0.921,0.579,1.847,0.854,2.775c0.02,0.064,0.039,0.131,0.059,0.196
		c0.271,0.913,0.527,1.833,0.776,2.756c0.021,0.074,0.041,0.149,0.062,0.227c0.247,0.922,0.484,1.849,0.711,2.778
		c0.02,0.07,0.036,0.144,0.056,0.217c0.228,0.938,0.443,1.881,0.65,2.828c0.015,0.059,0.026,0.118,0.039,0.178
		c0.209,0.962,0.408,1.928,0.597,2.898c0.009,0.04,0.017,0.08,0.022,0.12c0.19,0.987,0.371,1.981,0.539,2.979
		c0.003,0.018,0.006,0.033,0.009,0.051c0.171,1.018,0.33,2.036,0.479,3.062l0,0c0.878,6.102,1.342,12.336,1.342,18.677
		C552.509,417.741,543.059,444.479,527.095,466.136z"/>
	<path fill="#231F20" d="M698.284,358.157c0-0.274-0.021-0.543-0.041-0.812c-0.641-63.576-19.387-124.253-53.812-176.123
		c-0.713-2.179-2.027-4.086-3.754-5.516c-11.091-15.986-23.681-31.105-37.729-45.155C547.43,75.034,475.387,42.049,397.911,36.173
		c-2.559-1.083-5.33-1.214-7.882-0.501c-5.724-0.297-11.473-0.457-17.247-0.457c-6.505,0-12.977,0.213-19.416,0.589
		c-2.881-0.927-6.09-0.768-8.966,0.647c-76.233,6.543-147.042,39.361-201.78,94.1c-14.048,14.049-26.638,29.166-37.728,45.151
		c-1.73,1.431-3.046,3.341-3.759,5.523c-34.424,51.868-53.169,112.544-53.81,176.118c-0.018,0.271-0.041,0.538-0.041,0.812
		c0,0.168,0.018,0.331,0.025,0.497c-0.004,0.688-0.025,1.372-0.025,2.061c0,86.944,33.858,168.687,95.335,230.163
		c61.479,61.479,143.221,95.337,230.163,95.337c73.846,0,143.929-24.436,201.037-69.462l-17.1-17.1
		c-38.779,29.978-83.864,49.814-131.967,58.127c12.705-11.923,28.807-29.396,44.894-53.243c7.593-11.256,14.578-23.08,20.965-35.396
		c-10.588,4.041-21.529,7.146-32.717,9.266c-2.391,3.925-4.849,7.787-7.382,11.577c-31.45,47.051-63.354,67.612-63.649,67.801
		c-1.748,1.098-3.112,2.57-4.062,4.25c-3.332,0.106-6.669,0.183-10.02,0.183c-4.259,0-8.5-0.105-12.729-0.281
		c-0.938-1.627-2.267-3.061-3.96-4.136c-0.318-0.202-32.225-20.766-63.674-67.814c-9.741-14.574-18.427-30.162-26.021-46.62h40.12
		c-9.573-7.17-18.454-15.213-26.539-24h-23.634c-2.743-7.25-5.298-14.637-7.638-22.165c-6.224-20.027-10.984-41.058-14.297-62.936
		c-3.53-14.572-5.398-61.052-5.471-64.104l-0.045-24c0.914-46.657,7.557-90.277,19.799-129.801
		c2.039-6.58,4.236-13.047,6.582-19.403h146.312c6.691-0.705,13.483-1.074,20.359-1.074s13.668,0.369,20.359,1.074h45.338
		c1.464,3.967,2.863,7.983,4.21,12.037c10.261,4.002,20.099,8.857,29.422,14.479c-1.396-5.139-2.873-10.223-4.441-15.242
		c-1.188-3.795-2.436-7.548-3.718-11.275H626.02c28.81,44.354,45.372,95.495,47.908,149.204h-63.79
		c1.773,7.832,3.07,15.842,3.857,24h60.119c-1.635,53.451-17.123,104.507-44.748,149.044l17.401,17.401
		c33.522-51.99,51.507-112.555,51.507-175.89c0-0.688-0.021-1.373-0.023-2.061C698.266,358.488,698.284,358.325,698.284,358.157z
		 M240.141,543.361c9.313,21.794,20.396,42.271,33.147,61.176c15.819,23.453,31.649,40.729,44.255,52.637
		c-59.498-10.957-114.253-39.566-157.952-83.267c-9.661-9.66-18.566-19.873-26.727-30.546H240.141L240.141,543.361z
		 M230.786,519.361H116.291c-27.687-44.574-43.209-95.689-44.845-149.204h133.494c1.066,48.242,8.159,93.648,21.157,135.135
		C227.582,510.033,229.148,514.722,230.786,519.361z M226.095,208.228c-13.156,42.086-20.27,88.439-21.2,137.929H71.633
		c2.536-53.709,19.1-104.85,47.908-149.204h110.271C228.527,200.68,227.28,204.433,226.095,208.228z M238.95,172.953H136.864
		c7.055-8.827,14.621-17.325,22.729-25.431c41.517-41.517,93.016-69.416,149.079-81.496c-10.791,10.936-23.074,25.186-35.354,43.206
		C260.004,128.774,248.512,150.112,238.95,172.953z M265.111,172.953c7.874-17.417,16.978-33.812,27.242-49.03
		c25.229-37.396,50.742-57.468,59.955-64.01c6.785-0.452,13.611-0.698,20.478-0.698c5.895,0,11.759,0.188,17.597,0.522
		c9,6.358,34.747,26.457,60.201,64.186c10.267,15.218,19.366,31.613,27.241,49.03H265.111z M503.986,172.953
		c-9.562-22.841-21.054-44.179-34.367-63.721c-12.541-18.407-25.091-32.884-36.046-43.908
		c57.354,11.68,110.066,39.861,152.403,82.198c8.106,8.106,15.675,16.604,22.729,25.431H503.986z"/>
</g>
</svg>
