<?xml version="1.0" encoding="utf-8"?>
<!-- Generator: Adobe Illustrator 16.0.0, SVG Export Plug-In . SVG Version: 6.00 Build 0)  -->
<!DOCTYPE svg PUBLIC "-//W3C//DTD SVG 1.1//EN" "http://www.w3.org/Graphics/SVG/1.1/DTD/svg11.dtd">
<svg version="1.1" id="Layer_1" xmlns="http://www.w3.org/2000/svg" xmlns:xlink="http://www.w3.org/1999/xlink" x="0px" y="0px"
	 width="1280px" height="800px" viewBox="0 0 1280 800" enable-background="new 0 0 1280 800" xml:space="preserve">
<g>
	<path d="M666.604,566.271c-155.819,0-283.136-127.315-283.136-283.135C383.468,127.316,510.784,0,666.604,0
		s283.135,127.316,283.135,283.135C949.738,438.955,822.423,566.271,666.604,566.271z M666.604,22.803
		c-142.518,0-260.333,117.815-260.333,260.333c0,142.518,115.915,260.333,260.333,260.333s260.332-115.914,260.332-260.333
		C926.936,138.717,811.021,22.803,666.604,22.803z"/>
	<path d="M702.708,492.161c-3.801,0-5.701,0-9.501-1.899c-7.602-3.801-13.302-11.402-15.202-22.804
		c-1.9-13.301,3.801-30.403,11.401-47.506c5.701-15.201,13.302-34.204,7.601-38.005c-24.703-19.002-45.605-53.206-38.005-83.61
		c5.701-19.002,3.801-34.205,0-38.005c-13.301-3.8-17.102-20.903-17.102-36.104c-13.302,0-34.204-3.8-58.907-15.202
		c-41.806-17.103-87.411-131.117-91.212-144.418c0-1.9,3.801-7.601,9.502-11.401c5.7-1.9,13.301,0,15.201,5.701
		c17.103,45.606,55.107,121.615,79.811,131.117c34.204,15.202,58.907,13.301,58.907,13.301c3.8,0,7.601,0,9.501,3.801
		c1.9,1.9,3.801,5.701,3.801,9.501c0,9.501,1.9,20.903,3.8,24.703c19.003,7.601,19.003,38.005,13.302,64.608
		c-3.8,17.102,7.602,41.805,28.504,58.907c20.902,15.202,7.601,43.705-1.9,66.508c-5.7,11.402-11.401,26.604-9.501,34.205
		c0,1.899,1.9,3.8,1.9,5.7c5.7,0,22.803-11.401,34.204-20.902c22.803-15.202,34.204-28.504,45.605-39.905
		c3.801-3.801,5.701-7.601,9.501-11.401c7.602-7.601,9.502-11.401,11.401-19.002c1.9-5.701,3.801-11.401,9.502-19.003
		c9.501-15.202,13.301-30.403,13.301-45.605c-7.601-5.701-24.702-19.002-34.204-38.005c-9.501-15.202-32.304-32.304-43.705-39.905
		c-7.601,0-17.103,0-20.902,1.9c-3.801,3.801-7.602,7.601-13.302,7.601l0,0c-11.401,0-24.703-11.401-38.005-32.304
		c-9.501-15.202-22.803-22.803-26.604-24.703c-9.501-1.9-26.604-11.402-30.403-26.604c-1.9-9.501,1.9-19.002,11.401-24.703
		c15.202-11.401,30.403-15.202,45.605-13.302c9.501,1.9,19.002,7.601,22.803,15.202c7.601-22.803,32.304-60.808,115.915-95.012
		c5.7-1.9,13.301,0,15.201,5.701c1.9,5.7,0,13.301-5.7,15.202C721.71,108.313,721.71,155.819,721.71,157.72
		c0,3.8-1.899,7.601-3.8,9.501c-1.9,1.9-5.701,3.801-13.302,3.801c-7.602-1.9-15.202-7.601-20.903-17.102
		c-5.7-1.9-7.601-3.801-11.401-3.801c-7.601-1.9-19.002,1.9-26.603,9.501c-1.9,1.9-1.9,1.9-1.9,1.9c0,1.9,9.501,7.601,13.302,9.501
		c15.201,1.9,32.304,19.002,41.805,34.204c7.602,9.501,13.302,17.102,17.103,20.903c11.401-9.501,30.403-7.601,39.904-7.601
		c1.9,0,3.801,0,3.801,1.9c1.9,0,39.905,22.803,53.207,49.406c11.401,20.902,32.304,32.304,32.304,32.304
		c3.801,1.9,5.701,5.701,5.701,9.501c1.899,20.903-3.801,41.806-17.103,64.608c-3.801,5.701-5.701,11.401-7.601,15.202
		c-3.801,7.601-5.701,17.102-17.103,28.503c-3.801,3.801-5.7,5.701-9.501,9.502c-11.401,11.401-24.703,26.603-49.406,43.705
		C731.211,482.66,716.01,492.161,702.708,492.161z"/>
	<path d="M666.604,619.478c-186.224,0-336.342-150.119-336.342-336.342c0-89.311,34.205-174.822,98.812-237.53
		c1.9-1.9,5.701-3.8,7.602-3.8s5.7,1.9,7.601,3.8L482.28,83.61c5.701,3.801,5.701,11.401,0,15.202c-3.801,3.8-11.401,3.8-17.103,0
		l-28.503-28.504c-53.207,58.908-83.611,133.017-83.611,212.827c0,172.921,140.618,313.54,313.54,313.54
		c79.81,0,155.819-30.404,214.727-85.511l-28.504-28.504c-3.8-3.801-3.8-11.401,0-17.102c3.801-3.801,11.402-3.801,17.103,0
		l38.005,38.004c3.801,3.801,3.801,11.402,0,17.103C843.325,585.273,757.814,619.478,666.604,619.478z"/>
	<path d="M797.72,800H531.687c-5.701,0-11.401-5.701-11.401-11.401v-39.905c0-5.7,5.7-11.401,11.401-11.401h121.615V608.076
		c0-5.701,5.7-11.401,11.401-11.401s11.401,5.7,11.401,11.401v127.315h119.715c5.701,0,11.401,5.701,11.401,11.401v39.905
		C811.021,794.299,805.32,800,797.72,800z M544.988,777.197h241.33v-17.103h-243.23v17.103H544.988z"/>
</g>
</svg>
