<?xml version="1.0" encoding="utf-8"?>
<!-- Generator: Adobe Illustrator 19.0.0, SVG Export Plug-In . SVG Version: 6.00 Build 0)  -->
<!DOCTYPE svg PUBLIC "-//W3C//DTD SVG 1.1//EN" "http://www.w3.org/Graphics/SVG/1.1/DTD/svg11.dtd">
<svg version="1.1" id="Layer_1" xmlns="http://www.w3.org/2000/svg" xmlns:xlink="http://www.w3.org/1999/xlink" x="0px" y="0px"
	 viewBox="0 0 32.6 42.1" enable-background="new 0 0 32.6 42.1" xml:space="preserve">
<g>
	<path fill="#FFFFFF" d="M17.7,29.8c-8.2,0-14.9-6.7-14.9-14.9C2.8,6.7,9.5,0,17.7,0s14.9,6.7,14.9,14.9
		C32.6,23.1,25.9,29.8,17.7,29.8z M17.7,1.2C10.2,1.2,4,7.4,4,14.9s6.1,13.7,13.7,13.7s13.7-6.1,13.7-13.7S25.3,1.2,17.7,1.2z"/>
	<path fill="#FFFFFF" d="M19.6,25.9c-0.2,0-0.3,0-0.5-0.1c-0.4-0.2-0.7-0.6-0.8-1.2c-0.1-0.7,0.2-1.6,0.6-2.5c0.3-0.8,0.7-1.8,0.4-2
		c-1.3-1-2.4-2.8-2-4.4c0.3-1,0.2-1.8,0-2c-0.7-0.2-0.9-1.1-0.9-1.9c-0.7,0-1.8-0.2-3.1-0.8c-2.2-0.9-4.6-6.9-4.8-7.6
		C8.5,3.3,8.7,3,9,2.8c0.3-0.1,0.7,0,0.8,0.3c0.9,2.4,2.9,6.4,4.2,6.9c1.8,0.8,3.1,0.7,3.1,0.7c0.2,0,0.4,0,0.5,0.2
		c0.1,0.1,0.2,0.3,0.2,0.5c0,0.5,0.1,1.1,0.2,1.3c1,0.4,1,2,0.7,3.4c-0.2,0.9,0.4,2.2,1.5,3.1c1.1,0.8,0.4,2.3-0.1,3.5
		c-0.3,0.6-0.6,1.4-0.5,1.8c0,0.1,0.1,0.2,0.1,0.3c0.3,0,1.2-0.6,1.8-1.1c1.2-0.8,1.8-1.5,2.4-2.1c0.2-0.2,0.3-0.4,0.5-0.6
		c0.4-0.4,0.5-0.6,0.6-1c0.1-0.3,0.2-0.6,0.5-1c0.5-0.8,0.7-1.6,0.7-2.4c-0.4-0.3-1.3-1-1.8-2c-0.5-0.8-1.7-1.7-2.3-2.1
		c-0.4,0-0.9,0-1.1,0.1c-0.2,0.2-0.4,0.4-0.7,0.4c0,0,0,0,0,0c-0.6,0-1.3-0.6-2-1.7c-0.5-0.8-1.2-1.2-1.4-1.3
		c-0.5-0.1-1.4-0.6-1.6-1.4c-0.1-0.5,0.1-1,0.6-1.3c0.8-0.6,1.6-0.8,2.4-0.7c0.5,0.1,1,0.4,1.2,0.8c0.4-1.2,1.7-3.2,6.1-5
		c0.3-0.1,0.7,0,0.8,0.3c0.1,0.3,0,0.7-0.3,0.8c-5.5,2.2-5.5,4.7-5.5,4.8c0,0.2-0.1,0.4-0.2,0.5c-0.1,0.1-0.3,0.2-0.7,0.2
		c-0.4-0.1-0.8-0.4-1.1-0.9C18.3,8,18.2,7.9,18,7.9C17.6,7.8,17,8,16.6,8.4c-0.1,0.1-0.1,0.1-0.1,0.1c0,0.1,0.5,0.4,0.7,0.5
		c0.8,0.1,1.7,1,2.2,1.8c0.4,0.5,0.7,0.9,0.9,1.1c0.6-0.5,1.6-0.4,2.1-0.4c0.1,0,0.2,0,0.2,0.1c0.1,0,2.1,1.2,2.8,2.6
		c0.6,1.1,1.7,1.7,1.7,1.7c0.2,0.1,0.3,0.3,0.3,0.5c0.1,1.1-0.2,2.2-0.9,3.4c-0.2,0.3-0.3,0.6-0.4,0.8c-0.2,0.4-0.3,0.9-0.9,1.5
		c-0.2,0.2-0.3,0.3-0.5,0.5c-0.6,0.6-1.3,1.4-2.6,2.3C21.1,25.4,20.3,25.9,19.6,25.9z"/>
	<path fill="#FFFFFF" d="M17.7,32.6C7.9,32.6,0,24.7,0,14.9c0-4.7,1.8-9.2,5.2-12.5c0.1-0.1,0.3-0.2,0.4-0.2c0.1,0,0.3,0.1,0.4,0.2
		l2,2C8.3,4.6,8.3,5,8,5.2c-0.2,0.2-0.6,0.2-0.9,0L5.6,3.7c-2.8,3.1-4.4,7-4.4,11.2c0,9.1,7.4,16.5,16.5,16.5
		c4.2,0,8.2-1.6,11.3-4.5l-1.5-1.5c-0.2-0.2-0.2-0.6,0-0.9c0.2-0.2,0.6-0.2,0.9,0l2,2c0.2,0.2,0.2,0.6,0,0.9
		C27,30.8,22.5,32.6,17.7,32.6z"/>
	<path fill="#FFFFFF" d="M24.6,42.1h-14c-0.3,0-0.6-0.3-0.6-0.6v-2.1c0-0.3,0.3-0.6,0.6-0.6h6.4V32c0-0.3,0.3-0.6,0.6-0.6
		c0.3,0,0.6,0.3,0.6,0.6v6.7l6.3,0c0.3,0,0.6,0.3,0.6,0.6v2.1C25.3,41.8,25,42.1,24.6,42.1z M11.3,40.9H24V40l-12.8,0V40.9z"/>
</g>
</svg>
