<?xml version="1.0" encoding="utf-8"?>
<!-- Generator: Adobe Illustrator 16.0.0, SVG Export Plug-In . SVG Version: 6.00 Build 0)  -->
<!DOCTYPE svg PUBLIC "-//W3C//DTD SVG 1.1//EN" "http://www.w3.org/Graphics/SVG/1.1/DTD/svg11.dtd">
<svg version="1.1" id="Layer_1" xmlns="http://www.w3.org/2000/svg" xmlns:xlink="http://www.w3.org/1999/xlink" x="0px" y="0px"
	 width="1280px" height="800px" viewBox="0 0 1280 800" enable-background="new 0 0 1280 800" xml:space="preserve">
<g>
	<path d="M1171.344,800H108.657c-9.552,0-16.716-7.164-16.716-16.717V176.716c0-9.552,7.164-16.716,16.716-16.716h1062.687
		c9.552,0,16.716,7.164,16.716,16.716v606.567C1188.06,792.836,1180.896,800,1171.344,800z M125.373,766.567h1029.254V193.433
		H125.373V766.567z"/>
	<path d="M216.119,334.328c-33.433,0-62.089-26.269-62.089-62.089c0-33.433,26.269-62.089,62.089-62.089
		c35.821,0,62.09,26.269,62.09,62.089S249.552,334.328,216.119,334.328z M216.119,245.97c-14.328,0-28.656,11.94-28.656,28.657
		c0,14.328,11.94,28.657,28.656,28.657c16.717,0,28.657-11.94,28.657-28.657S230.448,245.97,216.119,245.97z"/>
	<path d="M216.119,733.135c-33.433,0-62.089-26.27-62.089-62.09c0-35.821,26.269-62.09,62.089-62.09
		c35.821,0,62.09,26.269,62.09,62.09C278.209,706.865,249.552,733.135,216.119,733.135z M216.119,644.776
		c-14.328,0-28.656,11.94-28.656,28.656c0,16.717,11.94,28.657,28.656,28.657c16.717,0,28.657-11.94,28.657-28.657
		C244.776,656.717,230.448,644.776,216.119,644.776z"/>
	<path d="M1071.045,733.135c-33.434,0-62.09-26.27-62.09-62.09c0-35.821,26.269-62.09,62.09-62.09
		c33.433,0,62.09,26.269,62.09,62.09C1133.135,706.865,1104.478,733.135,1071.045,733.135z M1071.045,644.776
		c-14.328,0-28.657,11.94-28.657,28.656c0,16.717,11.94,28.657,28.657,28.657s28.656-11.94,28.656-28.657
		C1099.701,656.717,1085.373,644.776,1071.045,644.776z"/>
	<path d="M1071.045,334.328c-33.434,0-62.09-26.269-62.09-62.089c0-33.433,26.269-62.089,62.09-62.089
		c33.433,0,62.09,26.269,62.09,62.089C1130.746,308.06,1104.478,334.328,1071.045,334.328z M1071.045,245.97
		c-14.328,0-28.657,11.94-28.657,28.657c0,14.328,11.94,28.657,28.657,28.657s28.656-11.94,28.656-28.657
		C1097.313,257.911,1085.373,245.97,1071.045,245.97z"/>
	<path d="M641.194,742.687c-148.06,0-269.851-119.403-269.851-269.851c0-148.06,119.403-269.851,269.851-269.851
		c150.447,0,269.851,119.403,269.851,269.851C908.656,623.283,789.254,742.687,641.194,742.687z M641.194,238.806
		c-128.956,0-236.418,105.075-236.418,236.417c0,131.344,105.074,236.418,236.418,236.418
		c131.343,0,236.418-105.074,236.418-236.418C877.612,343.881,770.149,238.806,641.194,238.806z"/>
	<path d="M782.09,699.701c-4.776,0-7.164,0-9.553-4.775c-28.656-21.493-85.97-45.374-88.358-45.374
		c-7.164-2.388-9.552-9.552-9.552-14.328v-23.881c0-4.775,2.388-9.552,7.164-14.328c42.985-28.656,47.761-62.089,47.761-64.478
		c0-4.776,2.389-7.164,4.776-9.552c31.045-28.657,9.553-59.702,4.776-64.478c-2.388-2.389-4.776-7.165-4.776-11.94
		c0-59.702-57.313-66.866-64.478-66.866h-76.418c-9.552,0-19.104-4.775-31.045-9.552l0,0c0,4.776,0,9.552-2.388,14.328
		c-14.328,16.717-21.492,57.313-21.492,69.254c0,4.776-2.389,7.164-7.164,11.94c-9.553,11.94-9.553,19.104-9.553,21.492
		c0,14.328,14.328,26.269,19.104,31.045c2.388,2.388,4.776,7.164,7.164,11.94c2.388,26.269,38.209,57.313,50.149,64.478
		c4.776,2.388,7.164,7.164,7.164,14.328v28.657c0,7.164-4.776,14.328-11.94,16.716c-40.597,11.94-81.194,40.598-81.194,40.598
		c-7.164,4.775-16.716,4.775-23.88-2.389c-4.776-7.164-4.776-16.716,2.388-23.881c2.389-2.388,38.209-28.656,81.194-42.984v-9.553
		c-14.328-11.94-50.149-40.597-54.926-76.418c-9.552-9.552-26.269-28.656-26.269-52.537c0-11.94,4.776-26.269,19.104-40.597
		c2.388-14.328,9.553-50.149,23.881-74.03l-4.776-33.433c-2.388-7.164,2.389-14.328,7.164-16.717c4.776-2.388,14.328-2.388,19.104,0
		c16.717,11.94,38.209,23.881,42.985,23.881h76.418c0,0,0,0,2.388,0c31.045,2.388,90.746,26.269,95.522,93.135
		c16.717,21.492,31.045,64.478-7.164,102.687c-2.388,14.328-16.717,45.373-54.926,74.029v4.776
		c19.104,7.164,62.09,26.269,85.971,45.373c7.164,4.776,7.164,16.717,2.388,23.881C791.642,697.313,786.865,699.701,782.09,699.701z
		"/>
	<path d="M980.299,699.701H791.642v-33.433h157.612c2.388-33.433,14.328-59.701,35.82-81.194
		c26.27-23.88,57.314-33.433,76.418-35.82v-148.06c-35.82-2.389-64.478-14.329-83.582-38.209
		c-23.88-26.269-31.045-59.702-31.045-81.194H784.478v-33.433h195.821l-2.389,19.104c0,0-2.388,42.984,23.881,74.029
		c16.717,19.104,42.985,26.269,76.418,26.269h16.717v212.538h-16.717l0,0c0,0-42.984,0-69.254,28.656
		c-16.716,16.717-26.269,42.985-26.269,74.03v16.716H980.299z"/>
	<path d="M488.358,699.701H299.702v-16.716c0-31.045-9.552-57.313-26.269-74.03c-28.656-28.656-69.253-28.656-69.253-28.656l0,0
		h-16.716V367.761h16.716c33.433,0,59.702-9.552,76.418-26.269c26.269-28.656,23.88-71.642,23.88-71.642l-2.388-19.104H497.91
		v33.433H335.522c-2.388,19.104-7.164,52.538-31.045,81.194c-19.104,21.492-47.761,33.433-83.582,38.209v145.672
		c19.104,2.388,52.537,11.94,76.418,35.82c21.493,21.493,33.433,47.762,35.821,81.194h157.612v33.433H488.358z"/>
	<path d="M1171.344,193.433L1171.344,193.433L165.97,112.239v64.478c0,9.552-7.164,16.716-16.716,16.716
		s-16.717-7.164-16.717-16.716V93.134c0-4.776,2.388-9.552,4.776-11.94c2.388-2.388,7.164-4.776,11.94-4.776l38.209,4.776V16.716
		c0-4.776,2.388-9.552,4.776-11.94C197.015,0,201.791,0,206.567,0l969.552,160c9.553,2.388,14.328,9.552,14.328,19.104
		C1188.06,186.269,1180.896,193.433,1171.344,193.433z M220.896,83.582l554.03,45.373l-554.03-93.134V83.582z"/>
</g>
</svg>
