<?xml version="1.0" encoding="utf-8"?>
<!-- Generator: Adobe Illustrator 19.0.0, SVG Export Plug-In . SVG Version: 6.00 Build 0)  -->
<!DOCTYPE svg PUBLIC "-//W3C//DTD SVG 1.1//EN" "http://www.w3.org/Graphics/SVG/1.1/DTD/svg11.dtd">
<svg version="1.1" id="Layer_1" xmlns="http://www.w3.org/2000/svg" xmlns:xlink="http://www.w3.org/1999/xlink" x="0px" y="0px"
	 viewBox="0 0 45.9 33.5" enable-background="new 0 0 45.9 33.5" xml:space="preserve">
<g>
	<path fill="#FFFFFF" d="M45.2,33.5H0.7c-0.4,0-0.7-0.3-0.7-0.7V7.4C0,7,0.3,6.7,0.7,6.7h44.5c0.4,0,0.7,0.3,0.7,0.7v25.4
		C45.9,33.2,45.6,33.5,45.2,33.5z M1.4,32.1h43.1v-24H1.4V32.1z"/>
	<path fill="#FFFFFF" d="M5.2,14c-1.4,0-2.6-1.1-2.6-2.6c0-1.4,1.1-2.6,2.6-2.6s2.6,1.1,2.6,2.6C7.8,12.9,6.6,14,5.2,14z M5.2,10.3
		c-0.6,0-1.2,0.5-1.2,1.2c0,0.6,0.5,1.2,1.2,1.2s1.2-0.5,1.2-1.2C6.4,10.8,5.8,10.3,5.2,10.3z"/>
	<path fill="#FFFFFF" d="M5.2,30.7c-1.4,0-2.6-1.1-2.6-2.6s1.1-2.6,2.6-2.6s2.6,1.1,2.6,2.6S6.6,30.7,5.2,30.7z M5.2,27
		C4.6,27,4,27.5,4,28.2s0.5,1.2,1.2,1.2s1.2-0.5,1.2-1.2S5.8,27,5.2,27z"/>
	<path fill="#FFFFFF" d="M41,30.7c-1.4,0-2.6-1.1-2.6-2.6s1.1-2.6,2.6-2.6c1.4,0,2.6,1.1,2.6,2.6S42.4,30.7,41,30.7z M41,27
		c-0.6,0-1.2,0.5-1.2,1.2s0.5,1.2,1.2,1.2s1.2-0.5,1.2-1.2S41.6,27,41,27z"/>
	<path fill="#FFFFFF" d="M41,14c-1.4,0-2.6-1.1-2.6-2.6c0-1.4,1.1-2.6,2.6-2.6c1.4,0,2.6,1.1,2.6,2.6C43.5,12.9,42.4,14,41,14z
		 M41,10.3c-0.6,0-1.2,0.5-1.2,1.2c0,0.6,0.5,1.2,1.2,1.2s1.2-0.5,1.2-1.2C42.1,10.8,41.6,10.3,41,10.3z"/>
	<path fill="#FFFFFF" d="M23,31.1c-6.2,0-11.3-5-11.3-11.3c0-6.2,5-11.3,11.3-11.3s11.3,5,11.3,11.3C34.2,26.1,29.2,31.1,23,31.1z
		 M23,10c-5.4,0-9.9,4.4-9.9,9.9s4.4,9.9,9.9,9.9s9.9-4.4,9.9-9.9S28.4,10,23,10z"/>
	<path fill="#FFFFFF" d="M28.9,29.3c-0.2,0-0.3,0-0.4-0.2c-1.2-0.9-3.6-1.9-3.7-1.9c-0.3-0.1-0.4-0.4-0.4-0.6v-1
		c0-0.2,0.1-0.4,0.3-0.6c1.8-1.2,2-2.6,2-2.7c0-0.2,0.1-0.3,0.2-0.4c1.3-1.2,0.4-2.5,0.2-2.7c-0.1-0.1-0.2-0.3-0.2-0.5
		c0-2.5-2.4-2.8-2.7-2.8h-3.2c-0.4,0-0.8-0.2-1.3-0.4l0,0c0,0.2,0,0.4-0.1,0.6c-0.6,0.7-0.9,2.4-0.9,2.9c0,0.2-0.1,0.3-0.3,0.5
		C18,20,18,20.3,18,20.4c0,0.6,0.6,1.1,0.8,1.3c0.1,0.1,0.2,0.3,0.3,0.5c0.1,1.1,1.6,2.4,2.1,2.7c0.2,0.1,0.3,0.3,0.3,0.6v1.2
		c0,0.3-0.2,0.6-0.5,0.7c-1.7,0.5-3.4,1.7-3.4,1.7c-0.3,0.2-0.7,0.2-1-0.1c-0.2-0.3-0.2-0.7,0.1-1c0.1-0.1,1.6-1.2,3.4-1.8v-0.4
		c-0.6-0.5-2.1-1.7-2.3-3.2c-0.4-0.4-1.1-1.2-1.1-2.2c0-0.5,0.2-1.1,0.8-1.7c0.1-0.6,0.4-2.1,1-3.1l-0.2-1.4
		c-0.1-0.3,0.1-0.6,0.3-0.7c0.2-0.1,0.6-0.1,0.8,0c0.7,0.5,1.6,1,1.8,1h3.2c0,0,0,0,0.1,0c1.3,0.1,3.8,1.1,4,3.9
		c0.7,0.9,1.3,2.7-0.3,4.3c-0.1,0.6-0.7,1.9-2.3,3.1v0.2c0.8,0.3,2.6,1.1,3.6,1.9c0.3,0.2,0.3,0.7,0.1,1
		C29.3,29.2,29.1,29.3,28.9,29.3z"/>
	<path fill="#FFFFFF" d="M37.2,29.3h-7.9v-1.4h6.6c0.1-1.4,0.6-2.5,1.5-3.4c1.1-1,2.4-1.4,3.2-1.5v-6.2c-1.5-0.1-2.7-0.6-3.5-1.6
		c-1-1.1-1.3-2.5-1.3-3.4h-6.8v-1.4h8.2l-0.1,0.8c0,0-0.1,1.8,1,3.1c0.7,0.8,1.8,1.1,3.2,1.1h0.7v8.9l-0.7,0l0,0c0,0-1.8,0-2.9,1.2
		c-0.7,0.7-1.1,1.8-1.1,3.1V29.3z"/>
	<path fill="#FFFFFF" d="M16.6,29.3H8.7v-0.7c0-1.3-0.4-2.4-1.1-3.1c-1.2-1.2-2.9-1.2-2.9-1.2c0,0,0,0,0,0l-0.7,0v-8.9h0.7
		c1.4,0,2.5-0.4,3.2-1.1c1.1-1.2,1-3,1-3l-0.1-0.8H17v1.4h-6.8c-0.1,0.8-0.3,2.2-1.3,3.4c-0.8,0.9-2,1.4-3.5,1.6V23
		c0.8,0.1,2.2,0.5,3.2,1.5c0.9,0.9,1.4,2,1.5,3.4h6.6V29.3z"/>
	<path fill="#FFFFFF" d="M45.2,8.1C45.2,8.1,45.2,8.1,45.2,8.1L3.1,4.7v2.7c0,0.4-0.3,0.7-0.7,0.7S1.7,7.8,1.7,7.4V3.9
		c0-0.2,0.1-0.4,0.2-0.5c0.1-0.1,0.3-0.2,0.5-0.2L4,3.4V0.7c0-0.2,0.1-0.4,0.2-0.5C4.4,0,4.6,0,4.8,0l40.6,6.7
		c0.4,0.1,0.6,0.4,0.6,0.8C45.9,7.8,45.6,8.1,45.2,8.1z M5.4,3.5l23.2,1.9L5.4,1.5V3.5z"/>
</g>
</svg>
