<?xml version="1.0" encoding="utf-8"?>
<!-- Generator: Adobe Illustrator 19.0.0, SVG Export Plug-In . SVG Version: 6.00 Build 0)  -->
<!DOCTYPE svg PUBLIC "-//W3C//DTD SVG 1.1//EN" "http://www.w3.org/Graphics/SVG/1.1/DTD/svg11.dtd">
<svg version="1.1" id="Layer_1" xmlns="http://www.w3.org/2000/svg" xmlns:xlink="http://www.w3.org/1999/xlink" x="0px" y="0px"
	 viewBox="0 0 44.7 35.8" enable-background="new 0 0 44.7 35.8" xml:space="preserve">
<g>
	<path fill="#FFFFFF" d="M22.1,22.1c-0.1,0-0.2,0-0.3-0.1L0.4,11.4C0.1,11.3,0,11.1,0,10.8c0-0.3,0.2-0.5,0.4-0.6L22,0.1
		c0.2-0.1,0.4-0.1,0.6,0l21.8,10.1c0.2,0.1,0.4,0.3,0.4,0.6c0,0.3-0.1,0.5-0.4,0.6L22.4,22C22.3,22,22.2,22.1,22.1,22.1z M2.2,10.8
		l19.9,9.8l20.3-9.8L22.3,1.4L2.2,10.8z"/>
	<path fill="#FFFFFF" d="M22.1,29.7c-11.5,0-15.3-6.5-15.5-6.8c-0.1-0.1-0.1-0.2-0.1-0.3v-8c0-0.4,0.3-0.7,0.7-0.7
		c0.4,0,0.7,0.3,0.7,0.7v7.8c0.6,0.9,4.4,6,14.2,6c9.7,0,13.6-4.8,14.3-5.7v-8.3c0-0.4,0.3-0.7,0.7-0.7c0.4,0,0.7,0.3,0.7,0.7V23
		c0,0.1,0,0.2-0.1,0.4C37.5,23.6,33.6,29.7,22.1,29.7z"/>
	<path fill="#FFFFFF" d="M33.5,31.9c-0.4,0-0.7-0.3-0.7-0.7V17L22,11.2c-0.3-0.2-0.5-0.6-0.3-0.9c0.2-0.3,0.6-0.5,0.9-0.3l11.3,6
		c0.2,0.1,0.4,0.3,0.4,0.6v14.6C34.2,31.6,33.9,31.9,33.5,31.9z"/>
	<path fill="#FFFFFF" d="M33.5,35.8c-1.4,0-2.6-1.2-2.6-2.6c0-1.4,1.2-2.6,2.6-2.6s2.6,1.2,2.6,2.6C36.1,34.6,35,35.8,33.5,35.8z
		 M33.5,32c-0.7,0-1.3,0.6-1.3,1.3s0.6,1.3,1.3,1.3s1.3-0.6,1.3-1.3S34.2,32,33.5,32z"/>
</g>
</svg>
