<?xml version="1.0" encoding="utf-8"?>
<!-- Generator: Adobe Illustrator 16.0.0, SVG Export Plug-In . SVG Version: 6.00 Build 0)  -->
<!DOCTYPE svg PUBLIC "-//W3C//DTD SVG 1.1//EN" "http://www.w3.org/Graphics/SVG/1.1/DTD/svg11.dtd">
<svg version="1.1" id="Layer_1" xmlns="http://www.w3.org/2000/svg" xmlns:xlink="http://www.w3.org/1999/xlink" x="0px" y="0px"
	 width="1280px" height="800px" viewBox="0 0 1280 800" enable-background="new 0 0 1280 800" xml:space="preserve">
<g>
	<path d="M634.413,493.854c-2.234,0-4.469,0-6.703-2.234L149.497,254.749c-6.704-2.234-8.938-6.704-8.938-13.408
		s4.469-11.173,8.938-13.408L632.179,2.234c4.47-2.234,8.938-2.234,13.408,0l487.15,225.699c4.47,2.234,8.938,6.704,8.938,13.408
		s-2.234,11.173-8.938,13.408L641.117,491.62C638.883,491.62,636.648,493.854,634.413,493.854z M189.721,241.341l444.692,218.994
		l453.632-218.994L638.883,31.285L189.721,241.341z"/>
	<path d="M634.413,663.688c-256.983,0-341.899-145.252-346.368-151.956c-2.235-2.234-2.235-4.469-2.235-6.703V326.257
		c0-8.938,6.704-15.643,15.643-15.643s15.642,6.704,15.642,15.643v174.302c13.408,20.111,98.324,134.078,317.318,134.078
		c216.76,0,303.911-107.263,319.554-127.374V321.788c0-8.938,6.703-15.643,15.643-15.643c8.938,0,15.643,6.704,15.643,15.643
		v192.179c0,2.234,0,4.469-2.235,8.938C978.548,527.374,891.396,663.688,634.413,663.688z"/>
	<path d="M889.162,712.85c-8.938,0-15.643-6.704-15.643-15.643V379.889L632.179,250.279c-6.704-4.469-11.173-13.408-6.704-20.112
		c4.47-6.704,13.408-11.173,20.112-6.704l252.514,134.078c4.47,2.234,8.938,6.704,8.938,13.408v326.257
		C904.805,706.146,898.101,712.85,889.162,712.85z"/>
	<path d="M889.162,800c-31.285,0-58.101-26.815-58.101-58.101s26.815-58.101,58.101-58.101s58.101,26.815,58.101,58.101
		S922.682,800,889.162,800z M889.162,715.084c-15.643,0-29.051,13.407-29.051,29.05s13.408,29.051,29.051,29.051
		s29.05-13.408,29.05-29.051S904.805,715.084,889.162,715.084z"/>
</g>
</svg>
