<?xml version="1.0" encoding="utf-8"?>
<!-- Generator: Adobe Illustrator 16.0.4, SVG Export Plug-In . SVG Version: 6.00 Build 0)  -->
<!DOCTYPE svg PUBLIC "-//W3C//DTD SVG 1.1//EN" "http://www.w3.org/Graphics/SVG/1.1/DTD/svg11.dtd">
<svg version="1.1" id="Layer_1" xmlns="http://www.w3.org/2000/svg" xmlns:xlink="http://www.w3.org/1999/xlink" x="0px" y="0px"
	 width="61.535px" height="60.064px" viewBox="0 0 61.535 60.064" enable-background="new 0 0 61.535 60.064" xml:space="preserve">
<g id="Layer_1_1_">
</g>
<g id="Layer_2">
	<g>
		<path fill="none" stroke="#061962" stroke-miterlimit="10" d="M48,20.999c0,2.122-0.387,4.147-1.062,6.041
			C47.494,25.677,48,23.984,48,20.999z"/>
		<path fill="none" stroke="#061962" stroke-width="2" stroke-linecap="round" stroke-linejoin="round" stroke-miterlimit="10" d="
			M13.889,29.066c3.037,7.533,16.607,27.933,16.607,27.933s12.652-20.446,15.592-27.964"/>
		<path fill="none" stroke="#061962" stroke-width="2" stroke-linecap="round" stroke-linejoin="round" stroke-miterlimit="10" d="
			M12,20.999c0,2.766,0.642,5.375,1.756,7.716"/>
		<path fill="none" stroke="#061962" stroke-width="2" stroke-linecap="round" stroke-linejoin="round" stroke-miterlimit="10" d="
			M46.09,29.035c0.322-0.646,0.604-1.312,0.849-1.995c-0.282,0.688-0.577,1.297-0.827,1.938
			C46.104,28.998,46.096,29.016,46.09,29.035z"/>
		<path fill="none" stroke="#061962" stroke-width="2" stroke-linecap="round" stroke-linejoin="round" stroke-miterlimit="10" d="
			M13.756,28.715"/>
		<path fill="none" stroke="#061962" stroke-width="2" stroke-linecap="round" stroke-linejoin="round" stroke-miterlimit="10" d="
			M46.111,28.979c0.25-0.644,0.545-1.25,0.827-1.938C47.613,25.147,48,23.122,48,21c0-9.94-8.06-17.999-18-17.999
			c-9.941,0-18,8.059-18,17.999"/>
	</g>
	
		<circle fill="none" stroke="#061962" stroke-width="2" stroke-linecap="round" stroke-linejoin="round" stroke-miterlimit="10" cx="30" cy="20.312" r="6.812"/>
</g>
</svg>
