<?xml version="1.0" encoding="utf-8"?>
<!-- Generator: Adobe Illustrator 16.0.0, SVG Export Plug-In . SVG Version: 6.00 Build 0)  -->
<!DOCTYPE svg PUBLIC "-//W3C//DTD SVG 1.1//EN" "http://www.w3.org/Graphics/SVG/1.1/DTD/svg11.dtd">
<svg version="1.1" id="Layer_1" xmlns="http://www.w3.org/2000/svg" xmlns:xlink="http://www.w3.org/1999/xlink" x="0px" y="0px"
	 width="1280px" height="800px" viewBox="0 0 1280 800" enable-background="new 0 0 1280 800" xml:space="preserve">
<g>
	<path d="M1025.492,800H254.508c-8.29,0-14.508-6.218-14.508-14.508V163.73c0-8.29,6.218-14.508,14.508-14.508h768.912
		c8.29,0,14.508,6.218,14.508,14.508v621.762C1040,791.71,1033.782,800,1025.492,800z M271.088,768.912h739.896V178.238H271.088
		V768.912z"/>
	<path d="M467.979,404.146H358.135c-8.29,0-14.508-6.218-14.508-14.508V281.865c0-8.29,6.218-14.508,14.508-14.508h109.845
		c8.29,0,14.508,6.218,14.508,14.508v107.772C484.56,395.854,476.27,404.146,467.979,404.146z M372.643,373.057h80.829v-76.684
		h-80.829V373.057z"/>
	<path d="M919.793,404.146H807.876c-8.29,0-14.508-6.218-14.508-14.508V281.865c0-8.29,6.218-14.508,14.508-14.508h111.917
		c8.29,0,14.508,6.218,14.508,14.508v107.772C934.301,395.854,928.083,404.146,919.793,404.146z M822.384,373.057h80.829v-76.684
		h-80.829V373.057z"/>
	<rect x="248.29" y="319.171" width="777.202" height="31.088"/>
	<path d="M805.803,178.238c-8.29,0-14.508-6.218-14.508-12.435c-10.362-76.684-76.684-134.715-155.44-134.715
		c-78.756,0-145.077,58.031-155.44,134.715c-2.072,8.29-8.29,14.508-16.58,12.435c-8.29-2.072-14.508-8.29-12.436-16.58
		C463.834,68.394,544.663,0,635.855,0c91.191,0,172.021,68.394,184.455,161.658C822.384,169.948,816.166,176.166,805.803,178.238
		C807.876,178.238,807.876,178.238,805.803,178.238z"/>
	<path d="M689.741,717.099h-105.7c-8.29,0-14.508-6.218-14.508-14.508v-74.611H492.85c-8.29,0-14.508-6.218-14.508-14.508V505.699
		c0-8.29,6.218-14.508,14.508-14.508h76.684v-76.684c0-8.29,6.218-14.508,14.508-14.508h109.845c8.29,0,14.508,6.218,14.508,14.508
		v76.684h74.611c8.29,0,14.508,6.218,14.508,14.508v105.7c0,8.29-6.218,14.508-14.508,14.508h-76.684v74.611
		C706.321,708.809,698.031,717.099,689.741,717.099z M598.549,686.011h76.685v-74.612c0-8.29,6.218-14.507,14.508-14.507h76.684
		v-76.685h-74.611c-8.29,0-14.508-6.218-14.508-14.508v-76.684h-78.757v74.611c0,8.29-6.217,14.508-14.508,14.508H509.43v76.684
		h76.685c8.29,0,14.508,6.218,14.508,14.508v76.685H598.549z"/>
</g>
</svg>
