<?xml version="1.0" encoding="utf-8"?>
<!-- Generator: Adobe Illustrator 19.0.0, SVG Export Plug-In . SVG Version: 6.00 Build 0)  -->
<!DOCTYPE svg PUBLIC "-//W3C//DTD SVG 1.1//EN" "http://www.w3.org/Graphics/SVG/1.1/DTD/svg11.dtd">
<svg version="1.1" id="Layer_1" xmlns="http://www.w3.org/2000/svg" xmlns:xlink="http://www.w3.org/1999/xlink" x="0px" y="0px"
	 viewBox="0 0 38.6 38.6" enable-background="new 0 0 38.6 38.6" xml:space="preserve">
<g>
	<path fill="#FFFFFF" d="M37.9,38.6H0.7c-0.4,0-0.7-0.3-0.7-0.7v-30c0-0.4,0.3-0.7,0.7-0.7h37.1c0.4,0,0.7,0.3,0.7,0.7v30
		C38.6,38.2,38.3,38.6,37.9,38.6z M1.5,37.1h35.7V8.6H1.5V37.1z"/>
	<path fill="#FFFFFF" d="M11,19.5H5.7c-0.4,0-0.7-0.3-0.7-0.7v-5.2c0-0.4,0.3-0.7,0.7-0.7H11c0.4,0,0.7,0.3,0.7,0.7v5.2
		C11.8,19.1,11.4,19.5,11,19.5z M6.4,18h3.9v-3.7H6.4V18z"/>
	<path fill="#FFFFFF" d="M32.8,19.5h-5.4c-0.4,0-0.7-0.3-0.7-0.7v-5.2c0-0.4,0.3-0.7,0.7-0.7h5.4c0.4,0,0.7,0.3,0.7,0.7v5.2
		C33.5,19.1,33.2,19.5,32.8,19.5z M28.1,18H32v-3.7h-3.9V18z"/>
	<rect x="0.4" y="15.4" fill="#FFFFFF" width="37.5" height="1.5"/>
	<path fill="#FFFFFF" d="M27.3,8.6c-0.4,0-0.7-0.3-0.7-0.6c-0.5-3.7-3.7-6.5-7.5-6.5s-7,2.8-7.5,6.5c-0.1,0.4-0.4,0.7-0.8,0.6
		c-0.4-0.1-0.7-0.4-0.6-0.8C10.8,3.3,14.7,0,19.1,0s8.3,3.3,8.9,7.8C28.1,8.2,27.8,8.5,27.3,8.6C27.4,8.6,27.4,8.6,27.3,8.6z"/>
	<path fill="#FFFFFF" d="M21.7,34.6h-5.1c-0.4,0-0.7-0.3-0.7-0.7v-3.6h-3.7c-0.4,0-0.7-0.3-0.7-0.7v-5.2c0-0.4,0.3-0.7,0.7-0.7h3.7
		V20c0-0.4,0.3-0.7,0.7-0.7h5.3c0.4,0,0.7,0.3,0.7,0.7v3.7h3.6c0.4,0,0.7,0.3,0.7,0.7v5.1c0,0.4-0.3,0.7-0.7,0.7h-3.7v3.6
		C22.5,34.2,22.1,34.6,21.7,34.6z M17.3,33.1H21v-3.6c0-0.4,0.3-0.7,0.7-0.7h3.7v-3.7h-3.6c-0.4,0-0.7-0.3-0.7-0.7v-3.7h-3.8v3.6
		c0,0.4-0.3,0.7-0.7,0.7H13v3.7h3.7c0.4,0,0.7,0.3,0.7,0.7V33.1z"/>
</g>
</svg>
