<?xml version="1.0" encoding="utf-8"?>
<!-- Generator: Adobe Illustrator 16.0.0, SVG Export Plug-In . SVG Version: 6.00 Build 0)  -->
<!DOCTYPE svg PUBLIC "-//W3C//DTD SVG 1.1//EN" "http://www.w3.org/Graphics/SVG/1.1/DTD/svg11.dtd">
<svg version="1.1" id="Layer_1" xmlns="http://www.w3.org/2000/svg" xmlns:xlink="http://www.w3.org/1999/xlink" x="0px" y="0px"
	 width="1280px" height="800px" viewBox="0 0 1280 800" enable-background="new 0 0 1280 800" xml:space="preserve">
<g>
	<path d="M957.949,800h-640c-6.154,0-12.308-6.154-12.308-12.308V385.641c0-6.153,6.154-12.308,12.308-12.308
		s12.308,6.154,12.308,12.308v389.744h615.384V385.641c0-6.153,6.154-12.308,12.309-12.308c6.153,0,12.307,6.154,12.307,12.308
		v402.052C970.257,793.846,966.154,800,957.949,800z"/>
	<path d="M1001.025,410.257L1001.025,410.257c-24.615,0-47.18-18.462-51.281-22.564L637.949,141.539L324.103,387.692
		c-16.41,12.308-53.333,28.718-82.051,2.051c-26.667-26.666-12.308-61.538,0-75.897l2.051-2.051L629.743,4.103
		C633.846,0,640,0,644.103,4.103l383.59,299.487c0,0,0,0,2.051,0c16.411,16.41,38.975,57.436,8.206,88.205
		C1027.692,404.103,1015.385,410.257,1001.025,410.257z M637.949,112.82c2.051,0,6.153,0,8.205,2.052l320,252.308
		c0,0,0,0,2.051,2.051c4.103,4.103,18.462,16.41,32.82,16.41l0,0c6.154,0,12.308-2.051,18.462-8.205
		c20.513-20.513-4.103-49.23-8.205-53.333L637.949,28.718L260.513,328.205c-4.103,6.154-16.41,26.667,0,43.077
		c18.462,18.461,49.231-2.052,49.231-4.103l320-252.308C631.795,112.82,635.897,112.82,637.949,112.82z"/>
	<path d="M845.128,800H678.975c-6.154,0-12.308-6.154-12.308-12.308V562.052c0-6.154,6.153-12.308,12.308-12.308h166.153
		c6.154,0,12.308,6.153,12.308,12.308v225.641C857.436,793.846,853.333,800,845.128,800z M693.333,775.385h141.539V574.359H693.333
		V775.385z"/>
	<path d="M596.923,705.641H430.77c-6.154,0-12.308-6.153-12.308-12.308V562.052c0-6.154,6.153-12.308,12.308-12.308h166.153
		c6.154,0,12.308,6.153,12.308,12.308v131.281C609.23,699.487,603.077,705.641,596.923,705.641z M443.077,681.025h141.538V574.359
		H443.077V681.025z"/>
	<path d="M596.923,488.205H430.77c-6.154,0-12.308-6.153-12.308-12.308v-110.77c0-6.153,6.153-12.308,12.308-12.308h166.153
		c6.154,0,12.308,6.154,12.308,12.308v110.77C609.23,482.052,603.077,488.205,596.923,488.205z M443.077,463.59h141.538v-86.154
		H443.077V463.59z"/>
	<path d="M845.128,488.205H678.975c-6.154,0-12.308-6.153-12.308-12.308v-110.77c0-6.153,6.153-12.308,12.308-12.308h166.153
		c6.154,0,12.308,6.154,12.308,12.308v110.77C857.436,482.052,853.333,488.205,845.128,488.205z M693.333,463.59h141.539v-86.154
		H693.333V463.59z"/>
	<path d="M514.872,705.641c-6.154,0-12.308-6.153-12.308-12.308V562.052c0-6.154,6.153-12.308,12.308-12.308
		c6.153,0,12.308,6.153,12.308,12.308v131.281C525.128,699.487,521.025,705.641,514.872,705.641z"/>
	<path d="M596.923,640H430.77c-6.154,0-12.308-6.154-12.308-12.308c0-6.154,6.153-12.308,12.308-12.308h166.153
		c6.154,0,12.308,6.153,12.308,12.308C609.23,633.846,603.077,640,596.923,640z"/>
</g>
</svg>
