<?xml version="1.0" encoding="utf-8"?>
<!-- Generator: Adobe Illustrator 19.0.0, SVG Export Plug-In . SVG Version: 6.00 Build 0)  -->
<!DOCTYPE svg PUBLIC "-//W3C//DTD SVG 1.1//EN" "http://www.w3.org/Graphics/SVG/1.1/DTD/svg11.dtd">
<svg version="1.1" id="Layer_1" xmlns="http://www.w3.org/2000/svg" xmlns:xlink="http://www.w3.org/1999/xlink" x="0px" y="0px"
	 viewBox="0 0 40.2 39" enable-background="new 0 0 40.2 39" xml:space="preserve">
<g>
	<path fill="#FFFFFF" d="M35.6,39H4.4c-0.3,0-0.6-0.3-0.6-0.6V18.8c0-0.3,0.3-0.6,0.6-0.6c0.3,0,0.6,0.3,0.6,0.6v19H35v-19
		c0-0.3,0.3-0.6,0.6-0.6c0.3,0,0.6,0.3,0.6,0.6v19.6C36.2,38.7,36,39,35.6,39z"/>
	<path fill="#FFFFFF" d="M37.7,20C37.7,20,37.7,20,37.7,20c-1.2,0-2.3-0.9-2.5-1.1L20,6.9l-15.3,12c-0.8,0.6-2.6,1.4-4,0.1
		c-1.3-1.3-0.6-3,0-3.7c0,0,0.1-0.1,0.1-0.1l18.8-15c0.2-0.2,0.5-0.2,0.7,0L39,14.8c0,0,0,0,0.1,0c0.8,0.8,1.9,2.8,0.4,4.3
		C39,19.7,38.4,20,37.7,20z M20,5.5c0.1,0,0.3,0,0.4,0.1L36,17.9c0,0,0,0,0.1,0.1c0.2,0.2,0.9,0.8,1.6,0.8c0,0,0,0,0,0
		c0.3,0,0.6-0.1,0.9-0.4c1-1-0.2-2.4-0.4-2.6L20,1.4L1.6,16c-0.2,0.3-0.8,1.3,0,2.1C2.5,19,4,18,4,17.9L19.6,5.6
		C19.7,5.5,19.9,5.5,20,5.5z"/>
	<path fill="#FFFFFF" d="M30.1,39h-8.1c-0.3,0-0.6-0.3-0.6-0.6v-11c0-0.3,0.3-0.6,0.6-0.6h8.1c0.3,0,0.6,0.3,0.6,0.6v11
		C30.7,38.7,30.5,39,30.1,39z M22.7,37.8h6.9V28h-6.9V37.8z"/>
	<path fill="#FFFFFF" d="M18,34.4H9.9c-0.3,0-0.6-0.3-0.6-0.6v-6.4c0-0.3,0.3-0.6,0.6-0.6H18c0.3,0,0.6,0.3,0.6,0.6v6.4
		C18.6,34.1,18.3,34.4,18,34.4z M10.5,33.2h6.9V28h-6.9V33.2z"/>
	<path fill="#FFFFFF" d="M18,23.8H9.9c-0.3,0-0.6-0.3-0.6-0.6v-5.4c0-0.3,0.3-0.6,0.6-0.6H18c0.3,0,0.6,0.3,0.6,0.6v5.4
		C18.6,23.5,18.3,23.8,18,23.8z M10.5,22.6h6.9v-4.2h-6.9V22.6z"/>
	<path fill="#FFFFFF" d="M30.1,23.8h-8.1c-0.3,0-0.6-0.3-0.6-0.6v-5.4c0-0.3,0.3-0.6,0.6-0.6h8.1c0.3,0,0.6,0.3,0.6,0.6v5.4
		C30.7,23.5,30.5,23.8,30.1,23.8z M22.7,22.6h6.9v-4.2h-6.9V22.6z"/>
	<path fill="#FFFFFF" d="M14,34.4c-0.3,0-0.6-0.3-0.6-0.6v-6.4c0-0.3,0.3-0.6,0.6-0.6s0.6,0.3,0.6,0.6v6.4
		C14.5,34.1,14.3,34.4,14,34.4z"/>
	<path fill="#FFFFFF" d="M18,31.2H9.9c-0.3,0-0.6-0.3-0.6-0.6c0-0.3,0.3-0.6,0.6-0.6H18c0.3,0,0.6,0.3,0.6,0.6
		C18.6,30.9,18.3,31.2,18,31.2z"/>
</g>
</svg>
