<?xml version="1.0" encoding="utf-8"?>
<!-- Generator: Adobe Illustrator 19.0.0, SVG Export Plug-In . SVG Version: 6.00 Build 0)  -->
<!DOCTYPE svg PUBLIC "-//W3C//DTD SVG 1.1//EN" "http://www.w3.org/Graphics/SVG/1.1/DTD/svg11.dtd">
<svg version="1.1" id="Layer_1" xmlns="http://www.w3.org/2000/svg" xmlns:xlink="http://www.w3.org/1999/xlink" x="0px" y="0px"
	 viewBox="0 0 43.8 41.9" enable-background="new 0 0 43.8 41.9" xml:space="preserve">
<g>
	<path fill="#FFFFFF" d="M42.4,16.6H1.6c-0.2,0-0.4-0.1-0.5-0.3c-0.1-0.2-0.1-0.4,0-0.6l1.3-2.8c0.1-0.2,0.3-0.4,0.6-0.4h37.8
		c0.2,0,0.4,0.1,0.6,0.3l1.7,2.8c0.1,0.2,0.1,0.4,0,0.6C42.9,16.4,42.6,16.6,42.4,16.6z M2.6,15.3h38.7l-0.9-1.6h-37L2.6,15.3z"/>
	<path fill="#FFFFFF" d="M35.6,13.7H8c-0.2,0-0.4-0.1-0.5-0.3c-0.1-0.2-0.2-0.4-0.1-0.6l1.5-4.4C9,8.2,9.2,8,9.5,8h24.6
		c0.3,0,0.5,0.2,0.6,0.4l1.5,4.4c0.1,0.2,0,0.4-0.1,0.6C36,13.6,35.8,13.7,35.6,13.7z M8.9,12.4h25.8l-1-3.1H10L8.9,12.4z"/>
	<path fill="#FFFFFF" d="M35.9,13.7H8c-0.3,0-0.5-0.2-0.6-0.5c-0.1-0.3,0.1-0.6,0.3-0.7l14-7.9c0.2-0.1,0.4-0.1,0.6,0l13.9,7.9
		c0.3,0.1,0.4,0.4,0.3,0.7C36.5,13.5,36.2,13.7,35.9,13.7z M10.5,12.4h23L22,6L10.5,12.4z"/>
	<path fill="#FFFFFF" d="M33.3,9.3H10.6c-0.2,0-0.3-0.1-0.5-0.2C10,9,10,8.8,10,8.7C10,8.6,10.2,0,21.8,0C33.4,0,34,8.6,34,8.6
		c0,0.2-0.1,0.3-0.2,0.5C33.7,9.2,33.5,9.3,33.3,9.3z M11.3,8h21.3c-0.4-1.8-2.2-6.7-10.8-6.7C13.2,1.3,11.6,6.2,11.3,8z"/>
	<path fill="#FFFFFF" d="M43.1,41.9H0.6c-0.4,0-0.6-0.3-0.6-0.6v-3.1c0-0.4,0.3-0.6,0.6-0.6h42.5c0.4,0,0.6,0.3,0.6,0.6v3.1
		C43.8,41.6,43.5,41.9,43.1,41.9z M1.3,40.6h41.2v-1.8H1.3V40.6z"/>
	<path fill="#FFFFFF" d="M42.4,38.8H1.6c-0.4,0-0.6-0.3-0.6-0.6v-2.9c0-0.4,0.3-0.6,0.6-0.6h40.8c0.4,0,0.6,0.3,0.6,0.6v2.9
		C43,38.5,42.8,38.8,42.4,38.8z M2.2,37.5h39.5v-1.7H2.2V37.5z"/>
	<path fill="#FFFFFF" d="M8.7,35.8H3c-0.4,0-0.6-0.3-0.6-0.6v-2.7c0-0.3,0.3-0.6,0.6-0.6c0.5,0,0.7-0.4,0.7-0.5V19.9
		c-0.4-0.1-0.6-0.3-0.8-0.5c-0.5-0.6-0.5-1.3-0.5-1.4l0-2.1c0-0.4,0.3-0.6,0.6-0.6h5.7c0.4,0,0.6,0.3,0.6,0.6v2.1c0,0,0,0.8-0.5,1.4
		c-0.2,0.2-0.4,0.4-0.8,0.5v11.4c0.1,0.2,0.2,0.5,0.7,0.5c0.4,0,0.6,0.3,0.6,0.6v2.7C9.4,35.6,9.1,35.8,8.7,35.8z M3.6,34.6h4.5V33
		c-0.8-0.3-1.2-1-1.3-1.4c0-0.1,0-0.1,0-0.2V19.4c0-0.4,0.3-0.6,0.6-0.6c0.2,0,0.4-0.1,0.5-0.2c0.2-0.2,0.2-0.5,0.2-0.5l0-1.5H3.6
		v1.5c0,0.1,0,0.3,0.2,0.5c0.1,0.1,0.3,0.2,0.5,0.2C4.7,18.7,5,19,5,19.4v12.1c0,0.1,0,0.1,0,0.2C4.8,32,4.4,32.7,3.6,33V34.6z"/>
	<path fill="#FFFFFF" d="M40.9,35.8h-5.7c-0.4,0-0.6-0.3-0.6-0.6v-2.7c0-0.3,0.3-0.6,0.6-0.6c0.5,0,0.7-0.4,0.7-0.5V19.9
		c-0.4-0.1-0.6-0.3-0.8-0.5c-0.5-0.6-0.5-1.3-0.5-1.4l0-2.1c0-0.4,0.3-0.6,0.6-0.6h5.7c0.4,0,0.6,0.3,0.6,0.6v2.1c0,0,0,0.8-0.5,1.4
		c-0.2,0.2-0.4,0.4-0.8,0.5v11.4c0.1,0.2,0.2,0.5,0.7,0.5c0.4,0,0.6,0.3,0.6,0.6v2.7C41.5,35.6,41.2,35.8,40.9,35.8z M35.8,34.6h4.5
		V33c-0.8-0.3-1.2-1-1.3-1.4c0-0.1,0-0.1,0-0.2V19.4c0-0.4,0.3-0.6,0.6-0.6c0.2,0,0.4-0.1,0.5-0.2c0.2-0.2,0.2-0.5,0.2-0.5l0-1.5
		h-4.5v1.5c0,0.1,0,0.3,0.2,0.5c0.1,0.1,0.3,0.2,0.5,0.2c0.4,0,0.6,0.3,0.6,0.6v12.1c0,0.1,0,0.1,0,0.2C37,32,36.6,32.7,35.8,33
		V34.6z"/>
	<path fill="#FFFFFF" d="M32.8,35.8h-5.7c-0.4,0-0.6-0.3-0.6-0.6v-2.7c0-0.3,0.3-0.6,0.6-0.6c0.5,0,0.7-0.4,0.7-0.5V19.9
		c-0.4-0.1-0.6-0.3-0.8-0.5c-0.5-0.6-0.5-1.3-0.5-1.4l0-2.1c0-0.4,0.3-0.6,0.6-0.6h5.7c0.4,0,0.6,0.3,0.6,0.6v2.1c0,0,0,0.8-0.5,1.4
		c-0.2,0.2-0.4,0.4-0.8,0.5v11.4c0.1,0.2,0.2,0.5,0.7,0.5c0.4,0,0.6,0.3,0.6,0.6v2.7C33.5,35.6,33.2,35.8,32.8,35.8z M27.8,34.6h4.5
		V33c-0.8-0.3-1.2-1-1.3-1.4c0-0.1,0-0.1,0-0.2V19.4c0-0.4,0.3-0.6,0.6-0.6c0.2,0,0.4-0.1,0.5-0.2c0.2-0.2,0.2-0.5,0.2-0.5l0-1.5
		h-4.5v1.5c0,0.1,0,0.3,0.2,0.5c0.1,0.1,0.3,0.2,0.5,0.2c0.4,0,0.6,0.3,0.6,0.6v12.1c0,0.1,0,0.1,0,0.2C29,32,28.6,32.7,27.8,33
		V34.6z"/>
	<path fill="#FFFFFF" d="M24.8,35.8h-5.7c-0.4,0-0.6-0.3-0.6-0.6v-2.7c0-0.3,0.3-0.6,0.6-0.6c0.5,0,0.7-0.4,0.7-0.5V19.9
		c-0.4-0.1-0.6-0.3-0.8-0.5c-0.5-0.6-0.5-1.3-0.5-1.4l0-2.1c0-0.4,0.3-0.6,0.6-0.6h5.7c0.4,0,0.6,0.3,0.6,0.6v2.1c0,0,0,0.8-0.5,1.4
		c-0.2,0.2-0.4,0.4-0.8,0.5v11.4c0.1,0.2,0.2,0.5,0.7,0.5c0.4,0,0.6,0.3,0.6,0.6v2.7C25.4,35.6,25.2,35.8,24.8,35.8z M19.7,34.6h4.5
		V33c-0.8-0.3-1.2-1-1.3-1.4c0-0.1,0-0.1,0-0.2V19.4c0-0.4,0.3-0.6,0.6-0.6c0.2,0,0.4-0.1,0.5-0.2c0.2-0.2,0.2-0.5,0.2-0.5l0-1.5
		h-4.5v1.5c0,0.1,0,0.3,0.2,0.5c0.1,0.1,0.3,0.2,0.5,0.2c0.4,0,0.6,0.3,0.6,0.6v12.1c0,0.1,0,0.1,0,0.2c-0.1,0.4-0.5,1.1-1.3,1.4
		V34.6z"/>
	<path fill="#FFFFFF" d="M16.8,35.8H11c-0.4,0-0.6-0.3-0.6-0.6v-2.7c0-0.3,0.3-0.6,0.6-0.6c0.5,0,0.7-0.4,0.7-0.5V19.9
		c-0.4-0.1-0.6-0.3-0.8-0.5c-0.5-0.6-0.5-1.3-0.5-1.4l0-2.1c0-0.4,0.3-0.6,0.6-0.6h5.7c0.4,0,0.6,0.3,0.6,0.6v2.1c0,0,0,0.8-0.5,1.4
		c-0.2,0.2-0.4,0.4-0.8,0.5v11.4c0.1,0.2,0.2,0.5,0.7,0.5c0.4,0,0.6,0.3,0.6,0.6v2.7C17.4,35.6,17.1,35.8,16.8,35.8z M11.7,34.6h4.5
		V33c-0.8-0.3-1.2-1-1.3-1.4c0-0.1,0-0.1,0-0.2V19.4c0-0.4,0.3-0.6,0.6-0.6c0.2,0,0.4-0.1,0.5-0.2c0.2-0.2,0.2-0.5,0.2-0.5l0-1.5
		h-4.5v1.5c0,0.1,0,0.3,0.2,0.5c0.1,0.1,0.3,0.2,0.5,0.2c0.4,0,0.6,0.3,0.6,0.6v12.1c0,0.1,0,0.1,0,0.2c-0.1,0.4-0.5,1.1-1.3,1.4
		V34.6z"/>
</g>
</svg>
