<?xml version="1.0" encoding="utf-8"?>
<!-- Generator: Adobe Illustrator 16.0.0, SVG Export Plug-In . SVG Version: 6.00 Build 0)  -->
<!DOCTYPE svg PUBLIC "-//W3C//DTD SVG 1.1//EN" "http://www.w3.org/Graphics/SVG/1.1/DTD/svg11.dtd">
<svg version="1.1" id="Layer_2" xmlns="http://www.w3.org/2000/svg" xmlns:xlink="http://www.w3.org/1999/xlink" x="0px" y="0px"
	 width="884px" height="823.458px" viewBox="200.5 -11.388 884 823.458" enable-background="new 200.5 -11.388 884 823.458"
	 xml:space="preserve">
<polygon fill="none" stroke="#231F20" stroke-width="31" stroke-linecap="round" stroke-linejoin="round" stroke-miterlimit="10" points="
	276.008,311.958 998.472,311.958 1046.26,372.866 236.264,372.866 "/>
<polyline fill="none" stroke="#231F20" stroke-width="31" stroke-linecap="round" stroke-linejoin="round" stroke-miterlimit="10" points="
	305.278,308.958 640.901,147.57 977.245,308.958 "/>
<g>
	
		<polyline fill="none" stroke="#231F20" stroke-width="31" stroke-linecap="round" stroke-linejoin="round" stroke-miterlimit="10" points="
		374.538,270.417 396.56,178.217 409.636,178.217 	"/>
	
		<polyline fill="none" stroke="#231F20" stroke-width="31" stroke-linecap="round" stroke-linejoin="round" stroke-miterlimit="10" points="
		907.986,270.417 885.963,178.217 872.887,178.217 	"/>
</g>
<path fill="none" stroke="#231F20" stroke-width="31" stroke-linecap="round" stroke-linejoin="round" stroke-miterlimit="10" d="
	M409.636,178.217c0,0,36.541-173.106,230.229-173.106c198.111,0,233.021,173.106,233.021,173.106"/>
<polygon fill="none" stroke="#231F20" stroke-width="31" stroke-linecap="round" stroke-linejoin="round" stroke-miterlimit="10" points="
	236.487,793.133 236.487,729.075 1046.036,729.075 1046.036,794.002 "/>
<g>
	
		<polygon fill="none" stroke="#231F20" stroke-width="31" stroke-linecap="round" stroke-linejoin="round" stroke-miterlimit="10" points="
		277.494,373.866 277.494,428.142 304.956,428.142 304.956,672.006 277.494,672.006 277.494,729.075 389.91,729.075 389.91,674.257 
		363.356,674.257 363.356,428.142 389.91,428.142 389.91,373.866 	"/>
	
		<polygon fill="none" stroke="#231F20" stroke-width="31" stroke-linecap="round" stroke-linejoin="round" stroke-miterlimit="10" points="
		431.274,373.866 431.274,428.142 458.736,428.142 458.736,672.006 431.274,672.006 431.274,729.075 543.69,729.075 543.69,674.257 
		517.136,674.257 517.136,428.142 543.69,428.142 543.69,373.866 	"/>
	
		<polygon fill="none" stroke="#231F20" stroke-width="31" stroke-linecap="round" stroke-linejoin="round" stroke-miterlimit="10" points="
		585.054,373.866 585.054,428.142 612.516,428.142 612.516,672.006 585.054,672.006 585.054,729.075 697.47,729.075 697.47,674.257 
		670.916,674.257 670.916,428.142 697.47,428.142 697.47,373.866 	"/>
	
		<polygon fill="none" stroke="#231F20" stroke-width="31" stroke-linecap="round" stroke-linejoin="round" stroke-miterlimit="10" points="
		738.834,373.866 738.834,428.142 766.295,428.142 766.295,672.006 738.834,672.006 738.834,729.075 851.25,729.075 851.25,674.257 
		824.695,674.257 824.695,428.142 851.25,428.142 851.25,373.866 	"/>
	
		<polygon fill="none" stroke="#231F20" stroke-width="31" stroke-linecap="round" stroke-linejoin="round" stroke-miterlimit="10" points="
		892.613,373.866 892.613,428.142 920.074,428.142 920.074,672.006 892.613,672.006 892.613,729.075 1005.029,729.075 
		1005.029,674.257 978.475,674.257 978.475,428.142 1005.029,428.142 1005.029,373.866 	"/>
</g>
</svg>
