<?xml version="1.0" encoding="utf-8"?>
<!-- Generator: Adobe Illustrator 16.0.0, SVG Export Plug-In . SVG Version: 6.00 Build 0)  -->
<!DOCTYPE svg PUBLIC "-//W3C//DTD SVG 1.1//EN" "http://www.w3.org/Graphics/SVG/1.1/DTD/svg11.dtd">
<svg version="1.1" id="Layer_1" xmlns="http://www.w3.org/2000/svg" xmlns:xlink="http://www.w3.org/1999/xlink" x="0px" y="0px"
	 width="1280px" height="800px" viewBox="0 0 1280 800" enable-background="new 0 0 1280 800" xml:space="preserve">
<g>
	<path d="M1031.408,316.945H252.411c-3.819,0-7.637-1.909-9.547-5.729c-1.909-3.818-1.909-7.637,0-11.456l24.821-53.46
		c1.909-3.819,5.728-7.637,11.456-7.637h721.719c3.818,0,7.637,1.909,11.455,5.728l32.459,53.46c1.909,3.819,1.909,7.637,0,11.456
		C1040.955,313.127,1035.227,316.945,1031.408,316.945z M271.503,292.124h738.903l-17.185-30.549H286.778L271.503,292.124z"/>
	<path d="M901.575,261.575H374.606c-3.819,0-7.638-1.909-9.547-5.728c-1.909-3.818-3.818-7.637-1.909-11.456l28.64-84.01
		c1.909-3.818,5.728-7.637,11.456-7.637h469.689c5.728,0,9.547,3.819,11.456,7.637l28.64,84.01c1.909,3.818,0,7.637-1.909,11.456
		C909.213,259.666,905.394,261.575,901.575,261.575z M391.79,236.754h492.602l-19.093-59.188H412.792L391.79,236.754z"/>
	<path d="M907.303,261.575H374.606c-5.728,0-9.547-3.819-11.456-9.546c-1.909-5.728,1.909-11.456,5.728-13.365L636.182,87.828
		c3.818-1.909,7.637-1.909,11.455,0l265.395,150.835c5.728,1.909,7.637,7.637,5.728,13.365
		C918.759,257.756,913.031,261.575,907.303,261.575z M422.339,236.754h439.141l-219.57-122.195L422.339,236.754z"/>
	<path d="M857.661,177.565H424.248c-3.818,0-5.728-1.909-9.547-3.818c-1.909-1.909-1.909-5.728-1.909-7.637S416.611,0,638.091,0
		s232.936,164.201,232.936,164.201c0,3.818-1.909,5.728-3.818,9.546C865.299,175.656,861.479,177.565,857.661,177.565z
		 M437.613,152.745h406.683c-7.638-34.368-42.005-127.924-206.205-127.924S443.342,118.377,437.613,152.745z"/>
	<path d="M1044.773,800H233.317c-7.637,0-11.456-5.728-11.456-11.456v-59.188c0-7.637,5.728-11.455,11.456-11.455h811.456
		c7.637,0,11.455,5.728,11.455,11.455v59.188C1058.139,794.272,1052.41,800,1044.773,800z M246.683,775.179h786.635v-34.367H246.683
		V775.179z"/>
	<path d="M1031.408,740.812H252.411c-7.637,0-11.456-5.728-11.456-11.456v-55.37c0-7.637,5.728-11.455,11.456-11.455h778.998
		c7.637,0,11.456,5.728,11.456,11.455v55.37C1042.864,735.084,1039.045,740.812,1031.408,740.812z M263.866,715.99h754.177v-32.458
		H263.866V715.99z"/>
	<path d="M387.971,683.532H279.141c-7.637,0-11.456-5.728-11.456-11.456v-51.551c0-5.729,5.728-11.456,11.456-11.456
		c9.547,0,13.365-7.638,13.365-9.547v-219.57c-7.637-1.909-11.456-5.728-15.274-9.547c-9.546-11.455-9.546-24.82-9.546-26.729
		V303.58c0-7.637,5.728-11.456,11.456-11.456h108.831c7.637,0,11.456,5.728,11.456,11.456v40.096c0,0,0,15.274-9.546,26.729
		c-3.819,3.819-7.638,7.638-15.274,9.547v217.661c1.909,3.818,3.818,9.547,13.365,9.547c7.637,0,11.456,5.728,11.456,11.455v51.552
		C401.337,679.714,395.608,683.532,387.971,683.532z M290.597,660.62h85.919v-30.549c-15.274-5.728-22.912-19.093-24.821-26.729
		c0-1.91,0-1.91,0-3.819V370.405c0-7.637,5.728-11.455,11.456-11.455c3.818,0,7.637-1.909,9.546-3.819
		c3.819-3.818,3.819-9.546,3.819-9.546v-28.64h-85.919v28.64c0,1.909,0,5.728,3.818,9.546c1.91,1.91,5.728,3.819,9.547,3.819
		c7.637-1.909,13.365,3.818,13.365,11.455v231.026c0,1.91,0,1.91,0,3.819c-3.819,5.728-11.456,19.093-26.73,24.82V660.62z"/>
	<path d="M1002.769,683.532H893.938c-7.637,0-11.455-5.728-11.455-11.456v-51.551c0-5.729,5.728-11.456,11.455-11.456
		c9.547,0,13.365-7.638,13.365-9.547v-219.57c-7.637-1.909-11.455-5.728-15.274-9.547c-9.546-11.455-9.546-24.82-9.546-26.729
		V303.58c0-7.637,5.728-11.456,11.455-11.456h108.831c7.638,0,11.456,5.728,11.456,11.456v40.096c0,0,0,15.274-9.547,26.729
		c-3.818,3.819-7.637,7.638-15.274,9.547v217.661c1.909,3.818,3.818,9.547,13.365,9.547c7.638,0,11.456,5.728,11.456,11.455v51.552
		C1014.225,679.714,1008.496,683.532,1002.769,683.532z M905.394,660.62h85.919v-30.549c-15.274-5.728-22.912-19.093-24.82-26.729
		c0-1.91,0-1.91,0-3.819V370.405c0-7.637,5.728-11.455,11.455-11.455c3.818,0,7.638-1.909,9.547-3.819
		c3.818-3.818,3.818-9.546,3.818-9.546v-28.64h-85.919v28.64c0,1.909,0,5.728,3.819,9.546c1.909,1.91,5.728,3.819,9.546,3.819
		c7.638,0,11.456,5.728,11.456,11.455v231.026c0,1.91,0,1.91,0,3.819c-1.909,5.728-9.547,19.093-24.821,24.82V660.62z"/>
	<path d="M848.114,683.532h-108.83c-7.638,0-11.456-5.728-11.456-11.456v-51.551c0-5.729,5.728-11.456,11.456-11.456
		c9.546,0,13.365-7.638,13.365-9.547v-219.57c-7.638-1.909-11.456-5.728-15.274-9.547c-9.547-11.455-9.547-24.82-9.547-26.729
		V303.58c0-7.637,5.728-11.456,11.456-11.456h108.83c7.638,0,11.456,5.728,11.456,11.456v40.096c0,0,0,15.274-9.547,26.729
		c-3.818,3.819-7.637,7.638-15.274,9.547v217.661c1.909,3.818,3.819,9.547,13.365,9.547c7.638,0,11.456,5.728,11.456,11.455v51.552
		C861.479,679.714,855.752,683.532,848.114,683.532z M752.649,660.62h85.919v-30.549c-15.274-5.728-22.912-19.093-24.821-26.729
		c0-1.91,0-1.91,0-3.819V370.405c0-7.637,5.728-11.455,11.456-11.455c3.818,0,7.637-1.909,9.546-3.819
		c3.819-3.818,3.819-9.546,3.819-9.546v-28.64h-85.919v28.64c0,1.909,0,5.728,3.818,9.546c1.909,1.91,5.728,3.819,9.547,3.819
		c7.637,0,11.455,5.728,11.455,11.455v231.026c0,1.91,0,1.91,0,3.819c-1.909,5.728-9.546,19.093-24.82,24.82V660.62z"/>
	<path d="M695.37,683.532H586.539c-7.637,0-11.455-5.728-11.455-11.456v-51.551c0-5.729,5.728-11.456,11.455-11.456
		c9.547,0,13.365-7.638,13.365-9.547v-219.57c-7.637-1.909-11.456-5.728-15.274-9.547c-9.546-11.455-9.546-24.82-9.546-26.729
		V303.58c0-7.637,5.728-11.456,11.455-11.456H695.37c7.637,0,11.456,5.728,11.456,11.456v40.096c0,0,0,15.274-9.547,26.729
		c-3.818,3.819-7.638,7.638-15.274,9.547v217.661c1.909,3.818,3.818,9.547,13.365,9.547c7.637,0,11.456,5.728,11.456,11.455v51.552
		C706.826,679.714,703.007,683.532,695.37,683.532z M597.995,660.62h85.919v-30.549c-15.274-5.728-22.912-19.093-24.821-26.729
		c0-1.91,0-1.91,0-3.819V370.405c0-7.637,5.729-11.455,11.456-11.455c3.818,0,7.638-1.909,9.547-3.819
		c3.818-3.818,3.818-9.546,3.818-9.546v-28.64h-85.919v28.64c0,1.909,0,5.728,3.818,9.546c1.91,1.91,5.729,3.819,9.547,3.819
		c7.638,0,11.456,5.728,11.456,11.455v231.026c0,1.91,0,1.91,0,3.819c-1.909,7.637-9.547,21.002-24.821,26.729V660.62
		L597.995,660.62z"/>
	<path d="M542.625,683.532H431.886c-7.638,0-11.456-5.728-11.456-11.456v-51.551c0-5.729,5.728-11.456,11.456-11.456
		c9.546,0,13.365-7.638,13.365-9.547v-219.57c-7.638-1.909-11.456-5.728-15.274-9.547c-9.547-11.455-9.547-24.82-9.547-26.729
		V303.58c0-7.637,5.728-11.456,11.456-11.456h108.83c7.638,0,11.456,5.728,11.456,11.456v40.096c0,0,0,15.274-9.547,26.729
		c-3.818,3.819-7.637,7.638-15.274,9.547v217.661c1.909,3.818,3.819,9.547,13.365,9.547c7.638,0,11.456,5.728,11.456,11.455v51.552
		C554.081,679.714,548.354,683.532,542.625,683.532z M445.251,660.62h85.919v-30.549c-15.275-5.728-22.912-19.093-24.821-26.729
		c0-1.91,0-1.91,0-3.819V370.405c0-7.637,5.728-11.455,11.456-11.455c3.818,0,7.637-1.909,9.546-3.819
		c3.819-3.818,3.819-9.546,3.819-9.546v-28.64h-85.919v28.64c0,1.909,0,5.728,3.818,9.546c1.909,1.91,5.728,3.819,9.546,3.819
		c7.638,0,11.456,5.728,11.456,11.455v231.026c0,1.91,0,1.91,0,3.819c-1.909,7.637-9.546,21.002-24.82,26.729V660.62z"/>
</g>
</svg>
