<?xml version="1.0" encoding="utf-8"?>
<!-- Generator: Adobe Illustrator 16.0.0, SVG Export Plug-In . SVG Version: 6.00 Build 0)  -->
<!DOCTYPE svg PUBLIC "-//W3C//DTD SVG 1.1//EN" "http://www.w3.org/Graphics/SVG/1.1/DTD/svg11.dtd">
<svg version="1.1" id="Layer_1" xmlns="http://www.w3.org/2000/svg" xmlns:xlink="http://www.w3.org/1999/xlink" x="0px" y="0px"
	 width="1215.388px" height="1011.102px" viewBox="69.007 -143.738 1215.388 1011.102"
	 enable-background="new 69.007 -143.738 1215.388 1011.102" xml:space="preserve">
<g>
	<g>
		<path fill="none" stroke="#FFFFFF" stroke-width="31" stroke-linecap="round" stroke-linejoin="round" d="M222.404,164.621
			c0,0,140.402-246.487,456.298-246.487c159.63,0,278.505,63.83,358.281,129.011"/>
		<g>
			<polygon fill="#FFFFFF" points="890.516,65.743 1007.439,22.316 1057.352,-91.988 1160.886,184.621 			"/>
		</g>
	</g>
</g>
<g>
	<path fill="#FFFFFF" d="M202.404,425.881l329.332,130.975l-90.577,43.248c43.341,37.403,127.341,87.403,243.429,91.764
		c5.35,0.201,10.673,0.299,15.979,0.299c59.713,0,116.568-12.468,169.111-31.454c45.723-16.522,98.474-44.6,137.063-73.593
		c66.457-49.929,102.083-126.858,102.395-127.367l29.901,14.164l35.697,18.93c-1.558,2.591-41.078,84.163-120.296,144.721
		c-46.147,35.277-95.35,67.38-150.186,87.528c-68.215,25.063-137.121,38.772-214.665,38.772
		c-70.383,0-165.199-29.189-207.225-51.603c-52.943-28.235-61.86-47.2-95.323-66.932l-48.619,107.83L202.404,425.881
		 M202.411,394.88c-8.153,0-16.154,3.217-22.095,9.25c-8.746,8.882-11.322,22.138-6.538,33.648L309.795,765.06
		c4.742,11.412,15.809,18.916,28.166,19.1c0.154,0.003,0.309,0.004,0.463,0.004c12.174,0,23.241-7.134,28.257-18.258l32.95-73.077
		c0.531,0.443,1.064,0.89,1.603,1.34c15.411,12.889,32.877,27.496,66.542,45.45c23.957,12.775,61.173,26.533,99.556,36.8
		c31.465,8.416,78.217,18.449,122.257,18.449c40.18,0,78.277-3.437,116.473-10.505c36.299-6.719,71.916-16.587,108.884-30.17
		c27.655-10.161,55.005-23.443,83.608-40.606c23.413-14.047,47.852-30.857,74.713-51.392
		c72.039-55.069,113.67-125.792,128.227-153.643c0.131-0.251,0.239-0.459,0.325-0.623c3.961-7.111,4.972-15.511,2.786-23.38
		c-2.278-8.2-7.827-15.104-15.346-19.091l-35.697-18.93c-0.413-0.219-0.83-0.428-1.253-0.628l-29.901-14.164
		c-4.27-2.023-8.792-2.988-13.253-2.989c-10.494,0-20.655,5.34-26.459,14.822c-0.805,1.315-1.308,2.354-1.641,3.041
		c-2.339,4.825-11.112,22.23-25.837,43.637c-20.192,29.353-43.394,54.28-67.096,72.088c-35.772,26.875-85.193,53.399-128.979,69.222
		c-54.373,19.647-107.727,29.609-158.576,29.609c-4.932,0-9.916-0.093-14.814-0.277c-82.349-3.093-144.582-30.587-184.368-55.188
		l43.708-20.87c11.119-5.309,18.038-16.698,17.626-29.012c-0.412-12.314-8.078-23.215-19.527-27.769L213.86,397.075
		C210.145,395.598,206.26,394.88,202.411,394.88L202.411,394.88z"/>
</g>
</svg>
