<?xml version="1.0" encoding="utf-8"?>
<!-- Generator: Adobe Illustrator 16.0.0, SVG Export Plug-In . SVG Version: 6.00 Build 0)  -->
<!DOCTYPE svg PUBLIC "-//W3C//DTD SVG 1.1//EN" "http://www.w3.org/Graphics/SVG/1.1/DTD/svg11.dtd">
<svg version="1.1" id="Layer_1" xmlns="http://www.w3.org/2000/svg" xmlns:xlink="http://www.w3.org/1999/xlink" x="0px" y="0px"
	 width="1271.5px" height="1084.5px" viewBox="0 0 1271.5 1084.5" enable-background="new 0 0 1271.5 1084.5" xml:space="preserve">
<g id="Layer_2">
	
		<polyline fill="none" stroke="#231F20" stroke-width="31" stroke-linecap="round" stroke-linejoin="round" stroke-miterlimit="10" points="
		1175.363,536.608 1175.363,1003.25 112.677,1003.25 112.677,536.608 	"/>
	<path fill="none" stroke="#231F20" stroke-width="37" stroke-linecap="round" stroke-linejoin="round" stroke-miterlimit="10" d="
		M644.02,130.967c-221.268,0-209.2,102.217-280.974,115.6c-31.115,5.802-126.604,0.4-126.604,0.4V186.25
		c0,0,70.489-10.599,101.604-16.401C409.816,156.466,422.351,54.25,644.02,54.25c214.811,0,239.204,102.216,310.979,115.599
		c31.115,5.802,96.604,16.401,96.604,16.401v60.717c0,0-95.485,5.402-126.604-0.4C853.224,233.184,863.247,130.967,644.02,130.967z"
		/>
	
		<polygon fill="none" stroke="#231F20" stroke-width="31" stroke-linecap="round" stroke-linejoin="round" stroke-miterlimit="10" points="
		1196.83,249.967 91.21,249.967 91.21,531.608 484.004,592.131 484.004,517.518 794.036,517.518 794.036,593.672 1196.83,531.608 	
		"/>
	<path fill="none" stroke="#231F20" stroke-width="31" stroke-linecap="round" stroke-linejoin="round" stroke-miterlimit="10" d="
		M484.004,592.131v15.967l50.085,11c7.343,43.085,51.521,76.208,104.931,76.208c53.411,0,97.591-33.123,104.934-76.208l50.085-11
		v-14.426"/>
</g>
</svg>
