<?xml version="1.0" encoding="utf-8"?>
<!-- Generator: Adobe Illustrator 19.0.0, SVG Export Plug-In . SVG Version: 6.00 Build 0)  -->
<!DOCTYPE svg PUBLIC "-//W3C//DTD SVG 1.1//EN" "http://www.w3.org/Graphics/SVG/1.1/DTD/svg11.dtd">
<svg version="1.1" id="Layer_1" xmlns="http://www.w3.org/2000/svg" xmlns:xlink="http://www.w3.org/1999/xlink" x="0px" y="0px"
	 viewBox="0 0 32.7 43.3" enable-background="new 0 0 32.7 43.3" xml:space="preserve">
<g>
	<path fill="#FFFFFF" d="M26.5,32.2H4.6c-0.4,0-0.7-0.3-0.7-0.7V27c0-0.4,0.3-0.7,0.7-0.7h21.9c0.4,0,0.7,0.3,0.7,0.7v4.5
		C27.2,31.9,26.9,32.2,26.5,32.2z M5.3,30.8h20.5v-3.2H5.3V30.8z"/>
	<path fill="#FFFFFF" d="M21.8,43.3H9.3c-0.3,0-0.6-0.2-0.7-0.5l-3-11.2c-0.1-0.2,0-0.4,0.1-0.6c0.1-0.2,0.3-0.3,0.5-0.3h18.3
		c0.2,0,0.4,0.1,0.5,0.3s0.2,0.4,0.1,0.6l-2.9,11.2C22.4,43.1,22.1,43.3,21.8,43.3z M9.9,42h11.4l2.5-9.8H7.2L9.9,42z"/>
	<path fill="#FFFFFF" d="M16.3,34.7h-4.7c-0.4,0-0.7-0.3-0.7-0.7c0-0.4,0.3-0.7,0.7-0.7h4.7c0.4,0,0.7,0.3,0.7,0.7
		C17,34.3,16.7,34.7,16.3,34.7z"/>
	<path fill="#FFFFFF" d="M16,37.1h-2.5c-0.4,0-0.7-0.3-0.7-0.7c0-0.4,0.3-0.7,0.7-0.7H16c0.4,0,0.7,0.3,0.7,0.7
		C16.7,36.8,16.4,37.1,16,37.1z"/>
	<path fill="#FFFFFF" d="M10,24.4C10,24.4,9.9,24.4,10,24.4C2,23.8,0,17.5,0,14.2c0-0.2,0.1-0.4,0.2-0.5c0.1-0.1,0.3-0.2,0.5-0.2
		c9.6,0.3,9.9,10.1,9.9,10.1c0,0.2-0.1,0.4-0.2,0.5C10.3,24.3,10.1,24.4,10,24.4z M1.4,15c0.2,2,1.3,7.1,7.8,8
		C8.9,20.9,7.7,15.6,1.4,15z"/>
	<path fill="#FFFFFF" d="M22.7,25.1c-0.2,0-0.3-0.1-0.5-0.2c-0.1-0.1-0.2-0.3-0.2-0.5c0-0.1,0.3-9.8,9.9-10.1c0.2,0,0.4,0.1,0.5,0.2
		c0.1,0.1,0.2,0.3,0.2,0.5C32.7,18.3,30.7,24.6,22.7,25.1C22.8,25.1,22.7,25.1,22.7,25.1z M31.3,15.7c-6.3,0.6-7.5,5.9-7.8,8
		C30,22.9,31.1,17.7,31.3,15.7z"/>
	<path fill="#FFFFFF" d="M20.7,24.1c-1.2,0-2.2-0.6-2.6-0.9c-0.9,0.1-1.7,0-2.3-0.5c-1-0.7-1.3-2-1.3-2.6c-0.7-0.6-1.2-1.3-1.2-2.1
		c-0.1-1.3,0.8-2.5,1.2-3c-0.1-1.2,0.2-2.1,0.8-2.7c0.8-0.8,2-0.9,2.7-0.8c0.6-0.7,1.3-1.1,2.1-1.2c1.2,0,2.2,0.8,2.6,1.2
		c1.2-0.1,2.2,0.2,2.8,0.8c0.7,0.8,0.8,1.9,0.8,2.5c0.8,0.6,1,1.6,1,1.8c0.1,0.4-0.2,0.7-0.6,0.8c-0.4,0.1-0.7-0.2-0.8-0.6
		c0-0.3-0.2-0.8-0.5-0.9c-0.3-0.1-0.5-0.4-0.5-0.8c0.1-0.3,0.1-1.3-0.4-1.8c-0.4-0.4-1-0.5-2-0.4c-0.2,0-0.5-0.1-0.6-0.2
		c-0.2-0.3-1-1-1.8-1c-0.5,0-0.9,0.3-1.3,0.9c-0.2,0.2-0.4,0.3-0.7,0.3c-0.3-0.1-1.4-0.1-1.9,0.4c-0.4,0.4-0.5,1-0.4,1.9
		c0,0.2,0,0.5-0.2,0.6c-0.3,0.3-1.1,1.2-1,2.1c0,0.5,0.3,0.9,0.9,1.3c0.2,0.1,0.3,0.3,0.3,0.5c0,0.4,0.2,1.4,0.8,1.9
		c0.4,0.3,0.9,0.4,1.5,0.2c0.2,0,0.4,0,0.6,0.2c0,0,1.1,0.9,2.3,0.8c0.6-0.1,1.2-0.4,1.7-1.1c0.2-0.3,0.7-0.4,1-0.2
		c0.3,0.2,0.4,0.7,0.2,1c-0.7,1-1.6,1.6-2.6,1.7C20.9,24.1,20.8,24.1,20.7,24.1z"/>
	<path fill="#FFFFFF" d="M22.7,27.3c-0.4,0-0.7-0.3-0.7-0.7v-3c0-0.4,0.3-0.7,0.7-0.7s0.7,0.3,0.7,0.7v3
		C23.4,26.9,23.1,27.3,22.7,27.3z"/>
	<path fill="#FFFFFF" d="M20.3,27.3c-0.4,0-0.7-0.3-0.7-0.7v-2.8c0-0.4,0.3-0.7,0.7-0.7s0.7,0.3,0.7,0.7v2.8
		C21,26.9,20.7,27.3,20.3,27.3z"/>
	<path fill="#FFFFFF" d="M18,27.3c-0.4,0-0.7-0.3-0.7-0.7v-3.7c0-0.4,0.3-0.7,0.7-0.7s0.7,0.3,0.7,0.7v3.7
		C18.7,26.9,18.3,27.3,18,27.3z"/>
	<path fill="#FFFFFF" d="M14.8,27.3c-0.4,0-0.7-0.3-0.7-0.7v-6.8c0-0.4,0.3-0.7,0.7-0.7s0.7,0.3,0.7,0.7v6.8
		C15.4,26.9,15.1,27.3,14.8,27.3z"/>
	<path fill="#FFFFFF" d="M12.4,27.3c-0.4,0-0.7-0.3-0.7-0.7v-8c0-0.4,0.3-0.7,0.7-0.7s0.7,0.3,0.7,0.7v8
		C13.1,26.9,12.8,27.3,12.4,27.3z"/>
	<path fill="#FFFFFF" d="M10,27.3c-0.4,0-0.7-0.3-0.7-0.7v-7.2c0-0.4,0.3-0.7,0.7-0.7s0.7,0.3,0.7,0.7v7.2
		C10.7,26.9,10.3,27.3,10,27.3z"/>
	<path fill="#FFFFFF" d="M16.6,13c0,0-0.1,0-0.1,0c-0.2,0-1.8-0.4-2.6-1.7c-0.3-0.5-0.5-1.1-0.4-1.8C13,9,12.2,8,12.3,6.8
		c0-0.7,0.4-1.4,1.1-2c0-0.6,0-1.7,0.8-2.5c0.7-0.8,1.7-1.1,3-1.1C17.6,0.8,18.6,0,19.7,0c0.8,0,1.6,0.4,2.2,1.2c0,0,0,0,0,0
		c0.7,0,1.9,0.1,2.7,1c0.6,0.6,0.8,1.5,0.7,2.6c0.4,0.4,1,1.2,1,2.2c0.1,0.9-0.3,1.7-1,2.5c-0.1,1.3-0.6,3.3-2.2,3.3
		c-0.4,0-0.7-0.3-0.7-0.7c0-0.4,0.3-0.7,0.7-0.7c0.7,0,0.9-1.6,0.9-2.2c0-0.2,0.1-0.4,0.2-0.5c0.6-0.6,0.8-1.1,0.8-1.7
		c-0.1-0.9-0.8-1.5-0.8-1.5C24,5.5,23.9,5.2,23.9,5c0.2-0.8,0.1-1.4-0.3-1.8c-0.5-0.6-1.6-0.6-2-0.6c-0.2,0-0.5-0.1-0.6-0.3
		c-0.4-0.6-0.9-0.9-1.4-0.9c0,0,0,0,0,0c-0.7,0-1.4,0.7-1.6,1c-0.1,0.2-0.4,0.3-0.6,0.3c-1.1-0.1-1.8,0.1-2.2,0.6
		c-0.6,0.7-0.4,1.8-0.4,1.8c0.1,0.3-0.1,0.6-0.3,0.7c-0.5,0.3-0.8,0.7-0.9,1.1c0,0.7,0.7,1.6,1,1.8c0.2,0.2,0.3,0.4,0.2,0.7
		c-0.1,0.4-0.1,0.8,0.1,1.1c0.4,0.6,1.4,1,1.7,1c0.4,0.1,0.6,0.4,0.5,0.8C17.2,12.7,16.9,13,16.6,13z"/>
	<path fill="#FFFFFF" d="M4.8,15.9c-0.2,0-0.3-0.1-0.5-0.2c-1.1-1-1.6-2.1-1.5-3.2c0.1-1.1,0.7-1.8,1-2.2C3.9,9,4.3,8,5,7.4
		c0.9-0.7,2-0.7,2.6-0.6C8.1,6.4,9,5.7,10,5.6c0.9,0,1.7,0.4,2.5,1.3l1,0.4c0.4,0.1,0.5,0.5,0.4,0.9c-0.1,0.4-0.5,0.5-0.9,0.4
		l-1.2-0.5c-0.1,0-0.2-0.1-0.3-0.2c-0.5-0.6-1-1-1.5-1c0,0,0,0,0,0C9.4,7,8.7,7.7,8.5,8C8.3,8.2,8,8.3,7.8,8.2c0,0-1.2-0.3-1.9,0.2
		c-0.5,0.4-0.7,1.1-0.6,2.1c0,0.2-0.1,0.4-0.3,0.6c0,0-0.7,0.6-0.8,1.5c0,0.7,0.3,1.4,1.1,2.1c0.3,0.3,0.3,0.7,0,1
		C5.2,15.8,5,15.9,4.8,15.9z"/>
	<path fill="#FFFFFF" d="M10,19.6c-0.5,0-1.2-0.1-1.9-0.5c-0.3-0.2-0.5-0.6-0.3-0.9c0.2-0.3,0.6-0.5,0.9-0.3
		c1.9,0.9,2.5-0.3,2.6-0.4c0.2-0.3,0.5-0.5,0.8-0.4c0.1,0,0.8,0.2,1.3-0.6c0.2-0.3,0.6-0.4,0.9-0.2c0.3,0.2,0.4,0.6,0.2,0.9
		c-0.6,1.1-1.6,1.3-2.3,1.3C11.8,19.1,11,19.6,10,19.6z"/>
	<circle fill="#FFFFFF" cx="20.1" cy="17.2" r="0.7"/>
	<circle fill="#FFFFFF" cx="19.4" cy="7.1" r="0.7"/>
	<circle fill="#FFFFFF" cx="10" cy="12.7" r="0.7"/>
</g>
</svg>
