<?xml version="1.0" encoding="utf-8"?>
<!-- Generator: Adobe Illustrator 16.0.0, SVG Export Plug-In . SVG Version: 6.00 Build 0)  -->
<!DOCTYPE svg PUBLIC "-//W3C//DTD SVG 1.1//EN" "http://www.w3.org/Graphics/SVG/1.1/DTD/svg11.dtd">
<svg version="1.1" id="Layer_1" xmlns="http://www.w3.org/2000/svg" xmlns:xlink="http://www.w3.org/1999/xlink" x="0px" y="0px"
	 width="1280px" height="800px" viewBox="0 0 1280 800" enable-background="new 0 0 1280 800" xml:space="preserve">
<g>
	<path d="M827.529,594.919H422.91c-7.391,0-12.934-5.542-12.934-12.933v-83.141c0-7.391,5.543-12.934,12.934-12.934h404.619
		c7.39,0,12.933,5.543,12.933,12.934v83.141C840.462,589.376,834.919,594.919,827.529,594.919z M435.843,569.053h378.753v-59.122
		H435.843V569.053z"/>
	<path d="M740.693,800H509.746c-5.543,0-11.086-3.695-12.934-9.238l-55.427-206.928c-1.848-3.695,0-7.391,1.848-11.086
		s5.543-5.543,9.237-5.543h338.106c3.695,0,7.391,1.848,9.238,5.543s3.695,7.391,1.848,11.086l-53.58,206.928
		C751.778,796.305,746.235,800,740.693,800z M520.831,775.981h210.624l46.189-181.062H470.947L520.831,775.981z"/>
	<path d="M639.076,641.108H552.24c-7.391,0-12.933-5.543-12.933-12.933c0-7.391,5.542-12.934,12.933-12.934h86.836
		c7.391,0,12.934,5.543,12.934,12.934C652.01,633.718,646.467,641.108,639.076,641.108z"/>
	<path d="M633.533,685.45h-46.189c-7.39,0-12.933-5.543-12.933-12.933c0-7.391,5.543-12.934,12.933-12.934h46.189
		c7.391,0,12.934,5.543,12.934,12.934C646.467,679.907,640.924,685.45,633.533,685.45z"/>
	<path d="M522.679,450.809C522.679,450.809,520.831,450.809,522.679,450.809c-147.806-11.086-184.757-127.483-184.757-188.453
		c0-3.695,1.848-7.39,3.695-9.238s5.542-3.695,9.238-3.695c177.367,5.542,182.91,186.604,182.91,186.604
		c0,3.695-1.848,7.391-3.695,9.238C528.222,448.961,524.526,450.809,522.679,450.809z M363.788,277.136
		c3.695,36.952,24.019,131.178,144.111,147.806C502.355,386.144,480.185,288.222,363.788,277.136z"/>
	<path d="M757.321,463.741c-3.695,0-5.543-1.848-9.238-3.695c-1.848-1.848-3.695-5.542-3.695-9.237
		c0-1.848,5.543-181.062,182.91-186.605c3.695,0,7.391,1.848,9.238,3.695c1.847,1.848,3.694,5.542,3.694,9.238
		C942.078,338.106,905.127,454.504,757.321,463.741C759.169,463.741,757.321,463.741,757.321,463.741z M916.213,290.069
		c-116.397,11.085-138.568,109.007-144.111,147.806C892.194,423.095,912.518,327.021,916.213,290.069z"/>
	<path d="M720.369,445.266c-22.171,0-40.646-11.086-48.036-16.628c-16.629,1.848-31.409,0-42.495-9.238
		c-18.476-12.933-24.018-36.951-24.018-48.037c-12.934-11.085-22.171-24.019-22.171-38.799
		c-1.848-24.019,14.78-46.189,22.171-55.427c-1.848-22.171,3.694-38.799,14.78-49.884c14.78-14.781,36.951-16.628,49.885-14.781
		c11.085-12.933,24.019-20.323,38.799-22.171c22.171,0,40.646,14.781,48.037,22.171c22.171-1.848,40.646,3.695,51.731,14.781
		c12.934,14.78,14.781,35.104,14.781,46.189c14.78,11.085,18.476,29.562,18.476,33.256c1.848,7.391-3.695,12.934-11.086,14.781
		c-7.39,1.847-12.933-3.695-14.78-11.086c0-5.542-3.695-14.781-9.238-16.628c-5.542-1.848-9.237-7.391-9.237-14.781
		c1.848-5.543,1.848-24.019-7.391-33.256c-7.39-7.391-18.476-9.238-36.951-7.391c-3.695,0-9.238-1.847-11.086-3.695
		c-3.694-5.543-18.476-18.476-33.256-18.476c-9.238,0-16.628,5.543-24.019,16.628c-3.695,3.695-7.391,5.542-12.933,5.542
		c-5.543-1.847-25.866-1.847-35.104,7.391c-7.391,7.39-9.237,18.476-7.391,35.104c0,3.695,0,9.238-3.694,11.085
		c-5.543,5.542-20.323,22.171-18.476,38.799c0,9.238,5.542,16.628,16.628,24.019c3.695,1.848,5.542,5.543,5.542,9.238
		c0,7.39,3.695,25.865,14.781,35.104c7.391,5.543,16.628,7.391,27.714,3.695c3.694,0,7.39,0,11.085,3.695
		c0,0,20.323,16.628,42.494,14.78c11.086-1.848,22.171-7.391,31.409-20.323c3.695-5.543,12.933-7.391,18.476-3.695
		s7.391,12.934,3.695,18.476c-12.934,18.476-29.562,29.562-48.037,31.409C724.064,445.266,722.217,445.266,720.369,445.266z"/>
	<path d="M757.321,504.388c-7.391,0-12.934-5.542-12.934-12.933v-55.428c0-7.39,5.543-12.933,12.934-12.933
		c7.39,0,12.933,5.543,12.933,12.933v55.428C770.254,496.998,764.711,504.388,757.321,504.388z"/>
	<path d="M712.979,504.388c-7.391,0-12.934-5.542-12.934-12.933v-51.732c0-7.39,5.543-12.933,12.934-12.933
		c7.39,0,12.933,5.542,12.933,12.933v51.732C725.912,496.998,720.369,504.388,712.979,504.388z"/>
	<path d="M670.485,504.388c-7.391,0-12.934-5.542-12.934-12.933v-68.36c0-7.391,5.543-12.934,12.934-12.934
		c7.39,0,12.933,5.543,12.933,12.934v68.36C683.418,496.998,676.027,504.388,670.485,504.388z"/>
	<path d="M611.362,504.388c-7.39,0-12.933-5.542-12.933-12.933V365.82c0-7.391,5.543-12.934,12.933-12.934
		c7.391,0,12.934,5.543,12.934,12.934v125.635C622.448,496.998,616.905,504.388,611.362,504.388z"/>
	<path d="M567.021,504.388c-7.39,0-12.933-5.542-12.933-12.933V343.648c0-7.39,5.543-12.933,12.933-12.933
		c7.391,0,12.934,5.543,12.934,12.933v147.807C579.954,496.998,574.411,504.388,567.021,504.388z"/>
	<path d="M522.679,504.388c-7.39,0-12.933-5.542-12.933-12.933V358.43c0-7.391,5.543-12.934,12.933-12.934
		c7.391,0,12.934,5.543,12.934,12.934v133.025C535.612,496.998,528.222,504.388,522.679,504.388z"/>
	<path d="M644.619,240.185h-1.848c-3.695,0-33.257-7.39-48.037-31.409c-5.543-9.238-9.238-20.323-7.391-33.256
		c-9.237-9.238-24.018-27.713-22.171-49.884c0-12.933,7.391-25.866,20.323-36.952c0-11.085,0-31.409,14.781-46.189
		c12.933-14.78,31.408-20.323,55.427-20.323C663.095,14.781,681.57,0,701.894,0c14.781,0,29.562,7.39,40.646,22.171l0,0
		c12.934,0,35.104,1.848,49.885,18.476c11.086,11.085,14.78,27.714,12.934,48.037c7.39,7.39,18.476,22.171,18.476,40.646
		c1.848,16.628-5.543,31.409-18.476,46.189c-1.848,24.019-11.086,60.97-40.647,60.97c-7.39,0-12.933-5.543-12.933-12.933
		s5.543-12.933,12.933-12.933c12.934,0,16.629-29.561,16.629-40.646c0-3.695,1.848-7.391,3.695-9.238
		c11.085-11.086,14.78-20.324,14.78-31.409c-1.848-16.628-14.78-27.713-14.78-27.713c-3.695,0-5.543-5.543-5.543-9.238
		c3.695-14.781,1.848-25.866-5.543-33.256c-9.238-11.085-29.562-11.085-36.951-11.085c-3.695,0-9.238-1.848-11.086-5.543
		c-7.391-11.085-16.628-16.628-25.866-16.628l0,0c-12.933,0-25.866,12.933-29.561,18.476c-1.848,3.695-7.391,5.543-11.086,5.543
		c-20.323-1.848-33.256,1.847-40.646,11.085c-11.085,12.933-7.391,33.257-7.391,33.257c1.848,5.542-1.848,11.085-5.542,12.933
		c-9.238,5.543-14.781,12.933-16.629,20.323c0,12.933,12.934,29.562,18.477,33.257c3.694,3.695,5.542,7.39,3.694,12.933
		c-1.848,7.391-1.848,14.781,1.848,20.323c7.391,11.086,25.866,18.476,31.409,18.476c7.391,1.848,11.085,7.39,9.237,14.781
		C655.704,234.642,650.162,240.185,644.619,240.185z"/>
	<path d="M426.605,293.765c-3.695,0-5.543-1.848-9.238-3.695c-20.323-18.476-29.561-38.799-27.713-59.123
		c1.847-20.323,12.933-33.256,18.475-40.646c1.848-24.019,9.238-42.494,22.172-53.58c16.628-12.933,36.951-12.933,48.036-11.085
		c9.238-7.391,25.866-20.324,44.342-22.171c16.629,0,31.409,7.39,46.189,24.018l18.476,7.391c7.391,1.848,9.238,9.238,7.391,16.628
		c-1.848,7.391-9.238,9.238-16.628,7.391l-22.171-9.238c-1.848,0-3.695-1.847-5.543-3.695
		c-9.238-11.085-18.476-18.476-27.714-18.476l0,0c-11.085,1.848-24.019,14.781-27.713,20.324c-3.695,3.695-9.238,5.542-12.934,3.695
		c0,0-22.171-5.542-35.104,3.695c-9.238,7.39-12.934,20.323-11.086,38.799c0,3.695-1.848,7.391-5.542,11.086
		c0,0-12.934,11.085-14.781,27.713c0,12.933,5.543,25.866,20.323,38.799c5.543,5.542,5.543,12.933,0,18.476
		C433.995,291.917,430.301,293.765,426.605,293.765z"/>
	<path d="M522.679,362.125c-9.237,0-22.171-1.848-35.104-9.238c-5.543-3.695-9.238-11.085-5.543-16.628s11.086-9.238,16.628-5.543
		c35.104,16.628,46.189-5.543,48.037-7.391c3.695-5.542,9.238-9.237,14.781-7.39c1.848,0,14.78,3.695,24.018-11.085
		c3.695-5.543,11.086-7.391,16.629-3.695s7.39,11.085,3.695,16.628c-11.086,20.323-29.562,24.019-42.495,24.019
		C555.936,352.887,541.154,362.125,522.679,362.125z"/>
	<circle cx="709.284" cy="317.783" r="12.933"/>
	<circle cx="696.352" cy="131.178" r="12.933"/>
	<circle cx="522.679" cy="234.642" r="12.933"/>
</g>
</svg>
