<?xml version="1.0" encoding="utf-8"?>
<!-- Generator: Adobe Illustrator 16.0.4, SVG Export Plug-In . SVG Version: 6.00 Build 0)  -->
<!DOCTYPE svg PUBLIC "-//W3C//DTD SVG 1.1//EN" "http://www.w3.org/Graphics/SVG/1.1/DTD/svg11.dtd">
<svg version="1.1" id="Layer_1" xmlns="http://www.w3.org/2000/svg" xmlns:xlink="http://www.w3.org/1999/xlink" x="0px" y="0px"
	 width="61.535px" height="60.064px" viewBox="0 0 61.535 60.064" enable-background="new 0 0 61.535 60.064" xml:space="preserve">
<g id="Layer_1_1_">
</g>
<g id="Layer_2">
	
		<rect x="10.122" y="34.923" transform="matrix(-0.707 -0.7072 0.7072 -0.707 -8.9807 85.4558)" fill="none" stroke="#033028" stroke-width="2" stroke-linecap="round" stroke-linejoin="round" stroke-miterlimit="10" width="6.178" height="19.33"/>
	
		<polyline fill="none" stroke="#033028" stroke-width="2" stroke-linecap="round" stroke-linejoin="round" stroke-miterlimit="10" points="
		5.737,23.447 10.815,20.696 13.446,15.74 25.567,27.86 13.402,15.696 3.475,13.475 5.695,23.403 17.859,35.568 22.229,39.937 
		39.336,57.044 47.044,49.337 29.938,32.23 41.183,43.665 33.6,51.246 	"/>
	<polyline fill="#231F20" stroke="#033028" stroke-miterlimit="10" points="3.475,13.475 4.333,17.535 6.836,17.029 7.685,14.416 
		3.475,13.475 	"/>
	<g>
		
			<rect x="29.673" y="17.951" transform="matrix(-0.7071 -0.7071 0.7071 -0.7071 38.2269 65.9044)" fill="none" stroke="#033028" stroke-width="2" stroke-linecap="round" stroke-linejoin="round" stroke-miterlimit="10" width="6.18" height="14.168"/>
		<path fill="none" stroke="#033028" stroke-width="2" stroke-linecap="round" stroke-linejoin="round" stroke-miterlimit="10" d="
			M35.586,17.84l-1.476-1.476l2.888-2.886c-9.814-7.322-20.357-8.979-20.357-8.979c4.726-2.352,15.53-2.723,25.315,4.021
			l1.886-1.888l7.471,7.474l-1.679,1.679c7.942,10.159,8.099,21.868,5.073,26.785c0,0-1.814-11.594-10.08-21.779l-3.046,3.046
			l-1.626-1.626"/>
	</g>
</g>
</svg>
