<?xml version="1.0" encoding="utf-8"?>
<!-- Generator: Adobe Illustrator 16.0.0, SVG Export Plug-In . SVG Version: 6.00 Build 0)  -->
<!DOCTYPE svg PUBLIC "-//W3C//DTD SVG 1.1//EN" "http://www.w3.org/Graphics/SVG/1.1/DTD/svg11.dtd">
<svg version="1.1" id="Layer_1" xmlns="http://www.w3.org/2000/svg" xmlns:xlink="http://www.w3.org/1999/xlink" x="0px" y="0px"
	 width="1271.5px" height="1084.5px" viewBox="0 0 1271.5 1084.5" enable-background="new 0 0 1271.5 1084.5" xml:space="preserve">
<path fill="#ffffff" d="M1171.344,972.25H108.657c-9.552,0-16.716-7.164-16.716-16.717V348.966c0-9.552,7.164-16.716,16.716-16.716
	h1062.687c9.553,0,16.716,7.164,16.716,16.716v606.567C1188.061,965.086,1180.896,972.25,1171.344,972.25z M125.373,938.817
	h1029.254V365.683H125.373V938.817z"/>
<path fill="#ffffff" d="M216.119,506.578c-33.433,0-62.089-26.271-62.089-62.089c0-33.434,26.269-62.089,62.089-62.089
	c35.821,0,62.09,26.269,62.09,62.089C278.209,480.309,249.552,506.578,216.119,506.578z M216.119,418.221
	c-14.328,0-28.656,11.939-28.656,28.656c0,14.328,11.94,28.657,28.656,28.657c16.717,0,28.657-11.94,28.657-28.657
	S230.448,418.221,216.119,418.221z"/>
<path fill="#ffffff" d="M216.119,905.385c-33.433,0-62.089-26.27-62.089-62.09c0-35.821,26.269-62.09,62.089-62.09
	c35.821,0,62.09,26.269,62.09,62.09C278.209,879.115,249.552,905.385,216.119,905.385z M216.119,817.026
	c-14.328,0-28.656,11.938-28.656,28.654c0,16.719,11.94,28.657,28.656,28.657c16.717,0,28.657-11.938,28.657-28.657
	C244.776,828.967,230.448,817.026,216.119,817.026z"/>
<path fill="#ffffff" d="M1071.045,905.385c-33.434,0-62.09-26.27-62.09-62.09c0-35.821,26.269-62.09,62.09-62.09
	c33.434,0,62.09,26.269,62.09,62.09C1133.135,879.115,1104.479,905.385,1071.045,905.385z M1071.045,817.026
	c-14.328,0-28.657,11.938-28.657,28.654c0,16.719,11.94,28.657,28.657,28.657s28.656-11.938,28.656-28.657
	C1099.701,828.967,1085.373,817.026,1071.045,817.026z"/>
<path fill="#ffffff" d="M1071.045,506.578c-33.434,0-62.09-26.271-62.09-62.089c0-33.434,26.269-62.089,62.09-62.089
	c33.434,0,62.09,26.269,62.09,62.089C1130.746,480.31,1104.479,506.578,1071.045,506.578z M1071.045,418.221
	c-14.328,0-28.657,11.939-28.657,28.656c0,14.328,11.94,28.657,28.657,28.657s28.656-11.94,28.656-28.657
	C1097.312,430.161,1085.373,418.221,1071.045,418.221z"/>
<path fill="#ffffff" d="M641.194,914.938c-148.062,0-269.853-119.402-269.853-269.852c0-148.06,119.403-269.851,269.853-269.851
	c150.445,0,269.851,119.402,269.851,269.851C908.656,795.533,789.254,914.938,641.194,914.938z M641.194,411.057
	c-128.956,0-236.418,105.074-236.418,236.416c0,131.346,105.072,236.418,236.418,236.418c131.343,0,236.418-105.072,236.418-236.418
	C877.612,516.131,770.149,411.057,641.194,411.057z"/>
<path fill="#ffffff" d="M980.299,871.951H791.643v-33.435h157.611c2.389-33.433,14.328-59.699,35.82-81.192
	c26.27-23.88,57.312-33.435,76.418-35.82v-148.06c-35.82-2.391-64.479-14.329-83.582-38.209
	c-23.88-26.271-31.045-59.702-31.045-81.194H784.479v-33.434h195.82l-2.389,19.104c0,0-2.389,42.984,23.881,74.029
	c16.717,19.104,42.985,26.269,76.418,26.269h16.717v212.538h-16.717l0,0c0,0-42.984,0-69.254,28.656
	c-16.716,16.717-26.271,42.984-26.271,74.03v16.716L980.299,871.951L980.299,871.951z"/>
<path fill="#ffffff" d="M488.358,871.951H299.702v-16.716c0-31.045-9.552-57.313-26.269-74.03
	c-28.656-28.656-69.253-28.656-69.253-28.656l0,0h-16.716V540.011h16.716c33.433,0,59.702-9.552,76.418-26.269
	c26.269-28.656,23.88-71.644,23.88-71.644l-2.388-19.104h195.82v33.433H335.522c-2.388,19.104-7.164,52.538-31.045,81.194
	c-19.104,21.492-47.761,33.433-83.582,38.209v145.672c19.104,2.388,52.537,11.94,76.418,35.82
	c21.493,21.493,33.433,47.762,35.821,81.192h157.612v33.435L488.358,871.951L488.358,871.951z"/>
</svg>
