<?xml version="1.0" encoding="utf-8"?>
<!-- Generator: Adobe Illustrator 16.0.0, SVG Export Plug-In . SVG Version: 6.00 Build 0)  -->
<!DOCTYPE svg PUBLIC "-//W3C//DTD SVG 1.1//EN" "http://www.w3.org/Graphics/SVG/1.1/DTD/svg11.dtd">
<svg version="1.1" id="Layer_1" xmlns="http://www.w3.org/2000/svg" xmlns:xlink="http://www.w3.org/1999/xlink" x="0px" y="0px"
	 width="25.045px" height="29.375px" viewBox="6.705 14.625 25.045 29.375" enable-background="new 6.705 14.625 25.045 29.375"
	 xml:space="preserve">
<g>
	<path opacity="0.6" fill="#FFFFFF" enable-background="new    " d="M31.261,29.442c-0.33-0.196-0.791-0.065-0.921,0.263
		L19.228,42.133L8.116,29.705c-0.198-0.328-0.592-0.394-0.92-0.263c-0.33,0.197-0.461,0.592-0.263,0.855L18.57,43.383
		c0.132,0.196,0.395,0.328,0.658,0.328s0.526-0.132,0.657-0.328l11.639-13.02C31.721,30.034,31.589,29.64,31.261,29.442z"/>
	<path opacity="0.3" fill="#FFFFFF" enable-background="new    " d="M18.57,28.917c0.132,0.196,0.395,0.329,0.658,0.329
		s0.526-0.133,0.657-0.329l11.639-13.02c0.197-0.328,0.065-0.723-0.263-0.854c-0.33-0.197-0.791-0.066-0.921,0.264l-11.112,12.36
		L8.116,15.24c-0.198-0.328-0.592-0.395-0.92-0.263c-0.33,0.198-0.461,0.592-0.263,0.92L18.57,28.917z"/>
</g>
</svg>
