<?xml version="1.0" encoding="utf-8"?>
<!-- Generator: Adobe Illustrator 16.0.0, SVG Export Plug-In . SVG Version: 6.00 Build 0)  -->
<!DOCTYPE svg PUBLIC "-//W3C//DTD SVG 1.1//EN" "http://www.w3.org/Graphics/SVG/1.1/DTD/svg11.dtd">
<svg version="1.1" id="Layer_1" xmlns="http://www.w3.org/2000/svg" xmlns:xlink="http://www.w3.org/1999/xlink" x="0px" y="0px"
	 width="510px" height="65px" viewBox="0 0 510 65" enable-background="new 0 0 510 65" xml:space="preserve">
<g>
	<g>
		<path fill="#FFFFFF" d="M12.737,59.878L4.999,39.895l3.752-0.545l5.657,15.186l5.481-15.186h3.839l-7.766,20.528H12.737z"/>
		<path fill="#FFFFFF" d="M30.146,39.35v20.528h-3.779V39.35H30.146z"/>
		<path fill="#FFFFFF" d="M35.072,55.35c0.604,0.323,1.376,0.646,2.315,0.967c0.938,0.322,1.826,0.483,2.665,0.483
			c1.194,0,2.088-0.19,2.683-0.573c0.596-0.384,0.894-0.938,0.894-1.66c0-0.686-0.395-1.293-1.187-1.826
			c-0.791-0.533-1.666-1.051-2.625-1.555c-1.406-0.744-2.754-1.621-4.044-2.625c-1.29-1.009-1.925-2.408-1.905-4.197
			c0.02-1.549,0.619-2.853,1.802-3.908c1.184-1.059,2.869-1.587,5.058-1.587c0.996,0,1.993,0.161,2.99,0.481
			c0.996,0.325,1.876,0.678,2.637,1.059l-1.259,3.142c-0.606-0.303-1.262-0.589-1.964-0.86c-0.704-0.271-1.485-0.41-2.345-0.41
			c-0.841,0-1.549,0.175-2.125,0.516c-0.576,0.344-0.865,0.866-0.865,1.568c0,0.764,0.37,1.398,1.116,1.9
			c0.74,0.504,1.62,1.038,2.637,1.6c1.426,0.746,2.788,1.623,4.088,2.629c1.299,1.007,1.938,2.384,1.918,4.134
			c-0.019,1.633-0.663,2.979-1.933,4.048c-1.271,1.064-3.106,1.602-5.511,1.602c-0.839,0-1.919-0.193-3.237-0.573
			c-1.32-0.384-2.206-0.776-2.655-1.179L35.072,55.35z"/>
		<path fill="#FFFFFF" d="M54.914,39.35V52.12c0,1.712,0.399,2.955,1.202,3.728c0.801,0.778,1.835,1.164,3.105,1.164
			c1.292,0,2.33-0.402,3.123-1.209c0.79-0.802,1.188-2.029,1.188-3.683V39.35h3.84v13.073c0,2.214-0.733,4.062-2.198,5.536
			c-1.465,1.48-3.449,2.229-5.952,2.253c-2.5,0.021-4.479-0.721-5.934-2.22c-1.456-1.499-2.184-3.355-2.184-5.569L51.075,39.35
			H54.914z"/>
		<path fill="#FFFFFF" d="M80.854,39.35l7.738,19.985l-3.811,0.543l-1.788-4.829h-7.561l-1.759,4.829h-3.811L77.63,39.35H80.854z
			 M79.153,44.725l-2.607,7.152h5.275L79.153,44.725z"/>
		<path fill="#FFFFFF" d="M104.39,59.878H91.229V39.35h3.781v17.479h8.795L104.39,59.878z"/>
		<path fill="#FFFFFF" d="M110.925,39.35v20.528h-3.781V39.35H110.925z"/>
		<path fill="#FFFFFF" d="M129.655,42.432L117.96,56.829h11.489l0.439,3.049h-15.592l-0.439-3.049l11.373-14.397h-10.083
			l-0.441-3.082h14.509L129.655,42.432z"/>
		<path fill="#FFFFFF" d="M141.526,39.35l7.737,19.985l-3.809,0.543l-1.788-4.829h-7.563l-1.758,4.829h-3.811l7.768-20.528H141.526z
			 M139.825,44.725l-2.607,7.152h5.276L139.825,44.725z"/>
		<path fill="#FFFFFF" d="M149.615,39.35h16.121l0.616,3.082h-6.828v17.446h-3.841V42.432h-6.067L149.615,39.35L149.615,39.35z"/>
		<path fill="#FFFFFF" d="M172.74,39.35v20.528h-3.78V39.35H172.74z"/>
		<path fill="#FFFFFF" d="M176.874,49.706c0-3.159,0.8-5.742,2.403-7.743c1.602-2.003,3.859-3.033,6.771-3.096
			c3.125,0,5.44,1.037,6.946,3.107c1.503,2.075,2.257,4.58,2.257,7.521c0,3.176-0.805,5.757-2.418,7.74
			c-1.611,1.981-3.874,3.004-6.784,3.062c-3.108,0-5.414-1.031-6.917-3.094C177.625,55.143,176.874,52.645,176.874,49.706z
			 M180.832,49.676c0,2.154,0.42,3.912,1.26,5.282c0.84,1.369,2.148,2.053,3.927,2.053c1.602,0,2.883-0.614,3.84-1.84
			c0.956-1.231,1.435-3.121,1.435-5.674c0-2.138-0.42-3.888-1.26-5.255c-0.839-1.371-2.148-2.055-3.927-2.055
			c-1.563,0-2.833,0.676-3.81,2.021C181.318,45.561,180.832,47.384,180.832,49.676z"/>
		<path fill="#FFFFFF" d="M216.208,39.35v20.528h-3.81l-9.233-13.735v13.735h-3.782V39.35h3.782l9.233,13.709V39.35H216.208z"/>
		<path fill="#FFFFFF" d="M227.257,49.706c0-3.159,0.8-5.742,2.405-7.743c1.602-2.003,3.86-3.033,6.77-3.096
			c3.126,0,5.441,1.037,6.947,3.107c1.505,2.075,2.256,4.58,2.256,7.521c0,3.176-0.805,5.757-2.418,7.74
			c-1.611,1.981-3.874,3.004-6.785,3.062c-3.106,0-5.413-1.031-6.917-3.094C228.01,55.143,227.257,52.645,227.257,49.706z
			 M231.215,49.676c0,2.154,0.42,3.912,1.26,5.282c0.84,1.369,2.149,2.053,3.928,2.053c1.602,0,2.883-0.614,3.84-1.84
			c0.957-1.231,1.436-3.121,1.436-5.674c0-2.138-0.422-3.888-1.26-5.255c-0.843-1.371-2.149-2.055-3.928-2.055
			c-1.563,0-2.834,0.676-3.811,2.021C231.703,45.561,231.215,47.384,231.215,49.676z"/>
		<path fill="#FFFFFF" d="M259.178,51.186h-5.628v8.692h-3.781V39.35h11.284l0.586,3.082h-8.089v5.703h5.071L259.178,51.186z"/>
		<path fill="#FFFFFF" d="M275.004,39.35V52.12c0,1.712,0.402,2.955,1.201,3.728c0.801,0.778,1.839,1.164,3.109,1.164
			c1.287,0,2.328-0.402,3.119-1.209c0.791-0.802,1.187-2.029,1.187-3.683V39.35h3.841v13.073c0,2.214-0.732,4.062-2.197,5.536
			c-1.466,1.48-3.449,2.229-5.949,2.253c-2.502,0.021-4.479-0.721-5.938-2.22c-1.454-1.499-2.184-3.355-2.184-5.569l-0.029-13.073
			H275.004L275.004,39.35z"/>
		<path fill="#FFFFFF" d="M292.24,55.471c0.604,0,1.107,0.211,1.51,0.637c0.398,0.42,0.6,0.942,0.6,1.566
			c0,0.627-0.201,1.149-0.6,1.57c-0.402,0.423-0.906,0.634-1.51,0.634c-0.605,0-1.121-0.211-1.539-0.634
			c-0.42-0.421-0.631-0.943-0.631-1.57c0-0.624,0.211-1.146,0.631-1.566C291.119,55.682,291.635,55.471,292.24,55.471z"/>
		<path fill="#FFFFFF" d="M297.135,55.35c0.604,0.323,1.375,0.646,2.315,0.967c0.938,0.322,1.825,0.483,2.668,0.483
			c1.19,0,2.085-0.19,2.679-0.573c0.598-0.384,0.896-0.938,0.896-1.66c0-0.686-0.396-1.293-1.188-1.826s-1.668-1.051-2.623-1.555
			c-1.405-0.744-2.757-1.621-4.045-2.625c-1.291-1.009-1.926-2.408-1.905-4.197c0.02-1.549,0.619-2.853,1.803-3.908
			c1.182-1.059,2.869-1.587,5.055-1.587c0.998,0,1.997,0.161,2.99,0.481c0.998,0.325,1.877,0.678,2.639,1.059l-1.26,3.142
			c-0.605-0.303-1.262-0.589-1.965-0.86s-1.484-0.41-2.346-0.41c-0.837,0-1.548,0.175-2.123,0.516
			c-0.576,0.344-0.865,0.866-0.865,1.568c0,0.764,0.373,1.398,1.115,1.9c0.739,0.504,1.621,1.038,2.637,1.6
			c1.427,0.746,2.791,1.623,4.089,2.629c1.299,1.007,1.938,2.384,1.919,4.134c-0.021,1.633-0.663,2.979-1.935,4.048
			c-1.27,1.064-3.106,1.602-5.51,1.602c-0.842,0-1.918-0.193-3.239-0.573c-1.318-0.384-2.203-0.776-2.651-1.179L297.135,55.35z"/>
		<path fill="#FFFFFF" d="M313.312,55.471c0.605,0,1.109,0.211,1.513,0.637c0.397,0.42,0.598,0.942,0.598,1.566
			c0,0.627-0.199,1.149-0.598,1.57c-0.402,0.423-0.906,0.634-1.513,0.634c-0.604,0-1.118-0.211-1.537-0.634
			c-0.421-0.421-0.633-0.943-0.633-1.57c0-0.624,0.212-1.146,0.633-1.566C312.193,55.682,312.707,55.471,313.312,55.471z"/>
		<path fill="#FFFFFF" d="M325.123,59.878V39.35h6.245c2.167,0,4.024,0.512,5.568,1.527s2.316,2.701,2.316,5.055
			c-0.021,2.336-0.856,4.051-2.508,5.146c-1.652,1.097-3.533,1.648-5.643,1.648h-2.199v7.151H325.123z M331.253,42.607h-2.349v6.89
			h2.405c1.132,0,2.051-0.269,2.753-0.804c0.704-0.532,1.096-1.371,1.176-2.519c0-1.331-0.354-2.252-1.058-2.78
			C333.477,42.871,332.502,42.607,331.253,42.607z"/>
		<path fill="#FFFFFF" d="M346.579,39.35V52.12c0,1.712,0.399,2.955,1.201,3.728c0.802,0.778,1.839,1.164,3.109,1.164
			c1.287,0,2.328-0.402,3.119-1.209c0.792-0.802,1.188-2.029,1.188-3.683V39.35h3.839v13.073c0,2.214-0.731,4.062-2.196,5.536
			c-1.469,1.48-3.45,2.229-5.949,2.253c-2.506,0.021-4.48-0.721-5.938-2.22c-1.456-1.499-2.185-3.355-2.185-5.569L342.74,39.35
			H346.579z"/>
		<path fill="#FFFFFF" d="M371.258,39.35c1.937,0,3.508,0.44,4.721,1.315c1.212,0.876,1.817,2.353,1.817,4.424
			c0,0.763-0.171,1.451-0.515,2.065c-0.345,0.613-0.785,1.144-1.331,1.586c0.896,0.482,1.636,1.138,2.21,1.963
			c0.577,0.822,0.867,1.867,0.867,3.139c0,1.893-0.64,3.371-1.922,4.436c-1.281,1.068-2.984,1.602-5.112,1.602h-8.179V39.35H371.258
			z M370.703,42.607h-3.107v5.107h2.815c1.054,0,1.878-0.208,2.475-0.621c0.596-0.412,0.895-1.062,0.895-1.947
			c0-0.965-0.272-1.629-0.82-1.994C372.414,42.793,371.658,42.607,370.703,42.607z M371.959,50.885h-4.363v5.764h4.104
			c1.014,0,1.83-0.241,2.447-0.726c0.615-0.483,0.924-1.164,0.924-2.053c0-0.966-0.285-1.705-0.851-2.22
			C373.653,51.139,372.902,50.885,371.959,50.885z"/>
		<path fill="#FFFFFF" d="M396.058,59.878h-13.161V39.35h3.781v17.479h8.791L396.058,59.878z"/>
		<path fill="#FFFFFF" d="M402.591,39.35v20.528h-3.78V39.35H402.591z"/>
		<path fill="#FFFFFF" d="M419.854,43.064c-0.858-0.264-1.56-0.467-2.108-0.619c-0.548-0.153-1.25-0.229-2.111-0.229
			c-1.582,0-2.803,0.664-3.662,1.992c-0.86,1.33-1.288,3.15-1.288,5.466c0,1.99,0.359,3.712,1.083,5.161
			c0.722,1.447,1.932,2.174,3.634,2.174c0.843,0,1.626-0.092,2.359-0.27c0.732-0.184,1.403-0.403,2.01-0.668l1.434,2.902
			c-0.761,0.398-1.68,0.724-2.752,0.963c-1.074,0.244-2.023,0.361-2.845,0.361c-3.105,0-5.363-1.025-6.771-3.078
			c-1.406-2.052-2.11-4.557-2.11-7.517c0-3.159,0.774-5.747,2.332-7.759c1.552-2.012,3.783-3.019,6.694-3.019
			c0.589,0,1.398,0.099,2.438,0.302c1.031,0.201,1.98,0.541,2.84,1.023L419.854,43.064z"/>
		<path fill="#FFFFFF" d="M439.084,59.91v-0.032h-7.27V39.35h7.27c3.106-0.019,5.411,0.933,6.916,2.855
			c1.502,1.921,2.258,4.352,2.258,7.292c0,3.176-0.803,5.694-2.404,7.545C444.249,58.893,441.992,59.848,439.084,59.91z
			 M439.229,42.668h-3.634v13.92h3.432c1.601,0,2.885-0.542,3.854-1.63c0.966-1.088,1.45-2.908,1.45-5.461
			c0-2.138-0.412-3.806-1.233-5.013C442.278,43.273,440.987,42.668,439.229,42.668z"/>
		<path fill="#FFFFFF" d="M461.124,39.35l7.739,19.985l-3.811,0.543l-1.79-4.829h-7.562l-1.757,4.829h-3.813l7.769-20.528H461.124z
			 M459.423,44.725l-2.605,7.152h5.276L459.423,44.725z"/>
		<path fill="#FFFFFF" d="M469.213,39.35h16.123l0.612,3.082h-6.827v17.446h-3.842V42.432h-6.066V39.35L469.213,39.35z"/>
		<path fill="#FFFFFF" d="M497.264,39.35l7.737,19.985l-3.812,0.543l-1.787-4.829h-7.562l-1.759,4.829h-3.812l7.769-20.528H497.264z
			 M495.561,44.725l-2.607,7.152h5.277L495.561,44.725z"/>
	</g>
</g>
<g>
	<g>
		<path fill="#FFFFFF" d="M99.294,6.1h-5.901v17.12h-2.156V6.1h-5.739V4.35H99.05L99.294,6.1z"/>
		<path fill="#FFFFFF" d="M112.981,23.22v-8.629h-8.622v8.629h-2.128V4.35l2.128-0.137v8.63h8.622V4.35h2.129v18.87H112.981z"/>
		<path fill="#FFFFFF" d="M120.471,23.22V4.35h10.024c0.034,0.278,0.072,0.558,0.107,0.833c0.036,0.278,0.08,0.556,0.134,0.833
			H122.6v6.744h5.282c0.036,0.276,0.07,0.554,0.107,0.832c0.035,0.276,0.082,0.555,0.134,0.831H122.6v7.078h8.678l0.243,1.719
			H120.471z"/>
		<path fill="#FFFFFF" d="M148.898,17.005l-5.445-8.051V23.22h-2.1V4.35h1.24l6.6,9.628l6.36-9.628h1.347v18.87h-2.156V9.013
			l-5.118,7.854L148.898,17.005z"/>
		<path fill="#FFFFFF" d="M161.452,13.868c0-2.79,0.693-5.137,2.077-7.033c1.382-1.896,3.403-2.872,6.062-2.928
			c2.819,0,4.864,0.977,6.129,2.928c1.266,1.951,1.898,4.223,1.898,6.812c0,2.701-0.695,5.026-2.086,6.98
			c-1.392,1.949-3.419,2.944-6.077,2.981c-2.82,0-4.859-0.977-6.116-2.927C162.083,18.728,161.452,16.459,161.452,13.868z
			 M163.691,13.84c0,2.186,0.458,4.045,1.373,5.578c0.918,1.536,2.363,2.304,4.338,2.304c1.814,0,3.254-0.733,4.324-2.204
			c1.069-1.47,1.604-3.42,1.604-5.843c0-2.185-0.458-4.032-1.374-5.549c-0.916-1.519-2.364-2.277-4.338-2.277
			c-1.796,0-3.234,0.746-4.312,2.234C164.229,9.574,163.691,11.49,163.691,13.84z"/>
		<path fill="#FFFFFF" d="M181.609,20.586c0.485,0.239,1.135,0.488,1.954,0.75c0.816,0.259,1.666,0.386,2.545,0.386
			c1.419,0,2.507-0.28,3.26-0.843c0.755-0.565,1.132-1.302,1.132-2.209c0-2-1.616-3.45-4.849-4.357
			c-3.233-0.906-4.851-2.781-4.851-5.633c0-1.332,0.521-2.461,1.564-3.385c1.042-0.926,2.469-1.388,4.284-1.388
			c0.915,0,1.782,0.119,2.601,0.359c0.816,0.24,1.512,0.51,2.088,0.805c-0.108,0.298-0.225,0.584-0.349,0.862
			c-0.127,0.277-0.253,0.562-0.378,0.859c-0.468-0.241-0.997-0.464-1.59-0.667c-0.593-0.203-1.336-0.304-2.236-0.304
			c-1.131,0-2.066,0.238-2.803,0.721c-0.737,0.48-1.104,1.176-1.104,2.082c0,2.054,1.62,3.542,4.863,4.468
			c3.242,0.924,4.863,2.764,4.863,5.523c0,1.443-0.561,2.629-1.684,3.563c-1.123,0.936-2.715,1.401-4.783,1.401
			c-0.771,0-1.719-0.138-2.842-0.416c-1.122-0.277-1.855-0.562-2.194-0.859c0.071-0.275,0.153-0.56,0.242-0.847
			C181.428,21.171,181.517,20.883,181.609,20.586z"/>
		<path fill="#FFFFFF" d="M207.988,6.1h-5.902v17.12h-2.156V6.1h-5.739V4.35h13.553L207.988,6.1z"/>
		<path fill="#FFFFFF" d="M228.464,6.655c-0.611-0.241-1.186-0.437-1.723-0.584c-0.541-0.148-1.27-0.223-2.184-0.223
			c-1.796,0.021-3.22,0.766-4.27,2.25c-1.051,1.48-1.576,3.403-1.576,5.77c0,2.147,0.443,3.99,1.333,5.535
			c0.889,1.546,2.313,2.318,4.271,2.318c0.916,0,1.691-0.085,2.329-0.248c0.637-0.168,1.208-0.37,1.711-0.611l0.809,1.666
			c-0.557,0.296-1.298,0.549-2.222,0.762c-0.924,0.214-1.766,0.319-2.519,0.319c-2.822,0-4.85-0.965-6.091-2.901
			c-1.24-1.933-1.857-4.201-1.857-6.814c0-2.792,0.687-5.145,2.059-7.059c1.376-1.916,3.382-2.872,6.023-2.872
			c0.557,0,1.316,0.082,2.277,0.25c0.96,0.166,1.728,0.442,2.302,0.831L228.464,6.655z"/>
		<path fill="#FFFFFF" d="M232.588,13.868c0-2.79,0.69-5.137,2.073-7.033c1.384-1.896,3.404-2.872,6.063-2.928
			c2.82,0,4.864,0.977,6.129,2.928c1.267,1.951,1.9,4.223,1.9,6.812c0,2.701-0.697,5.026-2.089,6.98
			c-1.391,1.949-3.417,2.944-6.075,2.981c-2.822,0-4.86-0.977-6.118-2.927C233.215,18.728,232.588,16.459,232.588,13.868z
			 M234.824,13.84c0,2.186,0.458,4.045,1.373,5.578c0.917,1.536,2.364,2.304,4.338,2.304c1.815,0,3.257-0.733,4.326-2.204
			c1.067-1.47,1.602-3.42,1.602-5.843c0-2.185-0.458-4.032-1.374-5.549c-0.917-1.519-2.362-2.277-4.338-2.277
			c-1.797,0-3.233,0.746-4.311,2.234C235.362,9.574,234.824,11.49,234.824,13.84z"/>
		<path fill="#FFFFFF" d="M260.824,17.005l-5.442-8.051V23.22h-2.103V4.35h1.239l6.603,9.628l6.359-9.628h1.348v18.87h-2.157V9.013
			l-5.119,7.854L260.824,17.005z"/>
		<path fill="#FFFFFF" d="M274.215,23.22V4.35h4.985c1.923,0,3.53,0.44,4.823,1.319c1.293,0.877,1.938,2.363,1.938,4.453
			c-0.017,2.073-0.718,3.586-2.101,4.538c-1.385,0.953-3.035,1.43-4.959,1.43h-2.586v7.13H274.215z M279.2,6.211h-2.882v8.021h2.693
			c1.329,0,2.447-0.312,3.354-0.93c0.905-0.619,1.366-1.649,1.387-3.095c0-1.517-0.407-2.562-1.226-3.137
			C281.711,6.495,280.602,6.211,279.2,6.211z"/>
		<path fill="#FFFFFF" d="M300.783,23.22l-4.231-7.853c-0.304,0.039-0.614,0.063-0.929,0.084c-0.314,0.018-0.645,0.028-0.984,0.028
			h-2.587v7.74h-2.101V4.35h4.984c1.922,0,3.53,0.422,4.824,1.263c1.291,0.844,1.938,2.254,1.938,4.232
			c-0.016,1.28-0.326,2.319-0.928,3.12c-0.604,0.807-1.379,1.416-2.33,1.818l4.688,8.437H300.783z M294.938,6.211h-2.886v7.464
			h2.694c1.295,0,2.408-0.269,3.344-0.805c0.932-0.533,1.398-1.517,1.398-2.943c0-1.479-0.42-2.47-1.266-2.967
			C297.379,6.46,296.283,6.211,294.938,6.211z"/>
		<path fill="#FFFFFF" d="M306.927,23.22V4.35h10.022c0.035,0.278,0.072,0.558,0.108,0.833c0.033,0.278,0.078,0.556,0.134,0.833
			h-8.138v6.744h5.281c0.036,0.276,0.071,0.554,0.107,0.832c0.034,0.276,0.08,0.555,0.134,0.831h-5.522v7.078h8.678l0.242,1.719
			H306.927z"/>
		<path fill="#FFFFFF" d="M332.174,23.22v-8.629h-8.623v8.629h-2.129V4.35l2.129-0.137v8.63h8.623V4.35h2.128v18.87H332.174z"/>
		<path fill="#FFFFFF" d="M339.662,23.22V4.35h10.023c0.036,0.278,0.071,0.558,0.108,0.833c0.034,0.278,0.079,0.556,0.135,0.833
			h-8.139v6.744h5.283c0.035,0.276,0.068,0.554,0.104,0.832c0.037,0.276,0.08,0.555,0.135,0.831h-5.522v7.078h8.678l0.242,1.719
			H339.662z"/>
		<path fill="#FFFFFF" d="M354.159,23.22V4.35h1.699l8.915,12.766l1.104,1.86V4.35h2.156v18.87h-1.697L356.99,9.65l-0.701-1.221
			v14.79h-2.13V23.22z"/>
		<path fill="#FFFFFF" d="M372.857,20.586c0.485,0.239,1.138,0.488,1.954,0.75c0.817,0.259,1.666,0.386,2.546,0.386
			c1.42,0,2.508-0.28,3.264-0.843c0.753-0.565,1.131-1.302,1.131-2.209c0-2-1.617-3.45-4.852-4.357
			c-3.232-0.906-4.85-2.781-4.85-5.633c0-1.332,0.521-2.461,1.563-3.385c1.039-0.926,2.468-1.388,4.284-1.388
			c0.915,0,1.778,0.119,2.599,0.359c0.818,0.24,1.512,0.51,2.088,0.805c-0.109,0.298-0.228,0.584-0.349,0.862
			c-0.13,0.277-0.255,0.562-0.378,0.859c-0.47-0.241-0.996-0.464-1.591-0.667c-0.596-0.203-1.337-0.304-2.237-0.304
			c-1.131,0-2.066,0.238-2.801,0.721c-0.737,0.48-1.105,1.176-1.105,2.082c0,2.054,1.622,3.542,4.863,4.468
			c3.244,0.924,4.86,2.764,4.86,5.523c0,1.443-0.561,2.629-1.682,3.563c-1.123,0.936-2.718,1.401-4.782,1.401
			c-0.771,0-1.721-0.138-2.844-0.416c-1.124-0.277-1.853-0.562-2.196-0.859c0.073-0.275,0.152-0.56,0.244-0.847
			C372.679,21.171,372.768,20.883,372.857,20.586z"/>
		<path fill="#FFFFFF" d="M387.866,23.22V4.35h2.13v18.87H387.866z"/>
		<path fill="#FFFFFF" d="M399.857,23.22l-7.007-18.507l2.076-0.363l5.949,16.014l5.77-16.014h2.072l-6.789,18.87H399.857z"/>
		<path fill="#FFFFFF" d="M411.551,23.22V4.35h10.025c0.034,0.278,0.072,0.558,0.105,0.833c0.034,0.278,0.08,0.556,0.136,0.833
			h-8.138v6.744h5.28c0.035,0.276,0.072,0.554,0.106,0.832c0.037,0.276,0.083,0.555,0.135,0.831h-5.521v7.078h8.677l0.241,1.719
			H411.551z"/>
	</g>
</g>
</svg>
